<svg xmlns="http://www.w3.org/2000/svg" width="375.608" height="262.478" viewBox="0 0 375.608 262.478">
  <g id="Grupo_906575" data-name="Grupo 906575" transform="translate(-1032.426 -4348.519)">
    <g id="Grupo_903831" data-name="Grupo 903831" transform="translate(829.976 -2866.992)">
      <g id="Grupo_880390" data-name="Grupo 880390" transform="translate(202.99 7217.511)">
        <g id="Trazado_629218" data-name="Trazado 629218" transform="translate(82.936 0)" fill="none">
          <path d="M33.909,0H214.552a33.909,33.909,0,0,1,33.909,33.909V202.855a33.909,33.909,0,0,1-33.909,33.909H33.909A33.909,33.909,0,0,1,0,202.855V33.909A33.909,33.909,0,0,1,33.909,0Z" stroke="none"/>
          <path d="M 33.90878295898438 2.999984741210938 C 29.73481750488281 2.999984741210938 25.68728637695312 3.816787719726562 21.87861633300781 5.427719116210938 C 18.19839477539062 6.98431396484375 14.89254760742188 9.21337890625 12.05294799804688 12.05294799804688 C 9.213394165039062 14.89254760742188 6.984329223632812 18.19837951660156 5.427719116210938 21.87861633300781 C 3.816787719726562 25.68728637695312 2.999984741210938 29.73481750488281 2.999984741210938 33.90878295898438 L 2.999984741210938 202.8553161621094 C 2.999984741210938 207.0292816162109 3.816787719726562 211.0768127441406 5.427719116210938 214.8854827880859 C 6.984329223632812 218.5657196044922 9.213394165039062 221.8715515136719 12.05294799804688 224.7111206054688 C 14.89254760742188 227.5506896972656 18.19839477539062 229.7797546386719 21.87861633300781 231.3363494873047 C 25.68728637695312 232.9472808837891 29.73481750488281 233.7640838623047 33.90878295898438 233.7640838623047 L 214.5516967773438 233.7640838623047 C 218.7256469726562 233.7640838623047 222.7732238769531 232.9472808837891 226.5818481445312 231.3363494873047 C 230.2621154785156 229.7797546386719 233.5679626464844 227.5506896972656 236.4075164794922 224.7111206054688 C 239.2471160888672 221.8715515136719 241.4761505126953 218.5657196044922 243.0327911376953 214.8854827880859 C 244.6437225341797 211.0768127441406 245.4605255126953 207.0292816162109 245.4605255126953 202.8553161621094 L 245.4605255126953 33.90878295898438 C 245.4605255126953 29.73481750488281 244.6437225341797 25.68728637695312 243.0327911376953 21.87861633300781 C 241.4761505126953 18.19837951660156 239.2471160888672 14.89254760742188 236.4075164794922 12.052978515625 C 233.5679626464844 9.21337890625 230.2621154785156 6.98431396484375 226.5818481445312 5.427719116210938 C 222.7732238769531 3.816787719726562 218.7256469726562 2.999984741210938 214.5516967773438 2.999984741210938 L 33.90878295898438 2.999984741210938 M 33.90878295898438 -1.52587890625e-05 L 214.5516967773438 -1.52587890625e-05 C 233.2789916992188 -1.52587890625e-05 248.4605255126953 15.18148803710938 248.4605255126953 33.90878295898438 L 248.4605255126953 202.8553161621094 C 248.4605255126953 221.5826110839844 233.2789916992188 236.7640838623047 214.5516967773438 236.7640838623047 L 33.90878295898438 236.7640838623047 C 15.18148803710938 236.7640838623047 -1.52587890625e-05 221.5826110839844 -1.52587890625e-05 202.8553161621094 L -1.52587890625e-05 33.90878295898438 C -1.52587890625e-05 15.18148803710938 15.18148803710938 -1.52587890625e-05 33.90878295898438 -1.52587890625e-05 Z" stroke="none" fill="#21cbae"/>
        </g>
        <g id="Grupo_2" data-name="Grupo 2" transform="translate(45.644 8.035)">
          <path id="Trazado_1" data-name="Trazado 1" d="M30.075-75.2-45.679.555q.526,3.249,1.361,6.386L36.461-73.838Q33.326-74.671,30.075-75.2Z" transform="translate(46.542 76.062)" fill="none" stroke="#fecb2f" stroke-miterlimit="10" stroke-width="1.078"/>
          <path id="Trazado_2" data-name="Trazado 2" d="M37.584-72.715-43.195,8.064q.8,3,1.861,5.887L43.471-70.854Q40.589-71.919,37.584-72.715Z" transform="translate(45.419 74.939)" fill="none" stroke="#fecb2f" stroke-miterlimit="10" stroke-width="1.078"/>
          <path id="Trazado_3" data-name="Trazado 3" d="M74-48.491l-92.97,92.97c1.178,1.4,2.407,2.755,3.7,4.051L78.051-44.794C76.754-46.083,75.4-47.313,74-48.491Z" transform="translate(34.469 63.989)" fill="none" stroke="#fecb2f" stroke-miterlimit="10" stroke-width="1.078"/>
          <path id="Trazado_4" data-name="Trazado 4" d="M66.842-54.647l-91.97,91.97q1.6,2.257,3.374,4.374l92.97-92.97Q69.1-53.052,66.842-54.647Z" transform="translate(37.252 66.772)" fill="none" stroke="#fecb2f" stroke-miterlimit="10" stroke-width="1.078"/>
          <path id="Trazado_5" data-name="Trazado 5" d="M52.351-65.12-35.6,22.831c.824,1.729,1.728,3.412,2.694,5.054L57.405-62.426C55.763-63.392,54.081-64.3,52.351-65.12Z" transform="translate(41.986 71.506)" fill="none" stroke="#fecb2f" stroke-miterlimit="10" stroke-width="1.078"/>
          <path id="Trazado_6" data-name="Trazado 6" d="M59.627-60.2-30.684,30.108q1.424,2.421,3.045,4.7l91.97-91.97Q62.048-58.777,59.627-60.2Z" transform="translate(39.764 69.283)" fill="none" stroke="#fecb2f" stroke-miterlimit="10" stroke-width="1.078"/>
          <path id="Trazado_7" data-name="Trazado 7" d="M45.006-69.319-39.8,15.486q1.03,2.786,2.3,5.447L50.453-67.018Q47.793-68.285,45.006-69.319Z" transform="translate(43.884 73.404)" fill="none" stroke="#fecb2f" stroke-miterlimit="10" stroke-width="1.078"/>
          <path id="Trazado_8" data-name="Trazado 8" d="M-38.97-31.08-1.561-68.489A66.177,66.177,0,0,0-38.97-31.08Z" transform="translate(43.509 73.029)" fill="none" stroke="#fecb2f" stroke-miterlimit="10" stroke-width="1.078"/>
          <path id="Trazado_9" data-name="Trazado 9" d="M-4.235-71.163-41.644-33.754a65.416,65.416,0,0,0-3.241,10.989L6.755-74.4A65.438,65.438,0,0,0-4.235-71.163Z" transform="translate(46.183 75.703)" fill="none" stroke="#fecb2f" stroke-miterlimit="10" stroke-width="1.078"/>
          <path id="Trazado_10" data-name="Trazado 10" d="M22.46-76.583-47.064-7.06a66.163,66.163,0,0,0,.759,6.99L29.449-75.825A66.18,66.18,0,0,0,22.46-76.583Z" transform="translate(47.168 76.687)" fill="none" stroke="#fecb2f" stroke-miterlimit="10" stroke-width="1.078"/>
          <path id="Trazado_11" data-name="Trazado 11" d="M18.742-76.773c-1.4,0-2.78.058-4.156.144l-61.7,61.7c-.085,1.375-.144,2.759-.144,4.156,0,1.219.038,2.429.1,3.631L22.374-76.669C21.171-76.734,19.962-76.773,18.742-76.773Z" transform="translate(47.253 76.773)" fill="none" stroke="#fecb2f" stroke-miterlimit="10" stroke-width="1.078"/>
          <path id="Trazado_12" data-name="Trazado 12" d="M5.8-75.357l-51.64,51.64a66.023,66.023,0,0,0-1.154,8.9l61.7-61.7A66.115,66.115,0,0,0,5.8-75.357Z" transform="translate(47.135 76.655)" fill="none" stroke="#fecb2f" stroke-miterlimit="10" stroke-width="1.078"/>
          <path id="Trazado_13" data-name="Trazado 13" d="M129.081,23.422l-76.14,76.14a66.056,66.056,0,0,0,6.945.8l70-70A66.01,66.01,0,0,0,129.081,23.422Z" transform="translate(1.964 31.483)" fill="none" stroke="#fecb2f" stroke-miterlimit="10" stroke-width="1.078"/>
          <path id="Trazado_14" data-name="Trazado 14" d="M135.756,40.241c0-1.394-.058-2.774-.143-4.146l-70,70c1.373.085,2.753.143,4.146.143,1.194,0,2.379-.036,3.557-.1L135.658,43.8C135.72,42.62,135.756,41.435,135.756,40.241Z" transform="translate(-3.765 25.755)" fill="none" stroke="#fecb2f" stroke-miterlimit="10" stroke-width="1.078"/>
          <path id="Trazado_15" data-name="Trazado 15" d="M142.012,50.152l-62.341,62.34a66.031,66.031,0,0,0,8.827-1.079l52.435-52.434A66.13,66.13,0,0,0,142.012,50.152Z" transform="translate(-10.119 19.401)" fill="none" stroke="#fecb2f" stroke-miterlimit="10" stroke-width="1.078"/>
          <path id="Trazado_16" data-name="Trazado 16" d="M148.214,66.26,95.779,118.694a65.465,65.465,0,0,0,10.75-3L145.212,77.01A65.586,65.586,0,0,0,148.214,66.26Z" transform="translate(-17.4 12.12)" fill="none" stroke="#fecb2f" stroke-miterlimit="10" stroke-width="1.078"/>
          <path id="Trazado_17" data-name="Trazado 17" d="M154.079,85.877,115.4,124.56A66.182,66.182,0,0,0,154.079,85.877Z" transform="translate(-26.267 3.252)" fill="none" stroke="#fecb2f" stroke-miterlimit="10" stroke-width="1.078"/>
          <path id="Trazado_18" data-name="Trazado 18" d="M122.445,11.837,41.357,92.925q3.116.852,6.348,1.4l76.14-76.14Q123.3,14.955,122.445,11.837Z" transform="translate(7.2 36.72)" fill="none" stroke="#fecb2f" stroke-miterlimit="10" stroke-width="1.078"/>
          <path id="Trazado_19" data-name="Trazado 19" d="M95.128-26.455,3.065,65.608c1.514,1.086,3.07,2.115,4.675,3.073L98.2-21.78C97.244-23.385,96.214-24.941,95.128-26.455Z" transform="translate(24.508 54.028)" fill="none" stroke="#fecb2f" stroke-miterlimit="10" stroke-width="1.078"/>
          <path id="Trazado_20" data-name="Trazado 20" d="M88.141-34.388l-93.01,93.01q2.1,1.789,4.348,3.4L91.542-30.041Q89.93-32.286,88.141-34.388Z" transform="translate(28.095 57.614)" fill="none" stroke="#fecb2f" stroke-miterlimit="10" stroke-width="1.078"/>
          <path id="Trazado_21" data-name="Trazado 21" d="M115.722,1.157,30.676,86.2q2.865,1.082,5.853,1.9L117.617,7.009Q116.8,4.025,115.722,1.157Z" transform="translate(12.028 41.547)" fill="none" stroke="#fecb2f" stroke-miterlimit="10" stroke-width="1.078"/>
          <path id="Trazado_22" data-name="Trazado 22" d="M81.1-41.745-12.225,51.58c1.288,1.3,2.639,2.531,4.031,3.717l93.01-93.01C83.63-39.106,82.4-40.456,81.1-41.745Z" transform="translate(31.42 60.94)" fill="none" stroke="#fecb2f" stroke-miterlimit="10" stroke-width="1.078"/>
          <path id="Trazado_23" data-name="Trazado 23" d="M108.924-8.746,20.773,79.4c1.765.855,3.578,1.624,5.427,2.321L111.246-3.319C110.548-5.168,109.779-6.981,108.924-8.746Z" transform="translate(16.504 46.024)" fill="none" stroke="#fecb2f" stroke-miterlimit="10" stroke-width="1.078"/>
          <path id="Trazado_24" data-name="Trazado 24" d="M102.058-17.923,11.6,72.537c1.633.974,3.308,1.886,5.028,2.719l88.151-88.151C103.944-14.615,103.031-16.289,102.058-17.923Z" transform="translate(20.652 50.172)" fill="none" stroke="#fecb2f" stroke-miterlimit="10" stroke-width="1.078"/>
        </g>
        <g id="Grupo_91" data-name="Grupo 91" transform="translate(242.634 128.043)">
          <g id="Grupo_68" data-name="Grupo 68" transform="translate(58.214 0)">
            <g id="Grupo_67" data-name="Grupo 67" transform="translate(0)">
              <rect id="Rectángulo_193" data-name="Rectángulo 193" width="2.328" height="2.328" transform="translate(70.928 72.574) rotate(-44.999)" fill="#ef3c79"/>
              <rect id="Rectángulo_194" data-name="Rectángulo 194" width="2.209" height="2.209" transform="translate(64.48 66.043) rotate(-45)" fill="#ef3c79"/>
              <rect id="Rectángulo_195" data-name="Rectángulo 195" width="2.091" height="2.091" transform="translate(58.032 59.511) rotate(-45)" fill="#ef3c79"/>
              <rect id="Rectángulo_196" data-name="Rectángulo 196" width="1.972" height="1.972" transform="matrix(0.707, -0.707, 0.707, 0.707, 51.584, 52.979)" fill="#ef3c79"/>
              <rect id="Rectángulo_197" data-name="Rectángulo 197" width="1.854" height="1.854" transform="translate(45.136 46.447) rotate(-45)" fill="#ef3c79"/>
              <rect id="Rectángulo_198" data-name="Rectángulo 198" width="1.735" height="1.735" transform="matrix(0.707, -0.707, 0.707, 0.707, 38.688, 39.915)" fill="#ef3c79"/>
              <rect id="Rectángulo_199" data-name="Rectángulo 199" width="1.617" height="1.617" transform="translate(32.24 33.383) rotate(-45)" fill="#ef3c79"/>
              <rect id="Rectángulo_200" data-name="Rectángulo 200" width="1.498" height="1.498" transform="translate(25.792 26.852) rotate(-45.001)" fill="#ef3c79"/>
              <rect id="Rectángulo_201" data-name="Rectángulo 201" width="1.38" height="1.38" transform="translate(19.344 20.32) rotate(-45)" fill="#ef3c79"/>
              <rect id="Rectángulo_202" data-name="Rectángulo 202" width="1.261" height="1.261" transform="matrix(0.707, -0.707, 0.707, 0.707, 12.896, 13.788)" fill="#ef3c79"/>
              <rect id="Rectángulo_203" data-name="Rectángulo 203" width="1.143" height="1.143" transform="translate(6.448 7.256) rotate(-45)" fill="#ef3c79"/>
              <rect id="Rectángulo_204" data-name="Rectángulo 204" width="1.024" height="1.024" transform="matrix(0.707, -0.707, 0.707, 0.707, 0, 0.724)" fill="#ef3c79"/>
            </g>
          </g>
          <g id="Grupo_70" data-name="Grupo 70" transform="translate(52.922 5.292)">
            <g id="Grupo_69" data-name="Grupo 69" transform="translate(0 0)">
              <rect id="Rectángulo_205" data-name="Rectángulo 205" width="2.328" height="2.328" transform="translate(70.928 72.574) rotate(-44.999)" fill="#ef3c79"/>
              <rect id="Rectángulo_206" data-name="Rectángulo 206" width="2.209" height="2.209" transform="translate(64.48 66.043) rotate(-45)" fill="#ef3c79"/>
              <rect id="Rectángulo_207" data-name="Rectángulo 207" width="2.091" height="2.091" transform="translate(58.032 59.511) rotate(-44.999)" fill="#ef3c79"/>
              <rect id="Rectángulo_208" data-name="Rectángulo 208" width="1.972" height="1.972" transform="translate(51.584 52.979) rotate(-45)" fill="#ef3c79"/>
              <rect id="Rectángulo_209" data-name="Rectángulo 209" width="1.854" height="1.854" transform="translate(45.136 46.447) rotate(-45)" fill="#ef3c79"/>
              <rect id="Rectángulo_210" data-name="Rectángulo 210" width="1.735" height="1.735" transform="translate(38.688 39.915) rotate(-45)" fill="#ef3c79"/>
              <rect id="Rectángulo_211" data-name="Rectángulo 211" width="1.617" height="1.617" transform="translate(32.24 33.383) rotate(-45)" fill="#ef3c79"/>
              <rect id="Rectángulo_212" data-name="Rectángulo 212" width="1.498" height="1.498" transform="translate(25.792 26.852) rotate(-45)" fill="#ef3c79"/>
              <rect id="Rectángulo_213" data-name="Rectángulo 213" width="1.38" height="1.38" transform="translate(19.344 20.32) rotate(-45)" fill="#ef3c79"/>
              <rect id="Rectángulo_214" data-name="Rectángulo 214" width="1.261" height="1.261" transform="translate(12.896 13.788) rotate(-45)" fill="#ef3c79"/>
              <rect id="Rectángulo_215" data-name="Rectángulo 215" width="1.143" height="1.143" transform="translate(6.448 7.256) rotate(-45)" fill="#ef3c79"/>
              <rect id="Rectángulo_216" data-name="Rectángulo 216" width="1.024" height="1.024" transform="matrix(0.707, -0.707, 0.707, 0.707, 0, 0.724)" fill="#ef3c79"/>
            </g>
          </g>
          <g id="Grupo_72" data-name="Grupo 72" transform="translate(47.63 10.584)">
            <g id="Grupo_71" data-name="Grupo 71" transform="translate(0 0)">
              <rect id="Rectángulo_217" data-name="Rectángulo 217" width="2.328" height="2.328" transform="translate(70.928 72.574) rotate(-44.999)" fill="#ef3c79"/>
              <rect id="Rectángulo_218" data-name="Rectángulo 218" width="2.209" height="2.209" transform="translate(64.48 66.043) rotate(-44.999)" fill="#ef3c79"/>
              <rect id="Rectángulo_219" data-name="Rectángulo 219" width="2.091" height="2.091" transform="translate(58.032 59.511) rotate(-44.999)" fill="#ef3c79"/>
              <rect id="Rectángulo_220" data-name="Rectángulo 220" width="1.972" height="1.972" transform="matrix(0.707, -0.707, 0.707, 0.707, 51.584, 52.979)" fill="#ef3c79"/>
              <rect id="Rectángulo_221" data-name="Rectángulo 221" width="1.854" height="1.854" transform="translate(45.136 46.447) rotate(-44.999)" fill="#ef3c79"/>
              <rect id="Rectángulo_222" data-name="Rectángulo 222" width="1.735" height="1.735" transform="matrix(0.707, -0.707, 0.707, 0.707, 38.688, 39.915)" fill="#ef3c79"/>
              <rect id="Rectángulo_223" data-name="Rectángulo 223" width="1.617" height="1.617" transform="matrix(0.707, -0.707, 0.707, 0.707, 32.24, 33.383)" fill="#ef3c79"/>
              <rect id="Rectángulo_224" data-name="Rectángulo 224" width="1.498" height="1.498" transform="translate(25.792 26.851) rotate(-44.999)" fill="#ef3c79"/>
              <rect id="Rectángulo_225" data-name="Rectángulo 225" width="1.38" height="1.38" transform="translate(19.344 20.32) rotate(-45)" fill="#ef3c79"/>
              <rect id="Rectángulo_226" data-name="Rectángulo 226" width="1.261" height="1.261" transform="translate(12.896 13.788) rotate(-44.998)" fill="#ef3c79"/>
              <rect id="Rectángulo_227" data-name="Rectángulo 227" width="1.143" height="1.143" transform="translate(6.448 7.256) rotate(-45)" fill="#ef3c79"/>
              <rect id="Rectángulo_228" data-name="Rectángulo 228" width="1.024" height="1.024" transform="matrix(0.707, -0.707, 0.707, 0.707, 0, 0.724)" fill="#ef3c79"/>
            </g>
          </g>
          <g id="Grupo_74" data-name="Grupo 74" transform="translate(42.338 15.877)">
            <g id="Grupo_73" data-name="Grupo 73" transform="translate(0 0)">
              <rect id="Rectángulo_229" data-name="Rectángulo 229" width="2.328" height="2.328" transform="translate(70.928 72.575) rotate(-45.001)" fill="#ef3c79"/>
              <rect id="Rectángulo_230" data-name="Rectángulo 230" width="2.209" height="2.209" transform="translate(64.48 66.043) rotate(-45.001)" fill="#ef3c79"/>
              <rect id="Rectángulo_231" data-name="Rectángulo 231" width="2.091" height="2.091" transform="translate(58.032 59.511) rotate(-45)" fill="#ef3c79"/>
              <rect id="Rectángulo_232" data-name="Rectángulo 232" width="1.972" height="1.972" transform="matrix(0.707, -0.707, 0.707, 0.707, 51.584, 52.979)" fill="#ef3c79"/>
              <rect id="Rectángulo_233" data-name="Rectángulo 233" width="1.854" height="1.854" transform="translate(45.136 46.447) rotate(-45)" fill="#ef3c79"/>
              <rect id="Rectángulo_234" data-name="Rectángulo 234" width="1.735" height="1.735" transform="matrix(0.707, -0.707, 0.707, 0.707, 38.688, 39.915)" fill="#ef3c79"/>
              <rect id="Rectángulo_235" data-name="Rectángulo 235" width="1.617" height="1.617" transform="translate(32.24 33.383) rotate(-45)" fill="#ef3c79"/>
              <rect id="Rectángulo_236" data-name="Rectángulo 236" width="1.498" height="1.498" transform="translate(25.792 26.852) rotate(-45.001)" fill="#ef3c79"/>
              <rect id="Rectángulo_237" data-name="Rectángulo 237" width="1.38" height="1.38" transform="translate(19.344 20.32) rotate(-45)" fill="#ef3c79"/>
              <rect id="Rectángulo_238" data-name="Rectángulo 238" width="1.261" height="1.261" transform="translate(12.896 13.788) rotate(-45)" fill="#ef3c79"/>
              <rect id="Rectángulo_239" data-name="Rectángulo 239" width="1.143" height="1.143" transform="translate(6.448 7.256) rotate(-45)" fill="#ef3c79"/>
              <rect id="Rectángulo_240" data-name="Rectángulo 240" width="1.024" height="1.024" transform="translate(0 0.724) rotate(-44.998)" fill="#ef3c79"/>
            </g>
          </g>
          <g id="Grupo_76" data-name="Grupo 76" transform="translate(37.045 21.169)">
            <g id="Grupo_75" data-name="Grupo 75" transform="translate(0 0)">
              <rect id="Rectángulo_241" data-name="Rectángulo 241" width="2.328" height="2.328" transform="translate(70.928 72.574) rotate(-45.001)" fill="#ef3c79"/>
              <rect id="Rectángulo_242" data-name="Rectángulo 242" width="2.209" height="2.209" transform="translate(64.48 66.043) rotate(-45.001)" fill="#ef3c79"/>
              <rect id="Rectángulo_243" data-name="Rectángulo 243" width="2.091" height="2.091" transform="translate(58.032 59.511) rotate(-45)" fill="#ef3c79"/>
              <rect id="Rectángulo_244" data-name="Rectángulo 244" width="1.972" height="1.972" transform="matrix(0.707, -0.707, 0.707, 0.707, 51.584, 52.979)" fill="#ef3c79"/>
              <rect id="Rectángulo_245" data-name="Rectángulo 245" width="1.854" height="1.854" transform="translate(45.136 46.447) rotate(-45)" fill="#ef3c79"/>
              <rect id="Rectángulo_246" data-name="Rectángulo 246" width="1.735" height="1.735" transform="translate(38.688 39.915) rotate(-45.001)" fill="#ef3c79"/>
              <rect id="Rectángulo_247" data-name="Rectángulo 247" width="1.617" height="1.617" transform="translate(32.24 33.383) rotate(-45)" fill="#ef3c79"/>
              <rect id="Rectángulo_248" data-name="Rectángulo 248" width="1.498" height="1.498" transform="translate(25.792 26.852) rotate(-45.001)" fill="#ef3c79"/>
              <rect id="Rectángulo_249" data-name="Rectángulo 249" width="1.38" height="1.38" transform="translate(19.344 20.32) rotate(-45)" fill="#ef3c79"/>
              <rect id="Rectángulo_250" data-name="Rectángulo 250" width="1.261" height="1.261" transform="matrix(0.707, -0.707, 0.707, 0.707, 12.896, 13.788)" fill="#ef3c79"/>
              <rect id="Rectángulo_251" data-name="Rectángulo 251" width="1.143" height="1.143" transform="translate(6.448 7.256) rotate(-45)" fill="#ef3c79"/>
              <rect id="Rectángulo_252" data-name="Rectángulo 252" width="1.024" height="1.024" transform="matrix(0.707, -0.707, 0.707, 0.707, 0, 0.724)" fill="#ef3c79"/>
            </g>
          </g>
          <g id="Grupo_78" data-name="Grupo 78" transform="translate(31.753 26.461)">
            <g id="Grupo_77" data-name="Grupo 77" transform="translate(0 0)">
              <rect id="Rectángulo_253" data-name="Rectángulo 253" width="2.328" height="2.328" transform="translate(70.928 72.574) rotate(-45)" fill="#ef3c79"/>
              <rect id="Rectángulo_254" data-name="Rectángulo 254" width="2.209" height="2.209" transform="translate(64.48 66.043) rotate(-45)" fill="#ef3c79"/>
              <rect id="Rectángulo_255" data-name="Rectángulo 255" width="2.091" height="2.091" transform="translate(58.032 59.511) rotate(-45.001)" fill="#ef3c79"/>
              <rect id="Rectángulo_256" data-name="Rectángulo 256" width="1.972" height="1.972" transform="matrix(0.707, -0.707, 0.707, 0.707, 51.584, 52.979)" fill="#ef3c79"/>
              <rect id="Rectángulo_257" data-name="Rectángulo 257" width="1.854" height="1.854" transform="matrix(0.707, -0.707, 0.707, 0.707, 45.136, 46.447)" fill="#ef3c79"/>
              <rect id="Rectángulo_258" data-name="Rectángulo 258" width="1.735" height="1.735" transform="matrix(0.707, -0.707, 0.707, 0.707, 38.688, 39.915)" fill="#ef3c79"/>
              <rect id="Rectángulo_259" data-name="Rectángulo 259" width="1.617" height="1.617" transform="translate(32.24 33.383) rotate(-45)" fill="#ef3c79"/>
              <rect id="Rectángulo_260" data-name="Rectángulo 260" width="1.498" height="1.498" transform="translate(25.792 26.852) rotate(-45.001)" fill="#ef3c79"/>
              <rect id="Rectángulo_261" data-name="Rectángulo 261" width="1.38" height="1.38" transform="translate(19.344 20.32) rotate(-45)" fill="#ef3c79"/>
              <rect id="Rectángulo_262" data-name="Rectángulo 262" width="1.261" height="1.261" transform="matrix(0.707, -0.707, 0.707, 0.707, 12.896, 13.788)" fill="#ef3c79"/>
              <rect id="Rectángulo_263" data-name="Rectángulo 263" width="1.143" height="1.143" transform="translate(6.448 7.256) rotate(-45)" fill="#ef3c79"/>
              <rect id="Rectángulo_264" data-name="Rectángulo 264" width="1.024" height="1.024" transform="matrix(0.707, -0.707, 0.707, 0.707, 0, 0.724)" fill="#ef3c79"/>
            </g>
          </g>
          <g id="Grupo_80" data-name="Grupo 80" transform="translate(26.461 31.753)">
            <g id="Grupo_79" data-name="Grupo 79" transform="translate(0 0)">
              <rect id="Rectángulo_265" data-name="Rectángulo 265" width="2.328" height="2.328" transform="translate(70.928 72.574) rotate(-44.999)" fill="#ef3c79"/>
              <rect id="Rectángulo_266" data-name="Rectángulo 266" width="2.209" height="2.209" transform="translate(64.48 66.043) rotate(-45)" fill="#ef3c79"/>
              <rect id="Rectángulo_267" data-name="Rectángulo 267" width="2.091" height="2.091" transform="translate(58.032 59.511) rotate(-44.999)" fill="#ef3c79"/>
              <rect id="Rectángulo_268" data-name="Rectángulo 268" width="1.972" height="1.972" transform="translate(51.584 52.979) rotate(-45)" fill="#ef3c79"/>
              <rect id="Rectángulo_269" data-name="Rectángulo 269" width="1.854" height="1.854" transform="translate(45.136 46.447) rotate(-44.999)" fill="#ef3c79"/>
              <rect id="Rectángulo_270" data-name="Rectángulo 270" width="1.735" height="1.735" transform="matrix(0.707, -0.707, 0.707, 0.707, 38.688, 39.915)" fill="#ef3c79"/>
              <rect id="Rectángulo_271" data-name="Rectángulo 271" width="1.617" height="1.617" transform="matrix(0.707, -0.707, 0.707, 0.707, 32.24, 33.383)" fill="#ef3c79"/>
              <rect id="Rectángulo_272" data-name="Rectángulo 272" width="1.498" height="1.498" transform="translate(25.792 26.852) rotate(-45.001)" fill="#ef3c79"/>
              <rect id="Rectángulo_273" data-name="Rectángulo 273" width="1.38" height="1.38" transform="translate(19.344 20.32) rotate(-45)" fill="#ef3c79"/>
              <rect id="Rectángulo_274" data-name="Rectángulo 274" width="1.261" height="1.261" transform="translate(12.896 13.788) rotate(-45.002)" fill="#ef3c79"/>
              <rect id="Rectángulo_275" data-name="Rectángulo 275" width="1.143" height="1.143" transform="translate(6.448 7.256) rotate(-45)" fill="#ef3c79"/>
              <rect id="Rectángulo_276" data-name="Rectángulo 276" width="1.024" height="1.024" transform="matrix(0.707, -0.707, 0.707, 0.707, 0, 0.724)" fill="#ef3c79"/>
            </g>
          </g>
          <g id="Grupo_82" data-name="Grupo 82" transform="translate(21.169 37.045)">
            <g id="Grupo_81" data-name="Grupo 81" transform="translate(0 0)">
              <rect id="Rectángulo_277" data-name="Rectángulo 277" width="2.328" height="2.328" transform="translate(70.928 72.574) rotate(-44.999)" fill="#ef3c79"/>
              <rect id="Rectángulo_278" data-name="Rectángulo 278" width="2.209" height="2.209" transform="translate(64.48 66.043) rotate(-45)" fill="#ef3c79"/>
              <rect id="Rectángulo_279" data-name="Rectángulo 279" width="2.091" height="2.091" transform="translate(58.032 59.511) rotate(-44.999)" fill="#ef3c79"/>
              <rect id="Rectángulo_280" data-name="Rectángulo 280" width="1.972" height="1.972" transform="translate(51.584 52.979) rotate(-45)" fill="#ef3c79"/>
              <rect id="Rectángulo_281" data-name="Rectángulo 281" width="1.854" height="1.854" transform="translate(45.136 46.447) rotate(-44.999)" fill="#ef3c79"/>
              <rect id="Rectángulo_282" data-name="Rectángulo 282" width="1.735" height="1.735" transform="translate(38.688 39.915) rotate(-45)" fill="#ef3c79"/>
              <rect id="Rectángulo_283" data-name="Rectángulo 283" width="1.617" height="1.617" transform="matrix(0.707, -0.707, 0.707, 0.707, 32.24, 33.383)" fill="#ef3c79"/>
              <rect id="Rectángulo_284" data-name="Rectángulo 284" width="1.498" height="1.498" transform="translate(25.792 26.852) rotate(-45)" fill="#ef3c79"/>
              <rect id="Rectángulo_285" data-name="Rectángulo 285" width="1.38" height="1.38" transform="translate(19.344 20.32) rotate(-45)" fill="#ef3c79"/>
              <rect id="Rectángulo_286" data-name="Rectángulo 286" width="1.261" height="1.261" transform="translate(12.896 13.788) rotate(-45)" fill="#ef3c79"/>
              <rect id="Rectángulo_287" data-name="Rectángulo 287" width="1.143" height="1.143" transform="translate(6.448 7.256) rotate(-45)" fill="#ef3c79"/>
              <rect id="Rectángulo_288" data-name="Rectángulo 288" width="1.024" height="1.024" transform="matrix(0.707, -0.707, 0.707, 0.707, 0, 0.724)" fill="#ef3c79"/>
            </g>
          </g>
          <g id="Grupo_84" data-name="Grupo 84" transform="translate(15.877 42.338)">
            <g id="Grupo_83" data-name="Grupo 83" transform="translate(0 0)">
              <rect id="Rectángulo_289" data-name="Rectángulo 289" width="2.328" height="2.328" transform="translate(70.928 72.574) rotate(-44.999)" fill="#ef3c79"/>
              <rect id="Rectángulo_290" data-name="Rectángulo 290" width="2.209" height="2.209" transform="translate(64.48 66.043) rotate(-44.999)" fill="#ef3c79"/>
              <rect id="Rectángulo_291" data-name="Rectángulo 291" width="2.091" height="2.091" transform="translate(58.032 59.511) rotate(-44.999)" fill="#ef3c79"/>
              <rect id="Rectángulo_292" data-name="Rectángulo 292" width="1.972" height="1.972" transform="matrix(0.707, -0.707, 0.707, 0.707, 51.584, 52.979)" fill="#ef3c79"/>
              <rect id="Rectángulo_293" data-name="Rectángulo 293" width="1.854" height="1.854" transform="translate(45.136 46.447) rotate(-44.999)" fill="#ef3c79"/>
              <rect id="Rectángulo_294" data-name="Rectángulo 294" width="1.735" height="1.735" transform="matrix(0.707, -0.707, 0.707, 0.707, 38.688, 39.915)" fill="#ef3c79"/>
              <rect id="Rectángulo_295" data-name="Rectángulo 295" width="1.617" height="1.617" transform="matrix(0.707, -0.707, 0.707, 0.707, 32.24, 33.383)" fill="#ef3c79"/>
              <rect id="Rectángulo_296" data-name="Rectángulo 296" width="1.498" height="1.498" transform="translate(25.792 26.851) rotate(-44.999)" fill="#ef3c79"/>
              <rect id="Rectángulo_297" data-name="Rectángulo 297" width="1.38" height="1.38" transform="matrix(0.707, -0.707, 0.707, 0.707, 19.344, 20.32)" fill="#ef3c79"/>
              <rect id="Rectángulo_298" data-name="Rectángulo 298" width="1.261" height="1.261" transform="translate(12.896 13.788) rotate(-44.998)" fill="#ef3c79"/>
              <rect id="Rectángulo_299" data-name="Rectángulo 299" width="1.143" height="1.143" transform="translate(6.448 7.256) rotate(-44.998)" fill="#ef3c79"/>
              <rect id="Rectángulo_300" data-name="Rectángulo 300" width="1.024" height="1.024" transform="translate(0 0.724) rotate(-44.998)" fill="#ef3c79"/>
            </g>
          </g>
          <g id="Grupo_86" data-name="Grupo 86" transform="translate(10.584 47.63)">
            <g id="Grupo_85" data-name="Grupo 85" transform="translate(0 0)">
              <rect id="Rectángulo_301" data-name="Rectángulo 301" width="2.328" height="2.328" transform="matrix(0.707, -0.707, 0.707, 0.707, 70.928, 72.575)" fill="#ef3c79"/>
              <rect id="Rectángulo_302" data-name="Rectángulo 302" width="2.209" height="2.209" transform="translate(64.48 66.043) rotate(-45.001)" fill="#ef3c79"/>
              <rect id="Rectángulo_303" data-name="Rectángulo 303" width="2.091" height="2.091" transform="translate(58.032 59.511) rotate(-45.001)" fill="#ef3c79"/>
              <rect id="Rectángulo_304" data-name="Rectángulo 304" width="1.972" height="1.972" transform="matrix(0.707, -0.707, 0.707, 0.707, 51.584, 52.979)" fill="#ef3c79"/>
              <rect id="Rectángulo_305" data-name="Rectángulo 305" width="1.854" height="1.854" transform="translate(45.136 46.447) rotate(-45)" fill="#ef3c79"/>
              <rect id="Rectángulo_306" data-name="Rectángulo 306" width="1.735" height="1.735" transform="translate(38.688 39.915) rotate(-45.001)" fill="#ef3c79"/>
              <rect id="Rectángulo_307" data-name="Rectángulo 307" width="1.617" height="1.617" transform="translate(32.24 33.383) rotate(-45)" fill="#ef3c79"/>
              <rect id="Rectángulo_308" data-name="Rectángulo 308" width="1.498" height="1.498" transform="translate(25.792 26.852) rotate(-45.001)" fill="#ef3c79"/>
              <rect id="Rectángulo_309" data-name="Rectángulo 309" width="1.38" height="1.38" transform="translate(19.344 20.32) rotate(-45)" fill="#ef3c79"/>
              <rect id="Rectángulo_310" data-name="Rectángulo 310" width="1.261" height="1.261" transform="translate(12.896 13.788) rotate(-45)" fill="#ef3c79"/>
              <rect id="Rectángulo_311" data-name="Rectángulo 311" width="1.143" height="1.143" transform="translate(6.448 7.256) rotate(-45)" fill="#ef3c79"/>
              <rect id="Rectángulo_312" data-name="Rectángulo 312" width="1.024" height="1.024" transform="translate(0 0.724) rotate(-45)" fill="#ef3c79"/>
            </g>
          </g>
          <g id="Grupo_88" data-name="Grupo 88" transform="translate(5.292 52.922)">
            <g id="Grupo_87" data-name="Grupo 87" transform="translate(0 0)">
              <rect id="Rectángulo_313" data-name="Rectángulo 313" width="2.328" height="2.328" transform="translate(70.928 72.574) rotate(-45)" fill="#ef3c79"/>
              <rect id="Rectángulo_314" data-name="Rectángulo 314" width="2.209" height="2.209" transform="translate(64.48 66.043) rotate(-45)" fill="#ef3c79"/>
              <rect id="Rectángulo_315" data-name="Rectángulo 315" width="2.091" height="2.091" transform="translate(58.032 59.511) rotate(-45)" fill="#ef3c79"/>
              <rect id="Rectángulo_316" data-name="Rectángulo 316" width="1.972" height="1.972" transform="matrix(0.707, -0.707, 0.707, 0.707, 51.584, 52.979)" fill="#ef3c79"/>
              <rect id="Rectángulo_317" data-name="Rectángulo 317" width="1.854" height="1.854" transform="translate(45.136 46.447) rotate(-45.001)" fill="#ef3c79"/>
              <rect id="Rectángulo_318" data-name="Rectángulo 318" width="1.735" height="1.735" transform="matrix(0.707, -0.707, 0.707, 0.707, 38.688, 39.915)" fill="#ef3c79"/>
              <rect id="Rectángulo_319" data-name="Rectángulo 319" width="1.617" height="1.617" transform="translate(32.24 33.383) rotate(-45)" fill="#ef3c79"/>
              <rect id="Rectángulo_320" data-name="Rectángulo 320" width="1.498" height="1.498" transform="translate(25.792 26.852) rotate(-45.001)" fill="#ef3c79"/>
              <rect id="Rectángulo_321" data-name="Rectángulo 321" width="1.38" height="1.38" transform="translate(19.344 20.32) rotate(-45)" fill="#ef3c79"/>
              <rect id="Rectángulo_322" data-name="Rectángulo 322" width="1.261" height="1.261" transform="matrix(0.707, -0.707, 0.707, 0.707, 12.896, 13.788)" fill="#ef3c79"/>
              <rect id="Rectángulo_323" data-name="Rectángulo 323" width="1.143" height="1.143" transform="translate(6.448 7.256) rotate(-45)" fill="#ef3c79"/>
              <rect id="Rectángulo_324" data-name="Rectángulo 324" width="1.024" height="1.024" transform="matrix(0.707, -0.707, 0.707, 0.707, 0, 0.724)" fill="#ef3c79"/>
            </g>
          </g>
          <g id="Grupo_90" data-name="Grupo 90" transform="translate(0 58.214)">
            <g id="Grupo_89" data-name="Grupo 89" transform="translate(0 0)">
              <rect id="Rectángulo_325" data-name="Rectángulo 325" width="2.328" height="2.328" transform="translate(70.928 72.574) rotate(-45)" fill="#ef3c79"/>
              <rect id="Rectángulo_326" data-name="Rectángulo 326" width="2.209" height="2.209" transform="translate(64.48 66.043) rotate(-45)" fill="#ef3c79"/>
              <rect id="Rectángulo_327" data-name="Rectángulo 327" width="2.091" height="2.091" transform="translate(58.032 59.511) rotate(-45)" fill="#ef3c79"/>
              <rect id="Rectángulo_328" data-name="Rectángulo 328" width="1.972" height="1.972" transform="translate(51.584 52.979) rotate(-45)" fill="#ef3c79"/>
              <rect id="Rectángulo_329" data-name="Rectángulo 329" width="1.854" height="1.854" transform="translate(45.136 46.447) rotate(-45)" fill="#ef3c79"/>
              <rect id="Rectángulo_330" data-name="Rectángulo 330" width="1.735" height="1.735" transform="translate(38.688 39.915) rotate(-45)" fill="#ef3c79"/>
              <rect id="Rectángulo_331" data-name="Rectángulo 331" width="1.617" height="1.617" transform="matrix(0.707, -0.707, 0.707, 0.707, 32.24, 33.383)" fill="#ef3c79"/>
              <rect id="Rectángulo_332" data-name="Rectángulo 332" width="1.498" height="1.498" transform="translate(25.792 26.852) rotate(-45.001)" fill="#ef3c79"/>
              <rect id="Rectángulo_333" data-name="Rectángulo 333" width="1.38" height="1.38" transform="translate(19.344 20.32) rotate(-45.002)" fill="#ef3c79"/>
              <rect id="Rectángulo_334" data-name="Rectángulo 334" width="1.261" height="1.261" transform="translate(12.896 13.788) rotate(-45.002)" fill="#ef3c79"/>
              <rect id="Rectángulo_335" data-name="Rectángulo 335" width="1.143" height="1.143" transform="matrix(0.707, -0.707, 0.707, 0.707, 6.448, 7.256)" fill="#ef3c79"/>
              <rect id="Rectángulo_336" data-name="Rectángulo 336" width="1.024" height="1.024" transform="matrix(0.707, -0.707, 0.707, 0.707, 0, 0.724)" fill="#ef3c79"/>
            </g>
          </g>
        </g>
        <g id="Grupo_875935" data-name="Grupo 875935" transform="translate(0 177.046)" opacity="0.61">
          <g id="Grupo_4" data-name="Grupo 4">
            <rect id="Rectángulo_4" data-name="Rectángulo 4" width="2.328" height="2.328" fill="none" stroke="#0b5999" stroke-miterlimit="10" stroke-width="1.078"/>
            <rect id="Rectángulo_5" data-name="Rectángulo 5" width="2.328" height="2.328" transform="translate(17.792)" fill="none" stroke="#0b5999" stroke-miterlimit="10" stroke-width="1.078"/>
            <rect id="Rectángulo_6" data-name="Rectángulo 6" width="2.328" height="2.328" transform="translate(35.584)" fill="none" stroke="#0b5999" stroke-miterlimit="10" stroke-width="1.078"/>
            <rect id="Rectángulo_7" data-name="Rectángulo 7" width="2.328" height="2.328" transform="translate(53.376)" fill="none" stroke="#0b5999" stroke-miterlimit="10" stroke-width="1.078"/>
            <rect id="Rectángulo_8" data-name="Rectángulo 8" width="2.328" height="2.328" transform="translate(71.168)" fill="none" stroke="#0b5999" stroke-miterlimit="10" stroke-width="1.078"/>
            <rect id="Rectángulo_9" data-name="Rectángulo 9" width="2.328" height="2.328" transform="translate(88.96)" fill="none" stroke="#0b5999" stroke-miterlimit="10" stroke-width="1.078"/>
          </g>
          <g id="Grupo_5" data-name="Grupo 5" transform="translate(0 12.97)">
            <rect id="Rectángulo_10" data-name="Rectángulo 10" width="2.328" height="2.328" fill="none" stroke="#0b5999" stroke-miterlimit="10" stroke-width="1.078"/>
            <rect id="Rectángulo_11" data-name="Rectángulo 11" width="2.328" height="2.328" transform="translate(17.792)" fill="none" stroke="#0b5999" stroke-miterlimit="10" stroke-width="1.078"/>
            <rect id="Rectángulo_12" data-name="Rectángulo 12" width="2.328" height="2.328" transform="translate(35.584)" fill="none" stroke="#0b5999" stroke-miterlimit="10" stroke-width="1.078"/>
            <rect id="Rectángulo_13" data-name="Rectángulo 13" width="2.328" height="2.328" transform="translate(53.376)" fill="none" stroke="#0b5999" stroke-miterlimit="10" stroke-width="1.078"/>
            <rect id="Rectángulo_14" data-name="Rectángulo 14" width="2.328" height="2.328" transform="translate(71.168)" fill="none" stroke="#0b5999" stroke-miterlimit="10" stroke-width="1.078"/>
            <rect id="Rectángulo_15" data-name="Rectángulo 15" width="2.328" height="2.328" transform="translate(88.96)" fill="none" stroke="#0b5999" stroke-miterlimit="10" stroke-width="1.078"/>
          </g>
          <g id="Grupo_6" data-name="Grupo 6" transform="translate(0 25.94)">
            <rect id="Rectángulo_16" data-name="Rectángulo 16" width="2.328" height="2.328" fill="none" stroke="#0b5999" stroke-miterlimit="10" stroke-width="1.078"/>
            <rect id="Rectángulo_17" data-name="Rectángulo 17" width="2.328" height="2.328" transform="translate(17.792)" fill="none" stroke="#0b5999" stroke-miterlimit="10" stroke-width="1.078"/>
            <rect id="Rectángulo_18" data-name="Rectángulo 18" width="2.328" height="2.328" transform="translate(35.584)" fill="none" stroke="#0b5999" stroke-miterlimit="10" stroke-width="1.078"/>
            <rect id="Rectángulo_19" data-name="Rectángulo 19" width="2.328" height="2.328" transform="translate(53.376)" fill="none" stroke="#0b5999" stroke-miterlimit="10" stroke-width="1.078"/>
            <rect id="Rectángulo_20" data-name="Rectángulo 20" width="2.328" height="2.328" transform="translate(71.168)" fill="none" stroke="#0b5999" stroke-miterlimit="10" stroke-width="1.078"/>
            <rect id="Rectángulo_21" data-name="Rectángulo 21" width="2.328" height="2.328" transform="translate(88.96)" fill="none" stroke="#0b5999" stroke-miterlimit="10" stroke-width="1.078"/>
          </g>
          <g id="Grupo_7" data-name="Grupo 7" transform="translate(0 38.91)">
            <rect id="Rectángulo_22" data-name="Rectángulo 22" width="2.328" height="2.328" fill="none" stroke="#0b5999" stroke-miterlimit="10" stroke-width="1.078"/>
            <rect id="Rectángulo_23" data-name="Rectángulo 23" width="2.328" height="2.328" transform="translate(17.792)" fill="none" stroke="#0b5999" stroke-miterlimit="10" stroke-width="1.078"/>
            <rect id="Rectángulo_24" data-name="Rectángulo 24" width="2.328" height="2.328" transform="translate(35.584)" fill="none" stroke="#0b5999" stroke-miterlimit="10" stroke-width="1.078"/>
            <rect id="Rectángulo_25" data-name="Rectángulo 25" width="2.328" height="2.328" transform="translate(53.376)" fill="none" stroke="#0b5999" stroke-miterlimit="10" stroke-width="1.078"/>
            <rect id="Rectángulo_26" data-name="Rectángulo 26" width="2.328" height="2.328" transform="translate(71.168)" fill="none" stroke="#0b5999" stroke-miterlimit="10" stroke-width="1.078"/>
            <rect id="Rectángulo_27" data-name="Rectángulo 27" width="2.328" height="2.328" transform="translate(88.96)" fill="none" stroke="#0b5999" stroke-miterlimit="10" stroke-width="1.078"/>
          </g>
          <g id="Grupo_8" data-name="Grupo 8" transform="translate(0 51.879)">
            <rect id="Rectángulo_28" data-name="Rectángulo 28" width="2.328" height="2.328" fill="none" stroke="#0b5999" stroke-miterlimit="10" stroke-width="1.078"/>
            <rect id="Rectángulo_29" data-name="Rectángulo 29" width="2.328" height="2.328" transform="translate(17.792)" fill="none" stroke="#0b5999" stroke-width="1"/>
            <rect id="Rectángulo_30" data-name="Rectángulo 30" width="2.328" height="2.328" transform="translate(35.584)" fill="none" stroke="#0b5999" stroke-width="1"/>
            <rect id="Rectángulo_31" data-name="Rectángulo 31" width="2.328" height="2.328" transform="translate(53.376)" fill="none" stroke="#0b5999" stroke-miterlimit="10" stroke-width="1.078"/>
            <rect id="Rectángulo_32" data-name="Rectángulo 32" width="2.328" height="2.328" transform="translate(71.168)" fill="none" stroke="#0b5999" stroke-miterlimit="10" stroke-width="1.078"/>
            <rect id="Rectángulo_33" data-name="Rectángulo 33" width="2.328" height="2.328" transform="translate(88.96)" fill="none" stroke="#0b5999" stroke-miterlimit="10" stroke-width="1.078"/>
          </g>
          <g id="Grupo_9" data-name="Grupo 9" transform="translate(0 64.849)">
            <rect id="Rectángulo_34" data-name="Rectángulo 34" width="2.328" height="2.328" fill="none" stroke="#0b5999" stroke-miterlimit="10" stroke-width="1.078"/>
            <rect id="Rectángulo_35" data-name="Rectángulo 35" width="2.328" height="2.328" transform="translate(17.792)" fill="none" stroke="#0b5999" stroke-miterlimit="10" stroke-width="1.078"/>
            <rect id="Rectángulo_36" data-name="Rectángulo 36" width="2.328" height="2.328" transform="translate(35.584)" fill="none" stroke="#0b5999" stroke-miterlimit="10" stroke-width="1.078"/>
            <rect id="Rectángulo_37" data-name="Rectángulo 37" width="2.328" height="2.328" transform="translate(53.376)" fill="none" stroke="#0b5999" stroke-width="1"/>
            <rect id="Rectángulo_38" data-name="Rectángulo 38" width="2.328" height="2.328" transform="translate(71.168)" fill="none" stroke="#0b5999" stroke-miterlimit="10" stroke-width="1.078"/>
            <rect id="Rectángulo_39" data-name="Rectángulo 39" width="2.328" height="2.328" transform="translate(88.96)" fill="none" stroke="#0b5999" stroke-miterlimit="10" stroke-width="1.078"/>
          </g>
          <g id="Grupo_10" data-name="Grupo 10" transform="translate(0 77.819)">
            <rect id="Rectángulo_40" data-name="Rectángulo 40" width="2.328" height="2.328" fill="none" stroke="#0b5999" stroke-miterlimit="10" stroke-width="1.078"/>
            <rect id="Rectángulo_41" data-name="Rectángulo 41" width="2.328" height="2.328" transform="translate(17.792)" fill="none" stroke="#0b5999" stroke-miterlimit="10" stroke-width="1.078"/>
            <rect id="Rectángulo_42" data-name="Rectángulo 42" width="2.328" height="2.328" transform="translate(35.584)" fill="none" stroke="#0b5999" stroke-miterlimit="10" stroke-width="1.078"/>
            <rect id="Rectángulo_43" data-name="Rectángulo 43" width="2.328" height="2.328" transform="translate(53.376)" fill="none" stroke="#0b5999" stroke-miterlimit="10" stroke-width="1.078"/>
            <rect id="Rectángulo_44" data-name="Rectángulo 44" width="2.328" height="2.328" transform="translate(71.168)" fill="none" stroke="#0b5999" stroke-width="1"/>
            <rect id="Rectángulo_45" data-name="Rectángulo 45" width="2.328" height="2.328" transform="translate(88.96)" fill="none" stroke="#0b5999" stroke-miterlimit="10" stroke-width="1.078"/>
          </g>
        </g>
        <g id="Grupo_879273" data-name="Grupo 879273" transform="translate(80.517 4.675)">
          <path id="Trazado_34" data-name="Trazado 34" d="M692.744,390.082l-5.427,9.4h10.853Z" transform="translate(-687.318 -302.353)" fill="#fdfdfd"/>
          <path id="Trazado_35" data-name="Trazado 35" d="M692.744,361.354l-5.427,9.4h10.853Z" transform="translate(-687.318 -289.367)" fill="#fdfdfd"/>
          <path id="Trazado_36" data-name="Trazado 36" d="M692.744,332.626l-5.427,9.4h10.853Z" transform="translate(-687.318 -276.382)" fill="#fdfdfd"/>
          <path id="Trazado_37" data-name="Trazado 37" d="M694.624,245.931l-3.148,5.453h6.3Z" transform="translate(-653.633 -245.931)" fill="#f13b76"/>
        </g>
        <ellipse id="Elipse_4759" data-name="Elipse 4759" cx="110.964" cy="110.964" rx="110.964" ry="110.964" transform="translate(48.318 17.309)" fill="#e8e8e8"/>
      </g>
    </g>
    <g id="Grupo_901625" data-name="Grupo 901625" transform="translate(80.085 3919.243)">
      <g id="Grupo_901597" data-name="Grupo 901597">
        <path id="Trazado_629075" data-name="Trazado 629075" d="M1198.46,482.421a37.57,37.57,0,1,0,45.667-27.16A37.613,37.613,0,0,0,1198.46,482.421Zm9.28,1.088h0a28.334,28.334,0,0,1,35.3-18.968h0a28.336,28.336,0,0,1,18.969,35.3h0a28.337,28.337,0,0,1-35.3,18.969h0A28.336,28.336,0,0,1,1207.74,483.509Z" fill="#fecb2f"/>
        <path id="Trazado_629076" data-name="Trazado 629076" d="M1172.426,482.479c.177.9.989,1.211,2.994,2.006,3.585,1.421,7.171,2.844,10.7,4.39a2.492,2.492,0,0,1,1.181,1.741c.408,3.753.59,7.532,1.036,11.279a2.048,2.048,0,0,1-1.018,2.435c-4.172,2.621-8.271,5.36-12.351,8.025,1.02,4.375,6.159,14.21,8.906,16.96,4.327-1.821,8.777-3.614,13.149-5.579a2.372,2.372,0,0,1,3.19.59,98.881,98.881,0,0,0,8.4,7.009c1.173.9,1.8,1.6,1.418,3.212-.985,4.182-1.717,8.424-2.632,12.624-.246,1.129-.032,1.835,1.083,2.18q7.866,2.436,15.734,4.861c1.289.4,1.488-.661,1.81-1.42,1.629-3.842,3.28-7.678,4.779-11.571a2.7,2.7,0,0,1,2.905-1.993c4.2-.132,8.4-.538,12.917-.857l8.66,13.148a56.256,56.256,0,0,0,16.773-9.032c-2.058-4.943-4.116-9.889-5.93-14.247,3.112-3.941,6.075-7.528,8.819-11.275a2.122,2.122,0,0,1,2.61-1c4.137.909,8.3,1.689,12.447,2.569.9.19,1.554.225,2.013-.754a53.839,53.839,0,0,0,4.945-15.475,1.691,1.691,0,0,0-1.27-2.109c-4.031-1.665-8.031-3.408-12.069-5.056a1.965,1.965,0,0,1-1.477-2.008c-.308-4.139-.8-8.27-1.387-12.379a1.671,1.671,0,0,1,.922-1.945c4.116-2.711,8.212-5.452,12.421-8.254a60.361,60.361,0,0,0-8.76-16.677l-14.848,6.18c-4.04-3.351-7.951-6.6-12.137-10.067.742-3.7,1.627-7.958,2.441-12.228.667-3.5,1.169-3.044-2.352-4.522a5.969,5.969,0,0,1-.929-.61l-9.448-2.843a11.728,11.728,0,0,1-2.2-.273c-1.8-.571-2.818-.161-3.536,1.77-1.5,4.023-3.247,7.955-4.988,11.883a2.282,2.282,0,0,1-1.541,1.123c-3.685.466-7.421.614-11.068,1.271a2.79,2.79,0,0,1-3.415-1.557c-2.5-3.945-5.156-7.788-8.012-12.061l-16.734,8.786c.438,1.111.68,1.754.944,2.388,1.628,3.91,3.22,7.835,4.918,11.714a2.129,2.129,0,0,1-.518,2.617c-2.591,3.08-4.984,6.326-7.555,9.423a2.518,2.518,0,0,1-2.009.71c-3.423-.6-6.812-1.379-10.223-2.042-2.761-.536-3.787-.725-4.662.176Zm24.744-.386a38.9,38.9,0,1,1,4.268,29.466A38.646,38.646,0,0,1,1197.17,482.093Z" fill="#fecb2f"/>
      </g>
      <path id="Trazado_629077" data-name="Trazado 629077" d="M960.164,534.469c.579.452,1.237.216,2.872-.355,2.924-1.022,5.85-2.043,8.807-2.961a2,2,0,0,1,1.632.436c2.221,2.065,4.318,4.264,6.559,6.3a1.642,1.642,0,0,1,.661,2.013c-1.155,3.785-2.2,7.6-3.281,11.366,2.92,2.121,11.211,5.391,14.324,5.617,1.671-3.381,3.43-6.808,5.052-10.3a1.906,1.906,0,0,1,2.247-1.319,79.481,79.481,0,0,0,8.784-.158c1.184-.073,1.932.024,2.55,1.2,1.6,3.058,3.386,6.018,5.038,9.05.444.815.946,1.131,1.8.754q6.055-2.656,12.109-5.319c.993-.436.556-1.184.352-1.814-1.03-3.19-2.044-6.387-3.18-9.539a2.167,2.167,0,0,1,.716-2.737c2.483-2.289,4.816-4.741,7.393-7.311l12.171,3.431a45.193,45.193,0,0,0,5.437-14.3L1041.12,513c-.182-4.029-.269-7.765-.572-11.483a1.7,1.7,0,0,1,1.058-1.98c2.991-1.623,5.93-3.339,8.91-4.984.644-.355,1.061-.679.825-1.515a43.2,43.2,0,0,0-5.132-12,1.359,1.359,0,0,0-1.88-.614c-3.323,1.108-6.668,2.153-9.987,3.275a1.578,1.578,0,0,1-1.952-.443c-2.363-2.351-4.83-4.6-7.35-6.788a1.341,1.341,0,0,1-.462-1.665c1.074-3.81,2.12-7.629,3.2-11.542a48.491,48.491,0,0,0-14.086-5.522c-1.959,3.926-3.905,7.826-5.768,11.558l-12.662.267c-1.495-2.637-3.2-5.687-4.946-8.708-1.437-2.479-.89-2.463-3.8-1.51a4.764,4.764,0,0,1-.885.119l-7.232,3.24a9.442,9.442,0,0,1-1.48.992c-1.4.6-1.8,1.383-1.217,2.934,1.206,3.23,2.21,6.537,3.218,9.837a1.827,1.827,0,0,1-.346,1.492c-1.992,2.221-4.183,4.275-6.052,6.591a2.242,2.242,0,0,1-2.892.85c-3.591-1.083-7.225-2.019-11.206-3.112l-5.542,14.132c.85.444,1.335.707,1.828.954,3.044,1.518,6.075,3.064,9.145,4.527a1.71,1.71,0,0,1,1.061,1.862c.045,3.232.3,6.461.366,9.693a2.023,2.023,0,0,1-.847,1.487c-2.391,1.438-4.861,2.744-7.281,4.135-1.958,1.125-2.681,1.55-2.738,2.557Zm14.822-13.242a31.245,31.245,0,1,1,18.082,15.649A31.038,31.038,0,0,1,974.986,521.227Z" fill="#ef3c79"/>
      <path id="Trazado_629078" data-name="Trazado 629078" d="M996.342,448.9l1.188-2.182-1.118-2.218a.342.342,0,0,1,.367-.49l2.436.459,1.759-1.752a.34.34,0,0,1,.578.2l.317,2.465,2.2,1.136a.342.342,0,0,1-.01.612l-2.24,1.065-.4,2.454a.34.34,0,0,1-.584.18l-1.7-1.808-2.45.381A.341.341,0,0,1,996.342,448.9Z" fill="#f7cc7f"/>
      <path id="Trazado_629079" data-name="Trazado 629079" d="M1126.023,459.243l1.014-1.648-.815-.331a.348.348,0,0,1-.192-.453h0a.348.348,0,0,1,.454-.192l.94.381.907-1.48-.87-.353a.349.349,0,0,1-.192-.454h0a.349.349,0,0,1,.454-.192l.995.4,1.053-1.695a.349.349,0,0,1,.427-.139l.152.061a.348.348,0,0,1,.166.505l-.98,1.6,1.443.585,1.054-1.7a.348.348,0,0,1,.427-.139l.166.067a.349.349,0,0,1,.166.5l-.98,1.6.815.331a.349.349,0,0,1,.192.454h0a.348.348,0,0,1-.454.191l-.94-.381-.893,1.486.87.353a.349.349,0,0,1,.192.454h0a.349.349,0,0,1-.454.192l-.995-.4-1.076,1.748a.348.348,0,0,1-.428.14l-.177-.072a.348.348,0,0,1-.166-.505l1.015-1.648-1.443-.586-1.076,1.748a.349.349,0,0,1-.428.14l-.178-.072A.348.348,0,0,1,1126.023,459.243Zm3.676-1.321.907-1.48-1.442-.585-.908,1.48Z" fill="#07345a"/>
      <path id="Trazado_629080" data-name="Trazado 629080" d="M1119.511,487.935l-1.373,7.3c.115.371.471.466,1.353.712,1.577.438,3.154.877,4.714,1.37a1.058,1.058,0,0,1,.577.682c.341,1.565.588,3.151.945,4.713a.868.868,0,0,1-.32,1.073c-1.643,1.294-3.249,2.634-4.85,3.942a22.875,22.875,0,0,0,4.521,6.756c1.744-.963,3.541-1.921,5.3-2.947a1.007,1.007,0,0,1,1.373.106,42.057,42.057,0,0,0,3.859,2.579c.536.325.831.593.743,1.291-.227,1.81-.345,3.633-.542,5.446-.053.488.069.776.555.871q3.429.673,6.858,1.343c.562.11.6-.346.7-.681.514-1.7,1.038-3.387,1.5-5.1a1.144,1.144,0,0,1,1.136-.971c1.767-.245,3.519-.6,5.412-.944l4.246,5.158a23.868,23.868,0,0,0,6.671-4.566l-3.144-5.745c1.136-1.8,2.224-3.45,3.214-5.155a.9.9,0,0,1,1.056-.539c1.787.2,3.58.338,5.368.523.387.04.665.025.815-.409a22.825,22.825,0,0,0,1.39-6.752.718.718,0,0,0-.631-.833c-1.776-.521-3.542-1.076-5.32-1.59a.834.834,0,0,1-.714-.781c-.316-1.732-.708-3.453-1.142-5.161a.709.709,0,0,1,.3-.862c1.615-1.329,3.22-2.671,4.87-4.042a25.633,25.633,0,0,0-4.448-6.643c-2.033,1.113-4.053,2.219-5.987,3.276l-5.574-3.7c.146-1.6.328-3.431.479-5.27.123-1.509.356-1.337-1.2-1.8a2.528,2.528,0,0,1-.42-.215l-4.115-.775a4.918,4.918,0,0,1-.941-.016c-.786-.159-1.2.059-1.412.906-.451,1.766-1.012,3.5-1.57,5.239a.967.967,0,0,1-.6.544c-1.534.362-3.1.593-4.613,1.034a1.184,1.184,0,0,1-1.511-.5c-1.231-1.552-2.526-3.054-3.924-4.728l-6.665,4.461c.235.448.366.709.506.965.863,1.576,1.711,3.161,2.6,4.721a.9.9,0,0,1-.1,1.128c-.955,1.416-1.819,2.893-2.764,4.316a1.07,1.07,0,0,1-.816.39c-1.471-.1-2.936-.275-4.406-.4C1120.282,487.549,1119.84,487.515,1119.511,487.935Zm13.574,6.146a12.024,12.024,0,0,1,14.04-9.594h0a12.024,12.024,0,0,1,9.594,14.041h0a12.025,12.025,0,0,1-14.041,9.593h0a12.024,12.024,0,0,1-9.593-14.04Z" fill="#fecb2f"/>
      <path id="Trazado_629081" data-name="Trazado 629081" d="M1071.773,447.91l4.323.522-1.845-3.356Z" fill="#355389"/>
      <g id="Grupo_901598" data-name="Grupo 901598">
        <path id="Trazado_629082" data-name="Trazado 629082" d="M1087.651,485.17a3.022,3.022,0,0,0,2.514,3.04,2.963,2.963,0,0,0,3.225-2.018c.979-2.622-1.89-4.69-3.446-3.1-1.453,1.481-.993,3.681.575,3.682.591,0,1.543-.5,1.166-1.213a.24.24,0,0,0-.411,0c-.19.324-.175.336-.265.408a.8.8,0,0,1-.514.149c-1.6-.028-.535-3.681,1.348-2.8a2.106,2.106,0,0,1,.979,2.687,2.4,2.4,0,0,1-2.343,1.684,2.751,2.751,0,0,1-2.436-2.52.2.2,0,0,0-.392,0Z" fill="#ef3c79"/>
      </g>
      <g id="Grupo_901600" data-name="Grupo 901600">
        <g id="Grupo_901599" data-name="Grupo 901599">
          <path id="Trazado_629083" data-name="Trazado 629083" d="M1166.62,431.063l1.292.555s2.158-.481,2.4-.887.382-1.429.684-1.43a.921.921,0,0,1,.954.866c.059.521-.816,1.93-.71,2.1a7.33,7.33,0,0,0,1.34.685,1.046,1.046,0,0,1,.618.889h0a.557.557,0,0,1-.405.573l-.393.111.091.4a.559.559,0,0,1-.416.666l-.3.071.075.246a.557.557,0,0,1-.427.711l-.264.051.005.069a.557.557,0,0,1-.464.592l-.262.043-3.442-1.479a2.6,2.6,0,0,1-.855-.6l-1.125-.721a.292.292,0,0,1-.108-.364l1.336-3A.29.29,0,0,1,1166.62,431.063Z" fill="#ef3c79"/>
        </g>
      </g>
      <rect id="Rectángulo_302904" data-name="Rectángulo 302904" width="32.018" height="16.312" rx="8.156" transform="translate(1102.599 492.653)" fill="#074578"/>
      <path id="Trazado_629084" data-name="Trazado 629084" d="M1099.341,653.445l-24.742,11.4v2.526h88.113v-2.526l-24.965-11.4Z" fill="#074578"/>
      <rect id="Rectángulo_302905" data-name="Rectángulo 302905" width="38.422" height="48.901" transform="translate(1099.341 604.564)" fill="#12263f"/>
      <path id="Trazado_629085" data-name="Trazado 629085" d="M1234.817,619.905V509.634a9.487,9.487,0,0,0-9.486-9.487H1011.525a9.488,9.488,0,0,0-9.487,9.487V619.905Z" fill="#0b5999"/>
      <rect id="Rectángulo_302906" data-name="Rectángulo 302906" width="88.113" height="2.526" transform="translate(1074.6 664.849)" fill="#184655" opacity="0.3" style="mix-blend-mode: multiply;isolation: isolate"/>
      <rect id="Rectángulo_302907" data-name="Rectángulo 302907" width="38.407" height="5.738" transform="translate(1099.341 647.706)" fill="#184655" opacity="0.3" style="mix-blend-mode: multiply;isolation: isolate"/>
      <path id="Trazado_629086" data-name="Trazado 629086" d="M1002.038,619.905v17.671c0,3.675,2.43,6.655,5.427,6.655h221.926c3,0,5.426-2.98,5.426-6.655V619.905Z" fill="#074578"/>
      <circle id="Elipse_6484" data-name="Elipse 6484" cx="2.161" cy="2.161" r="2.161" transform="translate(1116.264 498.699) rotate(-79.099)" fill="#184655"/>
      <path id="Trazado_629087" data-name="Trazado 629087" d="M1229.368,615.116V509.928a5.084,5.084,0,0,0-5.172-4.992H1012.66a5.085,5.085,0,0,0-5.173,4.992V615.116Z" fill="#f6f6f6"/>
      <rect id="Rectángulo_302908" data-name="Rectángulo 302908" width="133.361" height="93.056" transform="translate(1017.231 513.427)" fill="#dee4f0"/>
      <rect id="Rectángulo_302909" data-name="Rectángulo 302909" width="133.361" height="10.895" transform="translate(1017.231 513.427)" fill="#0b5999"/>
      <rect id="Rectángulo_302910" data-name="Rectángulo 302910" width="9.103" height="70.46" transform="translate(1198.052 536.709)" fill="#9bc1f9" opacity="0.6"/>
      <rect id="Rectángulo_302911" data-name="Rectángulo 302911" width="9.103" height="48.968" transform="translate(1185.34 558.201)" fill="#9bc1f9" opacity="0.6"/>
      <rect id="Rectángulo_302912" data-name="Rectángulo 302912" width="9.103" height="55.194" transform="translate(1210.948 551.975)" fill="#9bc1f9" opacity="0.6"/>
      <rect id="Rectángulo_302913" data-name="Rectángulo 302913" width="9.103" height="57.365" transform="translate(1172.627 549.804)" fill="#9bc1f9" opacity="0.6"/>
      <rect id="Rectángulo_302914" data-name="Rectángulo 302914" width="9.103" height="40.356" transform="translate(1159.914 566.812)" fill="#9bc1f9" opacity="0.6"/>
      <g id="Grupo_901601" data-name="Grupo 901601">
        <rect id="Rectángulo_302915" data-name="Rectángulo 302915" width="9.103" height="54.221" transform="translate(1198.052 552.948)" fill="#afafaf" opacity="0.3" style="mix-blend-mode: multiply;isolation: isolate"/>
        <rect id="Rectángulo_302916" data-name="Rectángulo 302916" width="9.103" height="37.682" transform="translate(1185.34 569.486)" fill="#afafaf" opacity="0.3" style="mix-blend-mode: multiply;isolation: isolate"/>
        <rect id="Rectángulo_302917" data-name="Rectángulo 302917" width="9.103" height="42.474" transform="translate(1210.948 564.695)" fill="#afafaf" opacity="0.3" style="mix-blend-mode: multiply;isolation: isolate"/>
        <rect id="Rectángulo_302918" data-name="Rectángulo 302918" width="9.103" height="44.144" transform="translate(1172.627 563.025)" fill="#afafaf" opacity="0.3" style="mix-blend-mode: multiply;isolation: isolate"/>
        <rect id="Rectángulo_302919" data-name="Rectángulo 302919" width="9.103" height="31.055" transform="translate(1159.914 576.113)" fill="#afafaf" opacity="0.3" style="mix-blend-mode: multiply;isolation: isolate"/>
      </g>
      <rect id="Rectángulo_302920" data-name="Rectángulo 302920" width="123.093" height="15.799" transform="translate(1021.832 528.809)" fill="#727997" opacity="0.6"/>
      <rect id="Rectángulo_302921" data-name="Rectángulo 302921" width="79.227" height="4.05" transform="translate(1065.698 549.095)" fill="#727997" opacity="0.6"/>
      <rect id="Rectángulo_302922" data-name="Rectángulo 302922" width="38.975" height="46.731" transform="translate(1021.832 549.095)" fill="#0b5999"/>
      <rect id="Rectángulo_302923" data-name="Rectángulo 302923" width="79.227" height="4.05" transform="translate(1065.698 557.631)" fill="#727997" opacity="0.6"/>
      <rect id="Rectángulo_302924" data-name="Rectángulo 302924" width="79.227" height="4.05" transform="translate(1065.698 583.24)" fill="#727997" opacity="0.6"/>
      <rect id="Rectángulo_302925" data-name="Rectángulo 302925" width="79.227" height="4.05" transform="translate(1065.698 591.777)" fill="#727997" opacity="0.6"/>
      <rect id="Rectángulo_302926" data-name="Rectángulo 302926" width="78.022" height="101.531" rx="2.012" transform="translate(964.18 565.857) rotate(-0.103)" fill="#fecb2f"/>
      <rect id="Rectángulo_302927" data-name="Rectángulo 302927" width="69.9" height="95.305" transform="translate(968.246 568.682) rotate(-0.103)" fill="#fff"/>
      <path id="Trazado_629088" data-name="Trazado 629088" d="M1018.342,564.413a.775.775,0,0,0-.777-.775l-29.349.053a.776.776,0,0,0-.775.777l.005,3.051,30.9-.056Z" fill="#13375b"/>
      <path id="Trazado_629089" data-name="Trazado 629089" d="M1002.884,559.955a4.629,4.629,0,1,0,4.637,4.621A4.63,4.63,0,0,0,1002.884,559.955Zm.013,7.6a2.968,2.968,0,1,1,2.963-2.974A2.969,2.969,0,0,1,1002.9,567.553Z" fill="#13375b"/>
      <g id="Grupo_901602" data-name="Grupo 901602">
        <path id="Trazado_629090" data-name="Trazado 629090" d="M1017.867,563.7a.776.776,0,0,1,.475.715l.006,3.05-30.9.056a3.828,3.828,0,0,0,3.834,3.82l23.248-.042a3.826,3.826,0,0,0,3.82-3.834l-.006-3.05A.776.776,0,0,0,1017.867,563.7Z" fill="#355389"/>
        <path id="Trazado_629091" data-name="Trazado 629091" d="M988.216,563.691h0a.773.773,0,0,0-.643.343A.773.773,0,0,1,988.216,563.691Z" fill="#9bc1f9"/>
        <path id="Trazado_629092" data-name="Trazado 629092" d="M987.475,564.237a.777.777,0,0,1,.059-.139A.777.777,0,0,0,987.475,564.237Z" fill="#9bc1f9"/>
      </g>
      <g id="Grupo_901603" data-name="Grupo 901603">
        <path id="Trazado_629093" data-name="Trazado 629093" d="M1030.13,596.671l-9.936.017-.018-9.936,9.937-.018Zm-9.531-.389,9.125-.017-.017-9.124-9.124.016Z" fill="#184655"/>
      </g>
      <g id="Grupo_901604" data-name="Grupo 901604">
        <path id="Trazado_629094" data-name="Trazado 629094" d="M1030.16,613.2l-9.936.018-.018-9.936,9.936-.018Zm-9.531-.389,9.124-.016-.016-9.124-9.124.016Z" fill="#184655"/>
      </g>
      <g id="Grupo_901605" data-name="Grupo 901605">
        <path id="Trazado_629095" data-name="Trazado 629095" d="M1030.19,629.738l-9.937.018-.018-9.936,9.937-.018Zm-9.531-.389,9.124-.016-.016-9.124-9.125.016Z" fill="#184655"/>
      </g>
      <g id="Grupo_901606" data-name="Grupo 901606">
        <path id="Trazado_629096" data-name="Trazado 629096" d="M1030.22,646.272l-9.937.018-.018-9.937,9.937-.017Zm-9.531-.389,9.124-.016-.017-9.125-9.124.017Z" fill="#184655"/>
      </g>
      <rect id="Rectángulo_302928" data-name="Rectángulo 302928" width="42.526" height="1.43" transform="translate(973.487 587.039) rotate(-0.103)" fill="#636363"/>
      <rect id="Rectángulo_302929" data-name="Rectángulo 302929" width="42.526" height="1.43" transform="translate(973.495 591.089) rotate(-0.103)" fill="#636363"/>
      <rect id="Rectángulo_302930" data-name="Rectángulo 302930" width="42.526" height="1.43" transform="translate(973.502 595.139) rotate(-0.103)" fill="#636363"/>
      <rect id="Rectángulo_302931" data-name="Rectángulo 302931" width="42.526" height="1.43" transform="translate(973.518 604.138) rotate(-0.103)" fill="#636363"/>
      <rect id="Rectángulo_302932" data-name="Rectángulo 302932" width="42.526" height="1.43" transform="translate(973.526 608.188) rotate(-0.103)" fill="#636363"/>
      <rect id="Rectángulo_302933" data-name="Rectángulo 302933" width="42.526" height="1.43" transform="translate(973.533 612.238) rotate(-0.103)" fill="#636363"/>
      <rect id="Rectángulo_302934" data-name="Rectángulo 302934" width="42.526" height="1.43" transform="translate(973.547 620.338) rotate(-0.103)" fill="#636363"/>
      <rect id="Rectángulo_302935" data-name="Rectángulo 302935" width="42.526" height="1.43" transform="translate(973.555 624.388) rotate(-0.103)" fill="#636363"/>
      <rect id="Rectángulo_302936" data-name="Rectángulo 302936" width="42.526" height="1.43" transform="translate(973.562 628.438) rotate(-0.103)" fill="#636363"/>
      <rect id="Rectángulo_302937" data-name="Rectángulo 302937" width="42.526" height="1.43" transform="translate(973.577 636.539) rotate(-0.103)" fill="#636363"/>
      <rect id="Rectángulo_302938" data-name="Rectángulo 302938" width="42.526" height="1.43" transform="translate(973.584 640.589) rotate(-0.103)" fill="#636363"/>
      <rect id="Rectángulo_302939" data-name="Rectángulo 302939" width="42.526" height="1.43" transform="translate(973.591 644.639) rotate(-0.103)" fill="#636363"/>
      <rect id="Rectángulo_302940" data-name="Rectángulo 302940" width="49.06" height="1.43" transform="translate(973.61 655.11) rotate(-0.103)" fill="#636363"/>
      <rect id="Rectángulo_302941" data-name="Rectángulo 302941" width="58.735" height="1.43" transform="translate(973.616 658.576) rotate(-0.103)" fill="#636363"/>
      <g id="Grupo_901607" data-name="Grupo 901607">
        <path id="Trazado_629097" data-name="Trazado 629097" d="M1025.113,595.046l-3.086-5.294,1.1-.644,1.791,3.073,2.924-7.015,1.18.492Z" fill="#ef3c79"/>
      </g>
      <g id="Grupo_901608" data-name="Grupo 901608">
        <path id="Trazado_629098" data-name="Trazado 629098" d="M1025.143,611.8l-3.086-5.294,1.1-.644,1.791,3.073,2.924-7.015,1.18.492Z" fill="#ef3c79"/>
      </g>
      <g id="Grupo_901609" data-name="Grupo 901609">
        <path id="Trazado_629099" data-name="Trazado 629099" d="M1025.2,644.546l-3.086-5.294,1.1-.644,1.791,3.073,2.924-7.015,1.18.492Z" fill="#ef3c79"/>
      </g>
      <path id="Trazado_629100" data-name="Trazado 629100" d="M1028.64,622.272l-.89-.9-2.539,2.516-2.548-2.507-.887.9,2.537,2.5-2.528,2.5.89.9,2.539-2.516,2.548,2.507.887-.9-2.537-2.5Z" fill="#ef3c79"/>
      <path id="Trazado_629101" data-name="Trazado 629101" d="M975.446,632.015a18.3,18.3,0,0,0-7.083,1.429l0,2.33a16.2,16.2,0,0,1,15.86,28.184l3.488-.006c.25-.226.5-.458.736-.7a18.313,18.313,0,0,0-13.005-31.238Z" fill="#9bc1f9" opacity="0.3" style="mix-blend-mode: multiply;isolation: isolate"/>
      <path id="Trazado_629102" data-name="Trazado 629102" d="M975.455,636.98a13.268,13.268,0,0,0-7.082,2.054l0,1.268a12.293,12.293,0,1,1,.037,20.077l0,1.268a13.346,13.346,0,1,0,7.041-24.667Z" fill="#9bc1f9" opacity="0.3" style="mix-blend-mode: multiply;isolation: isolate"/>
      <g id="Grupo_901610" data-name="Grupo 901610">
        <path id="Trazado_629103" data-name="Trazado 629103" d="M988.351,582.354v-4.761h-1.9v-.417h4.393v.417h-1.9v4.761Z" fill="#184655"/>
        <path id="Trazado_629104" data-name="Trazado 629104" d="M995.694,581.937v.417h-3.808v-5.178h3.674v.417h-3.081v1.813h2.23v.417h-2.23v2.114Z" fill="#184655"/>
        <path id="Trazado_629105" data-name="Trazado 629105" d="M996.3,581.114l.515-.171a1.907,1.907,0,0,0,.665.817,1.784,1.784,0,0,0,.994.265,1.6,1.6,0,0,0,.977-.277.866.866,0,0,0,.371-.728.788.788,0,0,0-.243-.594,2.221,2.221,0,0,0-.823-.425c-.211-.068-.49-.149-.838-.245a5.267,5.267,0,0,1-.67-.214,1.8,1.8,0,0,1-.658-.462.94.94,0,0,1-.2-.605,1.2,1.2,0,0,1,.489-1.014,2.2,2.2,0,0,1,1.348-.369,2.377,2.377,0,0,1,1.258.3,1.893,1.893,0,0,1,.756.929l-.5.13a1.683,1.683,0,0,0-.613-.714,1.732,1.732,0,0,0-.925-.232,1.4,1.4,0,0,0-.864.249.775.775,0,0,0-.332.648.675.675,0,0,0,.215.507,1.573,1.573,0,0,0,.665.336c.115.035.283.083.5.144a6.882,6.882,0,0,1,1.218.41,1.8,1.8,0,0,1,.634.505,1.083,1.083,0,0,1,.2.65,1.29,1.29,0,0,1-.53,1.082,2.326,2.326,0,0,1-1.437.4,2.528,2.528,0,0,1-1.34-.322A2.185,2.185,0,0,1,996.3,581.114Z" fill="#184655"/>
        <path id="Trazado_629106" data-name="Trazado 629106" d="M1002.9,582.354v-4.761H1001v-.417h4.393v.417h-1.9v4.761Z" fill="#184655"/>
        <path id="Trazado_629107" data-name="Trazado 629107" d="M1006.529,582.354v-5.178h.594v5.178Z" fill="#184655"/>
        <path id="Trazado_629108" data-name="Trazado 629108" d="M1009.51,577.551v4.8h-.576v-5.178h.966l3.072,4.369v-4.369h.576v5.178h-.633Z" fill="#184655"/>
        <path id="Trazado_629109" data-name="Trazado 629109" d="M1018.985,581.772a2.024,2.024,0,0,1-.758.513,2.788,2.788,0,0,1-1.018.17,2.325,2.325,0,0,1-1.815-.688,3.467,3.467,0,0,1,.013-3.987,2.7,2.7,0,0,1,3.18-.331,2.17,2.17,0,0,1,.762,1.169l-.559.1a1.859,1.859,0,0,0-.595-.924,1.585,1.585,0,0,0-.995-.3,1.628,1.628,0,0,0-1.338.579,2.541,2.541,0,0,0-.473,1.644,2.687,2.687,0,0,0,.479,1.733,1.732,1.732,0,0,0,1.423.585,1.839,1.839,0,0,0,1.144-.331,1.046,1.046,0,0,0,.433-.874v-.553h-1.594v-.388h2.235v2.468h-.524Z" fill="#184655"/>
      </g>
      <g id="Grupo_901618" data-name="Grupo 901618">
        <g id="Grupo_901615" data-name="Grupo 901615">
          <g id="Grupo_901611" data-name="Grupo 901611">
            <path id="Trazado_629110" data-name="Trazado 629110" d="M1094.21,454.125l-1.349,5.261,4.129-2.319,12.331-4.547-9.087-.252s-4.713.565-4.988.759A11.311,11.311,0,0,0,1094.21,454.125Z" fill="#0e977f"/>
            <path id="Trazado_629111" data-name="Trazado 629111" d="M1090.615,450.421l18.706,2.1-15.111,1.605Z" fill="#21cbae"/>
            <path id="Trazado_629112" data-name="Trazado 629112" d="M1099.575,460.221l-4.427-4.519,14.173-3.183Z" fill="#21cbae"/>
          </g>
          <g id="Grupo_901614" data-name="Grupo 901614">
            <g id="Grupo_901612" data-name="Grupo 901612">
              <path id="Trazado_629113" data-name="Trazado 629113" d="M1065.863,470.224a12.073,12.073,0,0,1,.4-1.248c.142-.377.307-.755.488-1.122l.4.2c-.175.354-.333.718-.47,1.081a11.482,11.482,0,0,0-.38,1.2c-.031.119-.059.238-.086.357l-.433-.1C1065.8,470.469,1065.832,470.344,1065.863,470.224Zm2.441-4.818a16.8,16.8,0,0,1,1.989-2.1l.3.33a16.412,16.412,0,0,0-1.937,2.048Zm14.062.791-.07-.058.288-.337.057.048a.309.309,0,0,0,.043.02,2.051,2.051,0,0,0,1.241-.006,1.879,1.879,0,0,0,.808-.723l.373.241a2.353,2.353,0,0,1-1,.887,2.467,2.467,0,0,1-1.577.015A.566.566,0,0,1,1082.366,466.2Zm-9.782-4.658a23.2,23.2,0,0,1,2.5-1.441l.2.4a22.7,22.7,0,0,0-2.455,1.413Zm8.435,1.014a5.391,5.391,0,0,1,.314-1.273,6.472,6.472,0,0,1,.306-.682l.393.2a5.993,5.993,0,0,0-.284.635,4.9,4.9,0,0,0-.289,1.168,4.126,4.126,0,0,0-.012.832l-.441.039A4.519,4.519,0,0,1,1081.019,462.553Zm2.382-1.988-.053-.034.235-.376.057.037a4.459,4.459,0,0,1,1.817,2.25l-.42.142A4.013,4.013,0,0,0,1083.4,460.565Zm-5.508-1.264a10.087,10.087,0,0,1,1.9-.2c.365.026.7.062,1.019.11l-.066.439c-.309-.047-.631-.082-.985-.107a9.117,9.117,0,0,0-1.787.2Zm5.547-1.006a9.9,9.9,0,0,1,2.411-1.64l.193.4a9.48,9.48,0,0,0-2.3,1.566Z" fill="#21cbae"/>
            </g>
            <g id="Grupo_901613" data-name="Grupo 901613">
              <path id="Trazado_629114" data-name="Trazado 629114" d="M1088.7,456.229a8.581,8.581,0,0,1,1.421-.1l.008-.443a8.927,8.927,0,0,0-1.5.1Z" fill="#21cbae"/>
            </g>
          </g>
        </g>
        <g id="Grupo_901617" data-name="Grupo 901617">
          <path id="Trazado_629115" data-name="Trazado 629115" d="M1055.725,462.824c.267.011,1,.256,2.067,2.277,1.366,2.581,3.362,10.377,3.362,10.377L1055.2,477.7l-.765-1.627-1.261-12.529S1055.651,462.821,1055.725,462.824Z" fill="#0b5999"/>
          <path id="Trazado_629116" data-name="Trazado 629116" d="M1047.849,461.7a36.385,36.385,0,0,1,7.876,1.124s1.437,12.354-1.294,21.741c-.612,2.1.505,8.711.505,8.711l-17.654-.233s2.092-15.979,1.3-18.559-.807-11.576-.807-11.576.121-.019,3.967-.684A40.006,40.006,0,0,1,1047.849,461.7Z" fill="#0b5999"/>
          <path id="Trazado_629117" data-name="Trazado 629117" d="M1045.792,516.205s.39,4.508,1.109,5.756-.038,3.371-.076,3.662-1.512.708-3.855.458-2.306-.791-2.117-1.665,1.437-2,1.512-2.829a21.679,21.679,0,0,0-.718-3.828Z" fill="#f7a491"/>
          <path id="Trazado_629118" data-name="Trazado 629118" d="M1052.945,489.556s12.186-.677,14.908.971-1.934,9.737-1.934,9.737-8.48-.391-25.09.568c-3.933.227-4.272-10.256-3.536-11.123S1052.945,489.556,1052.945,489.556Z" fill="#fecb2f"/>
          <path id="Trazado_629119" data-name="Trazado 629119" d="M1042.678,526.431c-2.413-.257-2.115-1.443-1.92-2.343.121-.563.814-1.227,1.226-1.855a4.034,4.034,0,0,0,1.615.784c1.088.322,2.579-.314,3.53-.713a11.682,11.682,0,0,1,.323,3.113C1047.413,525.717,1045.091,526.688,1042.678,526.431Z" fill="#636363"/>
          <path id="Trazado_629120" data-name="Trazado 629120" d="M1044.009,498.274c.487,3.684,2.9,22.026,2.9,22.026l-5.594.693s-6.878-23.94-6.525-27.6,2.927-3.97,2.927-3.97S1042.721,488.521,1044.009,498.274Z" fill="#fecb2f"/>
          <path id="Trazado_629121" data-name="Trazado 629121" d="M1037.587,464.281c1.651-.62,2.458,14.253,2.681,20.375a72,72,0,0,0,9.286-.093c.6-.045,1.973-.549,2.566-.627a5.972,5.972,0,0,1,1.458-.069,27.489,27.489,0,0,1,3.417,1.538c.324.339,1.2,1.194,1.05,1.564s-1.681-1.03-1.681-1.03l-.749-.421c.933.912,2.712,2.112,2.456,2.549s-1.855-.792-3-1.622c.981.886,2.2,2.472,1.919,2.719-.252.222-1.639-1.614-3.12-2.142-.549-.2-1.1.346-1.529.412a3.088,3.088,0,0,1-1.118.062l-1.6-.455c-.546.05-.56.373-1.112.49-.64.137-1.692.28-2.507.48-4.7,1.148-6.266,1.681-7.7,1.68C1033.939,489.688,1033.686,465.744,1037.587,464.281Z" fill="#f7a491"/>
          <path id="Trazado_629122" data-name="Trazado 629122" d="M1034.454,478.244c-.309-6.271-.264-14,3.251-15.318,1.387-.52,3.832,2.608,3.393,15.445A26.415,26.415,0,0,1,1034.454,478.244Z" fill="#0b5999"/>
          <path id="Trazado_629123" data-name="Trazado 629123" d="M1062.733,520.577a3.044,3.044,0,0,0-.172,2.622c.635,1.2,3.97,2.956,4.318,3.605a1.572,1.572,0,0,1,.211,1.107l-9.9-2.427.759-2.986.926-2.063Z" fill="#f7a491"/>
          <path id="Trazado_629124" data-name="Trazado 629124" d="M1063.071,523.838s-2.783.482-3.887-.4-1.03-1.042-1.437-.89c-.262.1-.661,1.286-.912,2.123a.814.814,0,0,0,.586,1.023l10.312,2.548c.783.151,1.3-.338.775-.966a9.459,9.459,0,0,0-1.065-.991A35.952,35.952,0,0,0,1063.071,523.838Z" fill="#636363"/>
          <path id="Trazado_629125" data-name="Trazado 629125" d="M1061.762,492.444c.788-1.658,2.58-3.816,5.732-2.516,3.007,1.24,3.814,4.287,2.865,7.407s-7.193,21.464-7.411,23.986l-4.987.033s.907-14.524,1.129-18.035A34.012,34.012,0,0,1,1061.762,492.444Z" fill="#fecb2f"/>
          <path id="Trazado_629126" data-name="Trazado 629126" d="M1069.857,475.549h-16.668a1.089,1.089,0,0,0-1.006.677l-5.132,12.56h-9.189a.466.466,0,0,0-.465.467h0a.466.466,0,0,0,.465.466h26.153a1.825,1.825,0,0,0,1.666-1.081l5.168-11.552A1.09,1.09,0,0,0,1069.857,475.549Z" fill="#184655"/>
          <path id="Trazado_629127" data-name="Trazado 629127" d="M1060.883,482.863a.918.918,0,1,1-.688-1.2A.981.981,0,0,1,1060.883,482.863Z" fill="#fff"/>
          <g id="Grupo_901616" data-name="Grupo 901616">
            <path id="Trazado_629128" data-name="Trazado 629128" d="M1051.81,446.612a12.936,12.936,0,0,1-1.474-.591,7.412,7.412,0,0,0-1.682-.633,4.053,4.053,0,0,0-3.411.909c-1.1,1.193-3.053.216-2.659,6.462.445,7.071,4.377,6.295,4.472,6.175s3.506-4.524,3.506-4.524,1.193,2.609,1.193,2.513S1057.845,448.644,1051.81,446.612Z" fill="#0e2e35"/>
            <path id="Trazado_629129" data-name="Trazado 629129" d="M1048.826,459.456l.339,2.526s.76,3.64-.218,4.342-4.159-4.445-4.159-4.445l.336-6.4Z" fill="#f7a491"/>
            <path id="Trazado_629130" data-name="Trazado 629130" d="M1045.015,457.552a7.25,7.25,0,0,0,4.1,4.046l-.287-2.142-3.7-3.979Z" fill="#f47458"/>
            <path id="Trazado_629131" data-name="Trazado 629131" d="M1048.625,448.511a3.368,3.368,0,0,1,3.879,3.406,25.568,25.568,0,0,1-.283,3.241c-.451,2.916-2.441,5.484-3.756,5.255s-4.627-2.745-4.044-6.895C1044.781,450.955,1046.45,448.862,1048.625,448.511Z" fill="#f7a491"/>
            <path id="Trazado_629132" data-name="Trazado 629132" d="M1045.334,454.013a.98.98,0,1,1-.745-1.326A1.084,1.084,0,0,1,1045.334,454.013Z" fill="#f7a491"/>
            <path id="Trazado_629133" data-name="Trazado 629133" d="M1044.589,452.687s1.591.395,2.181-.628,2.7-3.231,5.385-2.316-2.362-2.225-2.576-2.225-2.791-.018-2.791-.018-1.986,1.633-2.057,1.813-.644,2.136-.644,2.136Z" fill="#0e2e35"/>
          </g>
          <path id="Trazado_629134" data-name="Trazado 629134" d="M1047.5,456.956l2.9.553a1.289,1.289,0,0,1-1.556.884C1047.277,458.141,1047.5,456.956,1047.5,456.956Z" fill="#fff"/>
        </g>
      </g>
      <g id="Grupo_901619" data-name="Grupo 901619">
        <path id="Trazado_629135" data-name="Trazado 629135" d="M1081.172,656.245s-.53,3.7-1.442,4.888a9.478,9.478,0,0,0-1.231,1.63,4.82,4.82,0,0,0,.166,3.726c.216.474-.015.472.477.625a3.019,3.019,0,0,0,3.629-1.713,8.739,8.739,0,0,0,.712-3.149,11.469,11.469,0,0,1,1.193-5.062Z" fill="#f7a491"/>
        <path id="Trazado_629136" data-name="Trazado 629136" d="M1097.116,657.936a35.1,35.1,0,0,1,.062,5.521c-.143.725-.934,2.218-.571,2.9a1.823,1.823,0,0,0,.778.853l9.412.153c.513.008.174-.324-.239-.629a18.892,18.892,0,0,0-3.384-1.883c-.141-.069-.655-.4-.84-.51a6.545,6.545,0,0,1-1.346-1.2c-.676-.756-.735-4.426-.735-4.426Z" fill="#f7a491"/>
        <path id="Trazado_629137" data-name="Trazado 629137" d="M1104.472,602.546s1.185,6.766.407,11.2-4.513,45.549-4.513,45.549l-4.151.236s-.87-17.174-.714-19.563a37.163,37.163,0,0,1,1.387-6.385l-.413-13.866,5.238-18.216Z" fill="#d42561"/>
        <path id="Trazado_629138" data-name="Trazado 629138" d="M1092.273,601.123s-3.268,4.947-4.046,9.042.571,16.677-.926,22.042c-.811,2.9-3.882,7.39-4.349,11.143s-2.3,13.584-2.3,13.584l4.149.827,9.642-24.552,7.563-22.192,1.937-11.429Z" fill="#ef3c79"/>
        <path id="Trazado_629139" data-name="Trazado 629139" d="M1083.054,664.662a4.626,4.626,0,0,1-4.549-1.911,5.043,5.043,0,0,0-.432,3.738c.372.816,1.46.793,2.317.825a2.234,2.234,0,0,0,2.056-1.266A7.614,7.614,0,0,0,1083.054,664.662Z" fill="#f7cc7f"/>
        <path id="Trazado_629140" data-name="Trazado 629140" d="M1102.333,664.34a8.478,8.478,0,0,1-5.358-.212,4.365,4.365,0,0,0-.431,2.253c.228.67.554.822.841.829,2.274.06,8.328.142,10.062.165a.286.286,0,0,0,.22-.469C1107.237,666.39,1102.518,664.454,1102.333,664.34Z" fill="#f7cc7f"/>
        <path id="Trazado_629141" data-name="Trazado 629141" d="M1119.369,590.859c.174-.368-1.655-.87-1.713-1.267s2.392-.174,2.515-.505c.226-.609-2.67-.41-2.583-.7s3.062-.64,2.8-1.175-3.048.688-3.092.339,2.693-.9,2.723-1.657c.016-.4-4.558,1.541-5.037,1.272s.757-2.039.386-2.359-1.975,3.381-2.265,3.489-6.565,2.006-8.7,2.32c-.18-.722-1.784-4.7-1.939-5.381-1.253.71-2.849-.144-4.132.488.645,2.277,2.095,9.775,2.674,10.113,1.764,1.028,11.044-3.874,12.578-4.741s2.319-.454,3.319-.675S1119.2,591.228,1119.369,590.859Z" fill="#f38b80"/>
        <path id="Trazado_629142" data-name="Trazado 629142" d="M1102.857,568.77c.467-2.122.924-4.257-.306-6.588a5.985,5.985,0,0,0-4.71-3.208c-5.645-.67-4.439,4.6-12.329,5.741a17.706,17.706,0,0,0-6.776,1.915c-3.7,2.2-5.092,5.733-2.64,11.487,6,14.089,20.364,1.846,22.555-.646C1100.825,575,1102.557,570.136,1102.857,568.77Z" fill="#0e2e35"/>
        <path id="Trazado_629143" data-name="Trazado 629143" d="M1093.972,575.468a8.189,8.189,0,0,0-4.555,2.178c-1.7,1.855,2.756,16.763,3.066,19.124s-2.965,8.893-2.965,8.893,11.131,2.213,14.025.3c0,0,.254-18.245-.056-19.931s-2.894-8.543-3.514-9.218S1093.972,575.468,1093.972,575.468Z" fill="#fecb2f"/>
        <path id="Trazado_629144" data-name="Trazado 629144" d="M1095.407,569.72s-.022.127-.062.343a32.738,32.738,0,0,1-1.432,5.407c-.6,1.14,2.068,4.775,4.64,4.331.765-.132-.647-3.34-.579-3.68.13-.65.306-1.537.486-2.447.1-.513.205-1.034.3-1.523.275-1.39.5-2.526.5-2.526Z" fill="#f7a491"/>
        <path id="Trazado_629145" data-name="Trazado 629145" d="M1095.345,570.063c.04-.216.062-.343.062-.343l3.854-.095s-.224,1.136-.5,2.526c-.1.487-.2,1-.3,1.514a3.61,3.61,0,0,1-1.84-.92,4.856,4.856,0,0,1-1.394-2.069C1095.275,570.433,1095.315,570.223,1095.345,570.063Z" fill="#f47458" opacity="0.5"/>
        <path id="Trazado_629146" data-name="Trazado 629146" d="M1097.725,560.56a4.549,4.549,0,0,0-2.71,1.688c-1.139,1.47-2.366,6.015.463,8.486s5.623-.326,6.038-3.292S1101.846,560.453,1097.725,560.56Z" fill="#f7a491"/>
        <path id="Trazado_629147" data-name="Trazado 629147" d="M1102.34,566.71c-.178.715-.647,1.2-1.046,1.079s-.579-.795-.4-1.51.647-1.2,1.046-1.079S1102.519,565.995,1102.34,566.71Z" fill="#f7a491"/>
        <path id="Trazado_629148" data-name="Trazado 629148" d="M1099.471,560.573s-3.694,4.241-5.43,4.441-1.964,2.5-1.964,2.5.621-5.292,2.339-6.313S1099.471,560.573,1099.471,560.573Z" fill="#0e2e35"/>
        <path id="Trazado_629149" data-name="Trazado 629149" d="M1094.609,566.043c.141.768-.143,1.472-.634,1.573s-1.005-.44-1.146-1.208.143-1.471.634-1.572S1094.468,565.276,1094.609,566.043Z" fill="#f7a491"/>
        <rect id="Rectángulo_302942" data-name="Rectángulo 302942" width="17.407" height="13.376" rx="0.657" transform="matrix(0.145, -0.989, 0.989, 0.145, 1091.387, 604.695)" fill="#184655"/>
        <path id="Trazado_629150" data-name="Trazado 629150" d="M1103.459,588.341a.133.133,0,0,0-.113-.151l-4.978-.728a.133.133,0,0,0-.151.112l-.076.518,5.242.767Z" fill="#13375b"/>
        <path id="Trazado_629151" data-name="Trazado 629151" d="M1100.949,587.2a.793.793,0,1,0,.67.9A.794.794,0,0,0,1100.949,587.2Zm-.188,1.289a.509.509,0,1,1,.577-.43A.509.509,0,0,1,1100.761,588.486Z" fill="#13375b"/>
        <path id="Trazado_629152" data-name="Trazado 629152" d="M1103.4,588.208a.132.132,0,0,1,.063.133l-.076.518-5.242-.767a.657.657,0,0,0,.554.744l3.944.577a.656.656,0,0,0,.744-.554l.076-.518A.132.132,0,0,0,1103.4,588.208Z" fill="#355389"/>
        <path id="Trazado_629153" data-name="Trazado 629153" d="M1099.747,568.912l-2.686-.015a1.173,1.173,0,0,0,1.237,1.061C1099.739,570.008,1099.747,568.912,1099.747,568.912Z" fill="#fff"/>
        <path id="Trazado_629154" data-name="Trazado 629154" d="M1086.182,591.639l4.325.442s-.071,3.67,0,4.092c0,0,7.4,2.05,10.486,2.606,0,0,1.408-.8,1.977-1.051a13.838,13.838,0,0,1,2.438-.575c.339-.044.223.327-.068.456a2.817,2.817,0,0,0-1.255.918,2.345,2.345,0,0,0,.933-.077c.323-.144.768-.449.775-.607s.081-.539.187-.518c.027.005.063.13.1.261s.071.252.1.377c.054.225.117.554.141.7a10.12,10.12,0,0,1-.18,1.6c-.052.6-.225.871-.543,1.024a7.853,7.853,0,0,1-1.859.376,12.476,12.476,0,0,1-3.413-.338c-.59-.066-10.007-1-10.007-1s-3.744-.539-3.992-1.183S1086.182,591.639,1086.182,591.639Z" fill="#f7a491"/>
        <path id="Trazado_629155" data-name="Trazado 629155" d="M1089.939,577.107s-1.365.647-2.565,3.443c-1.14,2.656-1.475,15.914-1.475,15.914l4.524-.754,2.3-6.181a11.34,11.34,0,0,0-1.172-11.275C1090.913,577.382,1090.327,576.856,1089.939,577.107Z" fill="#fecb2f"/>
      </g>
      <rect id="Rectángulo_302943" data-name="Rectángulo 302943" width="19.202" height="19.202" transform="translate(1161.275 513.418)" fill="#afafaf" opacity="0.6"/>
      <rect id="Rectángulo_302944" data-name="Rectángulo 302944" width="37.46" height="2.609" transform="translate(1183.874 513.418)" fill="#afafaf" opacity="0.6"/>
      <rect id="Rectángulo_302945" data-name="Rectángulo 302945" width="25.28" height="2.609" transform="translate(1183.874 518.949)" fill="#afafaf" opacity="0.6"/>
      <rect id="Rectángulo_302946" data-name="Rectángulo 302946" width="33.648" height="2.609" transform="translate(1183.874 524.48)" fill="#afafaf" opacity="0.6"/>
      <g id="Grupo_901624" data-name="Grupo 901624">
        <path id="Trazado_629156" data-name="Trazado 629156" d="M1234.224,577.163c-.785-.638-6.855,2.025-6.778,2.952s-4.236,9.916-4.236,9.916l-7.452-5.942,0,0c-.066-.215-.773-2.526-.807-2.94-.036-.434-1.3-1.192-1.88-1.081s.5.846.571.98c.194.367-.556.505-.556.505s-2.128-.683-2.174-1.378-1.5,1.215-1.33,1.481,3.645,3.062,4.146,3.67c0,0,9.639,11.02,10.326,11.308.6.253,2.749-3.544,4.778-6.066S1236.677,579.157,1234.224,577.163Z" fill="#f7a491"/>
        <path id="Trazado_629157" data-name="Trazado 629157" d="M1253.675,658.193s1.324,1.292,1.354,1.767.118,5.556-.423,6.03-2.129.811-1.619,1.344c.386.4,3.356.317,5.324.209.574-.031,1.295-4.615,1.522-5.289.331-.978,1.134-3.182.834-3.864a5.74,5.74,0,0,0-1.834-1.652,9.027,9.027,0,0,1-2.031-2.163Z" fill="#f48c7f"/>
        <path id="Trazado_629158" data-name="Trazado 629158" d="M1239.953,661.2s1.185,3.348,1.187,3.357c.088.531.435,1.841.435,2.324,0,1.812-8.172-1.538-6.34-2.341a1.943,1.943,0,0,0,.74-1.27,4.241,4.241,0,0,0-.688-2.142Z" fill="#f7a491"/>
        <g id="Grupo_901620" data-name="Grupo 901620">
          <path id="Trazado_629159" data-name="Trazado 629159" d="M1227.134,598.844s-.6,6-.6,6.093c0,9.711-1.925,28.681-1.559,30.506.893,4.454,10.506,27.171,10.506,27.171l5.2-.621-5.577-27.452,1.3-10.7,3.525-21.64Z" fill="#12263f"/>
          <path id="Trazado_629160" data-name="Trazado 629160" d="M1244.57,604.154l.985,5.69,2.668,23.417,10.157,22.887s-1.429,3.33-3.537,3.8l-16.166-23.5-10.042-30.067.353-6.68Z" fill="#12263f"/>
        </g>
        <path id="Trazado_629161" data-name="Trazado 629161" d="M1225.062,584.55l7.2.736s.33-5.906.33-8.723c0-3.418-.291-7.82-.7-7.726a6.283,6.283,0,0,0-3.647,2.182C1225.031,575.435,1225.062,584.55,1225.062,584.55Z" fill="#e82869"/>
        <path id="Trazado_629162" data-name="Trazado 629162" d="M1228.6,575.96c-.151,1.042-2.92,29.372-2.92,29.372,13.117,6.335,20.355,1.129,20.355,1.129s-.43-19.894.085-22.6c.34-1.791.764-13.7-.4-14.029a29.118,29.118,0,0,0-5.06-1.076c-1.589-.164-7.763-.26-8.868.111A14.062,14.062,0,0,0,1228.6,575.96Z" fill="#ef3c79"/>
        <path id="Trazado_629163" data-name="Trazado 629163" d="M1258.769,656.706s-3.053,8.6-4.248,9.011c-.317.11-1.84.389-2.127,1.063a2.894,2.894,0,0,0,0,.88h6.363s.805-3.787,1.123-5.451c0,0,1.685-4.066,1.5-4.436S1258.769,656.706,1258.769,656.706Z" fill="#12263f"/>
        <path id="Trazado_629164" data-name="Trazado 629164" d="M1242.04,667.481l-.936-2.956a8.115,8.115,0,0,1-2.948.693,29.563,29.563,0,0,1-2.9-.693c-3.922,1.291-7.135,1.918-6.551,2.956h13.336Z" fill="#12263f"/>
        <g id="Grupo_901621" data-name="Grupo 901621">
          <path id="Trazado_629165" data-name="Trazado 629165" d="M1224.051,596.636a1.539,1.539,0,0,1-.2-.147c.233-2.775.191-5.465-.68-6.374.021-.044.211-.448.41-.868,1.01.781,1.489,2.855,1.3,6.222a5.663,5.663,0,0,1-.133.7C1224.459,596.488,1224.193,596.7,1224.051,596.636Z" fill="#f7a491"/>
        </g>
        <path id="Trazado_629166" data-name="Trazado 629166" d="M1238.911,563.278l.846,5.573s-3.088,6.635-4.931,6.06c-1.547-.483-.6-6.354-.6-6.354a16.082,16.082,0,0,0,.59-4.731C1234.568,562.248,1238.911,563.278,1238.911,563.278Z" fill="#f7a491"/>
        <path id="Trazado_629167" data-name="Trazado 629167" d="M1234.821,563.826c-.253-1.578,4.09-.548,4.09-.548l.07.462a2.551,2.551,0,0,1-.471.777,5.721,5.721,0,0,1-3.8,1.719A8.645,8.645,0,0,0,1234.821,563.826Z" fill="#f47458"/>
        <g id="Grupo_901622" data-name="Grupo 901622">
          <path id="Trazado_629168" data-name="Trazado 629168" d="M1239.624,555.394c.122-.044.984,6.347-.651,8.106s-4.818,2.334-5.96.949c-1.263-1.532-1.2-8.4,1.341-10.21S1239.624,555.394,1239.624,555.394Z" fill="#f7a491"/>
          <path id="Trazado_629169" data-name="Trazado 629169" d="M1235.321,550.82a7.055,7.055,0,0,1,3.7,2.112c.891.1,2.1.6,3.355,2.67a5.182,5.182,0,0,1-1.389,6.756,4.04,4.04,0,0,0-1.766,2.986l-.284-.828a4.624,4.624,0,0,1-.224-1.949,3.785,3.785,0,0,1,.29-1.172c.431-.925-.926-1.54-1.306-2.309-.293-.593-.307-1.949-.769-2.928l-.551-.748a3.5,3.5,0,0,0-2.515-.71C1232.622,554.979,1232.8,550.306,1235.321,550.82Z" fill="#0e2e35"/>
          <path id="Trazado_629170" data-name="Trazado 629170" d="M1237.784,560.223c-.013.78.342,1.418.792,1.426s.826-.618.839-1.4-.342-1.418-.792-1.426S1237.8,559.443,1237.784,560.223Z" fill="#f7a491"/>
        </g>
        <path id="Trazado_629171" data-name="Trazado 629171" d="M1235.13,562.025l-2.463-.128a1.078,1.078,0,0,0,1.09,1.026C1235.076,563.03,1235.13,562.025,1235.13,562.025Z" fill="#fff"/>
        <g id="Grupo_901623" data-name="Grupo 901623">
          <path id="Trazado_629172" data-name="Trazado 629172" d="M1214.973,576.6q.868-.888,1.62-1.828l10.753,10.5c.66.646.433,1.95-.509,2.914s-2.24,1.223-2.9.577l-10.752-10.5Q1214.1,577.484,1214.973,576.6Z" fill="#21cbae"/>
          <ellipse id="Elipse_6485" data-name="Elipse 6485" cx="27.119" cy="27.287" rx="27.119" ry="27.287" transform="matrix(0.699, -0.715, 0.715, 0.699, 1156.773, 557.663)" fill="#c5ddf9" opacity="0.6"/>
          <path id="Trazado_629173" data-name="Trazado 629173" d="M1214.8,576.1a27.1,27.1,0,0,1-17.267,8.451l-29.415-29.9c.006-.056.01-.113.016-.169a27.278,27.278,0,0,1,8.556-17.12Z" fill="#fff" style="mix-blend-mode: soft-light;isolation: isolate"/>
          <path id="Trazado_629174" data-name="Trazado 629174" d="M1195.01,530.095l27.2,27.65q-.02,1.254-.154,2.528a27.322,27.322,0,0,1-3.416,10.623l-36.737-37.342A26.874,26.874,0,0,1,1195.01,530.095Z" fill="#fff" style="mix-blend-mode: soft-light;isolation: isolate"/>
          <path id="Trazado_629175" data-name="Trazado 629175" d="M1173.822,579.261a30.659,30.659,0,1,0-.649-43.488A30.754,30.754,0,0,0,1173.822,579.261Zm2.473-2.532a27.12,27.12,0,1,1,38.47-.336A27.2,27.2,0,0,1,1176.3,576.729Z" fill="#21cbae"/>
          <path id="Trazado_629176" data-name="Trazado 629176" d="M1175.122,577.93a28.8,28.8,0,1,0-.61-40.849A28.888,28.888,0,0,0,1175.122,577.93Zm1.173-1.2a27.12,27.12,0,1,1,38.47-.336A27.2,27.2,0,0,1,1176.3,576.729Z" fill="#50bfa5" opacity="0.5" style="mix-blend-mode: multiply;isolation: isolate"/>
          <path id="Trazado_629177" data-name="Trazado 629177" d="M1260.739,622.675l1.671-1.734a4.355,4.355,0,0,0-.113-6.159l-31.042-30.1a4.355,4.355,0,0,0-6.159.113l-1.671,1.733a4.355,4.355,0,0,0,.112,6.159l31.042,30.1A4.357,4.357,0,0,0,1260.739,622.675Z" fill="#12263f"/>
        </g>
        <path id="Trazado_629178" data-name="Trazado 629178" d="M1259.027,605.632a.79.79,0,0,0,0-.182c-.193-1.962-1.822-18.437-2.1-19.137-.247-.632-7.553-11.081-7.553-11.081l-3.591,4.892,7.026,9.372c.158.6,2.693,11.716,2.693,11.716s.519,2.028.752,3.242c-.106.292-.21.569-.3.8a7.226,7.226,0,0,1-.757,1.216,8.34,8.34,0,0,0-.9,1.587c-.074.286-.208.881-.284,1.239s-.18.777-.2.972a1.87,1.87,0,0,1-.227.522.313.313,0,0,0,.37.452c.256-.085.454-.415.577-.621.345-.581.53-1.642.616-1.586s.389,1.856.437,2.06a22.184,22.184,0,0,0,.616,2.676c.205.382.477.318.549.079.062-.206-.227-3.131-.227-3.131s-.036-.373.128-.257.43,2.772.544,3.161.372.594.592.282c.268-.38-.192-3.2-.192-3.2s-.052-.354.1-.321.34,2.3.458,2.491a.3.3,0,0,0,.557-.06,13.967,13.967,0,0,0-.266-2.9s.021-.2.116-.133.394,1.983.589,2.161a.206.206,0,0,0,.3,0c.358-.244-.191-2.068-.185-2.975a22.176,22.176,0,0,1-.29-3.006C1258.991,605.9,1259.013,605.737,1259.027,605.632Z" fill="#f8a492"/>
        <path id="Trazado_629179" data-name="Trazado 629179" d="M1255.088,581.849l-6.241,4.19a67.693,67.693,0,0,0-5.405-7.1c-2.366-2.334.861-9.485,2.385-9.081C1249.236,570.766,1255.088,581.849,1255.088,581.849Z" fill="#ef3c79"/>
      </g>
      <rect id="Rectángulo_302947" data-name="Rectángulo 302947" width="310.534" height="1.853" transform="translate(957.397 666.971)" fill="#0e2e35"/>
    </g>
  </g>
</svg>
