<svg xmlns="http://www.w3.org/2000/svg" width="347.862" height="294.538" viewBox="0 0 347.862 294.538">
  <g id="Grupo_906580" data-name="Grupo 906580" transform="translate(-1036.461 -8907)">
    <g id="Grupo_2" data-name="Grupo 2" transform="translate(1037 8952.997)">
      <path id="Trazado_1" data-name="Trazado 1" d="M36.208-75.2-45.679,6.688q.569,3.512,1.471,6.9L43.112-73.728Q39.723-74.629,36.208-75.2Z" transform="translate(46.611 76.131)" fill="none" stroke="#21cbae" stroke-miterlimit="10" stroke-width="1.078"/>
      <path id="Trazado_2" data-name="Trazado 2" d="M44.124-72.715-43.195,14.6q.863,3.244,2.012,6.364L50.488-70.7Q47.373-71.855,44.124-72.715Z" transform="translate(45.599 75.119)" fill="none" stroke="#21cbae" stroke-miterlimit="10" stroke-width="1.078"/>
      <path id="Trazado_3" data-name="Trazado 3" d="M81.526-48.491l-100.5,100.5c1.274,1.513,2.6,2.978,4,4.379L85.905-44.5C84.5-45.888,83.039-47.217,81.526-48.491Z" transform="translate(35.724 65.244)" fill="none" stroke="#21cbae" stroke-miterlimit="10" stroke-width="1.078"/>
      <path id="Trazado_4" data-name="Trazado 4" d="M74.288-54.647-25.128,44.769q1.729,2.44,3.647,4.728L79.016-51Q76.734-52.922,74.288-54.647Z" transform="translate(38.234 67.753)" fill="none" stroke="#21cbae" stroke-miterlimit="10" stroke-width="1.078"/>
      <path id="Trazado_5" data-name="Trazado 5" d="M59.472-65.12-35.6,29.952c.89,1.869,1.868,3.688,2.912,5.463L64.935-62.207C63.16-63.252,61.341-64.23,59.472-65.12Z" transform="translate(42.503 72.023)" fill="none" stroke="#21cbae" stroke-miterlimit="10" stroke-width="1.078"/>
      <path id="Trazado_6" data-name="Trazado 6" d="M66.939-60.2-30.684,37.42q1.539,2.617,3.291,5.084L72.023-56.912Q69.555-58.661,66.939-60.2Z" transform="translate(40.499 70.018)" fill="none" stroke="#21cbae" stroke-miterlimit="10" stroke-width="1.078"/>
      <path id="Trazado_7" data-name="Trazado 7" d="M51.872-69.319-39.8,22.352q1.113,3.011,2.487,5.888L57.76-66.832Q54.884-68.2,51.872-69.319Z" transform="translate(44.214 73.734)" fill="none" stroke="#21cbae" stroke-miterlimit="10" stroke-width="1.078"/>
      <path id="Trazado_8" data-name="Trazado 8" d="M-38.97-28.051,1.468-68.489A71.535,71.535,0,0,0-38.97-28.051Z" transform="translate(43.876 73.396)" fill="none" stroke="#21cbae" stroke-miterlimit="10" stroke-width="1.078"/>
      <path id="Trazado_9" data-name="Trazado 9" d="M-.943-70.9-41.381-30.463a70.712,70.712,0,0,0-3.5,11.879L10.936-74.4A70.738,70.738,0,0,0-.943-70.9Z" transform="translate(46.288 75.808)" fill="none" stroke="#21cbae" stroke-miterlimit="10" stroke-width="1.078"/>
      <path id="Trazado_10" data-name="Trazado 10" d="M28.088-76.583-47.064-1.431a71.519,71.519,0,0,0,.82,7.555L35.644-75.763A71.544,71.544,0,0,0,28.088-76.583Z" transform="translate(47.176 76.696)" fill="none" stroke="#21cbae" stroke-miterlimit="10" stroke-width="1.078"/>
      <path id="Trazado_11" data-name="Trazado 11" d="M24.085-76.773c-1.51,0-3,.063-4.492.155L-47.1-9.927c-.092,1.487-.155,2.982-.155,4.492,0,1.317.041,2.625.112,3.925L28.011-76.66C26.711-76.731,25.4-76.773,24.085-76.773Z" transform="translate(47.253 76.773)" fill="none" stroke="#21cbae" stroke-miterlimit="10" stroke-width="1.078"/>
      <path id="Trazado_12" data-name="Trazado 12" d="M10.078-75.264-45.744-19.442A71.37,71.37,0,0,0-46.991-9.82L19.7-76.511A71.469,71.469,0,0,0,10.078-75.264Z" transform="translate(47.146 76.666)" fill="none" stroke="#21cbae" stroke-miterlimit="10" stroke-width="1.078"/>
      <path id="Trazado_13" data-name="Trazado 13" d="M135.245,23.422l-82.3,82.3a71.4,71.4,0,0,0,7.507.868l75.666-75.665A71.365,71.365,0,0,0,135.245,23.422Z" transform="translate(6.409 35.928)" fill="none" stroke="#21cbae" stroke-miterlimit="10" stroke-width="1.078"/>
      <path id="Trazado_14" data-name="Trazado 14" d="M141.435,40.577c0-1.507-.063-3-.155-4.482L65.614,111.76c1.484.092,2.975.155,4.482.155,1.291,0,2.571-.039,3.845-.106l67.388-67.387C141.4,43.148,141.435,41.867,141.435,40.577Z" transform="translate(1.243 30.762)" fill="none" stroke="#21cbae" stroke-miterlimit="10" stroke-width="1.078"/>
      <path id="Trazado_15" data-name="Trazado 15" d="M147.059,50.152,79.671,117.539a71.375,71.375,0,0,0,9.542-1.166l56.68-56.679A71.485,71.485,0,0,0,147.059,50.152Z" transform="translate(-4.488 25.032)" fill="none" stroke="#21cbae" stroke-miterlimit="10" stroke-width="1.078"/>
      <path id="Trazado_16" data-name="Trazado 16" d="M152.459,66.26l-56.68,56.679a70.767,70.767,0,0,0,11.62-3.245L149.214,77.88A70.9,70.9,0,0,0,152.459,66.26Z" transform="translate(-11.054 18.465)" fill="none" stroke="#21cbae" stroke-miterlimit="10" stroke-width="1.078"/>
      <path id="Trazado_17" data-name="Trazado 17" d="M157.211,85.877,115.4,127.691A71.54,71.54,0,0,0,157.211,85.877Z" transform="translate(-19.051 10.468)" fill="none" stroke="#21cbae" stroke-miterlimit="10" stroke-width="1.078"/>
      <path id="Trazado_18" data-name="Trazado 18" d="M129.01,11.837,41.357,99.49q3.368.921,6.862,1.513l82.3-82.3Q129.932,15.207,129.01,11.837Z" transform="translate(11.131 40.651)" fill="none" stroke="#21cbae" stroke-miterlimit="10" stroke-width="1.078"/>
      <path id="Trazado_19" data-name="Trazado 19" d="M102.582-26.455,3.065,73.062c1.636,1.174,3.318,2.286,5.054,3.321L105.9-21.4C104.868-23.137,103.756-24.819,102.582-26.455Z" transform="translate(26.741 56.261)" fill="none" stroke="#21cbae" stroke-miterlimit="10" stroke-width="1.078"/>
      <path id="Trazado_20" data-name="Trazado 20" d="M95.671-34.388-4.869,66.152q2.27,1.933,4.7,3.676L99.348-29.689Q97.605-32.116,95.671-34.388Z" transform="translate(29.975 59.495)" fill="none" stroke="#21cbae" stroke-miterlimit="10" stroke-width="1.078"/>
      <path id="Trazado_21" data-name="Trazado 21" d="M122.607,1.157,30.676,93.088q3.1,1.169,6.327,2.049L124.656,7.483Q123.774,4.257,122.607,1.157Z" transform="translate(15.485 45.005)" fill="none" stroke="#21cbae" stroke-miterlimit="10" stroke-width="1.078"/>
      <path id="Trazado_22" data-name="Trazado 22" d="M88.655-41.745-12.225,59.135c1.393,1.4,2.853,2.735,4.357,4.018L92.673-37.387C91.39-38.892,90.057-40.352,88.655-41.745Z" transform="translate(32.974 62.494)" fill="none" stroke="#21cbae" stroke-miterlimit="10" stroke-width="1.078"/>
      <path id="Trazado_23" data-name="Trazado 23" d="M116.061-8.746,20.773,86.541c1.908.924,3.868,1.755,5.866,2.509L118.57-2.88C117.816-4.879,116.985-6.839,116.061-8.746Z" transform="translate(19.522 49.042)" fill="none" stroke="#21cbae" stroke-miterlimit="10" stroke-width="1.078"/>
      <path id="Trazado_24" data-name="Trazado 24" d="M109.381-17.923,11.6,79.861c1.765,1.053,3.575,2.039,5.435,2.939L112.32-12.487C111.42-14.348,110.434-16.157,109.381-17.923Z" transform="translate(23.263 52.783)" fill="none" stroke="#21cbae" stroke-miterlimit="10" stroke-width="1.078"/>
    </g>
    <g id="Grupo_91" data-name="Grupo 91" transform="translate(1193.02 9048.71)">
      <g id="Grupo_68" data-name="Grupo 68" transform="translate(62.927 0)">
        <g id="Grupo_67" data-name="Grupo 67" transform="translate(0)">
          <rect id="Rectángulo_193" data-name="Rectángulo 193" width="2.516" height="2.516" transform="translate(76.671 78.45) rotate(-44.999)" fill="#ef3c79"/>
          <rect id="Rectángulo_194" data-name="Rectángulo 194" width="2.388" height="2.388" transform="translate(69.701 71.389) rotate(-45)" fill="#ef3c79"/>
          <rect id="Rectángulo_195" data-name="Rectángulo 195" width="2.26" height="2.26" transform="translate(62.731 64.329) rotate(-45)" fill="#ef3c79"/>
          <rect id="Rectángulo_196" data-name="Rectángulo 196" width="2.132" height="2.132" transform="matrix(0.707, -0.707, 0.707, 0.707, 55.761, 57.268)" fill="#ef3c79"/>
          <rect id="Rectángulo_197" data-name="Rectángulo 197" width="2.004" height="2.004" transform="translate(48.791 50.207) rotate(-45)" fill="#ef3c79"/>
          <rect id="Rectángulo_198" data-name="Rectángulo 198" width="1.876" height="1.876" transform="matrix(0.707, -0.707, 0.707, 0.707, 41.82, 43.147)" fill="#ef3c79"/>
          <rect id="Rectángulo_199" data-name="Rectángulo 199" width="1.748" height="1.748" transform="translate(34.85 36.086) rotate(-45)" fill="#ef3c79"/>
          <rect id="Rectángulo_200" data-name="Rectángulo 200" width="1.619" height="1.619" transform="translate(27.88 29.025) rotate(-45.001)" fill="#ef3c79"/>
          <rect id="Rectángulo_201" data-name="Rectángulo 201" width="1.491" height="1.491" transform="translate(20.91 21.965) rotate(-45)" fill="#ef3c79"/>
          <rect id="Rectángulo_202" data-name="Rectángulo 202" width="1.363" height="1.363" transform="matrix(0.707, -0.707, 0.707, 0.707, 13.94, 14.904)" fill="#ef3c79"/>
          <rect id="Rectángulo_203" data-name="Rectángulo 203" width="1.235" height="1.235" transform="translate(6.97 7.843) rotate(-45)" fill="#ef3c79"/>
          <rect id="Rectángulo_204" data-name="Rectángulo 204" width="1.107" height="1.107" transform="matrix(0.707, -0.707, 0.707, 0.707, 0, 0.783)" fill="#ef3c79"/>
        </g>
      </g>
      <g id="Grupo_70" data-name="Grupo 70" transform="translate(57.207 5.721)">
        <g id="Grupo_69" data-name="Grupo 69" transform="translate(0 0)">
          <rect id="Rectángulo_205" data-name="Rectángulo 205" width="2.516" height="2.516" transform="translate(76.671 78.45) rotate(-44.999)" fill="#ef3c79"/>
          <rect id="Rectángulo_206" data-name="Rectángulo 206" width="2.388" height="2.388" transform="translate(69.701 71.389) rotate(-45)" fill="#ef3c79"/>
          <rect id="Rectángulo_207" data-name="Rectángulo 207" width="2.26" height="2.26" transform="translate(62.731 64.329) rotate(-44.999)" fill="#ef3c79"/>
          <rect id="Rectángulo_208" data-name="Rectángulo 208" width="2.132" height="2.132" transform="translate(55.761 57.268) rotate(-45)" fill="#ef3c79"/>
          <rect id="Rectángulo_209" data-name="Rectángulo 209" width="2.004" height="2.004" transform="translate(48.791 50.207) rotate(-45)" fill="#ef3c79"/>
          <rect id="Rectángulo_210" data-name="Rectángulo 210" width="1.876" height="1.876" transform="translate(41.82 43.147) rotate(-45)" fill="#ef3c79"/>
          <rect id="Rectángulo_211" data-name="Rectángulo 211" width="1.748" height="1.748" transform="translate(34.85 36.086) rotate(-45)" fill="#ef3c79"/>
          <rect id="Rectángulo_212" data-name="Rectángulo 212" width="1.619" height="1.619" transform="translate(27.88 29.025) rotate(-45)" fill="#ef3c79"/>
          <rect id="Rectángulo_213" data-name="Rectángulo 213" width="1.491" height="1.491" transform="translate(20.91 21.965) rotate(-45)" fill="#ef3c79"/>
          <rect id="Rectángulo_214" data-name="Rectángulo 214" width="1.363" height="1.363" transform="translate(13.94 14.904) rotate(-45)" fill="#ef3c79"/>
          <rect id="Rectángulo_215" data-name="Rectángulo 215" width="1.235" height="1.235" transform="translate(6.97 7.843) rotate(-45)" fill="#ef3c79"/>
          <rect id="Rectángulo_216" data-name="Rectángulo 216" width="1.107" height="1.107" transform="matrix(0.707, -0.707, 0.707, 0.707, 0, 0.783)" fill="#ef3c79"/>
        </g>
      </g>
      <g id="Grupo_72" data-name="Grupo 72" transform="translate(51.486 11.441)">
        <g id="Grupo_71" data-name="Grupo 71" transform="translate(0 0)">
          <rect id="Rectángulo_217" data-name="Rectángulo 217" width="2.516" height="2.516" transform="translate(76.671 78.45) rotate(-44.999)" fill="#ef3c79"/>
          <rect id="Rectángulo_218" data-name="Rectángulo 218" width="2.388" height="2.388" transform="translate(69.701 71.389) rotate(-44.999)" fill="#ef3c79"/>
          <rect id="Rectángulo_219" data-name="Rectángulo 219" width="2.26" height="2.26" transform="translate(62.731 64.329) rotate(-44.999)" fill="#ef3c79"/>
          <rect id="Rectángulo_220" data-name="Rectángulo 220" width="2.132" height="2.132" transform="matrix(0.707, -0.707, 0.707, 0.707, 55.761, 57.268)" fill="#ef3c79"/>
          <rect id="Rectángulo_221" data-name="Rectángulo 221" width="2.004" height="2.004" transform="translate(48.791 50.207) rotate(-44.999)" fill="#ef3c79"/>
          <rect id="Rectángulo_222" data-name="Rectángulo 222" width="1.876" height="1.876" transform="matrix(0.707, -0.707, 0.707, 0.707, 41.82, 43.147)" fill="#ef3c79"/>
          <rect id="Rectángulo_223" data-name="Rectángulo 223" width="1.748" height="1.748" transform="matrix(0.707, -0.707, 0.707, 0.707, 34.85, 36.086)" fill="#ef3c79"/>
          <rect id="Rectángulo_224" data-name="Rectángulo 224" width="1.619" height="1.619" transform="translate(27.88 29.025) rotate(-44.999)" fill="#ef3c79"/>
          <rect id="Rectángulo_225" data-name="Rectángulo 225" width="1.491" height="1.491" transform="translate(20.91 21.965) rotate(-45)" fill="#ef3c79"/>
          <rect id="Rectángulo_226" data-name="Rectángulo 226" width="1.363" height="1.363" transform="translate(13.94 14.904) rotate(-44.998)" fill="#ef3c79"/>
          <rect id="Rectángulo_227" data-name="Rectángulo 227" width="1.235" height="1.235" transform="translate(6.97 7.843) rotate(-45)" fill="#ef3c79"/>
          <rect id="Rectángulo_228" data-name="Rectángulo 228" width="1.107" height="1.107" transform="matrix(0.707, -0.707, 0.707, 0.707, 0, 0.783)" fill="#ef3c79"/>
        </g>
      </g>
      <g id="Grupo_74" data-name="Grupo 74" transform="translate(45.765 17.162)">
        <g id="Grupo_73" data-name="Grupo 73" transform="translate(0 0)">
          <rect id="Rectángulo_229" data-name="Rectángulo 229" width="2.516" height="2.516" transform="translate(76.671 78.45) rotate(-45.001)" fill="#ef3c79"/>
          <rect id="Rectángulo_230" data-name="Rectángulo 230" width="2.388" height="2.388" transform="translate(69.701 71.389) rotate(-45.001)" fill="#ef3c79"/>
          <rect id="Rectángulo_231" data-name="Rectángulo 231" width="2.26" height="2.26" transform="translate(62.731 64.329) rotate(-45)" fill="#ef3c79"/>
          <rect id="Rectángulo_232" data-name="Rectángulo 232" width="2.132" height="2.132" transform="matrix(0.707, -0.707, 0.707, 0.707, 55.761, 57.268)" fill="#ef3c79"/>
          <rect id="Rectángulo_233" data-name="Rectángulo 233" width="2.004" height="2.004" transform="translate(48.791 50.207) rotate(-45)" fill="#ef3c79"/>
          <rect id="Rectángulo_234" data-name="Rectángulo 234" width="1.876" height="1.876" transform="matrix(0.707, -0.707, 0.707, 0.707, 41.82, 43.147)" fill="#ef3c79"/>
          <rect id="Rectángulo_235" data-name="Rectángulo 235" width="1.748" height="1.748" transform="translate(34.85 36.086) rotate(-45)" fill="#ef3c79"/>
          <rect id="Rectángulo_236" data-name="Rectángulo 236" width="1.619" height="1.619" transform="translate(27.88 29.026) rotate(-45.001)" fill="#ef3c79"/>
          <rect id="Rectángulo_237" data-name="Rectángulo 237" width="1.491" height="1.491" transform="translate(20.91 21.965) rotate(-45)" fill="#ef3c79"/>
          <rect id="Rectángulo_238" data-name="Rectángulo 238" width="1.363" height="1.363" transform="translate(13.94 14.904) rotate(-45)" fill="#ef3c79"/>
          <rect id="Rectángulo_239" data-name="Rectángulo 239" width="1.235" height="1.235" transform="translate(6.97 7.843) rotate(-45)" fill="#ef3c79"/>
          <rect id="Rectángulo_240" data-name="Rectángulo 240" width="1.107" height="1.107" transform="translate(0 0.783) rotate(-44.998)" fill="#ef3c79"/>
        </g>
      </g>
      <g id="Grupo_76" data-name="Grupo 76" transform="translate(40.045 22.883)">
        <g id="Grupo_75" data-name="Grupo 75" transform="translate(0 0)">
          <rect id="Rectángulo_241" data-name="Rectángulo 241" width="2.516" height="2.516" transform="translate(76.671 78.45) rotate(-45.001)" fill="#ef3c79"/>
          <rect id="Rectángulo_242" data-name="Rectángulo 242" width="2.388" height="2.388" transform="translate(69.701 71.389) rotate(-45.001)" fill="#ef3c79"/>
          <rect id="Rectángulo_243" data-name="Rectángulo 243" width="2.26" height="2.26" transform="translate(62.731 64.329) rotate(-45)" fill="#ef3c79"/>
          <rect id="Rectángulo_244" data-name="Rectángulo 244" width="2.132" height="2.132" transform="matrix(0.707, -0.707, 0.707, 0.707, 55.761, 57.268)" fill="#ef3c79"/>
          <rect id="Rectángulo_245" data-name="Rectángulo 245" width="2.004" height="2.004" transform="translate(48.791 50.207) rotate(-45)" fill="#ef3c79"/>
          <rect id="Rectángulo_246" data-name="Rectángulo 246" width="1.876" height="1.876" transform="translate(41.82 43.147) rotate(-45.001)" fill="#ef3c79"/>
          <rect id="Rectángulo_247" data-name="Rectángulo 247" width="1.748" height="1.748" transform="translate(34.85 36.086) rotate(-45)" fill="#ef3c79"/>
          <rect id="Rectángulo_248" data-name="Rectángulo 248" width="1.619" height="1.619" transform="translate(27.88 29.025) rotate(-45.001)" fill="#ef3c79"/>
          <rect id="Rectángulo_249" data-name="Rectángulo 249" width="1.491" height="1.491" transform="translate(20.91 21.965) rotate(-45)" fill="#ef3c79"/>
          <rect id="Rectángulo_250" data-name="Rectángulo 250" width="1.363" height="1.363" transform="matrix(0.707, -0.707, 0.707, 0.707, 13.94, 14.904)" fill="#ef3c79"/>
          <rect id="Rectángulo_251" data-name="Rectángulo 251" width="1.235" height="1.235" transform="translate(6.97 7.843) rotate(-45)" fill="#ef3c79"/>
          <rect id="Rectángulo_252" data-name="Rectángulo 252" width="1.107" height="1.107" transform="matrix(0.707, -0.707, 0.707, 0.707, 0, 0.783)" fill="#ef3c79"/>
        </g>
      </g>
      <g id="Grupo_78" data-name="Grupo 78" transform="translate(34.324 28.603)">
        <g id="Grupo_77" data-name="Grupo 77" transform="translate(0 0)">
          <rect id="Rectángulo_253" data-name="Rectángulo 253" width="2.516" height="2.516" transform="translate(76.671 78.45) rotate(-45)" fill="#ef3c79"/>
          <rect id="Rectángulo_254" data-name="Rectángulo 254" width="2.388" height="2.388" transform="translate(69.701 71.389) rotate(-45)" fill="#ef3c79"/>
          <rect id="Rectángulo_255" data-name="Rectángulo 255" width="2.26" height="2.26" transform="translate(62.731 64.329) rotate(-45.001)" fill="#ef3c79"/>
          <rect id="Rectángulo_256" data-name="Rectángulo 256" width="2.132" height="2.132" transform="matrix(0.707, -0.707, 0.707, 0.707, 55.761, 57.268)" fill="#ef3c79"/>
          <rect id="Rectángulo_257" data-name="Rectángulo 257" width="2.004" height="2.004" transform="matrix(0.707, -0.707, 0.707, 0.707, 48.791, 50.207)" fill="#ef3c79"/>
          <rect id="Rectángulo_258" data-name="Rectángulo 258" width="1.876" height="1.876" transform="matrix(0.707, -0.707, 0.707, 0.707, 41.82, 43.147)" fill="#ef3c79"/>
          <rect id="Rectángulo_259" data-name="Rectángulo 259" width="1.748" height="1.748" transform="translate(34.85 36.086) rotate(-45)" fill="#ef3c79"/>
          <rect id="Rectángulo_260" data-name="Rectángulo 260" width="1.619" height="1.619" transform="translate(27.88 29.025) rotate(-45.001)" fill="#ef3c79"/>
          <rect id="Rectángulo_261" data-name="Rectángulo 261" width="1.491" height="1.491" transform="translate(20.91 21.965) rotate(-45)" fill="#ef3c79"/>
          <rect id="Rectángulo_262" data-name="Rectángulo 262" width="1.363" height="1.363" transform="matrix(0.707, -0.707, 0.707, 0.707, 13.94, 14.904)" fill="#ef3c79"/>
          <rect id="Rectángulo_263" data-name="Rectángulo 263" width="1.235" height="1.235" transform="translate(6.97 7.843) rotate(-45)" fill="#ef3c79"/>
          <rect id="Rectángulo_264" data-name="Rectángulo 264" width="1.107" height="1.107" transform="matrix(0.707, -0.707, 0.707, 0.707, 0, 0.783)" fill="#ef3c79"/>
        </g>
      </g>
      <g id="Grupo_80" data-name="Grupo 80" transform="translate(28.603 34.324)">
        <g id="Grupo_79" data-name="Grupo 79" transform="translate(0 0)">
          <rect id="Rectángulo_265" data-name="Rectángulo 265" width="2.516" height="2.516" transform="translate(76.671 78.45) rotate(-44.999)" fill="#ef3c79"/>
          <rect id="Rectángulo_266" data-name="Rectángulo 266" width="2.388" height="2.388" transform="translate(69.701 71.389) rotate(-45)" fill="#ef3c79"/>
          <rect id="Rectángulo_267" data-name="Rectángulo 267" width="2.26" height="2.26" transform="translate(62.731 64.329) rotate(-44.999)" fill="#ef3c79"/>
          <rect id="Rectángulo_268" data-name="Rectángulo 268" width="2.132" height="2.132" transform="translate(55.761 57.268) rotate(-45)" fill="#ef3c79"/>
          <rect id="Rectángulo_269" data-name="Rectángulo 269" width="2.004" height="2.004" transform="translate(48.791 50.207) rotate(-44.999)" fill="#ef3c79"/>
          <rect id="Rectángulo_270" data-name="Rectángulo 270" width="1.876" height="1.876" transform="matrix(0.707, -0.707, 0.707, 0.707, 41.82, 43.147)" fill="#ef3c79"/>
          <rect id="Rectángulo_271" data-name="Rectángulo 271" width="1.748" height="1.748" transform="matrix(0.707, -0.707, 0.707, 0.707, 34.85, 36.086)" fill="#ef3c79"/>
          <rect id="Rectángulo_272" data-name="Rectángulo 272" width="1.619" height="1.619" transform="translate(27.88 29.025) rotate(-45.001)" fill="#ef3c79"/>
          <rect id="Rectángulo_273" data-name="Rectángulo 273" width="1.491" height="1.491" transform="translate(20.91 21.965) rotate(-45)" fill="#ef3c79"/>
          <rect id="Rectángulo_274" data-name="Rectángulo 274" width="1.363" height="1.363" transform="translate(13.94 14.904) rotate(-45.002)" fill="#ef3c79"/>
          <rect id="Rectángulo_275" data-name="Rectángulo 275" width="1.235" height="1.235" transform="translate(6.97 7.843) rotate(-45)" fill="#ef3c79"/>
          <rect id="Rectángulo_276" data-name="Rectángulo 276" width="1.107" height="1.107" transform="matrix(0.707, -0.707, 0.707, 0.707, 0, 0.783)" fill="#ef3c79"/>
        </g>
      </g>
      <g id="Grupo_82" data-name="Grupo 82" transform="translate(22.883 40.045)">
        <g id="Grupo_81" data-name="Grupo 81" transform="translate(0 0)">
          <rect id="Rectángulo_277" data-name="Rectángulo 277" width="2.516" height="2.516" transform="translate(76.671 78.45) rotate(-44.999)" fill="#ef3c79"/>
          <rect id="Rectángulo_278" data-name="Rectángulo 278" width="2.388" height="2.388" transform="translate(69.701 71.389) rotate(-45)" fill="#ef3c79"/>
          <rect id="Rectángulo_279" data-name="Rectángulo 279" width="2.26" height="2.26" transform="translate(62.731 64.329) rotate(-44.999)" fill="#ef3c79"/>
          <rect id="Rectángulo_280" data-name="Rectángulo 280" width="2.132" height="2.132" transform="translate(55.761 57.268) rotate(-45)" fill="#ef3c79"/>
          <rect id="Rectángulo_281" data-name="Rectángulo 281" width="2.004" height="2.004" transform="translate(48.791 50.207) rotate(-44.999)" fill="#ef3c79"/>
          <rect id="Rectángulo_282" data-name="Rectángulo 282" width="1.876" height="1.876" transform="translate(41.82 43.147) rotate(-45)" fill="#ef3c79"/>
          <rect id="Rectángulo_283" data-name="Rectángulo 283" width="1.748" height="1.748" transform="matrix(0.707, -0.707, 0.707, 0.707, 34.85, 36.086)" fill="#ef3c79"/>
          <rect id="Rectángulo_284" data-name="Rectángulo 284" width="1.619" height="1.619" transform="translate(27.88 29.025) rotate(-45)" fill="#ef3c79"/>
          <rect id="Rectángulo_285" data-name="Rectángulo 285" width="1.491" height="1.491" transform="translate(20.91 21.965) rotate(-45)" fill="#ef3c79"/>
          <rect id="Rectángulo_286" data-name="Rectángulo 286" width="1.363" height="1.363" transform="translate(13.94 14.904) rotate(-45)" fill="#ef3c79"/>
          <rect id="Rectángulo_287" data-name="Rectángulo 287" width="1.235" height="1.235" transform="translate(6.97 7.843) rotate(-45)" fill="#ef3c79"/>
          <rect id="Rectángulo_288" data-name="Rectángulo 288" width="1.107" height="1.107" transform="matrix(0.707, -0.707, 0.707, 0.707, 0, 0.783)" fill="#ef3c79"/>
        </g>
      </g>
      <g id="Grupo_84" data-name="Grupo 84" transform="translate(17.162 45.765)">
        <g id="Grupo_83" data-name="Grupo 83" transform="translate(0 0)">
          <rect id="Rectángulo_289" data-name="Rectángulo 289" width="2.516" height="2.516" transform="translate(76.671 78.45) rotate(-44.999)" fill="#ef3c79"/>
          <rect id="Rectángulo_290" data-name="Rectángulo 290" width="2.388" height="2.388" transform="translate(69.701 71.389) rotate(-44.999)" fill="#ef3c79"/>
          <rect id="Rectángulo_291" data-name="Rectángulo 291" width="2.26" height="2.26" transform="translate(62.731 64.329) rotate(-44.999)" fill="#ef3c79"/>
          <rect id="Rectángulo_292" data-name="Rectángulo 292" width="2.132" height="2.132" transform="matrix(0.707, -0.707, 0.707, 0.707, 55.761, 57.268)" fill="#ef3c79"/>
          <rect id="Rectángulo_293" data-name="Rectángulo 293" width="2.004" height="2.004" transform="translate(48.791 50.207) rotate(-44.999)" fill="#ef3c79"/>
          <rect id="Rectángulo_294" data-name="Rectángulo 294" width="1.876" height="1.876" transform="matrix(0.707, -0.707, 0.707, 0.707, 41.82, 43.147)" fill="#ef3c79"/>
          <rect id="Rectángulo_295" data-name="Rectángulo 295" width="1.748" height="1.748" transform="matrix(0.707, -0.707, 0.707, 0.707, 34.85, 36.086)" fill="#ef3c79"/>
          <rect id="Rectángulo_296" data-name="Rectángulo 296" width="1.619" height="1.619" transform="translate(27.88 29.025) rotate(-44.999)" fill="#ef3c79"/>
          <rect id="Rectángulo_297" data-name="Rectángulo 297" width="1.491" height="1.491" transform="matrix(0.707, -0.707, 0.707, 0.707, 20.91, 21.965)" fill="#ef3c79"/>
          <rect id="Rectángulo_298" data-name="Rectángulo 298" width="1.363" height="1.363" transform="translate(13.94 14.904) rotate(-44.998)" fill="#ef3c79"/>
          <rect id="Rectángulo_299" data-name="Rectángulo 299" width="1.235" height="1.235" transform="translate(6.97 7.843) rotate(-44.998)" fill="#ef3c79"/>
          <rect id="Rectángulo_300" data-name="Rectángulo 300" width="1.107" height="1.107" transform="translate(0 0.783) rotate(-44.998)" fill="#ef3c79"/>
        </g>
      </g>
      <g id="Grupo_86" data-name="Grupo 86" transform="translate(11.441 51.486)">
        <g id="Grupo_85" data-name="Grupo 85" transform="translate(0 0)">
          <rect id="Rectángulo_301" data-name="Rectángulo 301" width="2.516" height="2.516" transform="matrix(0.707, -0.707, 0.707, 0.707, 76.671, 78.45)" fill="#ef3c79"/>
          <rect id="Rectángulo_302" data-name="Rectángulo 302" width="2.388" height="2.388" transform="translate(69.701 71.39) rotate(-45.001)" fill="#ef3c79"/>
          <rect id="Rectángulo_303" data-name="Rectángulo 303" width="2.26" height="2.26" transform="translate(62.731 64.329) rotate(-45.001)" fill="#ef3c79"/>
          <rect id="Rectángulo_304" data-name="Rectángulo 304" width="2.132" height="2.132" transform="matrix(0.707, -0.707, 0.707, 0.707, 55.761, 57.268)" fill="#ef3c79"/>
          <rect id="Rectángulo_305" data-name="Rectángulo 305" width="2.004" height="2.004" transform="translate(48.791 50.207) rotate(-45)" fill="#ef3c79"/>
          <rect id="Rectángulo_306" data-name="Rectángulo 306" width="1.876" height="1.876" transform="translate(41.82 43.147) rotate(-45.001)" fill="#ef3c79"/>
          <rect id="Rectángulo_307" data-name="Rectángulo 307" width="1.748" height="1.748" transform="translate(34.85 36.086) rotate(-45)" fill="#ef3c79"/>
          <rect id="Rectángulo_308" data-name="Rectángulo 308" width="1.619" height="1.619" transform="translate(27.88 29.025) rotate(-45.001)" fill="#ef3c79"/>
          <rect id="Rectángulo_309" data-name="Rectángulo 309" width="1.491" height="1.491" transform="translate(20.91 21.965) rotate(-45)" fill="#ef3c79"/>
          <rect id="Rectángulo_310" data-name="Rectángulo 310" width="1.363" height="1.363" transform="translate(13.94 14.904) rotate(-45)" fill="#ef3c79"/>
          <rect id="Rectángulo_311" data-name="Rectángulo 311" width="1.235" height="1.235" transform="translate(6.97 7.843) rotate(-45)" fill="#ef3c79"/>
          <rect id="Rectángulo_312" data-name="Rectángulo 312" width="1.107" height="1.107" transform="translate(0 0.783) rotate(-45)" fill="#ef3c79"/>
        </g>
      </g>
      <g id="Grupo_88" data-name="Grupo 88" transform="translate(5.721 57.207)">
        <g id="Grupo_87" data-name="Grupo 87" transform="translate(0 0)">
          <rect id="Rectángulo_313" data-name="Rectángulo 313" width="2.516" height="2.516" transform="translate(76.671 78.45) rotate(-45)" fill="#ef3c79"/>
          <rect id="Rectángulo_314" data-name="Rectángulo 314" width="2.388" height="2.388" transform="translate(69.701 71.389) rotate(-45)" fill="#ef3c79"/>
          <rect id="Rectángulo_315" data-name="Rectángulo 315" width="2.26" height="2.26" transform="translate(62.731 64.329) rotate(-45)" fill="#ef3c79"/>
          <rect id="Rectángulo_316" data-name="Rectángulo 316" width="2.132" height="2.132" transform="matrix(0.707, -0.707, 0.707, 0.707, 55.761, 57.268)" fill="#ef3c79"/>
          <rect id="Rectángulo_317" data-name="Rectángulo 317" width="2.004" height="2.004" transform="translate(48.79 50.207) rotate(-45.001)" fill="#ef3c79"/>
          <rect id="Rectángulo_318" data-name="Rectángulo 318" width="1.876" height="1.876" transform="matrix(0.707, -0.707, 0.707, 0.707, 41.82, 43.147)" fill="#ef3c79"/>
          <rect id="Rectángulo_319" data-name="Rectángulo 319" width="1.748" height="1.748" transform="translate(34.85 36.086) rotate(-45)" fill="#ef3c79"/>
          <rect id="Rectángulo_320" data-name="Rectángulo 320" width="1.619" height="1.619" transform="translate(27.88 29.025) rotate(-45.001)" fill="#ef3c79"/>
          <rect id="Rectángulo_321" data-name="Rectángulo 321" width="1.491" height="1.491" transform="translate(20.91 21.965) rotate(-45)" fill="#ef3c79"/>
          <rect id="Rectángulo_322" data-name="Rectángulo 322" width="1.363" height="1.363" transform="matrix(0.707, -0.707, 0.707, 0.707, 13.94, 14.904)" fill="#ef3c79"/>
          <rect id="Rectángulo_323" data-name="Rectángulo 323" width="1.235" height="1.235" transform="translate(6.97 7.843) rotate(-45)" fill="#ef3c79"/>
          <rect id="Rectángulo_324" data-name="Rectángulo 324" width="1.107" height="1.107" transform="matrix(0.707, -0.707, 0.707, 0.707, 0, 0.783)" fill="#ef3c79"/>
        </g>
      </g>
      <g id="Grupo_90" data-name="Grupo 90" transform="translate(0 62.927)">
        <g id="Grupo_89" data-name="Grupo 89" transform="translate(0 0)">
          <rect id="Rectángulo_325" data-name="Rectángulo 325" width="2.516" height="2.516" transform="translate(76.671 78.45) rotate(-45)" fill="#ef3c79"/>
          <rect id="Rectángulo_326" data-name="Rectángulo 326" width="2.388" height="2.388" transform="translate(69.701 71.389) rotate(-45)" fill="#ef3c79"/>
          <rect id="Rectángulo_327" data-name="Rectángulo 327" width="2.26" height="2.26" transform="translate(62.731 64.329) rotate(-45)" fill="#ef3c79"/>
          <rect id="Rectángulo_328" data-name="Rectángulo 328" width="2.132" height="2.132" transform="translate(55.761 57.268) rotate(-45)" fill="#ef3c79"/>
          <rect id="Rectángulo_329" data-name="Rectángulo 329" width="2.004" height="2.004" transform="translate(48.791 50.207) rotate(-45)" fill="#ef3c79"/>
          <rect id="Rectángulo_330" data-name="Rectángulo 330" width="1.876" height="1.876" transform="translate(41.82 43.147) rotate(-45)" fill="#ef3c79"/>
          <rect id="Rectángulo_331" data-name="Rectángulo 331" width="1.748" height="1.748" transform="matrix(0.707, -0.707, 0.707, 0.707, 34.85, 36.086)" fill="#ef3c79"/>
          <rect id="Rectángulo_332" data-name="Rectángulo 332" width="1.619" height="1.619" transform="translate(27.88 29.025) rotate(-45.001)" fill="#ef3c79"/>
          <rect id="Rectángulo_333" data-name="Rectángulo 333" width="1.491" height="1.491" transform="translate(20.91 21.965) rotate(-45.002)" fill="#ef3c79"/>
          <rect id="Rectángulo_334" data-name="Rectángulo 334" width="1.363" height="1.363" transform="translate(13.94 14.904) rotate(-45.002)" fill="#ef3c79"/>
          <rect id="Rectángulo_335" data-name="Rectángulo 335" width="1.235" height="1.235" transform="matrix(0.707, -0.707, 0.707, 0.707, 6.97, 7.843)" fill="#ef3c79"/>
          <rect id="Rectángulo_336" data-name="Rectángulo 336" width="1.107" height="1.107" transform="matrix(0.707, -0.707, 0.707, 0.707, 0, 0.783)" fill="#ef3c79"/>
        </g>
      </g>
    </g>
    <g id="Grupo_875935" data-name="Grupo 875935" transform="translate(1038.845 9114.363)">
      <g id="Grupo_4" data-name="Grupo 4">
        <rect id="Rectángulo_4" data-name="Rectángulo 4" width="2.516" height="2.516" fill="none" stroke="#fecb27" stroke-miterlimit="10" stroke-width="1.078"/>
        <rect id="Rectángulo_5" data-name="Rectángulo 5" width="2.516" height="2.516" transform="translate(19.233)" fill="none" stroke="#fecb27" stroke-miterlimit="10" stroke-width="1.078"/>
        <rect id="Rectángulo_6" data-name="Rectángulo 6" width="2.516" height="2.516" transform="translate(38.465)" fill="none" stroke="#fecb27" stroke-miterlimit="10" stroke-width="1.078"/>
        <rect id="Rectángulo_7" data-name="Rectángulo 7" width="2.516" height="2.516" transform="translate(57.697)" fill="none" stroke="#fecb27" stroke-miterlimit="10" stroke-width="1.078"/>
        <rect id="Rectángulo_8" data-name="Rectángulo 8" width="2.516" height="2.516" transform="translate(76.93)" fill="none" stroke="#fecb27" stroke-miterlimit="10" stroke-width="1.078"/>
        <rect id="Rectángulo_9" data-name="Rectángulo 9" width="2.516" height="2.516" transform="translate(96.162)" fill="none" stroke="#fecb27" stroke-miterlimit="10" stroke-width="1.078"/>
      </g>
      <g id="Grupo_5" data-name="Grupo 5" transform="translate(0 14.02)">
        <rect id="Rectángulo_10" data-name="Rectángulo 10" width="2.516" height="2.516" fill="none" stroke="#fecb27" stroke-miterlimit="10" stroke-width="1.078"/>
        <rect id="Rectángulo_11" data-name="Rectángulo 11" width="2.516" height="2.516" transform="translate(19.233)" fill="none" stroke="#fecb27" stroke-miterlimit="10" stroke-width="1.078"/>
        <rect id="Rectángulo_12" data-name="Rectángulo 12" width="2.516" height="2.516" transform="translate(38.465)" fill="none" stroke="#fecb27" stroke-miterlimit="10" stroke-width="1.078"/>
        <rect id="Rectángulo_13" data-name="Rectángulo 13" width="2.516" height="2.516" transform="translate(57.697)" fill="none" stroke="#fecb27" stroke-miterlimit="10" stroke-width="1.078"/>
        <rect id="Rectángulo_14" data-name="Rectángulo 14" width="2.516" height="2.516" transform="translate(76.93)" fill="none" stroke="#fecb27" stroke-miterlimit="10" stroke-width="1.078"/>
        <rect id="Rectángulo_15" data-name="Rectángulo 15" width="2.516" height="2.516" transform="translate(96.162)" fill="none" stroke="#fecb27" stroke-miterlimit="10" stroke-width="1.078"/>
      </g>
      <g id="Grupo_6" data-name="Grupo 6" transform="translate(0 28.04)">
        <rect id="Rectángulo_16" data-name="Rectángulo 16" width="2.516" height="2.516" fill="none" stroke="#fecb27" stroke-miterlimit="10" stroke-width="1.078"/>
        <rect id="Rectángulo_17" data-name="Rectángulo 17" width="2.516" height="2.516" transform="translate(19.233)" fill="none" stroke="#fecb27" stroke-miterlimit="10" stroke-width="1.078"/>
        <rect id="Rectángulo_18" data-name="Rectángulo 18" width="2.516" height="2.516" transform="translate(38.465)" fill="none" stroke="#fecb27" stroke-miterlimit="10" stroke-width="1.078"/>
        <rect id="Rectángulo_19" data-name="Rectángulo 19" width="2.516" height="2.516" transform="translate(57.697)" fill="none" stroke="#fecb27" stroke-miterlimit="10" stroke-width="1.078"/>
        <rect id="Rectángulo_20" data-name="Rectángulo 20" width="2.516" height="2.516" transform="translate(76.93)" fill="none" stroke="#fecb27" stroke-miterlimit="10" stroke-width="1.078"/>
        <rect id="Rectángulo_21" data-name="Rectángulo 21" width="2.516" height="2.516" transform="translate(96.162)" fill="none" stroke="#fecb27" stroke-miterlimit="10" stroke-width="1.078"/>
      </g>
      <g id="Grupo_7" data-name="Grupo 7" transform="translate(0 42.06)">
        <rect id="Rectángulo_22" data-name="Rectángulo 22" width="2.516" height="2.516" fill="none" stroke="#fecb27" stroke-miterlimit="10" stroke-width="1.078"/>
        <rect id="Rectángulo_23" data-name="Rectángulo 23" width="2.516" height="2.516" transform="translate(19.233)" fill="none" stroke="#fecb27" stroke-miterlimit="10" stroke-width="1.078"/>
        <rect id="Rectángulo_24" data-name="Rectángulo 24" width="2.516" height="2.516" transform="translate(38.465)" fill="none" stroke="#fecb27" stroke-miterlimit="10" stroke-width="1.078"/>
        <rect id="Rectángulo_25" data-name="Rectángulo 25" width="2.516" height="2.516" transform="translate(57.697)" fill="none" stroke="#fecb27" stroke-miterlimit="10" stroke-width="1.078"/>
        <rect id="Rectángulo_26" data-name="Rectángulo 26" width="2.516" height="2.516" transform="translate(76.93)" fill="none" stroke="#fecb27" stroke-miterlimit="10" stroke-width="1.078"/>
        <rect id="Rectángulo_27" data-name="Rectángulo 27" width="2.516" height="2.516" transform="translate(96.162)" fill="none" stroke="#fecb27" stroke-miterlimit="10" stroke-width="1.078"/>
      </g>
      <g id="Grupo_8" data-name="Grupo 8" transform="translate(0 56.08)">
        <rect id="Rectángulo_28" data-name="Rectángulo 28" width="2.516" height="2.516" fill="none" stroke="#fecb27" stroke-miterlimit="10" stroke-width="1.078"/>
        <rect id="Rectángulo_29" data-name="Rectángulo 29" width="2.516" height="2.516" transform="translate(19.233)" fill="none" stroke="#fecb27" stroke-width="1"/>
        <rect id="Rectángulo_30" data-name="Rectángulo 30" width="2.516" height="2.516" transform="translate(38.465)" fill="none" stroke="#fecb27" stroke-width="1"/>
        <rect id="Rectángulo_31" data-name="Rectángulo 31" width="2.516" height="2.516" transform="translate(57.697)" fill="none" stroke="#fecb27" stroke-miterlimit="10" stroke-width="1.078"/>
        <rect id="Rectángulo_32" data-name="Rectángulo 32" width="2.516" height="2.516" transform="translate(76.93)" fill="none" stroke="#fecb27" stroke-miterlimit="10" stroke-width="1.078"/>
        <rect id="Rectángulo_33" data-name="Rectángulo 33" width="2.516" height="2.516" transform="translate(96.162)" fill="none" stroke="#fecb27" stroke-miterlimit="10" stroke-width="1.078"/>
      </g>
      <g id="Grupo_9" data-name="Grupo 9" transform="translate(0 70.1)">
        <rect id="Rectángulo_34" data-name="Rectángulo 34" width="2.516" height="2.516" fill="none" stroke="#fecb27" stroke-miterlimit="10" stroke-width="1.078"/>
        <rect id="Rectángulo_35" data-name="Rectángulo 35" width="2.516" height="2.516" transform="translate(19.233)" fill="none" stroke="#fecb27" stroke-miterlimit="10" stroke-width="1.078"/>
        <rect id="Rectángulo_36" data-name="Rectángulo 36" width="2.516" height="2.516" transform="translate(38.465)" fill="none" stroke="#fecb27" stroke-miterlimit="10" stroke-width="1.078"/>
        <rect id="Rectángulo_37" data-name="Rectángulo 37" width="2.516" height="2.516" transform="translate(57.697)" fill="none" stroke="#fecb27" stroke-width="1"/>
        <rect id="Rectángulo_38" data-name="Rectángulo 38" width="2.516" height="2.516" transform="translate(76.93)" fill="none" stroke="#fecb27" stroke-miterlimit="10" stroke-width="1.078"/>
        <rect id="Rectángulo_39" data-name="Rectángulo 39" width="2.516" height="2.516" transform="translate(96.162)" fill="none" stroke="#fecb27" stroke-miterlimit="10" stroke-width="1.078"/>
      </g>
      <g id="Grupo_10" data-name="Grupo 10" transform="translate(0 84.119)">
        <rect id="Rectángulo_40" data-name="Rectángulo 40" width="2.516" height="2.516" fill="none" stroke="#fecb27" stroke-miterlimit="10" stroke-width="1.078"/>
        <rect id="Rectángulo_41" data-name="Rectángulo 41" width="2.516" height="2.516" transform="translate(19.233)" fill="none" stroke="#fecb27" stroke-miterlimit="10" stroke-width="1.078"/>
        <rect id="Rectángulo_42" data-name="Rectángulo 42" width="2.516" height="2.516" transform="translate(38.465)" fill="none" stroke="#fecb27" stroke-miterlimit="10" stroke-width="1.078"/>
        <rect id="Rectángulo_43" data-name="Rectángulo 43" width="2.516" height="2.516" transform="translate(57.697)" fill="none" stroke="#fecb27" stroke-miterlimit="10" stroke-width="1.078"/>
        <rect id="Rectángulo_44" data-name="Rectángulo 44" width="2.516" height="2.516" transform="translate(76.93)" fill="none" stroke="#fecb27" stroke-width="1"/>
        <rect id="Rectángulo_45" data-name="Rectángulo 45" width="2.516" height="2.516" transform="translate(96.162)" fill="none" stroke="#fecb27" stroke-miterlimit="10" stroke-width="1.078"/>
      </g>
    </g>
    <g id="Grupo_879273" data-name="Grupo 879273" transform="translate(1076.542 8952.747)">
      <path id="Trazado_34" data-name="Trazado 34" d="M693.184,390.082l-5.866,10.16H699.05Z" transform="translate(-687.318 -295.25)" fill="#fdfdfd"/>
      <path id="Trazado_35" data-name="Trazado 35" d="M693.184,361.354l-5.866,10.16H699.05Z" transform="translate(-687.318 -283.539)" fill="#fdfdfd"/>
      <path id="Trazado_36" data-name="Trazado 36" d="M693.184,332.626l-5.866,10.16H699.05Z" transform="translate(-687.318 -271.828)" fill="#fdfdfd"/>
      <path id="Trazado_37" data-name="Trazado 37" d="M694.879,245.931l-3.4,5.894h6.806Z" transform="translate(-650.57 -245.931)" fill="#f13b76"/>
    </g>
    <g id="Recurso_1" data-name="Recurso 1" transform="translate(1075 8907)" fill="#f6f6f6">
      <path d="M 288.322998046875 281.509765625 L 20.99999809265137 281.509765625 C 18.29957580566406 281.509765625 15.68046092987061 280.9811096191406 13.21542167663574 279.9385070800781 C 10.83396053314209 278.9311828613281 8.694960594177246 277.4889831542969 6.857883453369141 275.6519165039062 C 5.020768165588379 273.8148193359375 3.578575849533081 271.6758422851562 2.571306705474854 269.2943725585938 C 1.528652906417847 266.8293151855469 0.9999990463256836 264.210205078125 0.9999990463256836 261.509765625 L 0.9999990463256836 20.99999809265137 C 0.9999990463256836 18.29957580566406 1.528652906417847 15.68045997619629 2.571306705474854 13.21542167663574 C 3.578575849533081 10.83395957946777 5.020768165588379 8.69495964050293 6.857883453369141 6.857882976531982 C 8.694960594177246 5.020767211914062 10.83396053314209 3.578575134277344 13.21542167663574 2.571305990219116 C 15.68046092987061 1.52865207195282 18.29957580566406 0.9999982118606567 20.99999809265137 0.9999982118606567 L 288.322998046875 0.9999982118606567 C 291.0234069824219 0.9999982118606567 293.6425476074219 1.52865207195282 296.1076049804688 2.571305990219116 C 298.4890747070312 3.578575134277344 300.6280517578125 5.020767211914062 302.4651489257812 6.857882976531982 C 304.3022155761719 8.69495964050293 305.7444152832031 10.83395957946777 306.7517395019531 13.21542167663574 C 307.7943420410156 15.68045997619629 308.322998046875 18.29957580566406 308.322998046875 20.99999809265137 L 308.322998046875 261.509765625 C 308.322998046875 264.210205078125 307.7943420410156 266.8293151855469 306.7517395019531 269.2943725585938 C 305.7444152832031 271.6758422851562 304.3022155761719 273.8148193359375 302.4651489257812 275.6519165039062 C 300.6280517578125 277.4889831542969 298.4890747070312 278.9311828613281 296.1076049804688 279.9385070800781 C 293.6425476074219 280.9811096191406 291.0234069824219 281.509765625 288.322998046875 281.509765625 Z" stroke="none"/>
      <path d="M 21 2 C 15.9249267578125 2 11.15359497070312 3.976348876953125 7.564971923828125 7.564971923828125 C 3.976318359375 11.15359497070312 2 15.9249267578125 2 21 L 2 261.509765625 C 2 266.5848388671875 3.976318359375 271.3561706542969 7.564971923828125 274.9447937011719 C 11.15359497070312 278.5334167480469 15.9249267578125 280.509765625 21 280.509765625 L 288.322998046875 280.509765625 C 293.3980712890625 280.509765625 298.1694030761719 278.5334167480469 301.7580261230469 274.9447937011719 C 305.3466796875 271.3561706542969 307.322998046875 266.5848388671875 307.322998046875 261.509765625 L 307.322998046875 21 C 307.322998046875 15.9249267578125 305.3466796875 11.15359497070312 301.7580261230469 7.564971923828125 C 298.1694030761719 3.976348876953125 293.3980712890625 2 288.322998046875 2 L 21 2 M 21 0 L 288.322998046875 0 C 299.9209899902344 0 309.322998046875 9.402008056640625 309.322998046875 21 L 309.322998046875 261.509765625 C 309.322998046875 273.1077575683594 299.9209899902344 282.509765625 288.322998046875 282.509765625 L 21 282.509765625 C 9.402008056640625 282.509765625 0 273.1077575683594 0 261.509765625 L 0 21 C 0 9.402008056640625 9.402008056640625 0 21 0 Z" stroke="none" fill="#ef3c79"/>
    </g>
    <path id="Trazado_183765" data-name="Trazado 183765" d="M0,0H28.071" transform="translate(1161 9149.5)" fill="none" stroke="#000" stroke-width="2"/>
    <path id="Trazado_183765-2" data-name="Trazado 183765" d="M0,0H21.4" transform="translate(1164 9154.5)" fill="none" stroke="#000" stroke-width="2"/>
    <path id="Trazado_183765-3" data-name="Trazado 183765" d="M0,0H14.036" transform="translate(1168 9159.5)" fill="none" stroke="#000" stroke-width="2"/>
    <g id="Trazado_635705" data-name="Trazado 635705" transform="translate(1245.085 9002.143) rotate(180)" fill="#707070">
      <path d="M 11.7063455581665 10.09761810302734 L 0.8783715963363647 10.09761810302734 L 6.2923583984375 0.9793580770492554 L 11.7063455581665 10.09761810302734 Z" stroke="none"/>
      <path d="M 6.2923583984375 1.958701133728027 L 1.756734848022461 9.597618103027344 L 10.82798194885254 9.597618103027344 L 6.2923583984375 1.958701133728027 M 6.2923583984375 -1.9073486328125e-06 L 12.58471870422363 10.59761810302734 L -1.9073486328125e-06 10.59761810302734 L 6.2923583984375 -1.9073486328125e-06 Z" stroke="none" fill="#000"/>
    </g>
    <g id="Trazado_635706" data-name="Trazado 635706" transform="translate(1206.5 9133)" fill="#ef3c79">
      <path d="M 51 25.5 L 13 25.5 C 9.661129951477051 25.5 6.52209997177124 24.19976997375488 4.16117000579834 21.83883094787598 C 1.800230026245117 19.4778995513916 0.5 16.33886909484863 0.5 13 C 0.5 9.661129951477051 1.800230026245117 6.52209997177124 4.16117000579834 4.16117000579834 C 6.52209997177124 1.800230026245117 9.661129951477051 0.5 13 0.5 L 51 0.5 C 54.33887100219727 0.5 57.47790145874023 1.800230026245117 59.83882904052734 4.16117000579834 C 62.19977188110352 6.52209997177124 63.5 9.661129951477051 63.5 13 C 63.5 16.33886909484863 62.19977188110352 19.4778995513916 59.83882904052734 21.83883094787598 C 57.47790145874023 24.19976997375488 54.33887100219727 25.5 51 25.5 Z" stroke="none"/>
      <path d="M 13 1 C 9.794681549072266 1 6.781219482421875 2.248220443725586 4.514720916748047 4.514720916748047 C 2.248218536376953 6.781219482421875 1 9.794679641723633 1 13 C 1 16.20532035827637 2.248218536376953 19.21878051757812 4.514720916748047 21.48527908325195 C 6.781219482421875 23.75177955627441 9.794681549072266 25 13 25 L 51 25 C 54.205322265625 25 57.21878051757812 23.75177955627441 59.48527908325195 21.48527908325195 C 61.75178146362305 19.21878051757812 63 16.20532035827637 63 13 C 63 9.794679641723633 61.75178146362305 6.781219482421875 59.48527908325195 4.514720916748047 C 57.21878051757812 2.248220443725586 54.205322265625 1 51 1 L 13 1 M 13 0 L 51 0 C 58.1796989440918 0 64 5.82029914855957 64 13 C 64 20.1796989440918 58.1796989440918 26 51 26 L 13 26 C 5.820301055908203 26 0 20.1796989440918 0 13 C 0 5.82029914855957 5.820301055908203 0 13 0 Z" stroke="none" fill="#000"/>
    </g>
    <path id="Trazado_635707" data-name="Trazado 635707" d="M4.792,0,9.585,7.6H0Z" transform="matrix(-0.292, -0.956, 0.956, -0.292, 1241.318, 9049.094)" fill="#ef3c79"/>
    <path id="Trazado_635196" data-name="Trazado 635196" d="M-703.469-2734.029C-673.2-2721.6-695-2712.4-726.4-2709.6" transform="translate(1967.5 11753)" fill="none" stroke="#ef3c79" stroke-width="1"/>
    <path id="Trazado_635708" data-name="Trazado 635708" d="M4.792,0,9.585,7.6H0Z" transform="matrix(-0.292, -0.956, 0.956, -0.292, 1241.302, 9110.094)" fill="#0b5999"/>
    <path id="Trazado_635196-2" data-name="Trazado 635196" d="M-703.469-2734.029C-673.2-2721.6-695-2712.4-726.4-2709.6" transform="translate(1967.485 11814)" fill="none" stroke="#0b5999" stroke-width="1"/>
    <path id="Trazado_635709" data-name="Trazado 635709" d="M4.679,0,9.358,7.418H0Z" transform="translate(1265.444 9040.01) rotate(-30)" fill="#fecb2f"/>
    <path id="Trazado_635196-3" data-name="Trazado 635196" d="M-702.964-2700.232c19.054-23.375,7.222-31.063-23.436-33.8" transform="translate(-63.746 11534.197) rotate(43)" fill="none" stroke="#fecb2f" stroke-width="1"/>
    <path id="Trazado_635710" data-name="Trazado 635710" d="M4.679,0,9.358,7.418H0Z" transform="translate(1179.75 9148.149) rotate(178)" fill="#21cbae"/>
    <path id="Trazado_635196-4" data-name="Trazado 635196" d="M-707.564-2661.361c18.184-28.852,11.822-69.934-18.836-72.668" transform="translate(3524.306 7569.93) rotate(-109)" fill="none" stroke="#21cbae" stroke-width="1"/>
    <path id="Trazado_183765-4" data-name="Trazado 183765" d="M0,0H166.332" transform="translate(1239 8964.001) rotate(90)" fill="none" stroke="#000" stroke-width="2"/>
    <g id="Trazado_635711" data-name="Trazado 635711" transform="translate(1245.085 9063.143) rotate(180)" fill="#707070">
      <path d="M 11.7063455581665 10.09761810302734 L 0.8783715963363647 10.09761810302734 L 6.2923583984375 0.9793580770492554 L 11.7063455581665 10.09761810302734 Z" stroke="none"/>
      <path d="M 6.2923583984375 1.958701133728027 L 1.756734848022461 9.597618103027344 L 10.82798194885254 9.597618103027344 L 6.2923583984375 1.958701133728027 M 6.2923583984375 -1.9073486328125e-06 L 12.58471870422363 10.59761810302734 L -1.9073486328125e-06 10.59761810302734 L 6.2923583984375 -1.9073486328125e-06 Z" stroke="none" fill="#000"/>
    </g>
    <g id="Trazado_635712" data-name="Trazado 635712" transform="translate(1245.085 9132.143) rotate(180)" fill="#707070">
      <path d="M 11.7063455581665 10.09761810302734 L 0.8783715963363647 10.09761810302734 L 6.2923583984375 0.9793580770492554 L 11.7063455581665 10.09761810302734 Z" stroke="none"/>
      <path d="M 6.2923583984375 1.958701133728027 L 1.756734848022461 9.597618103027344 L 10.82798194885254 9.597618103027344 L 6.2923583984375 1.958701133728027 M 6.2923583984375 -1.9073486328125e-06 L 12.58471870422363 10.59761810302734 L -1.9073486328125e-06 10.59761810302734 L 6.2923583984375 -1.9073486328125e-06 Z" stroke="none" fill="#000"/>
    </g>
    <path id="Trazado_635713" data-name="Trazado 635713" d="M15.926,12.172H11.613v2.719h5.094V17H8.871V5.625h7.852V7.742H11.613v2.4h4.313Zm4.2-3.625.086.992a2.867,2.867,0,0,1,2.414-1.148,2.412,2.412,0,0,1,1.973.789,3.757,3.757,0,0,1,.676,2.375V17H22.629V11.664a1.426,1.426,0,0,0-.258-.941,1.193,1.193,0,0,0-.937-.3,1.256,1.256,0,0,0-1.148.609V17H17.652V8.547Zm6.273,4.164a5.164,5.164,0,0,1,.867-3.164,2.854,2.854,0,0,1,2.422-1.156,2.428,2.428,0,0,1,1.906.891V5H34.23V17H31.863l-.133-.906a2.493,2.493,0,0,1-2.062,1.063A2.849,2.849,0,0,1,27.277,16,5.327,5.327,0,0,1,26.395,12.711Zm2.633.164q0,2.25,1.313,2.25a1.3,1.3,0,0,0,1.25-.734V11.172a1.261,1.261,0,0,0-1.234-.75q-1.219,0-1.32,1.969Z" transform="translate(1217.5 9137)" fill="#12263f"/>
    <path id="Trazado_635194" data-name="Trazado 635194" d="M-702.894-2754.857l-25.392,17.974,25.392,17.683,25.639-17.683s-19.044-13.7-25.639-17.974" transform="translate(1941.286 11756)" fill="#fecb2f" stroke="#000" stroke-width="1"/>
    <path id="Trazado_635195" data-name="Trazado 635195" d="M-702.894-2754.857l-25.392,17.974,25.392,17.683,25.639-17.683s-19.044-13.7-25.639-17.974" transform="translate(1941.286 11817)" fill="#21cbae" stroke="#000" stroke-width="1"/>
    <g id="Trazado_635714" data-name="Trazado 635714" transform="translate(1222.5 8938)" fill="#0b5999">
      <path d="M 16 31.5 C 11.85980033874512 31.5 7.967410087585449 29.88772010803223 5.039840221405029 26.96015930175781 C 2.112279891967773 24.03259086608887 0.5 20.14019966125488 0.5 16 C 0.5 11.85980033874512 2.112279891967773 7.967410087585449 5.039840221405029 5.039840221405029 C 7.967410087585449 2.112279891967773 11.85980033874512 0.5 16 0.5 C 20.14019966125488 0.5 24.03259086608887 2.112279891967773 26.96015930175781 5.039840221405029 C 29.88772010803223 7.967410087585449 31.5 11.85980033874512 31.5 16 C 31.5 20.14019966125488 29.88772010803223 24.03259086608887 26.96015930175781 26.96015930175781 C 24.03259086608887 29.88772010803223 20.14019966125488 31.5 16 31.5 Z" stroke="none"/>
      <path d="M 16 1 C 11.99334907531738 1 8.226520538330078 2.560270309448242 5.393400192260742 5.393400192260742 C 2.560270309448242 8.226520538330078 1 11.99334907531738 1 16 C 1 20.00664901733398 2.560270309448242 23.77347946166992 5.393400192260742 26.60659980773926 C 8.226520538330078 29.43972969055176 11.99334907531738 31 16 31 C 20.00664901733398 31 23.77347946166992 29.43972969055176 26.60659980773926 26.60659980773926 C 29.43972969055176 23.77347946166992 31 20.00664901733398 31 16 C 31 11.99334907531738 29.43972969055176 8.226520538330078 26.60659980773926 5.393400192260742 C 23.77347946166992 2.560270309448242 20.00664901733398 1 16 1 M 16 0 C 24.8365592956543 0 32 7.163440704345703 32 16 C 32 24.8365592956543 24.8365592956543 32 16 32 C 7.163440704345703 32 0 24.8365592956543 0 16 C 0 7.163440704345703 7.163440704345703 0 16 0 Z" stroke="none" fill="#000"/>
    </g>
    <path id="Trazado_635715" data-name="Trazado 635715" d="M0,0H31V13H0Z" transform="translate(1172 9111)" fill="#f6f6f6"/>
    <path id="Trazado_635716" data-name="Trazado 635716" d="M6.25,13H5.16V5.775l-2.186.8V5.594L6.08,4.428h.17Zm8.525-3.639a4.958,4.958,0,0,1-.65,2.83,2.313,2.313,0,0,1-2.033.926,2.33,2.33,0,0,1-2.021-.905,4.706,4.706,0,0,1-.68-2.7V8.061a4.847,4.847,0,0,1,.65-2.795,2.331,2.331,0,0,1,2.039-.914,2.352,2.352,0,0,1,2.027.882,4.678,4.678,0,0,1,.668,2.722ZM13.691,7.879A3.972,3.972,0,0,0,13.3,5.872a1.331,1.331,0,0,0-1.225-.63,1.314,1.314,0,0,0-1.213.627A3.878,3.878,0,0,0,10.475,7.8V9.531a4.036,4.036,0,0,0,.4,2.042,1.329,1.329,0,0,0,1.216.659,1.31,1.31,0,0,0,1.192-.621,3.89,3.89,0,0,0,.407-1.957Zm7.465,2.889H17.582L16.779,13h-1.16l3.258-8.531h.984L23.125,13H21.971Zm-3.234-.92h2.9l-1.453-3.99ZM27.555,13h-1.09V5.775l-2.186.8V5.594l3.105-1.166h.17Z" transform="translate(1171 9110)" fill="#12263f"/>
    <path id="Trazado_635717" data-name="Trazado 635717" d="M0,0H31V13H0Z" transform="translate(1266 9091)" fill="#f6f6f6"/>
    <path id="Trazado_635718" data-name="Trazado 635718" d="M3.555,8.723l.434-4.254H8.359v1H4.908L4.65,7.8a2.753,2.753,0,0,1,1.424-.369A2.354,2.354,0,0,1,7.926,8.2a3.02,3.02,0,0,1,.686,2.083A2.915,2.915,0,0,1,7.9,12.358a2.6,2.6,0,0,1-1.989.759,2.7,2.7,0,0,1-1.846-.627,2.5,2.5,0,0,1-.814-1.734H4.275a1.722,1.722,0,0,0,.521,1.1,1.621,1.621,0,0,0,1.113.372A1.463,1.463,0,0,0,7.1,11.717a2.156,2.156,0,0,0,.431-1.424,1.978,1.978,0,0,0-.466-1.374A1.584,1.584,0,0,0,5.822,8.4a1.787,1.787,0,0,0-1.113.311l-.287.234Zm11.232,2.045H11.213L10.41,13H9.25l3.258-8.531h.984L16.756,13H15.6Zm-3.234-.92h2.9L13,5.857ZM23.213,13h-5.59v-.779l2.953-3.281a7.016,7.016,0,0,0,.905-1.21,2.019,2.019,0,0,0,.249-.964,1.531,1.531,0,0,0-.4-1.1,1.414,1.414,0,0,0-1.078-.428,1.674,1.674,0,0,0-1.257.46,1.757,1.757,0,0,0-.448,1.28H17.459a2.516,2.516,0,0,1,.759-1.9,2.813,2.813,0,0,1,2.03-.727,2.7,2.7,0,0,1,1.881.624,2.129,2.129,0,0,1,.691,1.661,4.88,4.88,0,0,1-1.605,3L18.93,12.115h4.283Z" transform="translate(1265 9090)" fill="#12263f"/>
    <path id="Trazado_635719" data-name="Trazado 635719" d="M0,0H27V13H0Z" transform="translate(1274 9057)" fill="#f6f6f6"/>
    <path id="Trazado_635720" data-name="Trazado 635720" d="M2.055,8.723l.434-4.254H6.859v1H3.408L3.15,7.8a2.753,2.753,0,0,1,1.424-.369A2.354,2.354,0,0,1,6.426,8.2a3.02,3.02,0,0,1,.686,2.083A2.915,2.915,0,0,1,6.4,12.358a2.6,2.6,0,0,1-1.989.759,2.7,2.7,0,0,1-1.846-.627,2.5,2.5,0,0,1-.814-1.734H2.775a1.722,1.722,0,0,0,.521,1.1,1.621,1.621,0,0,0,1.113.372A1.463,1.463,0,0,0,5.6,11.717a2.156,2.156,0,0,0,.431-1.424,1.978,1.978,0,0,0-.466-1.374A1.584,1.584,0,0,0,4.322,8.4a1.787,1.787,0,0,0-1.113.311l-.287.234Zm11.232,2.045H9.713L8.91,13H7.75l3.258-8.531h.984L15.256,13H14.1Zm-3.234-.92h2.9L11.5,5.857ZM19.686,13H18.6V5.775l-2.186.8V5.594l3.105-1.166h.17Z" transform="translate(1274 9056)" fill="#12263f"/>
    <path id="Trazado_635721" data-name="Trazado 635721" d="M0,0H26V13H0Z" transform="translate(1270 9020)" fill="#f6f6f6"/>
    <path id="Trazado_635722" data-name="Trazado 635722" d="M5.133,8.207h.814a1.79,1.79,0,0,0,1.207-.4,1.351,1.351,0,0,0,.439-1.061A1.323,1.323,0,0,0,6.1,5.242a1.554,1.554,0,0,0-1.122.4,1.4,1.4,0,0,0-.419,1.063H3.475a2.176,2.176,0,0,1,.741-1.685A2.7,2.7,0,0,1,6.1,4.352a2.668,2.668,0,0,1,1.893.639,2.307,2.307,0,0,1,.686,1.775,1.873,1.873,0,0,1-.36,1.078,2.176,2.176,0,0,1-.981.779,2.1,2.1,0,0,1,1.087.738,2.05,2.05,0,0,1,.384,1.26,2.327,2.327,0,0,1-.75,1.822,2.809,2.809,0,0,1-1.951.674,2.883,2.883,0,0,1-1.954-.65A2.158,2.158,0,0,1,3.4,10.75h1.09a1.394,1.394,0,0,0,.439,1.078,1.671,1.671,0,0,0,1.178.4,1.64,1.64,0,0,0,1.2-.41,1.581,1.581,0,0,0,.416-1.178A1.434,1.434,0,0,0,7.266,9.5a1.991,1.991,0,0,0-1.318-.41H5.133Zm10.154,2.561H11.713L10.91,13H9.75l3.258-8.531h.984L17.256,13H16.1Zm-3.234-.92h2.9L13.5,5.857ZM21.686,13H20.6V5.775l-2.186.8V5.594l3.105-1.166h.17Z" transform="translate(1269 9019)" fill="#12263f"/>
  </g>
</svg>
