<svg xmlns="http://www.w3.org/2000/svg" width="382.716" height="321.539" viewBox="0 0 382.716 321.539">
  <g id="Grupo_906582" data-name="Grupo 906582" transform="translate(-952.823 -3325)">
    <g id="Grupo_905502" data-name="Grupo 905502" transform="translate(1035.823 3456.748)">
      <g id="Grupo_880390" data-name="Grupo 880390" transform="translate(0 -59)">
        <g id="Grupo_2" data-name="Grupo 2" transform="translate(156.5 0.25)">
          <path id="Trazado_1" data-name="Trazado 1" d="M-38.776-75.2,43.112,6.688q-.569,3.512-1.471,6.9L-45.679-73.728Q-42.29-74.629-38.776-75.2Z" transform="translate(98.633 76.131)" fill="none" stroke="#0b5999" stroke-miterlimit="10" stroke-width="1.078"/>
          <path id="Trazado_2" data-name="Trazado 2" d="M-36.831-72.715,50.488,14.6q-.863,3.244-2.012,6.364L-43.195-70.7Q-40.08-71.855-36.831-72.715Z" transform="translate(89.786 75.119)" fill="none" stroke="#0b5999" stroke-miterlimit="10" stroke-width="1.078"/>
          <path id="Trazado_3" data-name="Trazado 3" d="M-14.592-48.491l100.5,100.5c-1.274,1.513-2.6,2.978-4,4.379L-18.971-44.5C-17.569-45.888-16.1-47.217-14.592-48.491Z" transform="translate(40.019 65.244)" fill="none" stroke="#0b5999" stroke-miterlimit="10" stroke-width="1.078"/>
          <path id="Trazado_4" data-name="Trazado 4" d="M-20.4-54.647,79.016,44.769q-1.729,2.44-3.647,4.728L-25.128-51Q-22.845-52.922-20.4-54.647Z" transform="translate(50.555 67.753)" fill="none" stroke="#0b5999" stroke-miterlimit="10" stroke-width="1.078"/>
          <path id="Trazado_5" data-name="Trazado 5" d="M-30.137-65.12,64.935,29.952c-.89,1.869-1.868,3.688-2.912,5.463L-35.6-62.207C-33.825-63.252-32.006-64.23-30.137-65.12Z" transform="translate(70.839 72.023)" fill="none" stroke="#0b5999" stroke-miterlimit="10" stroke-width="1.078"/>
          <path id="Trazado_6" data-name="Trazado 6" d="M-25.6-60.2,72.023,37.42q-1.539,2.617-3.291,5.084L-30.684-56.912Q-28.217-58.661-25.6-60.2Z" transform="translate(60.84 70.018)" fill="none" stroke="#0b5999" stroke-miterlimit="10" stroke-width="1.078"/>
          <path id="Trazado_7" data-name="Trazado 7" d="M-33.911-69.319,57.76,22.352q-1.113,3.011-2.487,5.888L-39.8-66.832Q-36.923-68.2-33.911-69.319Z" transform="translate(80.502 73.734)" fill="none" stroke="#0b5999" stroke-miterlimit="10" stroke-width="1.078"/>
          <path id="Trazado_8" data-name="Trazado 8" d="M1.468-28.051-38.97-68.489A71.535,71.535,0,0,1,1.468-28.051Z" transform="translate(136.303 73.396)" fill="none" stroke="#0b5999" stroke-miterlimit="10" stroke-width="1.078"/>
          <path id="Trazado_9" data-name="Trazado 9" d="M-33.005-70.9,7.432-30.463a70.712,70.712,0,0,1,3.5,11.879L-44.885-74.4A70.737,70.737,0,0,1-33.005-70.9Z" transform="translate(130.338 75.808)" fill="none" stroke="#0b5999" stroke-miterlimit="10" stroke-width="1.078"/>
          <path id="Trazado_10" data-name="Trazado 10" d="M-39.509-76.583,35.644-1.431a71.519,71.519,0,0,1-.82,7.555L-47.064-75.763A71.544,71.544,0,0,1-39.509-76.583Z" transform="translate(106.921 76.696)" fill="none" stroke="#0b5999" stroke-miterlimit="10" stroke-width="1.078"/>
          <path id="Trazado_11" data-name="Trazado 11" d="M-43.327-76.773c1.51,0,3,.063,4.492.155L27.856-9.927c.092,1.487.155,2.982.155,4.492,0,1.317-.041,2.625-.112,3.925L-47.253-76.66C-45.953-76.731-44.645-76.773-43.327-76.773Z" transform="translate(114.666 76.773)" fill="none" stroke="#0b5999" stroke-miterlimit="10" stroke-width="1.078"/>
          <path id="Trazado_12" data-name="Trazado 12" d="M-37.369-75.264,18.452-19.442A71.37,71.37,0,0,1,19.7-9.82L-46.991-76.511A71.469,71.469,0,0,1-37.369-75.264Z" transform="translate(122.822 76.666)" fill="none" stroke="#0b5999" stroke-miterlimit="10" stroke-width="1.078"/>
          <path id="Trazado_13" data-name="Trazado 13" d="M53.809,23.422l82.3,82.3a71.4,71.4,0,0,1-7.507.868L52.941,30.929A71.365,71.365,0,0,1,53.809,23.422Z" transform="translate(-52.786 35.928)" fill="none" stroke="#0b5999" stroke-miterlimit="10" stroke-width="1.078"/>
          <path id="Trazado_14" data-name="Trazado 14" d="M65.614,40.577c0-1.507.063-3,.155-4.482l75.666,75.665c-1.484.092-2.975.155-4.482.155-1.291,0-2.571-.039-3.845-.106L65.72,44.422C65.652,43.148,65.614,41.867,65.614,40.577Z" transform="translate(-65.614 30.762)" fill="none" stroke="#0b5999" stroke-miterlimit="10" stroke-width="1.078"/>
          <path id="Trazado_15" data-name="Trazado 15" d="M79.671,50.152l67.388,67.387a71.375,71.375,0,0,1-9.542-1.166L80.837,59.694A71.485,71.485,0,0,1,79.671,50.152Z" transform="translate(-79.565 25.032)" fill="none" stroke="#0b5999" stroke-miterlimit="10" stroke-width="1.078"/>
          <path id="Trazado_16" data-name="Trazado 16" d="M95.779,66.26l56.68,56.679a70.766,70.766,0,0,1-11.62-3.245L99.024,77.88A70.9,70.9,0,0,1,95.779,66.26Z" transform="translate(-94.507 18.465)" fill="none" stroke="#0b5999" stroke-miterlimit="10" stroke-width="1.078"/>
          <path id="Trazado_17" data-name="Trazado 17" d="M115.4,85.877l41.815,41.814A71.54,71.54,0,0,1,115.4,85.877Z" transform="translate(-110.879 10.468)" fill="none" stroke="#0b5999" stroke-miterlimit="10" stroke-width="1.078"/>
          <path id="Trazado_18" data-name="Trazado 18" d="M42.87,11.837,130.523,99.49q-3.368.921-6.862,1.513l-82.3-82.3Q41.948,15.207,42.87,11.837Z" transform="translate(-40.334 40.651)" fill="none" stroke="#0b5999" stroke-miterlimit="10" stroke-width="1.078"/>
          <path id="Trazado_19" data-name="Trazado 19" d="M6.386-26.455,105.9,73.062c-1.636,1.174-3.318,2.286-5.054,3.321L3.065-21.4C4.1-23.137,5.212-24.819,6.386-26.455Z" transform="translate(6.968 56.261)" fill="none" stroke="#0b5999" stroke-miterlimit="10" stroke-width="1.078"/>
          <path id="Trazado_20" data-name="Trazado 20" d="M-1.193-34.388,99.348,66.152q-2.27,1.933-4.7,3.676L-4.869-29.689Q-3.127-32.116-1.193-34.388Z" transform="translate(18.223 59.495)" fill="none" stroke="#0b5999" stroke-miterlimit="10" stroke-width="1.078"/>
          <path id="Trazado_21" data-name="Trazado 21" d="M32.724,1.157l91.931,91.931q-3.1,1.169-6.327,2.049L30.676,7.483Q31.557,4.257,32.724,1.157Z" transform="translate(-28.14 45.005)" fill="none" stroke="#0b5999" stroke-miterlimit="10" stroke-width="1.078"/>
          <path id="Trazado_22" data-name="Trazado 22" d="M-8.208-41.745,92.673,59.135c-1.393,1.4-2.853,2.735-4.357,4.018L-12.225-37.387C-10.943-38.892-9.609-40.352-8.208-41.745Z" transform="translate(29.256 62.494)" fill="none" stroke="#0b5999" stroke-miterlimit="10" stroke-width="1.078"/>
          <path id="Trazado_23" data-name="Trazado 23" d="M23.282-8.746,118.57,86.541c-1.908.924-3.868,1.755-5.866,2.509L20.773-2.88C21.527-4.879,22.359-6.839,23.282-8.746Z" transform="translate(-16.188 49.042)" fill="none" stroke="#0b5999" stroke-miterlimit="10" stroke-width="1.078"/>
          <path id="Trazado_24" data-name="Trazado 24" d="M14.536-17.923,112.32,79.861c-1.765,1.053-3.575,2.039-5.435,2.939L11.6-12.487C12.5-14.348,13.484-16.157,14.536-17.923Z" transform="translate(-4.503 52.783)" fill="none" stroke="#0b5999" stroke-miterlimit="10" stroke-width="1.078"/>
        </g>
        <g id="Grupo_91" data-name="Grupo 91" transform="translate(-83 71.349)">
          <g id="Grupo_68" data-name="Grupo 68" transform="translate(0 0)">
            <g id="Grupo_67" data-name="Grupo 67">
              <rect id="Rectángulo_193" data-name="Rectángulo 193" width="2.516" height="2.516" transform="translate(1.779 80.229) rotate(-135.001)" fill="#21cbae"/>
              <rect id="Rectángulo_194" data-name="Rectángulo 194" width="2.388" height="2.388" transform="translate(8.84 73.078) rotate(-135)" fill="#21cbae"/>
              <rect id="Rectángulo_195" data-name="Rectángulo 195" width="2.26" height="2.26" transform="translate(15.901 65.927) rotate(-135)" fill="#21cbae"/>
              <rect id="Rectángulo_196" data-name="Rectángulo 196" width="2.132" height="2.132" transform="translate(22.961 58.776) rotate(-134.999)" fill="#21cbae"/>
              <rect id="Rectángulo_197" data-name="Rectángulo 197" width="2.004" height="2.004" transform="translate(30.022 51.624) rotate(-135)" fill="#21cbae"/>
              <rect id="Rectángulo_198" data-name="Rectángulo 198" width="1.876" height="1.876" transform="matrix(-0.707, -0.707, 0.707, -0.707, 37.083, 44.473)" fill="#21cbae"/>
              <rect id="Rectángulo_199" data-name="Rectángulo 199" width="1.748" height="1.748" transform="translate(44.143 37.322) rotate(-135)" fill="#21cbae"/>
              <rect id="Rectángulo_200" data-name="Rectángulo 200" width="1.619" height="1.619" transform="translate(51.204 30.171) rotate(-134.999)" fill="#21cbae"/>
              <rect id="Rectángulo_201" data-name="Rectángulo 201" width="1.491" height="1.491" transform="translate(58.265 23.019) rotate(-135)" fill="#21cbae"/>
              <rect id="Rectángulo_202" data-name="Rectángulo 202" width="1.363" height="1.363" transform="matrix(-0.707, -0.707, 0.707, -0.707, 65.325, 15.868)" fill="#21cbae"/>
              <rect id="Rectángulo_203" data-name="Rectángulo 203" width="1.235" height="1.235" transform="translate(72.386 8.717) rotate(-135)" fill="#21cbae"/>
              <rect id="Rectángulo_204" data-name="Rectángulo 204" width="1.107" height="1.107" transform="matrix(-0.707, -0.707, 0.707, -0.707, 79.447, 1.566)" fill="#21cbae"/>
            </g>
          </g>
          <g id="Grupo_70" data-name="Grupo 70" transform="translate(5.721 5.721)">
            <g id="Grupo_69" data-name="Grupo 69" transform="translate(0 0)">
              <rect id="Rectángulo_205" data-name="Rectángulo 205" width="2.516" height="2.516" transform="translate(1.779 80.229) rotate(-135.001)" fill="#21cbae"/>
              <rect id="Rectángulo_206" data-name="Rectángulo 206" width="2.388" height="2.388" transform="translate(8.84 73.078) rotate(-135)" fill="#21cbae"/>
              <rect id="Rectángulo_207" data-name="Rectángulo 207" width="2.26" height="2.26" transform="matrix(-0.707, -0.707, 0.707, -0.707, 15.901, 65.927)" fill="#21cbae"/>
              <rect id="Rectángulo_208" data-name="Rectángulo 208" width="2.132" height="2.132" transform="translate(22.961 58.776) rotate(-135)" fill="#21cbae"/>
              <rect id="Rectángulo_209" data-name="Rectángulo 209" width="2.004" height="2.004" transform="translate(30.022 51.624) rotate(-135)" fill="#21cbae"/>
              <rect id="Rectángulo_210" data-name="Rectángulo 210" width="1.876" height="1.876" transform="translate(37.083 44.473) rotate(-135)" fill="#21cbae"/>
              <rect id="Rectángulo_211" data-name="Rectángulo 211" width="1.748" height="1.748" transform="translate(44.143 37.322) rotate(-135)" fill="#21cbae"/>
              <rect id="Rectángulo_212" data-name="Rectángulo 212" width="1.619" height="1.619" transform="translate(51.204 30.171) rotate(-135)" fill="#21cbae"/>
              <rect id="Rectángulo_213" data-name="Rectángulo 213" width="1.491" height="1.491" transform="translate(58.265 23.019) rotate(-135)" fill="#21cbae"/>
              <rect id="Rectángulo_214" data-name="Rectángulo 214" width="1.363" height="1.363" transform="translate(65.325 15.868) rotate(-135)" fill="#21cbae"/>
              <rect id="Rectángulo_215" data-name="Rectángulo 215" width="1.235" height="1.235" transform="translate(72.386 8.717) rotate(-135)" fill="#21cbae"/>
              <rect id="Rectángulo_216" data-name="Rectángulo 216" width="1.107" height="1.107" transform="matrix(-0.707, -0.707, 0.707, -0.707, 79.447, 1.566)" fill="#21cbae"/>
            </g>
          </g>
          <g id="Grupo_72" data-name="Grupo 72" transform="translate(11.441 11.441)">
            <g id="Grupo_71" data-name="Grupo 71" transform="translate(0 0)">
              <rect id="Rectángulo_217" data-name="Rectángulo 217" width="2.516" height="2.516" transform="translate(1.779 80.229) rotate(-135.001)" fill="#21cbae"/>
              <rect id="Rectángulo_218" data-name="Rectángulo 218" width="2.388" height="2.388" transform="translate(8.84 73.078) rotate(-135.001)" fill="#21cbae"/>
              <rect id="Rectángulo_219" data-name="Rectángulo 219" width="2.26" height="2.26" transform="translate(15.901 65.927) rotate(-135.001)" fill="#21cbae"/>
              <rect id="Rectángulo_220" data-name="Rectángulo 220" width="2.132" height="2.132" transform="translate(22.961 58.776) rotate(-135.001)" fill="#21cbae"/>
              <rect id="Rectángulo_221" data-name="Rectángulo 221" width="2.004" height="2.004" transform="matrix(-0.707, -0.707, 0.707, -0.707, 30.022, 51.624)" fill="#21cbae"/>
              <rect id="Rectángulo_222" data-name="Rectángulo 222" width="1.876" height="1.876" transform="matrix(-0.707, -0.707, 0.707, -0.707, 37.083, 44.473)" fill="#21cbae"/>
              <rect id="Rectángulo_223" data-name="Rectángulo 223" width="1.748" height="1.748" transform="matrix(-0.707, -0.707, 0.707, -0.707, 44.143, 37.322)" fill="#21cbae"/>
              <rect id="Rectángulo_224" data-name="Rectángulo 224" width="1.619" height="1.619" transform="translate(51.204 30.171) rotate(-135.001)" fill="#21cbae"/>
              <rect id="Rectángulo_225" data-name="Rectángulo 225" width="1.491" height="1.491" transform="translate(58.265 23.019) rotate(-135)" fill="#21cbae"/>
              <rect id="Rectángulo_226" data-name="Rectángulo 226" width="1.363" height="1.363" transform="translate(65.325 15.868) rotate(-135.002)" fill="#21cbae"/>
              <rect id="Rectángulo_227" data-name="Rectángulo 227" width="1.235" height="1.235" transform="translate(72.386 8.717) rotate(-135)" fill="#21cbae"/>
              <rect id="Rectángulo_228" data-name="Rectángulo 228" width="1.107" height="1.107" transform="matrix(-0.707, -0.707, 0.707, -0.707, 79.447, 1.566)" fill="#21cbae"/>
            </g>
          </g>
          <g id="Grupo_74" data-name="Grupo 74" transform="translate(17.162 17.162)">
            <g id="Grupo_73" data-name="Grupo 73" transform="translate(0 0)">
              <rect id="Rectángulo_229" data-name="Rectángulo 229" width="2.516" height="2.516" transform="translate(1.779 80.229) rotate(-134.999)" fill="#21cbae"/>
              <rect id="Rectángulo_230" data-name="Rectángulo 230" width="2.388" height="2.388" transform="translate(8.84 73.078) rotate(-134.999)" fill="#21cbae"/>
              <rect id="Rectángulo_231" data-name="Rectángulo 231" width="2.26" height="2.26" transform="translate(15.901 65.927) rotate(-135)" fill="#21cbae"/>
              <rect id="Rectángulo_232" data-name="Rectángulo 232" width="2.132" height="2.132" transform="translate(22.961 58.776) rotate(-134.999)" fill="#21cbae"/>
              <rect id="Rectángulo_233" data-name="Rectángulo 233" width="2.004" height="2.004" transform="translate(30.022 51.624) rotate(-135)" fill="#21cbae"/>
              <rect id="Rectángulo_234" data-name="Rectángulo 234" width="1.876" height="1.876" transform="matrix(-0.707, -0.707, 0.707, -0.707, 37.083, 44.473)" fill="#21cbae"/>
              <rect id="Rectángulo_235" data-name="Rectángulo 235" width="1.748" height="1.748" transform="translate(44.143 37.322) rotate(-135)" fill="#21cbae"/>
              <rect id="Rectángulo_236" data-name="Rectángulo 236" width="1.619" height="1.619" transform="translate(51.204 30.171) rotate(-134.999)" fill="#21cbae"/>
              <rect id="Rectángulo_237" data-name="Rectángulo 237" width="1.491" height="1.491" transform="translate(58.265 23.019) rotate(-135)" fill="#21cbae"/>
              <rect id="Rectángulo_238" data-name="Rectángulo 238" width="1.363" height="1.363" transform="translate(65.325 15.868) rotate(-135)" fill="#21cbae"/>
              <rect id="Rectángulo_239" data-name="Rectángulo 239" width="1.235" height="1.235" transform="translate(72.386 8.717) rotate(-135)" fill="#21cbae"/>
              <rect id="Rectángulo_240" data-name="Rectángulo 240" width="1.107" height="1.107" transform="matrix(-0.707, -0.707, 0.707, -0.707, 79.447, 1.566)" fill="#21cbae"/>
            </g>
          </g>
          <g id="Grupo_76" data-name="Grupo 76" transform="translate(22.883 22.883)">
            <g id="Grupo_75" data-name="Grupo 75" transform="translate(0 0)">
              <rect id="Rectángulo_241" data-name="Rectángulo 241" width="2.516" height="2.516" transform="translate(1.779 80.229) rotate(-134.999)" fill="#21cbae"/>
              <rect id="Rectángulo_242" data-name="Rectángulo 242" width="2.388" height="2.388" transform="translate(8.84 73.078) rotate(-134.999)" fill="#21cbae"/>
              <rect id="Rectángulo_243" data-name="Rectángulo 243" width="2.26" height="2.26" transform="translate(15.901 65.927) rotate(-135)" fill="#21cbae"/>
              <rect id="Rectángulo_244" data-name="Rectángulo 244" width="2.132" height="2.132" transform="translate(22.961 58.776) rotate(-134.999)" fill="#21cbae"/>
              <rect id="Rectángulo_245" data-name="Rectángulo 245" width="2.004" height="2.004" transform="translate(30.022 51.624) rotate(-135)" fill="#21cbae"/>
              <rect id="Rectángulo_246" data-name="Rectángulo 246" width="1.876" height="1.876" transform="translate(37.083 44.473) rotate(-134.999)" fill="#21cbae"/>
              <rect id="Rectángulo_247" data-name="Rectángulo 247" width="1.748" height="1.748" transform="translate(44.143 37.322) rotate(-135)" fill="#21cbae"/>
              <rect id="Rectángulo_248" data-name="Rectángulo 248" width="1.619" height="1.619" transform="translate(51.204 30.171) rotate(-134.999)" fill="#21cbae"/>
              <rect id="Rectángulo_249" data-name="Rectángulo 249" width="1.491" height="1.491" transform="translate(58.265 23.019) rotate(-135)" fill="#21cbae"/>
              <rect id="Rectángulo_250" data-name="Rectángulo 250" width="1.363" height="1.363" transform="translate(65.325 15.868) rotate(-134.998)" fill="#21cbae"/>
              <rect id="Rectángulo_251" data-name="Rectángulo 251" width="1.235" height="1.235" transform="translate(72.386 8.717) rotate(-135)" fill="#21cbae"/>
              <rect id="Rectángulo_252" data-name="Rectángulo 252" width="1.107" height="1.107" transform="matrix(-0.707, -0.707, 0.707, -0.707, 79.447, 1.565)" fill="#21cbae"/>
            </g>
          </g>
          <g id="Grupo_78" data-name="Grupo 78" transform="translate(28.603 28.603)">
            <g id="Grupo_77" data-name="Grupo 77" transform="translate(0 0)">
              <rect id="Rectángulo_253" data-name="Rectángulo 253" width="2.516" height="2.516" transform="translate(1.779 80.229) rotate(-135)" fill="#21cbae"/>
              <rect id="Rectángulo_254" data-name="Rectángulo 254" width="2.388" height="2.388" transform="translate(8.84 73.078) rotate(-135)" fill="#21cbae"/>
              <rect id="Rectángulo_255" data-name="Rectángulo 255" width="2.26" height="2.26" transform="translate(15.901 65.927) rotate(-134.999)" fill="#21cbae"/>
              <rect id="Rectángulo_256" data-name="Rectángulo 256" width="2.132" height="2.132" transform="translate(22.961 58.776) rotate(-134.999)" fill="#21cbae"/>
              <rect id="Rectángulo_257" data-name="Rectángulo 257" width="2.004" height="2.004" transform="translate(30.022 51.624) rotate(-134.999)" fill="#21cbae"/>
              <rect id="Rectángulo_258" data-name="Rectángulo 258" width="1.876" height="1.876" transform="matrix(-0.707, -0.707, 0.707, -0.707, 37.083, 44.473)" fill="#21cbae"/>
              <rect id="Rectángulo_259" data-name="Rectángulo 259" width="1.748" height="1.748" transform="translate(44.143 37.322) rotate(-135)" fill="#21cbae"/>
              <rect id="Rectángulo_260" data-name="Rectángulo 260" width="1.619" height="1.619" transform="translate(51.204 30.171) rotate(-134.999)" fill="#21cbae"/>
              <rect id="Rectángulo_261" data-name="Rectángulo 261" width="1.491" height="1.491" transform="translate(58.265 23.019) rotate(-135)" fill="#21cbae"/>
              <rect id="Rectángulo_262" data-name="Rectángulo 262" width="1.363" height="1.363" transform="matrix(-0.707, -0.707, 0.707, -0.707, 65.325, 15.868)" fill="#21cbae"/>
              <rect id="Rectángulo_263" data-name="Rectángulo 263" width="1.235" height="1.235" transform="translate(72.386 8.717) rotate(-135)" fill="#21cbae"/>
              <rect id="Rectángulo_264" data-name="Rectángulo 264" width="1.107" height="1.107" transform="matrix(-0.707, -0.707, 0.707, -0.707, 79.447, 1.566)" fill="#21cbae"/>
            </g>
          </g>
          <g id="Grupo_80" data-name="Grupo 80" transform="translate(34.324 34.324)">
            <g id="Grupo_79" data-name="Grupo 79" transform="translate(0 0)">
              <rect id="Rectángulo_265" data-name="Rectángulo 265" width="2.516" height="2.516" transform="translate(1.779 80.229) rotate(-135.001)" fill="#21cbae"/>
              <rect id="Rectángulo_266" data-name="Rectángulo 266" width="2.388" height="2.388" transform="translate(8.84 73.078) rotate(-135)" fill="#21cbae"/>
              <rect id="Rectángulo_267" data-name="Rectángulo 267" width="2.26" height="2.26" transform="matrix(-0.707, -0.707, 0.707, -0.707, 15.901, 65.927)" fill="#21cbae"/>
              <rect id="Rectángulo_268" data-name="Rectángulo 268" width="2.132" height="2.132" transform="translate(22.961 58.776) rotate(-135)" fill="#21cbae"/>
              <rect id="Rectángulo_269" data-name="Rectángulo 269" width="2.004" height="2.004" transform="matrix(-0.707, -0.707, 0.707, -0.707, 30.022, 51.624)" fill="#21cbae"/>
              <rect id="Rectángulo_270" data-name="Rectángulo 270" width="1.876" height="1.876" transform="matrix(-0.707, -0.707, 0.707, -0.707, 37.083, 44.473)" fill="#21cbae"/>
              <rect id="Rectángulo_271" data-name="Rectángulo 271" width="1.748" height="1.748" transform="translate(44.143 37.322) rotate(-135)" fill="#21cbae"/>
              <rect id="Rectángulo_272" data-name="Rectángulo 272" width="1.619" height="1.619" transform="matrix(-0.707, -0.707, 0.707, -0.707, 51.204, 30.171)" fill="#21cbae"/>
              <rect id="Rectángulo_273" data-name="Rectángulo 273" width="1.491" height="1.491" transform="translate(58.265 23.019) rotate(-135)" fill="#21cbae"/>
              <rect id="Rectángulo_274" data-name="Rectángulo 274" width="1.363" height="1.363" transform="translate(65.325 15.868) rotate(-134.998)" fill="#21cbae"/>
              <rect id="Rectángulo_275" data-name="Rectángulo 275" width="1.235" height="1.235" transform="translate(72.386 8.717) rotate(-135)" fill="#21cbae"/>
              <rect id="Rectángulo_276" data-name="Rectángulo 276" width="1.107" height="1.107" transform="matrix(-0.707, -0.707, 0.707, -0.707, 79.447, 1.565)" fill="#21cbae"/>
            </g>
          </g>
          <g id="Grupo_82" data-name="Grupo 82" transform="translate(40.045 40.045)">
            <g id="Grupo_81" data-name="Grupo 81" transform="translate(0 0)">
              <rect id="Rectángulo_277" data-name="Rectángulo 277" width="2.516" height="2.516" transform="translate(1.779 80.229) rotate(-135.001)" fill="#21cbae"/>
              <rect id="Rectángulo_278" data-name="Rectángulo 278" width="2.388" height="2.388" transform="translate(8.84 73.078) rotate(-135)" fill="#21cbae"/>
              <rect id="Rectángulo_279" data-name="Rectángulo 279" width="2.26" height="2.26" transform="translate(15.901 65.927) rotate(-135.001)" fill="#21cbae"/>
              <rect id="Rectángulo_280" data-name="Rectángulo 280" width="2.132" height="2.132" transform="translate(22.961 58.776) rotate(-135)" fill="#21cbae"/>
              <rect id="Rectángulo_281" data-name="Rectángulo 281" width="2.004" height="2.004" transform="matrix(-0.707, -0.707, 0.707, -0.707, 30.022, 51.624)" fill="#21cbae"/>
              <rect id="Rectángulo_282" data-name="Rectángulo 282" width="1.876" height="1.876" transform="translate(37.083 44.473) rotate(-135)" fill="#21cbae"/>
              <rect id="Rectángulo_283" data-name="Rectángulo 283" width="1.748" height="1.748" transform="matrix(-0.707, -0.707, 0.707, -0.707, 44.143, 37.322)" fill="#21cbae"/>
              <rect id="Rectángulo_284" data-name="Rectángulo 284" width="1.619" height="1.619" transform="translate(51.204 30.171) rotate(-135)" fill="#21cbae"/>
              <rect id="Rectángulo_285" data-name="Rectángulo 285" width="1.491" height="1.491" transform="translate(58.265 23.019) rotate(-135)" fill="#21cbae"/>
              <rect id="Rectángulo_286" data-name="Rectángulo 286" width="1.363" height="1.363" transform="translate(65.325 15.868) rotate(-135)" fill="#21cbae"/>
              <rect id="Rectángulo_287" data-name="Rectángulo 287" width="1.235" height="1.235" transform="translate(72.386 8.717) rotate(-135)" fill="#21cbae"/>
              <rect id="Rectángulo_288" data-name="Rectángulo 288" width="1.107" height="1.107" transform="matrix(-0.707, -0.707, 0.707, -0.707, 79.447, 1.565)" fill="#21cbae"/>
            </g>
          </g>
          <g id="Grupo_84" data-name="Grupo 84" transform="translate(45.765 45.765)">
            <g id="Grupo_83" data-name="Grupo 83" transform="translate(0 0)">
              <rect id="Rectángulo_289" data-name="Rectángulo 289" width="2.516" height="2.516" transform="translate(1.779 80.229) rotate(-135.001)" fill="#21cbae"/>
              <rect id="Rectángulo_290" data-name="Rectángulo 290" width="2.388" height="2.388" transform="translate(8.84 73.078) rotate(-135.001)" fill="#21cbae"/>
              <rect id="Rectángulo_291" data-name="Rectángulo 291" width="2.26" height="2.26" transform="translate(15.901 65.927) rotate(-135.001)" fill="#21cbae"/>
              <rect id="Rectángulo_292" data-name="Rectángulo 292" width="2.132" height="2.132" transform="translate(22.961 58.776) rotate(-135.001)" fill="#21cbae"/>
              <rect id="Rectángulo_293" data-name="Rectángulo 293" width="2.004" height="2.004" transform="matrix(-0.707, -0.707, 0.707, -0.707, 30.022, 51.624)" fill="#21cbae"/>
              <rect id="Rectángulo_294" data-name="Rectángulo 294" width="1.876" height="1.876" transform="matrix(-0.707, -0.707, 0.707, -0.707, 37.083, 44.473)" fill="#21cbae"/>
              <rect id="Rectángulo_295" data-name="Rectángulo 295" width="1.748" height="1.748" transform="matrix(-0.707, -0.707, 0.707, -0.707, 44.143, 37.322)" fill="#21cbae"/>
              <rect id="Rectángulo_296" data-name="Rectángulo 296" width="1.619" height="1.619" transform="translate(51.204 30.171) rotate(-135.001)" fill="#21cbae"/>
              <rect id="Rectángulo_297" data-name="Rectángulo 297" width="1.491" height="1.491" transform="matrix(-0.707, -0.707, 0.707, -0.707, 58.265, 23.019)" fill="#21cbae"/>
              <rect id="Rectángulo_298" data-name="Rectángulo 298" width="1.363" height="1.363" transform="translate(65.325 15.868) rotate(-135.002)" fill="#21cbae"/>
              <rect id="Rectángulo_299" data-name="Rectángulo 299" width="1.235" height="1.235" transform="translate(72.386 8.717) rotate(-135.002)" fill="#21cbae"/>
              <rect id="Rectángulo_300" data-name="Rectángulo 300" width="1.107" height="1.107" transform="matrix(-0.707, -0.707, 0.707, -0.707, 79.447, 1.566)" fill="#21cbae"/>
            </g>
          </g>
          <g id="Grupo_86" data-name="Grupo 86" transform="translate(51.486 51.486)">
            <g id="Grupo_85" data-name="Grupo 85" transform="translate(0 0)">
              <rect id="Rectángulo_301" data-name="Rectángulo 301" width="2.516" height="2.516" transform="matrix(-0.707, -0.707, 0.707, -0.707, 1.779, 80.229)" fill="#21cbae"/>
              <rect id="Rectángulo_302" data-name="Rectángulo 302" width="2.388" height="2.388" transform="translate(8.84 73.078) rotate(-134.999)" fill="#21cbae"/>
              <rect id="Rectángulo_303" data-name="Rectángulo 303" width="2.26" height="2.26" transform="translate(15.901 65.927) rotate(-134.999)" fill="#21cbae"/>
              <rect id="Rectángulo_304" data-name="Rectángulo 304" width="2.132" height="2.132" transform="translate(22.961 58.776) rotate(-134.999)" fill="#21cbae"/>
              <rect id="Rectángulo_305" data-name="Rectángulo 305" width="2.004" height="2.004" transform="translate(30.022 51.624) rotate(-135)" fill="#21cbae"/>
              <rect id="Rectángulo_306" data-name="Rectángulo 306" width="1.876" height="1.876" transform="matrix(-0.707, -0.707, 0.707, -0.707, 37.083, 44.473)" fill="#21cbae"/>
              <rect id="Rectángulo_307" data-name="Rectángulo 307" width="1.748" height="1.748" transform="translate(44.143 37.322) rotate(-135)" fill="#21cbae"/>
              <rect id="Rectángulo_308" data-name="Rectángulo 308" width="1.619" height="1.619" transform="translate(51.204 30.171) rotate(-134.999)" fill="#21cbae"/>
              <rect id="Rectángulo_309" data-name="Rectángulo 309" width="1.491" height="1.491" transform="translate(58.265 23.019) rotate(-135)" fill="#21cbae"/>
              <rect id="Rectángulo_310" data-name="Rectángulo 310" width="1.363" height="1.363" transform="translate(65.325 15.868) rotate(-135)" fill="#21cbae"/>
              <rect id="Rectángulo_311" data-name="Rectángulo 311" width="1.235" height="1.235" transform="translate(72.386 8.717) rotate(-135)" fill="#21cbae"/>
              <rect id="Rectángulo_312" data-name="Rectángulo 312" width="1.107" height="1.107" transform="translate(79.447 1.566) rotate(-135)" fill="#21cbae"/>
            </g>
          </g>
          <g id="Grupo_88" data-name="Grupo 88" transform="translate(57.207 57.207)">
            <g id="Grupo_87" data-name="Grupo 87" transform="translate(0 0)">
              <rect id="Rectángulo_313" data-name="Rectángulo 313" width="2.516" height="2.516" transform="translate(1.779 80.229) rotate(-135)" fill="#21cbae"/>
              <rect id="Rectángulo_314" data-name="Rectángulo 314" width="2.388" height="2.388" transform="translate(8.84 73.078) rotate(-135)" fill="#21cbae"/>
              <rect id="Rectángulo_315" data-name="Rectángulo 315" width="2.26" height="2.26" transform="translate(15.901 65.927) rotate(-135)" fill="#21cbae"/>
              <rect id="Rectángulo_316" data-name="Rectángulo 316" width="2.132" height="2.132" transform="translate(22.961 58.776) rotate(-134.999)" fill="#21cbae"/>
              <rect id="Rectángulo_317" data-name="Rectángulo 317" width="2.004" height="2.004" transform="translate(30.022 51.624) rotate(-134.999)" fill="#21cbae"/>
              <rect id="Rectángulo_318" data-name="Rectángulo 318" width="1.876" height="1.876" transform="matrix(-0.707, -0.707, 0.707, -0.707, 37.083, 44.473)" fill="#21cbae"/>
              <rect id="Rectángulo_319" data-name="Rectángulo 319" width="1.748" height="1.748" transform="translate(44.143 37.322) rotate(-135)" fill="#21cbae"/>
              <rect id="Rectángulo_320" data-name="Rectángulo 320" width="1.619" height="1.619" transform="translate(51.204 30.171) rotate(-134.999)" fill="#21cbae"/>
              <rect id="Rectángulo_321" data-name="Rectángulo 321" width="1.491" height="1.491" transform="translate(58.265 23.019) rotate(-135)" fill="#21cbae"/>
              <rect id="Rectángulo_322" data-name="Rectángulo 322" width="1.363" height="1.363" transform="translate(65.325 15.868) rotate(-134.998)" fill="#21cbae"/>
              <rect id="Rectángulo_323" data-name="Rectángulo 323" width="1.235" height="1.235" transform="translate(72.386 8.717) rotate(-135)" fill="#21cbae"/>
              <rect id="Rectángulo_324" data-name="Rectángulo 324" width="1.107" height="1.107" transform="matrix(-0.707, -0.707, 0.707, -0.707, 79.447, 1.565)" fill="#21cbae"/>
            </g>
          </g>
          <g id="Grupo_90" data-name="Grupo 90" transform="translate(62.927 62.927)">
            <g id="Grupo_89" data-name="Grupo 89" transform="translate(0 0)">
              <rect id="Rectángulo_325" data-name="Rectángulo 325" width="2.516" height="2.516" transform="translate(1.779 80.229) rotate(-135)" fill="#21cbae"/>
              <rect id="Rectángulo_326" data-name="Rectángulo 326" width="2.388" height="2.388" transform="translate(8.84 73.078) rotate(-135)" fill="#21cbae"/>
              <rect id="Rectángulo_327" data-name="Rectángulo 327" width="2.26" height="2.26" transform="translate(15.901 65.927) rotate(-135)" fill="#21cbae"/>
              <rect id="Rectángulo_328" data-name="Rectángulo 328" width="2.132" height="2.132" transform="translate(22.961 58.776) rotate(-135)" fill="#21cbae"/>
              <rect id="Rectángulo_329" data-name="Rectángulo 329" width="2.004" height="2.004" transform="translate(30.022 51.624) rotate(-135)" fill="#21cbae"/>
              <rect id="Rectángulo_330" data-name="Rectángulo 330" width="1.876" height="1.876" transform="translate(37.083 44.473) rotate(-135)" fill="#21cbae"/>
              <rect id="Rectángulo_331" data-name="Rectángulo 331" width="1.748" height="1.748" transform="matrix(-0.707, -0.707, 0.707, -0.707, 44.143, 37.322)" fill="#21cbae"/>
              <rect id="Rectángulo_332" data-name="Rectángulo 332" width="1.619" height="1.619" transform="matrix(-0.707, -0.707, 0.707, -0.707, 51.204, 30.171)" fill="#21cbae"/>
              <rect id="Rectángulo_333" data-name="Rectángulo 333" width="1.491" height="1.491" transform="matrix(-0.707, -0.707, 0.707, -0.707, 58.265, 23.019)" fill="#21cbae"/>
              <rect id="Rectángulo_334" data-name="Rectángulo 334" width="1.363" height="1.363" transform="translate(65.325 15.868) rotate(-134.998)" fill="#21cbae"/>
              <rect id="Rectángulo_335" data-name="Rectángulo 335" width="1.235" height="1.235" transform="translate(72.386 8.717) rotate(-135)" fill="#21cbae"/>
              <rect id="Rectángulo_336" data-name="Rectángulo 336" width="1.107" height="1.107" transform="matrix(-0.707, -0.707, 0.707, -0.707, 79.447, 1.565)" fill="#21cbae"/>
            </g>
          </g>
        </g>
        <g id="Grupo_875935" data-name="Grupo 875935" transform="translate(198.654 161.616)">
          <g id="Grupo_4" data-name="Grupo 4">
            <rect id="Rectángulo_4" data-name="Rectángulo 4" width="2.516" height="2.516" transform="translate(96.162)" fill="none" stroke="#ef3c79" stroke-miterlimit="10" stroke-width="1.078"/>
            <rect id="Rectángulo_5" data-name="Rectángulo 5" width="2.516" height="2.516" transform="translate(76.93)" fill="none" stroke="#ef3c79" stroke-miterlimit="10" stroke-width="1.078"/>
            <rect id="Rectángulo_6" data-name="Rectángulo 6" width="2.516" height="2.516" transform="translate(57.697)" fill="none" stroke="#ef3c79" stroke-miterlimit="10" stroke-width="1.078"/>
            <rect id="Rectángulo_7" data-name="Rectángulo 7" width="2.516" height="2.516" transform="translate(38.465)" fill="none" stroke="#ef3c79" stroke-miterlimit="10" stroke-width="1.078"/>
            <rect id="Rectángulo_8" data-name="Rectángulo 8" width="2.516" height="2.516" transform="translate(19.232)" fill="none" stroke="#ef3c79" stroke-miterlimit="10" stroke-width="1.078"/>
            <rect id="Rectángulo_9" data-name="Rectángulo 9" width="2.516" height="2.516" transform="translate(0)" fill="none" stroke="#ef3c79" stroke-miterlimit="10" stroke-width="1.078"/>
          </g>
          <g id="Grupo_5" data-name="Grupo 5" transform="translate(0 14.02)">
            <rect id="Rectángulo_10" data-name="Rectángulo 10" width="2.516" height="2.516" transform="translate(96.162)" fill="none" stroke="#ef3c79" stroke-miterlimit="10" stroke-width="1.078"/>
            <rect id="Rectángulo_11" data-name="Rectángulo 11" width="2.516" height="2.516" transform="translate(76.93)" fill="none" stroke="#ef3c79" stroke-miterlimit="10" stroke-width="1.078"/>
            <rect id="Rectángulo_12" data-name="Rectángulo 12" width="2.516" height="2.516" transform="translate(57.697)" fill="none" stroke="#ef3c79" stroke-miterlimit="10" stroke-width="1.078"/>
            <rect id="Rectángulo_13" data-name="Rectángulo 13" width="2.516" height="2.516" transform="translate(38.465)" fill="none" stroke="#ef3c79" stroke-miterlimit="10" stroke-width="1.078"/>
            <rect id="Rectángulo_14" data-name="Rectángulo 14" width="2.516" height="2.516" transform="translate(19.232)" fill="none" stroke="#ef3c79" stroke-miterlimit="10" stroke-width="1.078"/>
            <rect id="Rectángulo_15" data-name="Rectángulo 15" width="2.516" height="2.516" transform="translate(0)" fill="none" stroke="#ef3c79" stroke-miterlimit="10" stroke-width="1.078"/>
          </g>
          <g id="Grupo_6" data-name="Grupo 6" transform="translate(0 28.04)">
            <rect id="Rectángulo_16" data-name="Rectángulo 16" width="2.516" height="2.516" transform="translate(96.162)" fill="none" stroke="#ef3c79" stroke-miterlimit="10" stroke-width="1.078"/>
            <rect id="Rectángulo_17" data-name="Rectángulo 17" width="2.516" height="2.516" transform="translate(76.93)" fill="none" stroke="#ef3c79" stroke-miterlimit="10" stroke-width="1.078"/>
            <rect id="Rectángulo_18" data-name="Rectángulo 18" width="2.516" height="2.516" transform="translate(57.697)" fill="none" stroke="#ef3c79" stroke-miterlimit="10" stroke-width="1.078"/>
            <rect id="Rectángulo_19" data-name="Rectángulo 19" width="2.516" height="2.516" transform="translate(38.465)" fill="none" stroke="#ef3c79" stroke-miterlimit="10" stroke-width="1.078"/>
            <rect id="Rectángulo_20" data-name="Rectángulo 20" width="2.516" height="2.516" transform="translate(19.232)" fill="none" stroke="#ef3c79" stroke-miterlimit="10" stroke-width="1.078"/>
            <rect id="Rectángulo_21" data-name="Rectángulo 21" width="2.516" height="2.516" transform="translate(0)" fill="none" stroke="#ef3c79" stroke-miterlimit="10" stroke-width="1.078"/>
          </g>
          <g id="Grupo_7" data-name="Grupo 7" transform="translate(0 42.06)">
            <rect id="Rectángulo_22" data-name="Rectángulo 22" width="2.516" height="2.516" transform="translate(96.162)" fill="none" stroke="#ef3c79" stroke-miterlimit="10" stroke-width="1.078"/>
            <rect id="Rectángulo_23" data-name="Rectángulo 23" width="2.516" height="2.516" transform="translate(76.93)" fill="none" stroke="#ef3c79" stroke-miterlimit="10" stroke-width="1.078"/>
            <rect id="Rectángulo_24" data-name="Rectángulo 24" width="2.516" height="2.516" transform="translate(57.697)" fill="none" stroke="#ef3c79" stroke-miterlimit="10" stroke-width="1.078"/>
            <rect id="Rectángulo_25" data-name="Rectángulo 25" width="2.516" height="2.516" transform="translate(38.465)" fill="none" stroke="#ef3c79" stroke-miterlimit="10" stroke-width="1.078"/>
            <rect id="Rectángulo_26" data-name="Rectángulo 26" width="2.516" height="2.516" transform="translate(19.232)" fill="none" stroke="#ef3c79" stroke-miterlimit="10" stroke-width="1.078"/>
            <rect id="Rectángulo_27" data-name="Rectángulo 27" width="2.516" height="2.516" transform="translate(0)" fill="none" stroke="#ef3c79" stroke-miterlimit="10" stroke-width="1.078"/>
          </g>
          <g id="Grupo_8" data-name="Grupo 8" transform="translate(0 56.08)">
            <rect id="Rectángulo_28" data-name="Rectángulo 28" width="2.516" height="2.516" transform="translate(96.162)" fill="none" stroke="#ef3c79" stroke-miterlimit="10" stroke-width="1.078"/>
            <rect id="Rectángulo_29" data-name="Rectángulo 29" width="2.516" height="2.516" transform="translate(76.93)" fill="none" stroke="#ef3c79" stroke-width="1"/>
            <rect id="Rectángulo_30" data-name="Rectángulo 30" width="2.516" height="2.516" transform="translate(57.697)" fill="none" stroke="#ef3c79" stroke-width="1"/>
            <rect id="Rectángulo_31" data-name="Rectángulo 31" width="2.516" height="2.516" transform="translate(38.465)" fill="none" stroke="#ef3c79" stroke-miterlimit="10" stroke-width="1.078"/>
            <rect id="Rectángulo_32" data-name="Rectángulo 32" width="2.516" height="2.516" transform="translate(19.232)" fill="none" stroke="#ef3c79" stroke-miterlimit="10" stroke-width="1.078"/>
            <rect id="Rectángulo_33" data-name="Rectángulo 33" width="2.516" height="2.516" transform="translate(0)" fill="none" stroke="#ef3c79" stroke-miterlimit="10" stroke-width="1.078"/>
          </g>
          <g id="Grupo_9" data-name="Grupo 9" transform="translate(0 70.1)">
            <rect id="Rectángulo_34" data-name="Rectángulo 34" width="2.516" height="2.516" transform="translate(96.162)" fill="none" stroke="#ef3c79" stroke-miterlimit="10" stroke-width="1.078"/>
            <rect id="Rectángulo_35" data-name="Rectángulo 35" width="2.516" height="2.516" transform="translate(76.93)" fill="none" stroke="#ef3c79" stroke-miterlimit="10" stroke-width="1.078"/>
            <rect id="Rectángulo_36" data-name="Rectángulo 36" width="2.516" height="2.516" transform="translate(57.697)" fill="none" stroke="#ef3c79" stroke-miterlimit="10" stroke-width="1.078"/>
            <rect id="Rectángulo_37" data-name="Rectángulo 37" width="2.516" height="2.516" transform="translate(38.465)" fill="none" stroke="#ef3c79" stroke-width="1"/>
            <rect id="Rectángulo_38" data-name="Rectángulo 38" width="2.516" height="2.516" transform="translate(19.232)" fill="none" stroke="#ef3c79" stroke-miterlimit="10" stroke-width="1.078"/>
            <rect id="Rectángulo_39" data-name="Rectángulo 39" width="2.516" height="2.516" transform="translate(0)" fill="none" stroke="#ef3c79" stroke-miterlimit="10" stroke-width="1.078"/>
          </g>
          <g id="Grupo_10" data-name="Grupo 10" transform="translate(0 84.119)">
            <rect id="Rectángulo_40" data-name="Rectángulo 40" width="2.516" height="2.516" transform="translate(96.162)" fill="none" stroke="#ef3c79" stroke-miterlimit="10" stroke-width="1.078"/>
            <rect id="Rectángulo_41" data-name="Rectángulo 41" width="2.516" height="2.516" transform="translate(76.93)" fill="none" stroke="#ef3c79" stroke-miterlimit="10" stroke-width="1.078"/>
            <rect id="Rectángulo_42" data-name="Rectángulo 42" width="2.516" height="2.516" transform="translate(57.697)" fill="none" stroke="#ef3c79" stroke-miterlimit="10" stroke-width="1.078"/>
            <rect id="Rectángulo_43" data-name="Rectángulo 43" width="2.516" height="2.516" transform="translate(38.465)" fill="none" stroke="#ef3c79" stroke-miterlimit="10" stroke-width="1.078"/>
            <rect id="Rectángulo_44" data-name="Rectángulo 44" width="2.516" height="2.516" transform="translate(19.232)" fill="none" stroke="#ef3c79" stroke-width="1"/>
            <rect id="Rectángulo_45" data-name="Rectángulo 45" width="2.516" height="2.516" transform="translate(0)" fill="none" stroke="#ef3c79" stroke-miterlimit="10" stroke-width="1.078"/>
          </g>
        </g>
        <g id="Grupo_879273" data-name="Grupo 879273" transform="translate(211.924)">
          <path id="Trazado_34" data-name="Trazado 34" d="M693.184,390.082l5.866,10.16H687.318Z" transform="translate(-651.338 -295.25)" fill="#fdfdfd"/>
          <path id="Trazado_35" data-name="Trazado 35" d="M693.184,361.354l5.866,10.16H687.318Z" transform="translate(-651.338 -283.539)" fill="#fdfdfd"/>
          <path id="Trazado_36" data-name="Trazado 36" d="M693.184,332.626l5.866,10.16H687.318Z" transform="translate(-651.338 -271.828)" fill="#fdfdfd"/>
          <path id="Trazado_37" data-name="Trazado 37" d="M694.879,245.931l3.4,5.894h-6.806Z" transform="translate(-691.475 -245.931)" fill="#f13b76"/>
        </g>
      </g>
    </g>
    <g id="Recurso_1" data-name="Recurso 1" transform="translate(988 3325)" fill="#f6f6f6">
      <path d="M 288.322998046875 266.8828125 L 20.99999809265137 266.8828125 C 18.37562370300293 266.8828125 15.82983207702637 266.3445739746094 13.43337440490723 265.2829895019531 C 11.11316585540771 264.2551574707031 9.027956962585449 262.7822265625 7.235665798187256 260.9051208496094 C 5.43870735168457 259.0231018066406 4.027457237243652 256.8305358886719 3.041165590286255 254.3882751464844 C 2.018499135971069 251.8560791015625 1.499999046325684 249.1647338867188 1.499999046325684 246.3889923095703 L 1.499999046325684 21.99382209777832 C 1.499999046325684 19.21807289123535 2.018499135971069 16.52669715881348 3.041165590286255 13.99453163146973 C 4.027457237243652 11.55228137969971 5.43870735168457 9.359698295593262 7.235665798187256 7.477697849273682 C 9.027956962585449 5.600573062896729 11.11316585540771 4.12765645980835 13.43337440490723 3.099822998046875 C 15.82983207702637 2.038239479064941 18.37562370300293 1.499989628791809 20.99999809265137 1.499989628791809 L 288.322998046875 1.499989628791809 C 290.9474182128906 1.499989628791809 293.4931640625 2.038239479064941 295.8896179199219 3.099822998046875 C 298.2098388671875 4.12765645980835 300.2950439453125 5.600573062896729 302.0873718261719 7.477697849273682 C 303.8843383789062 9.359698295593262 305.2955322265625 11.55228137969971 306.2818603515625 13.99453163146973 C 307.3045043945312 16.52669715881348 307.822998046875 19.21807289123535 307.822998046875 21.99382209777832 L 307.822998046875 246.3889923095703 C 307.822998046875 249.1647338867188 307.3045043945312 251.8560791015625 306.2818603515625 254.3882751464844 C 305.2955322265625 256.8305358886719 303.8843383789062 259.0231018066406 302.0873718261719 260.9051208496094 C 300.2950439453125 262.7822265625 298.2098388671875 264.2551574707031 295.8896179199219 265.2829895019531 C 293.4931640625 266.3445739746094 290.9474182128906 266.8828125 288.322998046875 266.8828125 Z" stroke="none"/>
      <path d="M 21 3 C 16.21832275390625 3 11.71533203125 4.95806884765625 8.320526123046875 8.513580322265625 C 6.65521240234375 10.2576904296875 5.346923828125 12.29074096679688 4.4320068359375 14.55619812011719 C 3.481781005859375 16.90907287597656 3 19.41145324707031 3 21.9937744140625 L 3 246.3889923095703 C 3 248.9713592529297 3.481781005859375 251.4736938476562 4.4320068359375 253.8265686035156 C 5.346923828125 256.0920715332031 6.65521240234375 258.1251220703125 8.320526123046875 259.8692321777344 C 11.71533203125 263.4247436523438 16.21832275390625 265.3828125 21 265.3828125 L 288.322998046875 265.3828125 C 293.1046752929688 265.3828125 297.607666015625 263.4247436523438 301.0024719238281 259.8692321777344 C 302.6677856445312 258.1251220703125 303.97607421875 256.0920715332031 304.8909912109375 253.8265686035156 C 305.8412170410156 251.4736938476562 306.322998046875 248.9713592529297 306.322998046875 246.3889923095703 L 306.322998046875 21.9937744140625 C 306.322998046875 19.41145324707031 305.8412170410156 16.90907287597656 304.8909912109375 14.55619812011719 C 303.97607421875 12.29074096679688 302.6677856445312 10.2576904296875 301.0024719238281 8.513580322265625 C 297.607666015625 4.95806884765625 293.1046752929688 3 288.322998046875 3 L 21 3 M 21 0 L 288.322998046875 0 C 299.9209899902344 0 309.322998046875 9.846954345703125 309.322998046875 21.9937744140625 L 309.322998046875 246.3889923095703 C 309.322998046875 258.5358276367188 299.9209899902344 268.3828125 288.322998046875 268.3828125 L 21 268.3828125 C 9.402008056640625 268.3828125 0 258.5358276367188 0 246.3889923095703 L 0 21.9937744140625 C 0 9.846954345703125 9.402008056640625 0 21 0 Z" stroke="none" fill="#ef3c79"/>
    </g>
    <g id="Grupo_906581" data-name="Grupo 906581">
      <path id="Trazado_183765" data-name="Trazado 183765" d="M0,0H101.94" transform="translate(1155.244 3379.131) rotate(90)" fill="none" stroke="#707070" stroke-width="1"/>
      <path id="Trazado_183765-2" data-name="Trazado 183765" d="M0,0H92.392" transform="matrix(-0.788, 0.616, -0.616, -0.788, 1140.067, 3376.469)" fill="none" stroke="#707070" stroke-width="1"/>
      <path id="Trazado_183765-3" data-name="Trazado 183765" d="M0,0H67.324" transform="translate(1064.331 3433.351) rotate(51)" fill="none" stroke="#707070" stroke-width="1"/>
      <path id="Trazado_183765-4" data-name="Trazado 183765" d="M0,0H67.323" transform="translate(1080.108 3435.178) rotate(129)" fill="none" stroke="#707070" stroke-width="1"/>
      <path id="Trazado_183765-5" data-name="Trazado 183765" d="M0,0H92.391" transform="matrix(0.788, 0.616, -0.616, 0.788, 1174.332, 3379.131)" fill="none" stroke="#707070" stroke-width="1"/>
      <path id="Trazado_183765-6" data-name="Trazado 183765" d="M0,0H57.062" transform="translate(1040.307 3501.378) rotate(90)" fill="none" stroke="#707070" stroke-width="1"/>
      <g id="Trazado_635723" data-name="Trazado 635723" transform="translate(1130 3344)" fill="#fecb2f">
        <path d="M 49.5 39.5 L 0.5 39.5 L 0.5 0.5 L 49.5 0.5 L 49.5 39.5 Z" stroke="none"/>
        <path d="M 1 1 L 1 39 L 49 39 L 49 1 L 1 1 M 0 0 L 50 0 L 50 40 L 0 40 L 0 0 Z" stroke="none" fill="#707070"/>
      </g>
      <g id="Trazado_635724" data-name="Trazado 635724" transform="translate(1057 3413)" fill="#fecb2f">
        <path d="M 39.5 32.5 L 0.5 32.5 L 0.5 0.5 L 39.5 0.5 L 39.5 32.5 Z" stroke="none"/>
        <path d="M 1 1 L 1 32 L 39 32 L 39 1 L 1 1 M 0 0 L 40 0 L 40 33 L 0 33 L 0 0 Z" stroke="none" fill="#707070"/>
      </g>
      <g id="Trazado_635725" data-name="Trazado 635725" transform="translate(1020 3478)" fill="#fecb2f">
        <path d="M 40.5 32.5 L 0.5 32.5 L 0.5 0.5 L 40.5 0.5 L 40.5 32.5 Z" stroke="none"/>
        <path d="M 1 1 L 1 32 L 40 32 L 40 1 L 1 1 M 0 0 L 41 0 L 41 33 L 0 33 L 0 0 Z" stroke="none" fill="#707070"/>
      </g>
      <g id="Trazado_635726" data-name="Trazado 635726" transform="translate(1135 3413)" fill="#fecb2f">
        <path d="M 40.5 32.5 L 0.5 32.5 L 0.5 0.5 L 40.5 0.5 L 40.5 32.5 Z" stroke="none"/>
        <path d="M 1 1 L 1 32 L 40 32 L 40 1 L 1 1 M 0 0 L 41 0 L 41 33 L 0 33 L 0 0 Z" stroke="none" fill="#707070"/>
      </g>
      <g id="Trazado_635727" data-name="Trazado 635727" transform="translate(1078 3478)" fill="#fecb2f">
        <path d="M 39.5 32.5 L 0.5 32.5 L 0.5 0.5 L 39.5 0.5 L 39.5 32.5 Z" stroke="none"/>
        <path d="M 1 1 L 1 32 L 39 32 L 39 1 L 1 1 M 0 0 L 40 0 L 40 33 L 0 33 L 0 0 Z" stroke="none" fill="#707070"/>
      </g>
      <g id="Trazado_635728" data-name="Trazado 635728" transform="translate(1215 3413)" fill="#fecb2f">
        <path d="M 40.5 32.5 L 0.5 32.5 L 0.5 0.5 L 40.5 0.5 L 40.5 32.5 Z" stroke="none"/>
        <path d="M 1 1 L 1 32 L 40 32 L 40 1 L 1 1 M 0 0 L 41 0 L 41 33 L 0 33 L 0 0 Z" stroke="none" fill="#707070"/>
      </g>
      <g id="Trazado_635729" data-name="Trazado 635729" transform="translate(1135 3478)" fill="#fecb2f">
        <path d="M 40.5 32.5 L 0.5 32.5 L 0.5 0.5 L 40.5 0.5 L 40.5 32.5 Z" stroke="none"/>
        <path d="M 1 1 L 1 32 L 40 32 L 40 1 L 1 1 M 0 0 L 41 0 L 41 33 L 0 33 L 0 0 Z" stroke="none" fill="#707070"/>
      </g>
      <g id="Trazado_635730" data-name="Trazado 635730" transform="translate(1020 3536)" fill="#fecb2f">
        <path d="M 40.5 32.5 L 0.5 32.5 L 0.5 0.5 L 40.5 0.5 L 40.5 32.5 Z" stroke="none"/>
        <path d="M 1 1 L 1 32 L 40 32 L 40 1 L 1 1 M 0 0 L 41 0 L 41 33 L 0 33 L 0 0 Z" stroke="none" fill="#707070"/>
      </g>
      <path id="Trazado_635731" data-name="Trazado 635731" d="M4.078,7.625,7,15.875l2.906-8.25h3.078V19H10.633V15.891l.234-5.367L7.8,19H6.188L3.125,10.531l.234,5.359V19H1.016V7.625ZM21.056,19h-2.54V9.209l-3.032.94V8.084l5.3-1.9h.272Z" transform="translate(1142.653 3356.07)" fill="#12263f"/>
      <path id="Trazado_635732" data-name="Trazado 635732" d="M4.078,5.625,7,13.875l2.906-8.25h3.078V17H10.633V13.891l.234-5.367L7.8,17H6.188L3.125,8.531l.234,5.359V17H1.016V5.625ZM22.586,17h-7.8V15.453l3.68-3.922a9.078,9.078,0,0,0,1.121-1.445,2.322,2.322,0,0,0,.363-1.172,1.738,1.738,0,0,0-.383-1.191,1.382,1.382,0,0,0-1.094-.434,1.49,1.49,0,0,0-1.207.527A2.089,2.089,0,0,0,16.828,9.2H14.563a3.729,3.729,0,0,1,.5-1.9,3.5,3.5,0,0,1,1.4-1.348,4.262,4.262,0,0,1,2.055-.488,4.036,4.036,0,0,1,2.73.844A2.985,2.985,0,0,1,22.219,8.7a3.825,3.825,0,0,1-.437,1.719,9.551,9.551,0,0,1-1.5,2.039L17.7,15.18h4.891Z" transform="translate(1064 3421)" fill="#12263f"/>
      <path id="Trazado_635733" data-name="Trazado 635733" d="M4.078,5.625,7,13.875l2.906-8.25h3.078V17H10.633V13.891l.234-5.367L7.8,17H6.188L3.125,8.531l.234,5.359V17H1.016V5.625Zm11.047,5.781.656-5.781h6.375V7.508H17.633l-.281,2.445a3.58,3.58,0,0,1,1.711-.43,3.279,3.279,0,0,1,2.547,1.008,4.026,4.026,0,0,1,.922,2.82,4.124,4.124,0,0,1-.465,1.973,3.281,3.281,0,0,1-1.332,1.352,4.158,4.158,0,0,1-2.047.48,4.416,4.416,0,0,1-1.914-.418,3.4,3.4,0,0,1-1.395-1.176,3.2,3.2,0,0,1-.543-1.727H17.07a1.669,1.669,0,0,0,.5,1.105,1.573,1.573,0,0,0,1.113.395,1.388,1.388,0,0,0,1.18-.551,2.551,2.551,0,0,0,.414-1.559,2.11,2.11,0,0,0-.477-1.484,1.749,1.749,0,0,0-1.352-.516,1.954,1.954,0,0,0-1.3.422l-.219.2Z" transform="translate(1027 3486)" fill="#12263f"/>
      <path id="Trazado_635734" data-name="Trazado 635734" d="M4.078,5.625,7,13.875l2.906-8.25h3.078V17H10.633V13.891l.234-5.367L7.8,17H6.188L3.125,8.531l.234,5.359V17H1.016V5.625Zm13.008,4.688h1.2a1.7,1.7,0,0,0,1.273-.43,1.574,1.574,0,0,0,.414-1.141,1.392,1.392,0,0,0-.41-1.07,1.59,1.59,0,0,0-1.129-.383,1.666,1.666,0,0,0-1.086.355,1.137,1.137,0,0,0-.437.926H14.656a2.777,2.777,0,0,1,.48-1.6A3.2,3.2,0,0,1,16.48,5.867a4.485,4.485,0,0,1,1.9-.4,4.253,4.253,0,0,1,2.828.863,2.945,2.945,0,0,1,1.023,2.379,2.394,2.394,0,0,1-.477,1.438,3.1,3.1,0,0,1-1.25,1.008,2.826,2.826,0,0,1,1.434,1.031,2.8,2.8,0,0,1,.473,1.625,2.994,2.994,0,0,1-1.105,2.43,4.445,4.445,0,0,1-2.926.914,4.214,4.214,0,0,1-2.785-.9,2.934,2.934,0,0,1-1.082-2.375h2.258a1.308,1.308,0,0,0,.48,1.047,2,2,0,0,0,2.445-.02,1.47,1.47,0,0,0,.457-1.129q0-1.7-1.875-1.7h-1.2Z" transform="translate(1143 3421)" fill="#12263f"/>
      <path id="Trazado_635735" data-name="Trazado 635735" d="M4.078,5.625,7,13.875l2.906-8.25h3.078V17H10.633V13.891l.234-5.367L7.8,17H6.188L3.125,8.531l.234,5.359V17H1.016V5.625Zm16.836-.117V7.367H20.7a3.836,3.836,0,0,0-2.465.8,3.238,3.238,0,0,0-1.121,2.148A3.075,3.075,0,0,1,19.4,9.391a2.9,2.9,0,0,1,2.359,1.063,4.259,4.259,0,0,1,.875,2.8,4.19,4.19,0,0,1-.48,2.008,3.446,3.446,0,0,1-1.359,1.4,3.949,3.949,0,0,1-1.988.5,3.689,3.689,0,0,1-2.9-1.25A4.852,4.852,0,0,1,14.8,12.57v-.812a7.3,7.3,0,0,1,.7-3.27,5.127,5.127,0,0,1,2.008-2.2,5.884,5.884,0,0,1,3.035-.785Zm-2.2,5.7a1.8,1.8,0,0,0-.992.285,1.715,1.715,0,0,0-.656.753v.686a3.04,3.04,0,0,0,.445,1.766,1.439,1.439,0,0,0,1.25.635,1.423,1.423,0,0,0,1.176-.573,2.337,2.337,0,0,0,.449-1.485,2.333,2.333,0,0,0-.453-1.5A1.477,1.477,0,0,0,18.711,11.211Z" transform="translate(1085 3486)" fill="#12263f"/>
      <path id="Trazado_635736" data-name="Trazado 635736" d="M4.078,5.625,7,13.875l2.906-8.25h3.078V17H10.633V13.891l.234-5.367L7.8,17H6.188L3.125,8.531l.234,5.359V17H1.016V5.625Zm17.391,7.094h1.289v1.82H21.469V17H19.211V14.539H14.547l-.1-1.422,4.742-7.492h2.281Zm-4.773,0h2.516V8.7l-.148.258Z" transform="translate(1222 3421)" fill="#12263f"/>
      <path id="Trazado_635737" data-name="Trazado 635737" d="M4.078,5.625,7,13.875l2.906-8.25h3.078V17H10.633V13.891l.234-5.367L7.8,17H6.188L3.125,8.531l.234,5.359V17H1.016V5.625Zm18.445,1.26L18.125,17H15.742l4.406-9.555H14.492V5.625h8.031Z" transform="translate(1143 3486)" fill="#12263f"/>
      <path id="Trazado_635738" data-name="Trazado 635738" d="M4.078,5.625,7,13.875l2.906-8.25h3.078V17H10.633V13.891l.234-5.367L7.8,17H6.188L3.125,8.531l.234,5.359V17H1.016V5.625ZM22.2,8.648a2.646,2.646,0,0,1-.414,1.469,2.98,2.98,0,0,1-1.141,1.023,3.3,3.3,0,0,1,1.313,1.1,2.816,2.816,0,0,1,.484,1.645,2.981,2.981,0,0,1-1.031,2.395,4.183,4.183,0,0,1-2.8.879,4.2,4.2,0,0,1-2.812-.883,2.974,2.974,0,0,1-1.039-2.391,2.834,2.834,0,0,1,.484-1.648,3.239,3.239,0,0,1,1.3-1.094,2.95,2.95,0,0,1-1.137-1.023A2.664,2.664,0,0,1,15,8.648a2.948,2.948,0,0,1,.969-2.316A3.814,3.814,0,0,1,18.6,5.469a3.839,3.839,0,0,1,2.629.855A2.937,2.937,0,0,1,22.2,8.648Zm-2.023,5.07a1.638,1.638,0,0,0-.43-1.187,1.719,1.719,0,0,0-2.3,0,1.635,1.635,0,0,0-.43,1.191,1.634,1.634,0,0,0,.422,1.172,1.762,1.762,0,0,0,2.324.016A1.631,1.631,0,0,0,20.18,13.719Zm-.234-4.961a1.563,1.563,0,0,0-.352-1.066,1.43,1.43,0,0,0-1.977-.012,1.553,1.553,0,0,0-.352,1.078,1.633,1.633,0,0,0,.352,1.094,1.391,1.391,0,0,0,1.98,0A1.645,1.645,0,0,0,19.945,8.758Z" transform="translate(1027 3544)" fill="#12263f"/>
    </g>
  </g>
</svg>
