<svg xmlns="http://www.w3.org/2000/svg" xmlns:xlink="http://www.w3.org/1999/xlink" width="126.832" height="90.177" viewBox="0 0 126.832 90.177">
  <defs>
    <linearGradient id="linear-gradient" x1="0.5" x2="0.5" y2="1" gradientUnits="objectBoundingBox">
      <stop offset="0" stop-color="#fecb2f"/>
      <stop offset="1" stop-color="#ef3c79"/>
    </linearGradient>
  </defs>
  <g id="Grupo_906561" data-name="Grupo 906561" transform="translate(11931.416 12141.16)">
    <g id="Grupo_906513" data-name="Grupo 906513" transform="translate(-11913.734 -12136.527)">
      <g id="Grupo_906506" data-name="Grupo 906506" transform="translate(0.211 0)">
        <path id="Trazado_635651" data-name="Trazado 635651" d="M7418.4,3250.516h-6.763a.047.047,0,0,1-.047-.047v-5.146a.047.047,0,0,1,.047-.047h6.763a.047.047,0,0,1,.047.047v5.146A.047.047,0,0,1,7418.4,3250.516Zm-6.716-.094h6.668v-5.051h-6.668Z" transform="translate(-7411.586 -3245.277)" fill="url(#linear-gradient)"/>
      </g>
      <g id="Grupo_906507" data-name="Grupo 906507" transform="translate(0 5.145)">
        <path id="Trazado_635652" data-name="Trazado 635652" d="M7417.31,3282.659h-7.185a.047.047,0,0,1-.047-.047v-.588a.047.047,0,0,1,.047-.047h7.185a.047.047,0,0,1,.047.047v.588A.047.047,0,0,1,7417.31,3282.659Zm-7.138-.094h7.091v-.494h-7.091Z" transform="translate(-7410.078 -3281.977)" fill="url(#linear-gradient)"/>
      </g>
      <g id="Grupo_906508" data-name="Grupo 906508" transform="translate(3.299 6.165)">
        <path id="Trazado_635653" data-name="Trazado 635653" d="M7433.947,3289.934a.341.341,0,1,1,.341-.341A.342.342,0,0,1,7433.947,3289.934Zm0-.588a.247.247,0,1,0,.247.247A.247.247,0,0,0,7433.947,3289.346Z" transform="translate(-7433.605 -3289.252)" fill="url(#linear-gradient)"/>
      </g>
      <g id="Grupo_906509" data-name="Grupo 906509" transform="translate(3.593 5.75)">
        <path id="Trazado_635654" data-name="Trazado 635654" d="M7435.75,3286.785h0a.047.047,0,0,1-.047-.047v-.4a.044.044,0,0,1,.047-.047.047.047,0,0,1,.046.047v.4A.047.047,0,0,1,7435.75,3286.785Z" transform="translate(-7435.703 -3286.29)" fill="url(#linear-gradient)"/>
      </g>
      <g id="Grupo_906510" data-name="Grupo 906510" transform="translate(0.959 2.222)">
        <path id="Trazado_635655" data-name="Trazado 635655" d="M7417.954,3263.651h-.991a.047.047,0,0,1-.047-.047v-2.434a.047.047,0,0,1,.047-.047h.991a.047.047,0,0,1,.047.047v2.434A.047.047,0,0,1,7417.954,3263.651Zm-.944-.094h.9v-2.34h-.9Z" transform="translate(-7416.916 -3261.123)" fill="url(#linear-gradient)"/>
      </g>
      <g id="Grupo_906511" data-name="Grupo 906511" transform="translate(2.917 1.245)">
        <path id="Trazado_635656" data-name="Trazado 635656" d="M7431.921,3257.662h-.992a.047.047,0,0,1-.047-.047v-3.41a.047.047,0,0,1,.047-.047h.992a.047.047,0,0,1,.047.047v3.41A.047.047,0,0,1,7431.921,3257.662Zm-.945-.094h.9v-3.316h-.9Z" transform="translate(-7430.882 -3254.158)" fill="url(#linear-gradient)"/>
      </g>
      <g id="Grupo_906512" data-name="Grupo 906512" transform="translate(4.99 0.539)">
        <path id="Trazado_635657" data-name="Trazado 635657" d="M7446.708,3253.331h-.992a.047.047,0,0,1-.047-.047v-4.116a.047.047,0,0,1,.047-.047h.992a.047.047,0,0,1,.047.047v4.116A.047.047,0,0,1,7446.708,3253.331Zm-.944-.094h.9v-4.022h-.9Z" transform="translate(-7445.67 -3249.121)" fill="url(#linear-gradient)"/>
      </g>
    </g>
    <g id="Grupo_906516" data-name="Grupo 906516" transform="translate(-11898.154 -12131.111)">
      <g id="Grupo_906514" data-name="Grupo 906514" transform="translate(0 0.34)">
        <path id="Trazado_635658" data-name="Trazado 635658" d="M7523.2,3290.3a1.983,1.983,0,0,1,0-3.965.05.05,0,0,1,.033.014.048.048,0,0,1,.014.034l-.022,1.916h1.914a.047.047,0,0,1,.047.047A1.99,1.99,0,0,1,7523.2,3290.3Zm-.052-3.87a1.889,1.889,0,1,0,1.938,1.962h-1.914a.046.046,0,0,1-.033-.014.048.048,0,0,1-.014-.033Z" transform="translate(-7521.213 -3286.332)" fill="url(#linear-gradient)"/>
      </g>
      <g id="Grupo_906515" data-name="Grupo 906515" transform="translate(2.276 0)">
        <path id="Trazado_635659" data-name="Trazado 635659" d="M7539.454,3285.963h-1.962a.047.047,0,0,1-.034-.014.045.045,0,0,1-.013-.033l.023-1.963a.047.047,0,0,1,.048-.047,1.985,1.985,0,0,1,1.986,1.982c0,.006,0,.012,0,.018v.01A.047.047,0,0,1,7539.454,3285.963Zm-1.915-.094h1.869a1.891,1.891,0,0,0-1.846-1.869Z" transform="translate(-7537.445 -3283.906)" fill="url(#linear-gradient)"/>
      </g>
    </g>
    <g id="Grupo_906531" data-name="Grupo 906531" transform="translate(-11912.014 -12112.751)">
      <g id="Grupo_906529" data-name="Grupo 906529" transform="translate(0 0)">
        <path id="Trazado_635670" data-name="Trazado 635670" d="M7426.706,3417.681h-4.3a.047.047,0,0,1-.047-.047v-2.719a.047.047,0,0,1,.047-.047h4.3a.047.047,0,0,1,.047.047v2.719A.047.047,0,0,1,7426.706,3417.681Zm-4.253-.094h4.206v-2.626h-4.206Z" transform="translate(-7422.359 -3414.867)" fill="url(#linear-gradient)"/>
      </g>
      <g id="Grupo_906530" data-name="Grupo 906530" transform="translate(0 0)">
        <path id="Trazado_635671" data-name="Trazado 635671" d="M7424.55,3416.223a.048.048,0,0,1-.024-.007l-2.144-1.262a.047.047,0,0,1,.023-.088h4.3a.047.047,0,0,1,.024.088l-2.156,1.262A.047.047,0,0,1,7424.55,3416.223Zm-1.971-1.262,1.971,1.16,1.983-1.16Z" transform="translate(-7422.359 -3414.867)" fill="url(#linear-gradient)"/>
      </g>
    </g>
    <g id="Grupo_906538" data-name="Grupo 906538" transform="translate(-11820.307 -12120.605)">
      <g id="Grupo_906532" data-name="Grupo 906532" transform="translate(0 1.277)">
        <path id="Trazado_635672" data-name="Trazado 635672" d="M8080.8,3371.034h-4.263a.047.047,0,0,1-.047-.047V3368a.047.047,0,0,1,.047-.047h4.263a.047.047,0,0,1,.047.047v2.989A.047.047,0,0,1,8080.8,3371.034Zm-4.216-.094h4.169v-2.9h-4.169Z" transform="translate(-8076.488 -3367.951)" fill="url(#linear-gradient)"/>
      </g>
      <g id="Grupo_906533" data-name="Grupo 906533" transform="translate(0 1.277)">
        <path id="Trazado_635673" data-name="Trazado 635673" d="M8080.8,3369.331H8079a.047.047,0,0,1,0-.094h1.748v-1.192h-4.169v1.192h1.778a.047.047,0,0,1,0,.094h-1.825a.047.047,0,0,1-.047-.047V3368a.047.047,0,0,1,.047-.047h4.263a.047.047,0,0,1,.047.047v1.286A.047.047,0,0,1,8080.8,3369.331Z" transform="translate(-8076.488 -3367.951)" fill="url(#linear-gradient)"/>
      </g>
      <g id="Grupo_906534" data-name="Grupo 906534" transform="translate(1.911 2.211)">
        <path id="Trazado_635674" data-name="Trazado 635674" d="M8090.635,3375.507h-.468a.047.047,0,0,1-.047-.047v-.8a.047.047,0,0,1,.047-.047h.468a.047.047,0,0,1,.047.047v.8A.047.047,0,0,1,8090.635,3375.507Zm-.421-.094h.375v-.705h-.375Z" transform="translate(-8090.12 -3374.614)" fill="url(#linear-gradient)"/>
      </g>
      <g id="Grupo_906535" data-name="Grupo 906535" transform="translate(0.404 1.02)">
        <path id="Trazado_635675" data-name="Trazado 635675" d="M8080.071,3366.449h-.652a.047.047,0,0,1-.047-.047v-.239a.047.047,0,0,1,.047-.047h.652a.047.047,0,0,1,.047.047v.239A.047.047,0,0,1,8080.071,3366.449Zm-.605-.094h.558v-.145h-.558Z" transform="translate(-8079.372 -3366.116)" fill="url(#linear-gradient)"/>
      </g>
      <g id="Grupo_906536" data-name="Grupo 906536" transform="translate(3.222 1.02)">
        <path id="Trazado_635676" data-name="Trazado 635676" d="M8100.169,3366.449h-.652a.047.047,0,0,1-.047-.047v-.239a.047.047,0,0,1,.047-.047h.652a.047.047,0,0,1,.047.047v.239A.047.047,0,0,1,8100.169,3366.449Zm-.605-.094h.559v-.145h-.559Z" transform="translate(-8099.47 -3366.116)" fill="url(#linear-gradient)"/>
      </g>
      <g id="Grupo_906537" data-name="Grupo 906537" transform="translate(0.887 0)">
        <path id="Trazado_635677" data-name="Trazado 635677" d="M8085.35,3359.835a.047.047,0,0,1-.047-.047v-.583a.271.271,0,0,0-.27-.27h-1.856a.27.27,0,0,0-.27.27v.583a.047.047,0,0,1-.094,0v-.583a.364.364,0,0,1,.364-.364h1.856a.365.365,0,0,1,.364.364v.583A.047.047,0,0,1,8085.35,3359.835Z" transform="translate(-8082.813 -3358.841)" fill="url(#linear-gradient)"/>
      </g>
    </g>
    <g id="Grupo_906545" data-name="Grupo 906545" transform="translate(-11808.402 -12088.96)">
      <g id="Grupo_906539" data-name="Grupo 906539" transform="translate(0 0)">
        <path id="Trazado_635678" data-name="Trazado 635678" d="M8165.175,3589.467h-3.725a.047.047,0,0,1-.047-.047v-4.8a.047.047,0,0,1,.047-.047h2.91a.047.047,0,0,1,.032.012l.814.753a.047.047,0,0,1,.015.034v4.049A.047.047,0,0,1,8165.175,3589.467Zm-3.677-.094h3.63v-3.981l-.786-.727H8161.5Z" transform="translate(-8161.403 -3584.571)" fill="#9ec5e8"/>
      </g>
      <g id="Grupo_906540" data-name="Grupo 906540" transform="translate(2.91)">
        <path id="Trazado_635679" data-name="Trazado 635679" d="M8183.019,3585.417h0l-.806-.009a.047.047,0,0,1-.046-.046l-.009-.744a.047.047,0,0,1,.046-.047.044.044,0,0,1,.047.046l.009.7.76.009a.047.047,0,0,1,0,.094Z" transform="translate(-8182.157 -3584.57)" fill="#9ec5e8"/>
      </g>
      <g id="Grupo_906541" data-name="Grupo 906541" transform="translate(0.328 0.698)">
        <path id="Trazado_635680" data-name="Trazado 635680" d="M8165.2,3589.645h-1.415a.047.047,0,0,1,0-.094h1.415a.047.047,0,0,1,0,.094Z" transform="translate(-8163.741 -3589.551)" fill="#9ec5e8"/>
      </g>
      <g id="Grupo_906542" data-name="Grupo 906542" transform="translate(0.328 1.356)">
        <path id="Trazado_635681" data-name="Trazado 635681" d="M8166.706,3594.335h-2.917a.047.047,0,0,1,0-.094h2.917a.047.047,0,1,1,0,.094Z" transform="translate(-8163.741 -3594.241)" fill="#9ec5e8"/>
      </g>
      <g id="Grupo_906543" data-name="Grupo 906543" transform="translate(0.328 2.389)">
        <path id="Trazado_635682" data-name="Trazado 635682" d="M8166.706,3601.7h-2.917a.047.047,0,0,1,0-.094h2.917a.047.047,0,1,1,0,.094Z" transform="translate(-8163.741 -3601.61)" fill="#9ec5e8"/>
      </g>
      <g id="Grupo_906544" data-name="Grupo 906544" transform="translate(0.328 3.422)">
        <path id="Trazado_635683" data-name="Trazado 635683" d="M8166.706,3609.073h-2.917a.047.047,0,0,1,0-.094h2.917a.047.047,0,1,1,0,.094Z" transform="translate(-8163.741 -3608.979)" fill="#9ec5e8"/>
      </g>
    </g>
    <g id="Grupo_906555" data-name="Grupo 906555" transform="translate(-11830.285 -12117.829)">
      <g id="Grupo_906547" data-name="Grupo 906547" transform="translate(4.238 0)">
        <g id="Grupo_906546" data-name="Grupo 906546">
          <path id="Trazado_635684" data-name="Trazado 635684" d="M8036.321,3378.646a.778.778,0,1,0,.778.778A.778.778,0,0,0,8036.321,3378.646Zm0,1.272a.495.495,0,1,1,.495-.494A.494.494,0,0,1,8036.321,3379.918Z" transform="translate(-8035.544 -3378.646)" fill="url(#linear-gradient)"/>
        </g>
      </g>
      <g id="Grupo_906549" data-name="Grupo 906549" transform="translate(4.238 4.018)">
        <g id="Grupo_906548" data-name="Grupo 906548">
          <path id="Trazado_635685" data-name="Trazado 635685" d="M8036.321,3407.308a.778.778,0,1,0,.778.778A.777.777,0,0,0,8036.321,3407.308Zm0,1.272a.495.495,0,1,1,.495-.494A.494.494,0,0,1,8036.321,3408.58Z" transform="translate(-8035.544 -3407.308)" fill="url(#linear-gradient)"/>
        </g>
      </g>
      <g id="Grupo_906551" data-name="Grupo 906551" transform="translate(4.238 8.036)">
        <g id="Grupo_906550" data-name="Grupo 906550">
          <path id="Trazado_635686" data-name="Trazado 635686" d="M8036.321,3435.969a.778.778,0,1,0,.778.778A.778.778,0,0,0,8036.321,3435.969Zm0,1.272a.495.495,0,1,1,.495-.495A.494.494,0,0,1,8036.321,3437.241Z" transform="translate(-8035.544 -3435.969)" fill="url(#linear-gradient)"/>
        </g>
      </g>
      <g id="Grupo_906552" data-name="Grupo 906552" transform="translate(0 0.8)">
        <path id="Trazado_635687" data-name="Trazado 635687" d="M8005.574,3395.811h-.259V3384.8a.451.451,0,0,1,.451-.451h3.906v.259h-3.906a.192.192,0,0,0-.191.192Z" transform="translate(-8005.315 -3384.354)" fill="url(#linear-gradient)"/>
      </g>
      <g id="Grupo_906553" data-name="Grupo 906553" transform="translate(0.096 4.621)">
        <rect id="Rectángulo_303826" data-name="Rectángulo 303826" width="4.294" height="0.259" fill="url(#linear-gradient)"/>
      </g>
      <g id="Grupo_906554" data-name="Grupo 906554" transform="translate(0.079 8.662)">
        <rect id="Rectángulo_303827" data-name="Rectángulo 303827" width="4.294" height="0.259" fill="url(#linear-gradient)"/>
      </g>
    </g>
    <g id="Grupo_906560" data-name="Grupo 906560">
      <g id="Grupo_906505" data-name="Grupo 906505" transform="translate(-11883.539 -12141.16)">
        <g id="Grupo_906499" data-name="Grupo 906499" transform="translate(2.912 0)">
          <path id="Trazado_635645" data-name="Trazado 635645" d="M7647.844,3213.888h-1.568a.047.047,0,0,1-.047-.047v-1.568a.047.047,0,0,1,.047-.047h1.568a.047.047,0,0,1,.046.047v1.568A.046.046,0,0,1,7647.844,3213.888Zm-1.521-.094h1.474v-1.474h-1.474Z" transform="translate(-7646.229 -3212.226)" fill="url(#linear-gradient)"/>
        </g>
        <g id="Grupo_906500" data-name="Grupo 906500" transform="translate(2.912 3.851)">
          <path id="Trazado_635646" data-name="Trazado 635646" d="M7647.844,3241.355h-1.568a.047.047,0,0,1-.047-.047v-1.568a.047.047,0,0,1,.047-.047h1.568a.046.046,0,0,1,.046.047v1.568A.047.047,0,0,1,7647.844,3241.355Zm-1.521-.094h1.474v-1.474h-1.474Z" transform="translate(-7646.229 -3239.693)" fill="url(#linear-gradient)"/>
        </g>
        <g id="Grupo_906501" data-name="Grupo 906501" transform="translate(0 3.851)">
          <path id="Trazado_635647" data-name="Trazado 635647" d="M7627.076,3241.355h-1.568a.047.047,0,0,1-.047-.047v-1.568a.047.047,0,0,1,.047-.047h1.568a.047.047,0,0,1,.047.047v1.568A.047.047,0,0,1,7627.076,3241.355Zm-1.521-.094h1.475v-1.474h-1.475Z" transform="translate(-7625.461 -3239.693)" fill="url(#linear-gradient)"/>
        </g>
        <g id="Grupo_906502" data-name="Grupo 906502" transform="translate(5.823 3.851)">
          <path id="Trazado_635648" data-name="Trazado 635648" d="M7668.612,3241.355h-1.568a.047.047,0,0,1-.047-.047v-1.568a.047.047,0,0,1,.047-.047h1.568a.047.047,0,0,1,.047.047v1.568A.047.047,0,0,1,7668.612,3241.355Zm-1.521-.094h1.475v-1.474h-1.475Z" transform="translate(-7666.997 -3239.693)" fill="url(#linear-gradient)"/>
        </g>
        <g id="Grupo_906503" data-name="Grupo 906503" transform="translate(3.671 1.568)">
          <path id="Trazado_635649" data-name="Trazado 635649" d="M7651.693,3225.783a.047.047,0,0,1-.047-.047v-2.279a.047.047,0,1,1,.094,0v2.279A.047.047,0,0,1,7651.693,3225.783Z" transform="translate(-7651.646 -3223.411)" fill="url(#linear-gradient)"/>
        </g>
        <g id="Grupo_906504" data-name="Grupo 906504" transform="translate(0.768 2.646)">
          <path id="Trazado_635650" data-name="Trazado 635650" d="M7636.84,3232.42a.047.047,0,0,1-.047-.047V3231.2h-5.762v1.154a.047.047,0,0,1-.094,0v-1.2a.047.047,0,0,1,.047-.047h5.855a.047.047,0,0,1,.047.047v1.225A.047.047,0,0,1,7636.84,3232.42Z" transform="translate(-7630.937 -3231.101)" fill="url(#linear-gradient)"/>
        </g>
      </g>
      <g id="Grupo_906521" data-name="Grupo 906521" transform="translate(-11833.975 -12138.026)">
        <g id="Grupo_906517" data-name="Grupo 906517" transform="translate(0)">
          <path id="Trazado_635660" data-name="Trazado 635660" d="M7983.207,3238.139a.046.046,0,0,1-.034-.015l-.852-.913h-2.949a.369.369,0,0,1-.369-.368v-1.893a.369.369,0,0,1,.369-.368h3.514a.369.369,0,0,1,.368.368v3.142a.047.047,0,0,1-.029.044A.05.05,0,0,1,7983.207,3238.139Zm-3.835-3.464a.275.275,0,0,0-.274.275v1.893a.275.275,0,0,0,.274.274h2.97a.046.046,0,0,1,.034.015l.785.841v-3.023a.275.275,0,0,0-.274-.275Z" transform="translate(-7979.003 -3234.581)" fill="url(#linear-gradient)"/>
        </g>
        <g id="Grupo_906518" data-name="Grupo 906518" transform="translate(0.833 0.983)">
          <path id="Trazado_635661" data-name="Trazado 635661" d="M7985.24,3242.184a.3.3,0,1,1,.295-.3A.3.3,0,0,1,7985.24,3242.184Zm0-.5a.2.2,0,1,0,.2.2A.2.2,0,0,0,7985.24,3241.688Z" transform="translate(-7984.945 -3241.594)" fill="url(#linear-gradient)"/>
        </g>
        <g id="Grupo_906519" data-name="Grupo 906519" transform="translate(1.866 0.983)">
          <path id="Trazado_635662" data-name="Trazado 635662" d="M7992.609,3242.184a.3.3,0,1,1,.295-.3A.3.3,0,0,1,7992.609,3242.184Zm0-.5a.2.2,0,1,0,.2.2A.2.2,0,0,0,7992.609,3241.688Z" transform="translate(-7992.314 -3241.594)" fill="url(#linear-gradient)"/>
        </g>
        <g id="Grupo_906520" data-name="Grupo 906520" transform="translate(2.899 0.983)">
          <path id="Trazado_635663" data-name="Trazado 635663" d="M7999.979,3242.184a.3.3,0,1,1,.295-.3A.3.3,0,0,1,7999.979,3242.184Zm0-.5a.2.2,0,1,0,.2.2A.2.2,0,0,0,7999.979,3241.688Z" transform="translate(-7999.684 -3241.594)" fill="url(#linear-gradient)"/>
        </g>
      </g>
      <g id="Grupo_906528" data-name="Grupo 906528" transform="translate(-11856.451 -12138.594)">
        <g id="Grupo_906522" data-name="Grupo 906522" transform="translate(0 0)">
          <path id="Trazado_635664" data-name="Trazado 635664" d="M7821.223,3235.626a2.546,2.546,0,1,1,2.546-2.546A2.549,2.549,0,0,1,7821.223,3235.626Zm0-5a2.452,2.452,0,1,0,2.452,2.452A2.455,2.455,0,0,0,7821.223,3230.628Z" transform="translate(-7818.677 -3230.534)" fill="url(#linear-gradient)"/>
        </g>
        <g id="Grupo_906523" data-name="Grupo 906523" transform="translate(1.446 0)">
          <path id="Trazado_635665" data-name="Trazado 635665" d="M7830.089,3235.626c-.617,0-1.1-1.118-1.1-2.546s.483-2.546,1.1-2.546,1.1,1.118,1.1,2.546S7830.707,3235.626,7830.089,3235.626Zm0-5c-.555,0-1.006,1.1-1.006,2.452s.451,2.452,1.006,2.452,1.007-1.1,1.007-2.452S7830.645,3230.628,7830.089,3230.628Z" transform="translate(-7828.989 -3230.534)" fill="url(#linear-gradient)"/>
        </g>
        <g id="Grupo_906524" data-name="Grupo 906524" transform="translate(0.516 0)">
          <path id="Trazado_635666" data-name="Trazado 635666" d="M7824.385,3232.02a4.361,4.361,0,0,1-2.006-.419.049.049,0,0,1-.023-.031.051.051,0,0,1,.009-.038,2.545,2.545,0,0,1,4.042,0,.051.051,0,0,1,.009.038.049.049,0,0,1-.023.031A4.361,4.361,0,0,1,7824.385,3232.02Zm-1.912-.475a4.987,4.987,0,0,0,3.824,0,2.451,2.451,0,0,0-3.824,0Z" transform="translate(-7822.354 -3230.534)" fill="url(#linear-gradient)"/>
        </g>
        <g id="Grupo_906525" data-name="Grupo 906525" transform="translate(0.568 3.7)">
          <path id="Trazado_635667" data-name="Trazado 635667" d="M7824.7,3258.316a2.538,2.538,0,0,1-1.968-.931.046.046,0,0,1-.01-.039.047.047,0,0,1,.024-.032,5.084,5.084,0,0,1,3.906,0,.047.047,0,0,1,.015.072A2.539,2.539,0,0,1,7824.7,3258.316Zm-1.857-.945a2.452,2.452,0,0,0,3.714,0,5.055,5.055,0,0,0-3.714,0Z" transform="translate(-7822.725 -3256.924)" fill="url(#linear-gradient)"/>
        </g>
        <g id="Grupo_906526" data-name="Grupo 906526" transform="translate(2.499 0)">
          <path id="Trazado_635668" data-name="Trazado 635668" d="M7836.551,3235.626a.047.047,0,0,1-.047-.047v-5a.047.047,0,1,1,.094,0v5A.047.047,0,0,1,7836.551,3235.626Z" transform="translate(-7836.504 -3230.534)" fill="url(#linear-gradient)"/>
        </g>
        <g id="Grupo_906527" data-name="Grupo 906527" transform="translate(0 2.499)">
          <path id="Trazado_635669" data-name="Trazado 635669" d="M7823.722,3248.454h-5a.047.047,0,1,1,0-.094h5a.047.047,0,1,1,0,.094Z" transform="translate(-7818.677 -3248.36)" fill="url(#linear-gradient)"/>
        </g>
      </g>
      <g id="Grupo_906556" data-name="Grupo 906556" transform="translate(-11843.729 -12134.492)">
        <path id="Trazado_635688" data-name="Trazado 635688" d="M7917.712,3273.517a7.055,7.055,0,0,1-.892.12.076.076,0,0,1-.011-.151,6.912,6.912,0,0,0,.873-.117.078.078,0,0,1,.092.059.072.072,0,0,1-.056.088l-.015-.074Zm.872-.235a.076.076,0,0,1-.039-.146,6.718,6.718,0,0,0,.819-.34.076.076,0,0,1,.067.135,6.9,6.9,0,0,1-.837.348Zm-2.651.356h-.02a6.891,6.891,0,0,1-.9-.116.076.076,0,1,1,.029-.148,6.805,6.805,0,0,0,.88.114.076.076,0,0,1,.01.149Zm4.256-1.15a.076.076,0,0,1-.057-.137,6.89,6.89,0,0,0,.7-.542.076.076,0,0,1,.1.114,6.965,6.965,0,0,1-.718.553A.076.076,0,0,1,7920.189,3272.488Zm-6.014.8a.077.077,0,0,1-.039,0,7.031,7.031,0,0,1-.839-.346.076.076,0,0,1,.067-.136,6.851,6.851,0,0,0,.82.338.076.076,0,0,1-.009.146Zm7.356-1.988a.076.076,0,0,1-.072-.124,6.768,6.768,0,0,0,.539-.7.076.076,0,0,1,.126.084,6.989,6.989,0,0,1-.551.72A.076.076,0,0,1,7921.531,3271.3Zm-8.964,1.2a.075.075,0,0,1-.057-.011,7,7,0,0,1-.721-.55.076.076,0,0,1,.1-.114,6.81,6.81,0,0,0,.706.538.076.076,0,0,1-.027.137Zm9.956-2.688a.076.076,0,0,1-.048-.006.076.076,0,0,1-.034-.1,6.87,6.87,0,0,0,.339-.82.075.075,0,0,1,.1-.047.076.076,0,0,1,.047.1,6.98,6.98,0,0,1-.347.838A.074.074,0,0,1,7922.523,3269.815Zm-11.306,1.513a.075.075,0,0,1-.071-.024,6.922,6.922,0,0,1-.554-.717.076.076,0,1,1,.125-.084,6.765,6.765,0,0,0,.542.7.075.075,0,0,1-.007.107A.077.077,0,0,1,7911.218,3271.327Zm11.88-3.209a.074.074,0,0,1-.029,0,.076.076,0,0,1-.06-.089,6.844,6.844,0,0,0,.115-.88.075.075,0,1,1,.15.01,6.888,6.888,0,0,1-.117.9A.076.076,0,0,1,7923.1,3268.119Zm-12.879,1.724a.075.075,0,0,1-.082-.041,6.848,6.848,0,0,1-.349-.837.075.075,0,1,1,.143-.049,6.762,6.762,0,0,0,.341.819.075.075,0,0,1-.034.1Zm12.993-3.511h-.01a.075.075,0,0,1-.08-.07,6.96,6.96,0,0,0-.118-.879l-.006-.028a.076.076,0,1,1,.148-.031l.006.029a7,7,0,0,1,.12.9A.076.076,0,0,1,7923.212,3266.332Zm-13.573,1.81a.07.07,0,0,1-.088-.052l0-.014a7.056,7.056,0,0,1-.12-.884.076.076,0,0,1,.07-.081.075.075,0,0,1,.081.07,6.945,6.945,0,0,0,.117.865A.082.082,0,0,1,7909.639,3268.142Zm13.213-3.593a.076.076,0,0,1-.086-.05,6.806,6.806,0,0,0-.342-.818.075.075,0,0,1,.034-.1.076.076,0,0,1,.1.034,6.877,6.877,0,0,1,.351.836.075.075,0,0,1-.047.1Zm-13.336,1.814h-.02a.076.076,0,0,1-.071-.08,6.9,6.9,0,0,1,.116-.9.075.075,0,1,1,.148.029,6.766,6.766,0,0,0-.113.88A.076.076,0,0,1,7909.516,3266.363Zm12.537-3.416a.076.076,0,0,1-.078-.032,6.824,6.824,0,0,0-.543-.7.075.075,0,1,1,.113-.1,6.943,6.943,0,0,1,.556.716.075.075,0,0,1-.021.1A.079.079,0,0,1,7922.053,3262.947Zm-12.193,1.658a.074.074,0,0,1-.039,0,.076.076,0,0,1-.047-.1,6.913,6.913,0,0,1,.345-.839.076.076,0,1,1,.136.066,6.8,6.8,0,0,0-.337.821A.075.075,0,0,1,7909.859,3264.6Zm11.006-3a.075.075,0,0,1-.064-.017,6.826,6.826,0,0,0-.707-.537.076.076,0,0,1,.083-.126,7.024,7.024,0,0,1,.722.548.075.075,0,0,1,.007.107A.074.074,0,0,1,7920.865,3261.608ZM7910.646,3263a.077.077,0,0,1-.057-.011.076.076,0,0,1-.021-.1,7.019,7.019,0,0,1,.549-.721.076.076,0,1,1,.114.1,6.771,6.771,0,0,0-.537.706A.076.076,0,0,1,7910.646,3263Zm1.175-1.351a.076.076,0,0,1-.072-.024.075.075,0,0,1,.007-.107,6.93,6.93,0,0,1,.716-.555.076.076,0,1,1,.084.125,6.747,6.747,0,0,0-.7.543A.077.077,0,0,1,7911.821,3261.646Zm1.483-1a.075.075,0,0,1-.048-.142,6.9,6.9,0,0,1,.837-.35.076.076,0,0,1,.049.143,6.746,6.746,0,0,0-.818.342Zm2.582-.7h-.01a6.909,6.909,0,0,0-.858.116l-.021,0h0a.076.076,0,0,1-.03-.148l.021,0a7.11,7.11,0,0,1,.877-.119.076.076,0,0,1,.02.15Z" transform="translate(-7909.425 -3259.793)" fill="url(#linear-gradient)"/>
      </g>
    </g>
    <g id="Grupo_906557" data-name="Grupo 906557" transform="translate(-11923.553 -12089.06)">
      <path id="Trazado_635689" data-name="Trazado 635689" d="M7355.4,3588.666l-.841-4.808h-14.516v33.877h41.464v-29.069Z" transform="translate(-7340.043 -3583.857)" fill="#21cbae"/>
      <path id="Trazado_635690" data-name="Trazado 635690" d="M7368.989,3633.151l-4.205,6.125h-9.745v18.739h37.26v-24.864Z" transform="translate(-7352.937 -3626.24)" fill="#10917b"/>
    </g>
    <rect id="Rectángulo_303828" data-name="Rectángulo 303828" width="49.94" height="64.754" transform="translate(-11883.518 -12130.875)" fill="#e8e8e8"/>
    <rect id="Rectángulo_303829" data-name="Rectángulo 303829" width="49.94" height="64.754" transform="translate(-11888.773 -12124.662)" fill="#afafaf"/>
    <path id="Trazado_635691" data-name="Trazado 635691" d="M7589.849,3374.915h-41.494v63.276h49.7v-54.959Z" transform="translate(-19442.703 -15493.267)" fill="#e8e8e8"/>
    <path id="Trazado_635692" data-name="Trazado 635692" d="M7836.365,3374.914l-1.3,9.7,9.5-1.382Z" transform="translate(-19689.221 -15493.267)" fill="#b9d5ed"/>
    <path id="Trazado_635693" data-name="Trazado 635693" d="M7844.326,3374.914v8.249l8.207.068Z" transform="translate(-19697.182 -15493.267)" fill="#fff"/>
    <rect id="Rectángulo_303830" data-name="Rectángulo 303830" width="8.602" height="4.354" rx="2.177" transform="translate(-11871.012 -12113.75)" fill="#0b5999"/>
    <rect id="Rectángulo_303831" data-name="Rectángulo 303831" width="4.354" height="4.354" rx="2.177" transform="translate(-11888.773 -12078.334)" fill="#fecb2f"/>
    <rect id="Rectángulo_303832" data-name="Rectángulo 303832" width="32.019" height="4.354" rx="2.177" transform="translate(-11881.445 -12078.334)" fill="#21cbae" style="mix-blend-mode: multiply;isolation: isolate"/>
    <rect id="Rectángulo_303833" data-name="Rectángulo 303833" width="4.354" height="4.354" rx="2.177" transform="translate(-11888.773 -12086.117)" fill="#fecb2f"/>
    <rect id="Rectángulo_303834" data-name="Rectángulo 303834" width="32.019" height="4.354" rx="2.177" transform="translate(-11881.445 -12086.679)" fill="#21cbae" style="mix-blend-mode: multiply;isolation: isolate"/>
    <rect id="Rectángulo_303835" data-name="Rectángulo 303835" width="4.354" height="4.354" rx="2.177" transform="translate(-11888.773 -12094.463)" fill="#fecb2f"/>
    <rect id="Rectángulo_303836" data-name="Rectángulo 303836" width="32.019" height="4.354" rx="2.177" transform="translate(-11881.445 -12095.024)" fill="#21cbae" style="mix-blend-mode: multiply;isolation: isolate"/>
    <rect id="Rectángulo_303837" data-name="Rectángulo 303837" width="4.354" height="4.354" rx="2.177" transform="translate(-11888.773 -12102.808)" fill="#fecb2f"/>
    <rect id="Rectángulo_303838" data-name="Rectángulo 303838" width="32.019" height="4.354" rx="2.177" transform="translate(-11881.445 -12103.369)" fill="#21cbae" style="mix-blend-mode: multiply;isolation: isolate"/>
    <rect id="Rectángulo_303839" data-name="Rectángulo 303839" width="18.372" height="4.354" rx="2.177" transform="translate(-11891.163 -12113.75)" fill="#0b5999"/>
    <g id="Grupo_906558" data-name="Grupo 906558" transform="translate(-11845.1 -12110.193)">
      <circle id="Elipse_7481" data-name="Elipse 7481" cx="11.576" cy="11.576" r="11.576" transform="translate(0.876 1.487)" fill="#b8d0ff" style="mix-blend-mode: multiply;isolation: isolate"/>
      <circle id="Elipse_7482" data-name="Elipse 7482" cx="11.576" cy="11.576" r="11.576" transform="translate(0 0.85)" fill="#fecb2f"/>
      <path id="Trazado_635694" data-name="Trazado 635694" d="M7918.013,3440.018l8.92,11.363,14.868-18.266-15.186,11.045Z" transform="translate(-7915.438 -3433.115)" fill="#ef3c79"/>
    </g>
    <path id="Rectángulo_303840" data-name="Rectángulo 303840" d="M4.071,0h108.49a4.071,4.071,0,0,1,4.071,4.071v0a0,0,0,0,1,0,0H0a0,0,0,0,1,0,0v0A4.071,4.071,0,0,1,4.071,0Z" transform="translate(-11931.416 -12055.054)" fill="#12263f"/>
    <g id="Grupo_906559" data-name="Grupo 906559" transform="translate(-11882.973 -12087.414)">
      <path id="Trazado_635695" data-name="Trazado 635695" d="M7700.882,3605.761l-15.256,7.038,4.41,1.007-15.825,16.962-17.327-17.183a2.443,2.443,0,0,0-3.273-.151l-23.217,19.222a2.442,2.442,0,0,0,3.105,3.771l21.513-17.818,17.547,17.4a2.444,2.444,0,0,0,1.72.708h.047a2.444,2.444,0,0,0,1.739-.776l17.542-18.8,1.311,4.33Z" transform="translate(-7629.504 -3604.336)" fill="#a80c41"/>
      <path id="Trazado_635696" data-name="Trazado 635696" d="M7700.882,3595.6l-15.256,7.038,4.41,1.007-15.825,16.962-17.327-17.183a2.443,2.443,0,0,0-3.273-.151l-23.217,19.221a2.443,2.443,0,0,0,3.105,3.771l21.513-17.818,17.547,17.4a2.444,2.444,0,0,0,1.72.708h.047a2.444,2.444,0,0,0,1.739-.776l17.542-18.8,1.311,4.33Z" transform="translate(-7629.504 -3595.598)" fill="#ef3c79"/>
      <path id="Trazado_635697" data-name="Trazado 635697" d="M8029.818,3645.8v1.425l3.322.75,1.088-1.168Z" transform="translate(-7973.695 -3638.761)" fill="#4e83ab"/>
      <path id="Trazado_635698" data-name="Trazado 635698" d="M8132.2,3597.988l.9-.965V3595.6Z" transform="translate(-8061.72 -3595.598)" fill="#4e83ab"/>
    </g>
  </g>
</svg>
