<svg xmlns="http://www.w3.org/2000/svg" width="80.03" height="80.03" viewBox="0 0 80.03 80.03">
  <g id="Grupo_906563" data-name="Grupo 906563" transform="translate(-2986.707 -13.388)">
    <circle id="Elipse_7483" data-name="Elipse 7483" cx="28.295" cy="28.295" r="28.295" transform="translate(2986.707 53.403) rotate(-45)" fill="#ef3c79"/>
    <circle id="Elipse_7484" data-name="Elipse 7484" cx="23.15" cy="23.15" r="23.15" transform="translate(3003.572 30.252)" fill="#fecb2f"/>
    <path id="Trazado_635699" data-name="Trazado 635699" d="M3153.808,130.563c.086,0,.171.006.257.006a23.15,23.15,0,0,0,0-46.3c-.086,0-.171.006-.257.006Z" transform="translate(-127.343 -54.017)" fill="#21cbae"/>
    <circle id="Elipse_7485" data-name="Elipse 7485" cx="0.9" cy="0.9" r="0.9" transform="translate(3025.436 31.153)" fill="#12263f"/>
    <circle id="Elipse_7486" data-name="Elipse 7486" cx="0.9" cy="0.9" r="0.9" transform="translate(3040.582 37.16)" fill="#12263f"/>
    <circle id="Elipse_7487" data-name="Elipse 7487" cx="0.9" cy="0.9" r="0.9" transform="translate(3047.043 52.117)" fill="#12263f"/>
    <circle id="Elipse_7488" data-name="Elipse 7488" cx="0.9" cy="0.9" r="0.9" transform="translate(3041.036 67.262)" fill="#12263f"/>
    <path id="Trazado_635700" data-name="Trazado 635700" d="M3152.186,267.877a.9.9,0,1,1,.9.9A.9.9,0,0,1,3152.186,267.877Z" transform="translate(-126.107 -193.253)" fill="#12263f"/>
    <circle id="Elipse_7489" data-name="Elipse 7489" cx="0.9" cy="0.9" r="0.9" transform="translate(3010.934 67.717)" fill="#12263f"/>
    <circle id="Elipse_7490" data-name="Elipse 7490" cx="0.9" cy="0.9" r="0.9" transform="translate(3004.472 52.76)" fill="#12263f"/>
    <path id="Trazado_635701" data-name="Trazado 635701" d="M3088.157,115.475a.9.9,0,1,1-1.273,0A.9.9,0,0,1,3088.157,115.475Z" transform="translate(-76.141 -77.597)" fill="#12263f"/>
    <path id="Trazado_635702" data-name="Trazado 635702" d="M3152.532,122.257a.657.657,0,0,1-.657-.653l-.079-18.066a.657.657,0,1,1,1.314-.009l.071,16.944,9.186-5.232a.657.657,0,1,1,.65,1.142l-10.161,5.788A.657.657,0,0,1,3152.532,122.257Z" transform="translate(-125.809 -68.197)" fill="#12263f"/>
    <circle id="Elipse_7491" data-name="Elipse 7491" cx="2.958" cy="2.958" r="2.958" transform="translate(3023.164 55.602) rotate(-76.718)" fill="#12263f"/>
    <path id="Trazado_635703" data-name="Trazado 635703" d="M3190.687,155.47a2.815,2.815,0,0,0,2-.828,18.374,18.374,0,0,0,1.425-24.382,2.827,2.827,0,0,0-4.434,3.507,12.72,12.72,0,0,1-.988,16.877,2.826,2.826,0,0,0,2,4.825Z" transform="translate(-153.293 -88.248)" fill="#83a1db" style="mix-blend-mode: screen;isolation: isolate"/>
    <path id="Trazado_635704" data-name="Trazado 635704" d="M3164.985,113.612a2.827,2.827,0,0,0,1.345-5.314,18.294,18.294,0,0,0-3.872-1.549,2.826,2.826,0,1,0-1.487,5.454,12.643,12.643,0,0,1,2.674,1.07A2.811,2.811,0,0,0,3164.985,113.612Z" transform="translate(-131.214 -71.071)" fill="#83a1db" style="mix-blend-mode: screen;isolation: isolate"/>
  </g>
</svg>
