<svg xmlns="http://www.w3.org/2000/svg" width="150" height="150" viewBox="0 0 150 150">
  <g id="Grupo_906583" data-name="Grupo 906583" transform="translate(-722.815 -4737.926)">
    <g id="Grupo_904835" data-name="Grupo 904835" transform="translate(-4.185 1285.926)">
      <g id="Grupo_119596" data-name="Grupo 119596" transform="translate(-0.701 208.372)">
        <circle id="Elipse_5677" data-name="Elipse 5677" cx="75" cy="75" r="75" transform="translate(727.701 3243.628)" fill="#fff"/>
      </g>
    </g>
    <g id="Grupo_905963" data-name="Grupo 905963" transform="translate(-1189.283 4583.957)">
      <path id="Trazado_635019" data-name="Trazado 635019" d="M2038.635,1120.885a4.579,4.579,0,0,0-5.781,2.92,48.209,48.209,0,0,1-55.734,32.276l-.05-.011a48.569,48.569,0,0,1-32.593-24.844l4.592,2.927a4.58,4.58,0,1,0,4.923-7.724L1936.065,1115l-.009-.005q-.09-.057-.184-.111l-.016-.009q-.089-.051-.181-.1l-.029-.015q-.081-.04-.163-.077l-.055-.025c-.044-.019-.089-.037-.133-.055l-.09-.035-.1-.035-.13-.044-.064-.019c-.056-.017-.112-.032-.168-.047l-.036-.009q-.1-.024-.2-.044l-.021,0q-.1-.021-.209-.036l-.01,0-.014,0q-.1-.014-.2-.024l-.048,0q-.083-.007-.166-.012l-.082,0-.125,0h-.12l-.082,0c-.053,0-.105,0-.158.008l-.042,0c-.064.005-.127.011-.191.019h-.009a4.543,4.543,0,0,0-.85.188l-.006,0c-.065.021-.13.044-.193.068l-.043.017c-.051.02-.1.04-.152.062l-.087.039-.1.048c-.044.021-.087.044-.13.066l-.057.03c-.055.03-.109.061-.163.093l-.02.012a4.548,4.548,0,0,0-.69.511l-.016.014c-.044.04-.088.082-.131.124l-.038.038c-.034.035-.068.07-.1.106l-.063.068-.073.083-.086.1-.045.057q-.054.069-.105.141l-.023.032c-.04.056-.079.114-.116.172l-.006.008,0,.006q-.059.092-.113.188l-.007.013c-.034.06-.067.122-.1.184l-.014.027c-.027.054-.052.108-.077.163l-.025.056c-.019.043-.036.087-.054.131s-.025.062-.037.094-.022.062-.033.093-.031.09-.046.136l-.017.057c-.017.058-.034.117-.049.175l-.007.028q-.026.1-.047.205l0,.012c-.015.073-.027.146-.038.219v.006l-3.076,20.8a4.58,4.58,0,0,0,3.583,5.151q.137.029.277.05a4.579,4.579,0,0,0,5.2-3.86l.846-5.718a58.125,58.125,0,0,0,11.426,15.547,56.848,56.848,0,0,0,27.846,14.87l.057.012a57.654,57.654,0,0,0,66.323-38.378A4.58,4.58,0,0,0,2038.635,1120.885Z" transform="translate(0 -880.439)" fill="#fecb2f" stroke="#0c0c0c" stroke-width="2"/>
      <path id="Trazado_635020" data-name="Trazado 635020" d="M2405.386,572.437h3.906a4.58,4.58,0,1,0,0-9.159h-3.906a24.968,24.968,0,0,0-3.974-9.588l2.764-2.764a4.58,4.58,0,0,0-6.477-6.477l-2.764,2.764a24.971,24.971,0,0,0-9.588-3.974v-3.907a4.58,4.58,0,0,0-9.159,0v3.907a24.967,24.967,0,0,0-9.588,3.974l-2.764-2.764a4.58,4.58,0,0,0-6.477,6.477l2.764,2.764a24.962,24.962,0,0,0-3.974,9.588h-3.907a4.58,4.58,0,0,0,0,9.159h3.907a24.962,24.962,0,0,0,3.974,9.588l-2.764,2.764a4.58,4.58,0,0,0,6.477,6.477l2.764-2.764a24.966,24.966,0,0,0,9.588,3.974v3.907a4.58,4.58,0,1,0,9.159,0v-3.907a24.97,24.97,0,0,0,9.588-3.974l2.764,2.764a4.58,4.58,0,0,0,6.477-6.477l-2.764-2.764a24.968,24.968,0,0,0,3.974-9.588Zm-24.618,11.3a15.876,15.876,0,1,1,15.876-15.876A15.894,15.894,0,0,1,2380.768,583.733Z" transform="translate(-394.088 -338.874)" fill="#ef3c79" stroke="#040404" stroke-width="2"/>
      <path id="Trazado_635021" data-name="Trazado 635021" d="M2018.457,216.725a4.581,4.581,0,0,0,5.261-2.974,48.354,48.354,0,0,1,55.416-31.459l.088.019a48.287,48.287,0,0,1,32.951,25.609L2107,204.2a4.58,4.58,0,0,0-5.349,7.435l17.425,12.535h0a4.568,4.568,0,0,0,.614.372l.008,0c.054.027.109.052.164.077l.056.026.054.022a4.5,4.5,0,0,0,1.507.351l.065,0,.124,0h.164q.129,0,.257-.012h.019l.155-.015h.007a4.535,4.535,0,0,0,.463-.077l.024-.005.142-.034.033-.009q.105-.028.209-.062l.094-.03.078-.028.128-.048.048-.019a4.544,4.544,0,0,0,1.441-.942l.025-.025q.055-.054.108-.11l.054-.058.067-.075q.148-.167.279-.348l0,0h0a4.535,4.535,0,0,0,.249-.385l.006-.011c.032-.056.063-.113.092-.17l.021-.041c.022-.044.043-.088.064-.133.013-.028.027-.056.039-.085s.025-.059.037-.088c.019-.045.037-.089.054-.134l.017-.046c.022-.06.043-.12.062-.18l0-.014q.069-.218.116-.44v0l4.335-20.6a4.58,4.58,0,0,0-8.963-1.886l-1.1,5.206a58.1,58.1,0,0,0-12.839-17.076,56.9,56.9,0,0,0-26.54-13.681l-.1-.022a57.635,57.635,0,0,0-65.951,37.4,4.58,4.58,0,0,0,2.814,5.833A4.628,4.628,0,0,0,2018.457,216.725Z" transform="translate(-83.044)" fill="#21cbae" stroke="#0a0a0a" stroke-width="2"/>
    </g>
  </g>
</svg>
