<svg xmlns="http://www.w3.org/2000/svg" width="420" height="285" viewBox="0 0 420 285">
  <g id="Grupo_906575" data-name="Grupo 906575" transform="translate(-941.822 -2535)">
    <path id="Trazado_633543" data-name="Trazado 633543" d="M32,0H388a32,32,0,0,1,32,32V253a32,32,0,0,1-32,32H32A32,32,0,0,1,0,253V32A32,32,0,0,1,32,0Z" transform="translate(941.822 2535)" fill="#fff"/>
    <g id="Grupo_904755" data-name="Grupo 904755" transform="translate(1429.422 1902.35)">
      <path id="Trazado_633536" data-name="Trazado 633536" d="M583.253,849.159H539.9V696.4h43.353a7.553,7.553,0,0,1,7.555,7.555V841.593A7.556,7.556,0,0,1,583.253,849.159Z" transform="translate(-794.92)" fill="#e8e8e8" stroke="#101010" stroke-width="3"/>
      <path id="Trazado_633537" data-name="Trazado 633537" d="M-270.58,849.247h-43.365a7.553,7.553,0,0,1-7.555-7.555V704.055a7.553,7.553,0,0,1,7.555-7.555h43.353V849.247Z" transform="translate(-35.359 -0.088)" fill="#e8e8e8" stroke="#101010" stroke-width="3"/>
      <path id="Trazado_633545" data-name="Trazado 633545" d="M0,0H50.92V152.759H0Z" transform="translate(-305.939 696.4)" fill="#f6f6f6" stroke="#101010" stroke-width="3"/>
      <rect id="Rectángulo_303361" data-name="Rectángulo 303361" width="31.046" height="29.604" transform="translate(-346.928 770.882)" fill="#21cbae" stroke="#101010" stroke-width="3"/>
      <path id="Trazado_633544" data-name="Trazado 633544" d="M0,0H31.046V29.6H0Z" transform="translate(-346.928 731.809)" fill="#0b5999" stroke="#101010" stroke-width="3"/>
      <g id="Grupo_904747" data-name="Grupo 904747" transform="translate(-296.009 731.809)">
        <rect id="Rectángulo_303363" data-name="Rectángulo 303363" width="31.046" height="29.604" transform="translate(0 78.147)" fill="#21cbae" stroke="#101010" stroke-width="3"/>
        <rect id="Rectángulo_303364" data-name="Rectángulo 303364" width="31.046" height="29.604" transform="translate(0 39.074)" fill="#ef3c79" stroke="#101010" stroke-width="3"/>
        <rect id="Rectángulo_303365" data-name="Rectángulo 303365" width="31.046" height="29.604" transform="translate(0 0)" fill="#fecb2f" stroke="#101010" stroke-width="3"/>
        <rect id="Rectángulo_303366" data-name="Rectángulo 303366" width="31.046" height="29.604" transform="translate(50.92 78.147)" fill="#fecb2f" stroke="#101010" stroke-width="3"/>
        <rect id="Rectángulo_303367" data-name="Rectángulo 303367" width="31.046" height="29.604" transform="translate(50.92 39.074)" fill="#0b5999" stroke="#101010" stroke-width="3"/>
        <rect id="Rectángulo_303368" data-name="Rectángulo 303368" width="31.046" height="29.604" transform="translate(50.92 0)" fill="#ef3c79" stroke="#101010" stroke-width="3"/>
      </g>
      <rect id="Rectángulo_303369" data-name="Rectángulo 303369" width="50.92" height="25.809" transform="translate(-305.939 696.4)" fill="#21cbae" stroke="#101010" stroke-width="3"/>
      <path id="Trazado_633538" data-name="Trazado 633538" d="M-270.58,696.4v25.809H-321.5v-18.7a7.1,7.1,0,0,1,7.105-7.105Z" transform="translate(-35.359)" fill="#ef3c79" stroke="#101010" stroke-width="3"/>
      <path id="Trazado_633539" data-name="Trazado 633539" d="M590.82,703.505v18.715H539.9V696.4h43.814A7.112,7.112,0,0,1,590.82,703.505Z" transform="translate(-794.92)" fill="#0b5999" stroke="#101010" stroke-width="3"/>
      <line id="Línea_373" data-name="Línea 373" x1="19.354" transform="translate(-325.293 849.159)" fill="none" stroke="#101010" stroke-linecap="round" stroke-linejoin="round" stroke-width="3"/>
      <rect id="Rectángulo_303370" data-name="Rectángulo 303370" width="31.046" height="29.604" transform="translate(-346.928 770.882)" fill="none" stroke="#101010" stroke-linecap="round" stroke-linejoin="round" stroke-width="3"/>
      <rect id="Rectángulo_303371" data-name="Rectángulo 303371" width="31.046" height="29.604" transform="translate(-346.928 731.809)" fill="none" stroke="#101010" stroke-linecap="round" stroke-linejoin="round" stroke-width="3"/>
      <line id="Línea_374" data-name="Línea 374" x2="50.92" transform="translate(-356.859 722.22)" fill="none" stroke="#101010" stroke-linecap="round" stroke-linejoin="round" stroke-width="3"/>
      <rect id="Rectángulo_303372" data-name="Rectángulo 303372" width="50.92" height="152.759" transform="translate(-305.939 696.4)" fill="none" stroke="#101010" stroke-linecap="round" stroke-linejoin="round" stroke-width="3"/>
      <line id="Línea_375" data-name="Línea 375" x2="50.92" transform="translate(-305.939 722.22)" fill="none" stroke="#101010" stroke-linecap="round" stroke-linejoin="round" stroke-width="3"/>
      <g id="Grupo_904748" data-name="Grupo 904748" transform="translate(-356.859 696.4)">
        <path id="Trazado_633540" data-name="Trazado 633540" d="M-321.5,844.986V703.505a7.1,7.1,0,0,1,7.105-7.105h43.814" transform="translate(321.5 -696.4)" fill="none" stroke="#101010" stroke-linecap="round" stroke-linejoin="round" stroke-width="3"/>
        <path id="Trazado_633541" data-name="Trazado 633541" d="M539.9,696.4h43.814a7.1,7.1,0,0,1,7.105,7.105V842.054a7.1,7.1,0,0,1-7.105,7.105H539.9" transform="translate(-438.061 -696.4)" fill="none" stroke="#101010" stroke-linecap="round" stroke-linejoin="round" stroke-width="3"/>
      </g>
      <g id="Grupo_904749" data-name="Grupo 904749" transform="translate(-296.009 731.809)">
        <rect id="Rectángulo_303373" data-name="Rectángulo 303373" width="31.046" height="29.604" transform="translate(0 78.147)" fill="none" stroke="#101010" stroke-linecap="round" stroke-linejoin="round" stroke-width="3"/>
        <rect id="Rectángulo_303374" data-name="Rectángulo 303374" width="31.046" height="29.604" transform="translate(0 39.074)" fill="none" stroke="#101010" stroke-linecap="round" stroke-linejoin="round" stroke-width="3"/>
        <rect id="Rectángulo_303375" data-name="Rectángulo 303375" width="31.046" height="29.604" transform="translate(0 0)" fill="none" stroke="#101010" stroke-linecap="round" stroke-linejoin="round" stroke-width="3"/>
        <rect id="Rectángulo_303376" data-name="Rectángulo 303376" width="31.046" height="29.604" transform="translate(50.92 78.147)" fill="none" stroke="#101010" stroke-linecap="round" stroke-linejoin="round" stroke-width="3"/>
        <rect id="Rectángulo_303377" data-name="Rectángulo 303377" width="31.046" height="29.604" transform="translate(50.92 39.074)" fill="none" stroke="#101010" stroke-linecap="round" stroke-linejoin="round" stroke-width="3"/>
        <rect id="Rectángulo_303378" data-name="Rectángulo 303378" width="31.046" height="29.604" transform="translate(50.92 0)" fill="none" stroke="#101010" stroke-linecap="round" stroke-linejoin="round" stroke-width="3"/>
      </g>
      <line id="Línea_376" data-name="Línea 376" x2="50.92" transform="translate(-255.02 722.22)" fill="none" stroke="#101010" stroke-linecap="round" stroke-linejoin="round" stroke-width="3"/>
      <line id="Línea_377" data-name="Línea 377" x2="31.046" transform="translate(-346.928 709.31)" fill="none" stroke="#101010" stroke-linecap="round" stroke-linejoin="round" stroke-width="3"/>
      <line id="Línea_378" data-name="Línea 378" x2="31.046" transform="translate(-296.009 709.31)" fill="none" stroke="#101010" stroke-linecap="round" stroke-linejoin="round" stroke-width="3"/>
      <line id="Línea_379" data-name="Línea 379" x2="31.046" transform="translate(-245.278 709.31)" fill="none" stroke="#101010" stroke-linecap="round" stroke-linejoin="round" stroke-width="3"/>
      <g id="Grupo_904754" data-name="Grupo 904754" transform="translate(-361.6 809.613)">
        <g id="Grupo_904753" data-name="Grupo 904753" transform="translate(0 0)">
          <g id="Grupo_904752" data-name="Grupo 904752">
            <g id="Grupo_904751" data-name="Grupo 904751">
              <g id="Grupo_904750" data-name="Grupo 904750">
                <circle id="Elipse_6608" data-name="Elipse 6608" cx="22.144" cy="22.144" r="22.144" fill="#fecb2f" stroke="#101010" stroke-width="3"/>
                <circle id="Elipse_6609" data-name="Elipse 6609" cx="22.144" cy="22.144" r="22.144" fill="#fecb2f" stroke="#101010" stroke-linecap="round" stroke-linejoin="round" stroke-width="3"/>
                <path id="Trazado_633542" data-name="Trazado 633542" d="M-254.4,1791.355l5.036,5.036,13.891-13.891" transform="translate(267.074 -1767.308)" fill="#fecb2f" stroke="#101010" stroke-linecap="round" stroke-linejoin="round" stroke-width="3"/>
              </g>
            </g>
          </g>
        </g>
      </g>
    </g>
  </g>
</svg>
