<svg xmlns="http://www.w3.org/2000/svg" width="91.217" height="86.29" viewBox="0 0 91.217 86.29">
  <g id="Grupo_906498" data-name="Grupo 906498" transform="translate(-1241.582 -199.157)">
    <g id="Grupo_902831" data-name="Grupo 902831" transform="translate(1241.582 214.962)">
      <path id="Trazado_630966" data-name="Trazado 630966" d="M1370.223,310.819h-78.954a1.809,1.809,0,0,1-1.8-1.737l-1.764-52.56a1.668,1.668,0,0,1,1.679-1.737h78.954a1.809,1.809,0,0,1,1.8,1.737l1.764,52.56A1.668,1.668,0,0,1,1370.223,310.819Z" transform="translate(-1287.709 -254.785)" fill="#0b5999"/>
      <g id="Grupo_902824" data-name="Grupo 902824" transform="translate(1.921 1.617)">
        <path id="Trazado_630967" data-name="Trazado 630967" d="M1296.329,314.866a.109.109,0,0,1-.109-.1l-1.748-52.072a2.127,2.127,0,0,1,2.139-2.214h78.226a.109.109,0,0,1,0,.217h-78.226a1.91,1.91,0,0,0-1.922,1.989l1.748,52.072a.109.109,0,0,1-.1.112Z" transform="translate(-1294.471 -260.476)" fill="#c2a394"/>
      </g>
      <path id="Trazado_630968" data-name="Trazado 630968" d="M1416,487.967h-25.442a1.088,1.088,0,0,1-.808-.365l-3.415-3.815a1.027,1.027,0,0,1,.738-1.736h25.443a1.088,1.088,0,0,1,.808.365l3.415,3.815A1.027,1.027,0,0,1,1416,487.967Z" transform="translate(-1358.114 -417.481)" fill="#12263f"/>
      <path id="Trazado_630969" data-name="Trazado 630969" d="M1434.649,459.047h-8.3l-.474-14.116h8.3Z" transform="translate(-1386.622 -390.907)" fill="#124a78"/>
      <g id="Grupo_902825" data-name="Grupo 902825" transform="translate(39.347 56.025)">
        <path id="Trazado_630970" data-name="Trazado 630970" d="M1426.305,452.193h8.046a.109.109,0,0,0,0-.217h-8.046a.109.109,0,0,0,0,.217Z" transform="translate(-1426.2 -451.976)" fill="#c2a394"/>
      </g>
      <g id="Grupo_902826" data-name="Grupo 902826" transform="translate(39.542 66.63)">
        <path id="Trazado_630971" data-name="Trazado 630971" d="M1426.99,489.52h8.432a.109.109,0,0,0,0-.217h-8.432a.109.109,0,0,0,0,.217Z" transform="translate(-1426.885 -489.303)" fill="#c2a394"/>
      </g>
      <g id="Grupo_902827" data-name="Grupo 902827" transform="translate(32.503 68.821)">
        <path id="Trazado_630972" data-name="Trazado 630972" d="M1402.215,497.232h23.958a.109.109,0,0,0,0-.217h-23.958a.109.109,0,0,0,0,.217Z" transform="translate(-1402.111 -497.015)" fill="#c2a394"/>
      </g>
      <g id="Grupo_902828" data-name="Grupo 902828" transform="translate(39.47 64.596)">
        <path id="Trazado_630973" data-name="Trazado 630973" d="M1426.631,482.251l.068,2.037c0,.139.222.14.217,0l-.068-2.037c0-.139-.222-.14-.217,0Z" transform="translate(-1426.631 -482.146)" fill="#c2a394"/>
      </g>
      <g id="Grupo_902829" data-name="Grupo 902829" transform="translate(47.902 64.596)">
        <path id="Trazado_630974" data-name="Trazado 630974" d="M1456.31,482.251q.034,1.019.068,2.037c0,.139.222.14.217,0q-.035-1.019-.068-2.037c0-.139-.222-.14-.217,0Z" transform="translate(-1456.31 -482.146)" fill="#c2a394"/>
      </g>
      <g id="Grupo_902830" data-name="Grupo 902830" transform="translate(28.581 64.59)">
        <path id="Trazado_630975" data-name="Trazado 630975" d="M1388.337,482.312c1.307,1.409,2.6,2.834,3.92,4.228.1.1.25-.052.153-.153-1.323-1.394-2.612-2.82-3.92-4.228-.1-.1-.248.051-.153.154Z" transform="translate(-1388.307 -482.125)" fill="#c2a394"/>
      </g>
    </g>
    <g id="Grupo_902852" data-name="Grupo 902852" transform="translate(1251.22 199.157)">
      <path id="Trazado_630976" data-name="Trazado 630976" d="M1401.533,253.475h-76.4a1.81,1.81,0,0,1-1.8-1.737l-1.707-50.844a1.669,1.669,0,0,1,1.679-1.737h76.4a1.809,1.809,0,0,1,1.8,1.737l1.706,50.844A1.668,1.668,0,0,1,1401.533,253.475Z" transform="translate(-1321.634 -199.157)" fill="#f6f6f6"/>
      <path id="Trazado_630977" data-name="Trazado 630977" d="M1448.16,253.58h-37.465a2.413,2.413,0,0,1-2.394-2.316l-.177-5.289a2.225,2.225,0,0,1,2.238-2.316h37.465a2.413,2.413,0,0,1,2.394,2.316l.177,5.289A2.225,2.225,0,0,1,1448.16,253.58Z" transform="translate(-1383.55 -231.015)" fill="#ef3c79"/>
      <path id="Trazado_630978" data-name="Trazado 630978" d="M1401.7,206.808h-79.87l-.2-5.914a1.669,1.669,0,0,1,1.679-1.737h76.4a1.809,1.809,0,0,1,1.8,1.737Z" transform="translate(-1321.634 -199.157)" fill="#0b5999"/>
      <g id="Grupo_902832" data-name="Grupo 902832" transform="translate(13.887 14.121)">
        <path id="Trazado_630979" data-name="Trazado 630979" d="M1374.143,255.9a3.661,3.661,0,0,1-3.629-3.51,3.393,3.393,0,0,1,3.412-3.53,3.661,3.661,0,0,1,3.628,3.51,3.392,3.392,0,0,1-3.412,3.53Zm-.217-6.461a2.814,2.814,0,0,0-2.833,2.931,3.078,3.078,0,0,0,3.05,2.951,2.814,2.814,0,0,0,2.833-2.931A3.077,3.077,0,0,0,1373.927,249.437Z" transform="translate(-1370.513 -248.858)" fill="#0b5999"/>
      </g>
      <path id="Trazado_630980" data-name="Trazado 630980" d="M1449.6,296.414h-37.466a2.413,2.413,0,0,1-2.394-2.316l-.177-5.289a2.225,2.225,0,0,1,2.238-2.316h37.465a2.412,2.412,0,0,1,2.394,2.316l.178,5.289A2.225,2.225,0,0,1,1449.6,296.414Z" transform="translate(-1384.579 -261.68)" fill="#21cbae"/>
      <g id="Grupo_902833" data-name="Grupo 902833" transform="translate(14.294 26.252)">
        <path id="Trazado_630981" data-name="Trazado 630981" d="M1375.576,298.6a3.661,3.661,0,0,1-3.628-3.51,3.393,3.393,0,0,1,3.412-3.53,3.661,3.661,0,0,1,3.628,3.511,3.392,3.392,0,0,1-3.412,3.53Zm-.217-6.462a2.814,2.814,0,0,0-2.833,2.932,3.078,3.078,0,0,0,3.05,2.951,2.814,2.814,0,0,0,2.833-2.931A3.078,3.078,0,0,0,1375.359,292.135Z" transform="translate(-1371.946 -291.556)" fill="#0b5999"/>
      </g>
      <path id="Trazado_630982" data-name="Trazado 630982" d="M1451.035,339.247H1413.57a2.413,2.413,0,0,1-2.394-2.316l-.177-5.289a2.225,2.225,0,0,1,2.239-2.316H1450.7a2.412,2.412,0,0,1,2.394,2.316l.178,5.289A2.225,2.225,0,0,1,1451.035,339.247Z" transform="translate(-1385.608 -292.343)" fill="#fecb2f"/>
      <g id="Grupo_902834" data-name="Grupo 902834" transform="translate(14.7 38.349)">
        <path id="Trazado_630983" data-name="Trazado 630983" d="M1377.005,341.175a3.661,3.661,0,0,1-3.628-3.51,3.393,3.393,0,0,1,3.411-3.53,3.661,3.661,0,0,1,3.629,3.511,3.393,3.393,0,0,1-3.412,3.53Zm-.217-6.462a2.814,2.814,0,0,0-2.833,2.932,3.077,3.077,0,0,0,3.05,2.951,2.814,2.814,0,0,0,2.833-2.931A3.078,3.078,0,0,0,1376.788,334.713Z" transform="translate(-1373.375 -334.134)" fill="#0b5999"/>
      </g>
      <path id="Trazado_630984" data-name="Trazado 630984" d="M1585.153,208.548a1.553,1.553,0,0,1-1.562,1.617,1.684,1.684,0,0,1-1.671-1.617,1.553,1.553,0,0,1,1.562-1.616A1.683,1.683,0,0,1,1585.153,208.548Z" transform="translate(-1507.969 -204.723)" fill="#fff1de"/>
      <path id="Trazado_630985" data-name="Trazado 630985" d="M1563.345,208.548a1.553,1.553,0,0,1-1.562,1.617,1.684,1.684,0,0,1-1.671-1.617,1.553,1.553,0,0,1,1.562-1.616A1.684,1.684,0,0,1,1563.345,208.548Z" transform="translate(-1492.356 -204.723)" fill="#fff1de"/>
      <g id="Grupo_902835" data-name="Grupo 902835" transform="translate(50.733 15.085)">
        <path id="Trazado_630986" data-name="Trazado 630986" d="M1500.479,252.83h11.973a.29.29,0,0,0,0-.579h-11.973a.29.29,0,0,0,0,.579Z" transform="translate(-1500.199 -252.251)" fill="#fff8f5"/>
      </g>
      <g id="Grupo_902836" data-name="Grupo 902836" transform="translate(28.008 15.085)">
        <path id="Trazado_630987" data-name="Trazado 630987" d="M1420.493,252.83h15.883a.29.29,0,0,0,0-.579h-15.883a.29.29,0,0,0,0,.579Z" transform="translate(-1420.213 -252.251)" fill="#fff8f5"/>
      </g>
      <g id="Grupo_902837" data-name="Grupo 902837" transform="translate(28.08 17.241)">
        <path id="Trazado_630988" data-name="Trazado 630988" d="M1420.748,260.418h34.7a.29.29,0,0,0,0-.579h-34.7a.29.29,0,0,0,0,.579Z" transform="translate(-1420.468 -259.839)" fill="#fff8f5"/>
      </g>
      <g id="Grupo_902838" data-name="Grupo 902838" transform="translate(59.43 19.396)">
        <path id="Trazado_630989" data-name="Trazado 630989" d="M1531.09,268.006h3.421a.29.29,0,0,0,0-.579h-3.421a.29.29,0,0,0,0,.579Z" transform="translate(-1530.81 -267.427)" fill="#fff8f5"/>
      </g>
      <g id="Grupo_902839" data-name="Grupo 902839" transform="translate(28.152 19.396)">
        <path id="Trazado_630990" data-name="Trazado 630990" d="M1421,268.006h24.191a.29.29,0,0,0,0-.579H1421a.29.29,0,0,0,0,.579Z" transform="translate(-1420.723 -267.427)" fill="#fff8f5"/>
      </g>
      <g id="Grupo_902840" data-name="Grupo 902840" transform="translate(43.077 27.254)">
        <path id="Trazado_630991" data-name="Trazado 630991" d="M1473.534,295.663h20.037a.29.29,0,0,0,0-.579h-20.037a.29.29,0,0,0,0,.579Z" transform="translate(-1473.254 -295.084)" fill="#fff8f5"/>
      </g>
      <g id="Grupo_902841" data-name="Grupo 902841" transform="translate(28.416 27.254)">
        <path id="Trazado_630992" data-name="Trazado 630992" d="M1421.931,295.663h7.575a.29.29,0,0,0,0-.579h-7.575a.29.29,0,0,0,0,.579Z" transform="translate(-1421.651 -295.084)" fill="#fff8f5"/>
      </g>
      <g id="Grupo_902842" data-name="Grupo 902842" transform="translate(28.488 29.41)">
        <path id="Trazado_630993" data-name="Trazado 630993" d="M1422.186,303.251h34.7a.29.29,0,0,0,0-.579h-34.7a.29.29,0,0,0,0,.579Z" transform="translate(-1421.906 -302.672)" fill="#fff8f5"/>
      </g>
      <g id="Grupo_902843" data-name="Grupo 902843" transform="translate(51.774 31.566)">
        <path id="Trazado_630994" data-name="Trazado 630994" d="M1504.146,310.839h11.485a.29.29,0,0,0,0-.579h-11.485a.29.29,0,0,0,0,.579Z" transform="translate(-1503.866 -310.26)" fill="#fff8f5"/>
      </g>
      <g id="Grupo_902844" data-name="Grupo 902844" transform="translate(28.561 31.566)">
        <path id="Trazado_630995" data-name="Trazado 630995" d="M1422.44,310.839h16.372a.29.29,0,0,0,0-.579H1422.44a.29.29,0,0,0,0,.579Z" transform="translate(-1422.16 -310.26)" fill="#fff8f5"/>
      </g>
      <g id="Grupo_902845" data-name="Grupo 902845" transform="translate(43.241 39.424)">
        <path id="Trazado_630996" data-name="Trazado 630996" d="M1474.112,338.5h20.281a.29.29,0,0,0,0-.579h-20.281a.29.29,0,0,0,0,.579Z" transform="translate(-1473.832 -337.918)" fill="#fff8f5"/>
      </g>
      <g id="Grupo_902846" data-name="Grupo 902846" transform="translate(28.824 39.424)">
        <path id="Trazado_630997" data-name="Trazado 630997" d="M1423.368,338.5h7.331a.29.29,0,0,0,0-.579h-7.331a.29.29,0,0,0,0,.579Z" transform="translate(-1423.089 -337.918)" fill="#fff8f5"/>
      </g>
      <g id="Grupo_902847" data-name="Grupo 902847" transform="translate(28.897 41.58)">
        <path id="Trazado_630998" data-name="Trazado 630998" d="M1423.623,346.085h34.7a.29.29,0,0,0,0-.579h-34.7a.29.29,0,0,0,0,.579Z" transform="translate(-1423.343 -345.506)" fill="#fff8f5"/>
      </g>
      <g id="Grupo_902848" data-name="Grupo 902848" transform="translate(59.758 43.736)">
        <path id="Trazado_630999" data-name="Trazado 630999" d="M1532.245,353.673h3.909a.29.29,0,0,0,0-.579h-3.909a.29.29,0,0,0,0,.579Z" transform="translate(-1531.965 -353.094)" fill="#fff8f5"/>
      </g>
      <g id="Grupo_902849" data-name="Grupo 902849" transform="translate(28.969 43.736)">
        <path id="Trazado_631000" data-name="Trazado 631000" d="M1423.878,353.673h23.947a.29.29,0,0,0,0-.579h-23.947a.29.29,0,0,0,0,.579Z" transform="translate(-1423.598 -353.094)" fill="#fff8f5"/>
      </g>
      <g id="Grupo_902850" data-name="Grupo 902850" transform="translate(14.926 25.107)">
        <path id="Trazado_631001" data-name="Trazado 631001" d="M1374.208,287.962a64.687,64.687,0,0,1,2.828,5.9c.142.339.7.19.558-.154a66.251,66.251,0,0,0-2.886-6.042c-.178-.328-.678-.036-.5.292Z" transform="translate(-1374.17 -287.526)" fill="#21cbae"/>
      </g>
      <g id="Grupo_902851" data-name="Grupo 902851" transform="translate(17.784 26.71)">
        <path id="Trazado_631002" data-name="Trazado 631002" d="M1384.794,297.9a13.973,13.973,0,0,1,1.741-4.307c.2-.319-.305-.61-.5-.292a14.471,14.471,0,0,0-1.8,4.445c-.081.363.477.518.558.154Z" transform="translate(-1384.228 -293.169)" fill="#21cbae"/>
      </g>
    </g>
  </g>
</svg>
