<svg id="Grupo_906562" data-name="Grupo 906562" xmlns="http://www.w3.org/2000/svg" width="66.095" height="53.528" viewBox="0 0 66.095 53.528">
  <path id="Trazado_632922" data-name="Trazado 632922" d="M7464.738,1262.932a2.641,2.641,0,0,0-.607-3.7c-10.905-7.757-20.023-12.983-20.832-11.871s6.98,8.168,17.729,16.142a2.641,2.641,0,0,0,3.709-.568Z" transform="translate(-7414.562 -1221.106)" fill="#ef3c79"/>
  <path id="Trazado_632923" data-name="Trazado 632923" d="M7646.231,1386.154c11.84,8.6,22.137,14.614,23,13.428s-8.039-9.119-19.879-17.721Z" transform="translate(-7603.191 -1346.234)" fill="#fecb2f"/>
  <path id="Trazado_632924" data-name="Trazado 632924" d="M7645.842,1414.431c11.84,8.6,22.136,14.614,23,13.429.019-.029-21.418-15.6-21.418-15.6Z" transform="translate(-7602.83 -1374.48)" fill="#e6b318"/>
  <path id="Trazado_632925" data-name="Trazado 632925" d="M7068.3,881.894a19.207,19.207,0,1,0,4.25,26.828A19.208,19.208,0,0,0,7068.3,881.894Zm-14.426,32.52c-.365-.068-.729-.152-1.093-.244a17.259,17.259,0,1,1,15.144-30.144,16.993,16.993,0,0,1,2.759,2.817,17.3,17.3,0,0,1,2.454,4.3,17,17,0,0,1,1.089,4.369,17.259,17.259,0,0,1-20.353,18.9Z" transform="translate(-7037.804 -878.225)" fill="#fecb2f"/>
  <path id="Trazado_632926" data-name="Trazado 632926" d="M7071.874,936.067a17.3,17.3,0,0,0,7.3,3.922c.363.092.728.176,1.092.243a17.261,17.261,0,0,0,20.353-18.9,17.04,17.04,0,0,0-1.09-4.369,17.313,17.313,0,0,0-2.453-4.3,17,17,0,0,0-2.76-2.817,17.264,17.264,0,0,0-22.438,26.223Z" transform="translate(-7064.191 -904.043)" fill="#21cbae" opacity="0.5"/>
  <path id="Trazado_632927" data-name="Trazado 632927" d="M7106.606,928.846a17.26,17.26,0,0,0-33.435-8.589Z" transform="translate(-7070.669 -905.231)" fill="#21cbae" opacity="0.43"/>
  <circle id="Elipse_6592" data-name="Elipse 6592" cx="2.047" cy="2.047" r="2.047" transform="matrix(0.783, -0.622, 0.622, 0.783, 9.013, 8.98)" fill="#fff"/>
  <path id="Trazado_632928" data-name="Trazado 632928" d="M7292.743,986.924a1.172,1.172,0,1,0,.975-1.342A1.172,1.172,0,0,0,7292.743,986.924Z" transform="translate(-7274.695 -977.975)" fill="#fff"/>
  <circle id="Elipse_6593" data-name="Elipse 6593" cx="12.644" cy="12.644" r="12.644" transform="translate(1.015 18.419) rotate(-45)" fill="#e6f2f4" opacity="0.36"/>
</svg>
