<svg xmlns="http://www.w3.org/2000/svg" xmlns:xlink="http://www.w3.org/1999/xlink" width="150" height="150" viewBox="0 0 150 150">
  <defs>
    <linearGradient id="linear-gradient" x1="0.867" y1="1.088" x2="0.421" y2="0.381" gradientUnits="objectBoundingBox">
      <stop offset="0" stop-color="#fff"/>
      <stop offset="0.996" stop-color="#ebeff2"/>
    </linearGradient>
  </defs>
  <g id="Grupo_906586" data-name="Grupo 906586" transform="translate(-907.815 -5136.926)">
    <g id="Grupo_904838" data-name="Grupo 904838" transform="translate(-184.185 1684.926)">
      <g id="Grupo_119597" data-name="Grupo 119597" transform="translate(-0.701 208.372)">
        <g id="Grupo_118165" data-name="Grupo 118165">
          <circle id="Elipse_5678" data-name="Elipse 5678" cx="75" cy="75" r="75" transform="translate(1092.701 3243.628)" fill="#fff"/>
        </g>
      </g>
    </g>
    <g id="Grupo_904941" data-name="Grupo 904941" transform="translate(-0.493 12.433)">
      <g id="Grupo_904938" data-name="Grupo 904938" transform="translate(-1524.334 4953.538)">
        <g id="Grupo_904929" data-name="Grupo 904929" transform="translate(2453.156 220.867)">
          <path id="Trazado_633710" data-name="Trazado 633710" d="M2453.156,303.5v32.013a1.982,1.982,0,0,0,2.009,1.936l65.876.377a1.829,1.829,0,0,0,1.843-1.831v-30.63Z" transform="translate(-2453.156 -299.492)" stroke="#707070" stroke-width="0.2" fill="url(#linear-gradient)"/>
          <path id="Trazado_633711" data-name="Trazado 633711" d="M2521.042,273.834l-65.876-1.928a1.9,1.9,0,0,0-2.009,1.866v3.28l69.729,1.816v-3.139A1.909,1.909,0,0,0,2521.042,273.834Z" transform="translate(-2453.156 -271.905)" fill="#bfc8d6" stroke="#707070" stroke-width="0.2"/>
          <g id="Grupo_904928" data-name="Grupo 904928" transform="translate(5.195 8.982)">
            <g id="Grupo_904927" data-name="Grupo 904927">
              <g id="Grupo_904925" data-name="Grupo 904925" transform="translate(11.196)">
                <path id="Trazado_633712" data-name="Trazado 633712" d="M2582.426,355.066l3.674-12.323a13.821,13.821,0,0,1,9.563,12.887Z" transform="translate(-2582.426 -342.743)" fill="#bfc8d6" stroke="#707070" stroke-width="0.2"/>
              </g>
              <g id="Grupo_904926" data-name="Grupo 904926" transform="translate(0 2.552)">
                <path id="Trazado_633713" data-name="Trazado 633713" d="M2594.7,447.264a9.854,9.854,0,0,1-3.712,6.992l-5.76-7.4Z" transform="translate(-2573.675 -436.204)" fill="#fff" stroke="#707070" stroke-width="0.2"/>
                <path id="Trazado_633714" data-name="Trazado 633714" d="M2527.254,372.2c-2.23-2.1-4.924-4.642-7.07-6.676a10.53,10.53,0,0,1,7.29-2.654,10.969,10.969,0,0,1,2.475.339Z" transform="translate(-2516.88 -362.869)" fill="#fff" stroke="#707070" stroke-width="0.2"/>
                <path id="Trazado_633715" data-name="Trazado 633715" d="M2504.037,395.523l-8.107,5.622a10.014,10.014,0,0,1-1.8-5.721,9.783,9.783,0,0,1,2.672-6.728l1.979,1.872C2500.97,392.637,2503.168,394.706,2504.037,395.523Z" transform="translate(-2494.128 -385.421)" fill="#fff" stroke="#707070" stroke-width="0.2"/>
                <path id="Trazado_633716" data-name="Trazado 633716" d="M2520.4,449.79l-.156,9.3a10.824,10.824,0,0,1-7.645-3.882Z" transform="translate(-2510.257 -438.768)" fill="#fff" stroke="#707070" stroke-width="0.2"/>
                <path id="Trazado_633717" data-name="Trazado 633717" d="M2580.153,453l5.562,7.143a10.572,10.572,0,0,1-5.712,1.768Z" transform="translate(-2569.114 -441.571)" fill="#fff" stroke="#707070" stroke-width="0.2"/>
              </g>
            </g>
            <path id="Trazado_633718" data-name="Trazado 633718" d="M2734.973,369.635l-33.449-.679v-3.132l33.449.746Z" transform="translate(-2675.226 -362.897)" fill="#bfc8d6" stroke="#707070" stroke-width="0.2"/>
            <path id="Trazado_633719" data-name="Trazado 633719" d="M2734.973,414.207l-33.449-.56v-3.132l33.449.626Z" transform="translate(-2675.226 -401.922)" fill="#bfc8d6" stroke="#707070" stroke-width="0.2"/>
            <path id="Trazado_633720" data-name="Trazado 633720" d="M2734.973,458.78l-33.449-.44v-3.132l33.449.506Z" transform="translate(-2675.226 -440.947)" fill="#bfc8d6" stroke="#707070" stroke-width="0.2"/>
            <path id="Trazado_633721" data-name="Trazado 633721" d="M2734.973,503.352l-33.449-.32V499.9l33.449.386Z" transform="translate(-2675.226 -479.972)" fill="#bfc8d6" stroke="#707070" stroke-width="0.2"/>
          </g>
          <path id="Trazado_633722" data-name="Trazado 633722" d="M2477.238,286.646a.844.844,0,0,1-.89.829.9.9,0,0,1-.891-.878.844.844,0,0,1,.891-.829A.9.9,0,0,1,2477.238,286.646Z" transform="translate(-2472.63 -284.009)" fill="#fff" stroke="#707070" stroke-width="0.2"/>
        </g>
        <g id="Grupo_904937" data-name="Grupo 904937" transform="translate(2475.861 213.455)">
          <g id="Grupo_904933" data-name="Grupo 904933" transform="translate(0 0.825)">
            <path id="Trazado_633729" data-name="Trazado 633729" d="M2708.315,298.119c-9.9,7.817-24.308,5.884-32.181-4.619-8.038-10.722-6.044-26,4.452-33.807,10.333-7.685,24.736-4.988,32.178,5.719C2720.059,275.907,2718.068,290.42,2708.315,298.119Z" transform="translate(-2666.257 -250.817)" fill="#21cbae" opacity="0.56"/>
            <path id="Trazado_633732" data-name="Trazado 633732" d="M2695.28,285.5c-10.729,8.49-26.365,6.427-34.931-4.963-8.76-11.648-6.6-28.268,4.833-36.746,11.236-8.335,26.869-5.371,34.927,6.259C2707.994,261.425,2705.833,277.144,2695.28,285.5Zm-1.59-2.2c9.436-7.442,11.36-21.477,4.3-31.621-7.2-10.343-21.116-12.937-31.093-5.508-10.13,7.542-12.056,22.292-4.3,32.649C2670.195,288.963,2684.114,290.843,2693.689,283.292Z" transform="translate(-2652.082 -236.615)" fill="#21cbae" stroke="#000" stroke-width="1"/>
          </g>
          <g id="Grupo_904936" data-name="Grupo 904936" transform="translate(8.682 0)">
            <g id="Grupo_904935" data-name="Grupo 904935" transform="translate(1.403 0.243)">
              <path id="Trazado_633734" data-name="Trazado 633734" d="M2729.4,261.321l-16.308-18.6a5.421,5.421,0,0,1,.5-7.65h0a5.421,5.421,0,0,1,7.649.5l12.7,14.487,37.229-33.305a5.421,5.421,0,0,1,7.654.426h0a5.421,5.421,0,0,1-.426,7.654l-41.31,36.957A5.421,5.421,0,0,1,2729.4,261.321Z" transform="translate(-2711.747 -215.37)" fill="#fecb2f" stroke="#070707" stroke-width="1"/>
            </g>
          </g>
        </g>
      </g>
      <g id="Grupo_904940" data-name="Grupo 904940" transform="translate(-165.468 4772.031)">
        <g id="Grupo_904942" data-name="Grupo 904942">
          <path id="Trazado_629076" data-name="Trazado 629076" d="M1172.426,438.313c.03.152.168.206.509.341.609.241,1.218.483,1.818.746a.423.423,0,0,1,.2.3c.069.638.1,1.279.176,1.916a.348.348,0,0,1-.173.414c-.708.445-1.4.911-2.1,1.363a9.158,9.158,0,0,0,1.513,2.881c.735-.309,1.491-.614,2.233-.948a.4.4,0,0,1,.542.1,16.791,16.791,0,0,0,1.427,1.191c.2.152.306.271.241.546-.167.71-.292,1.431-.447,2.144-.042.192-.005.312.184.37l2.673.826c.219.068.253-.112.307-.241.277-.653.557-1.3.812-1.966a.458.458,0,0,1,.493-.339c.714-.022,1.426-.091,2.194-.146l1.471,2.233a9.554,9.554,0,0,0,2.849-1.534l-1.007-2.42c.529-.669,1.032-1.279,1.5-1.915a.361.361,0,0,1,.443-.17c.7.154,1.41.287,2.114.436.152.032.264.038.342-.128a9.145,9.145,0,0,0,.84-2.629.287.287,0,0,0-.216-.358c-.685-.283-1.364-.579-2.05-.859a.334.334,0,0,1-.251-.341c-.052-.7-.135-1.4-.236-2.1a.284.284,0,0,1,.157-.33c.7-.461,1.395-.926,2.11-1.4a10.255,10.255,0,0,0-1.488-2.833l-2.522,1.05-2.062-1.71c.126-.629.276-1.352.415-2.077.113-.6.2-.517-.4-.768a1.01,1.01,0,0,1-.158-.1l-1.6-.483a1.991,1.991,0,0,1-.374-.046c-.306-.1-.479-.027-.6.3-.254.683-.551,1.351-.847,2.019a.388.388,0,0,1-.262.191c-.626.079-1.26.1-1.88.216a.474.474,0,0,1-.58-.264c-.424-.67-.876-1.323-1.361-2.049l-2.843,1.492c.074.189.115.3.16.406.276.664.547,1.331.835,1.99a.362.362,0,0,1-.088.445c-.44.523-.847,1.075-1.283,1.6a.428.428,0,0,1-.341.121c-.582-.1-1.157-.234-1.737-.347-.469-.091-.643-.123-.792.03Z" transform="translate(9.675 -1)" fill="#ef3c79" stroke="#040404" stroke-width="1"/>
          <g id="Elipse_6617" data-name="Elipse 6617" transform="translate(1187.923 433.536)" fill="#fff" stroke="#030303" stroke-width="1">
            <circle cx="5" cy="5" r="5" stroke="none"/>
            <circle cx="5" cy="5" r="4.5" fill="none"/>
          </g>
        </g>
      </g>
      <g id="Grupo_904943" data-name="Grupo 904943" transform="translate(-190.468 4788.031)">
        <g id="Grupo_904942-2" data-name="Grupo 904942" transform="translate(1182.101 428.276)">
          <path id="Trazado_629076-2" data-name="Trazado 629076" d="M1172.426,441.266c.04.2.223.273.675.452.808.32,1.616.641,2.412.989a.561.561,0,0,1,.266.392c.092.846.133,1.7.234,2.542a.462.462,0,0,1-.23.549c-.94.591-1.864,1.208-2.783,1.809a12.15,12.15,0,0,0,2.007,3.822c.975-.41,1.978-.814,2.963-1.257a.535.535,0,0,1,.719.133,22.282,22.282,0,0,0,1.893,1.58c.264.2.405.36.32.724-.222.943-.387,1.9-.593,2.845-.055.254-.007.414.244.491l3.546,1.1c.29.09.335-.149.408-.32.367-.866.74-1.73,1.077-2.608a.608.608,0,0,1,.655-.449c.947-.03,1.892-.121,2.911-.193l1.952,2.963a12.677,12.677,0,0,0,3.78-2.036l-1.336-3.211c.7-.888,1.369-1.7,1.988-2.541a.478.478,0,0,1,.588-.226c.932.2,1.871.381,2.805.579.2.043.35.051.453-.17a12.129,12.129,0,0,0,1.115-3.488.381.381,0,0,0-.286-.475c-.909-.375-1.81-.768-2.72-1.139a.443.443,0,0,1-.333-.453c-.069-.933-.179-1.864-.312-2.79a.377.377,0,0,1,.208-.438c.927-.611,1.851-1.229,2.8-1.86a13.609,13.609,0,0,0-1.974-3.759l-3.346,1.393-2.735-2.269c.167-.834.367-1.794.55-2.756.15-.79.263-.686-.53-1.019a1.337,1.337,0,0,1-.209-.137l-2.13-.641a2.644,2.644,0,0,1-.5-.062c-.406-.129-.635-.036-.8.4-.337.907-.732,1.793-1.124,2.678a.514.514,0,0,1-.347.253c-.831.1-1.672.138-2.495.286a.629.629,0,0,1-.77-.351c-.563-.889-1.162-1.755-1.806-2.718l-3.771,1.98c.1.25.153.4.213.538.367.881.726,1.766,1.108,2.64a.48.48,0,0,1-.117.59c-.584.694-1.123,1.426-1.7,2.124a.568.568,0,0,1-.453.16c-.771-.134-1.535-.311-2.3-.46-.622-.121-.854-.163-1.051.04Z" transform="translate(-1172.426 -429.276)" fill="#ef3c79" stroke="#040404" stroke-width="1"/>
          <g id="Elipse_6617-2" data-name="Elipse 6617" transform="translate(7.822 7.26)" fill="#fff" stroke="#030303" stroke-width="1">
            <circle cx="6.5" cy="6.5" r="6.5" stroke="none"/>
            <circle cx="6.5" cy="6.5" r="6" fill="none"/>
          </g>
        </g>
      </g>
    </g>
  </g>
</svg>
