<svg xmlns="http://www.w3.org/2000/svg" width="1328" height="515.448" viewBox="0 0 1328 515.448">
  <g id="Grupo_905507" data-name="Grupo 905507" transform="translate(0)">
    <path id="Trazado_625231" data-name="Trazado 625231" d="M1328,0H0V514.333H1328Z" fill="#eedca5" opacity="0.15"/>
    <path id="Trazado_623843" data-name="Trazado 623843" d="M220.655,72.5c-76.555.424-138.468,55.3-138.468,122.938S144.1,317.957,220.655,318.381v72.5C98.708,390.461,0,303.123,0,195.443S98.708.425,220.655,0Z" transform="translate(1107.345 42.832)" fill="#edfbf9" opacity="0.95"/>
    <g id="Grupo_3" data-name="Grupo 3" transform="translate(24.938 20.283)" opacity="0.58">
      <path id="Trazado_25" data-name="Trazado 25" d="M56.053,242.533l8.469-8.469,12.349,12.349L89.22,234.064l8.467,8.469L85.338,254.882l12.349,12.349L89.22,275.7,76.871,263.349,64.522,275.7l-8.469-8.467L68.4,254.882Z" transform="translate(-56.053 -234.064)" fill="#c3cfd9"/>
      <path id="Trazado_26" data-name="Trazado 26" d="M56.053,296.984l8.469-8.469,12.349,12.349L89.22,288.515l8.467,8.469L85.338,309.333l12.349,12.349L89.22,330.15,76.871,317.8,64.522,330.15l-8.469-8.468L68.4,309.333Z" transform="translate(-56.053 -211.35)" fill="#c3cfd9"/>
      <path id="Trazado_27" data-name="Trazado 27" d="M56.053,351.434l8.469-8.469,12.349,12.349L89.22,342.965l8.467,8.469L85.338,363.783l12.349,12.349L89.22,384.6,76.871,372.25,64.522,384.6l-8.469-8.468L68.4,363.783Z" transform="translate(-56.053 -188.636)" fill="#c3cfd9"/>
    </g>
    <g id="Grupo_895789" data-name="Grupo 895789" transform="translate(0 227.628)" opacity="0.49">
      <g id="Grupo_68" data-name="Grupo 68" transform="translate(0 0)">
        <g id="Grupo_67" data-name="Grupo 67">
          <rect id="Rectángulo_193" data-name="Rectángulo 193" width="4.926" height="4.926" transform="translate(3.483 157.057) rotate(-135.001)" fill="#fecb2f"/>
          <rect id="Rectángulo_194" data-name="Rectángulo 194" width="4.675" height="4.675" transform="translate(17.305 143.058) rotate(-135)" fill="#fecb2f"/>
          <rect id="Rectángulo_195" data-name="Rectángulo 195" width="4.424" height="4.424" transform="translate(31.127 129.059) rotate(-135)" fill="#fecb2f"/>
          <rect id="Rectángulo_196" data-name="Rectángulo 196" width="4.174" height="4.174" transform="translate(44.949 115.059) rotate(-134.999)" fill="#fecb2f"/>
          <rect id="Rectángulo_197" data-name="Rectángulo 197" width="3.923" height="3.923" transform="translate(58.771 101.06) rotate(-135)" fill="#fecb2f"/>
          <rect id="Rectángulo_198" data-name="Rectángulo 198" width="3.672" height="3.672" transform="matrix(-0.707, -0.707, 0.707, -0.707, 72.593, 87.061)" fill="#fecb2f"/>
          <rect id="Rectángulo_199" data-name="Rectángulo 199" width="3.421" height="3.421" transform="translate(86.415 73.061) rotate(-135)" fill="#fecb2f"/>
          <rect id="Rectángulo_200" data-name="Rectángulo 200" width="3.17" height="3.17" transform="translate(100.237 59.062) rotate(-134.999)" fill="#fecb2f"/>
          <rect id="Rectángulo_201" data-name="Rectángulo 201" width="2.92" height="2.92" transform="translate(114.059 45.063) rotate(-135)" fill="#fecb2f"/>
          <rect id="Rectángulo_202" data-name="Rectángulo 202" width="2.669" height="2.669" transform="matrix(-0.707, -0.707, 0.707, -0.707, 127.881, 31.063)" fill="#fecb2f"/>
          <rect id="Rectángulo_203" data-name="Rectángulo 203" width="2.418" height="2.418" transform="translate(141.703 17.064) rotate(-135)" fill="#fecb2f"/>
          <rect id="Rectángulo_204" data-name="Rectángulo 204" width="2.167" height="2.167" transform="matrix(-0.707, -0.707, 0.707, -0.707, 155.525, 3.065)" fill="#fecb2f"/>
        </g>
      </g>
      <g id="Grupo_70" data-name="Grupo 70" transform="translate(11.199 11.199)">
        <g id="Grupo_69" data-name="Grupo 69" transform="translate(0 0)">
          <rect id="Rectángulo_205" data-name="Rectángulo 205" width="4.926" height="4.926" transform="translate(3.483 157.058) rotate(-135.001)" fill="#fecb2f"/>
          <rect id="Rectángulo_206" data-name="Rectángulo 206" width="4.675" height="4.675" transform="translate(17.305 143.058) rotate(-135)" fill="#fecb2f"/>
          <rect id="Rectángulo_207" data-name="Rectángulo 207" width="4.424" height="4.424" transform="matrix(-0.707, -0.707, 0.707, -0.707, 31.127, 129.059)" fill="#fecb2f"/>
          <rect id="Rectángulo_208" data-name="Rectángulo 208" width="4.174" height="4.174" transform="translate(44.949 115.059) rotate(-135)" fill="#fecb2f"/>
          <rect id="Rectángulo_209" data-name="Rectángulo 209" width="3.923" height="3.923" transform="translate(58.771 101.06) rotate(-135)" fill="#fecb2f"/>
          <rect id="Rectángulo_210" data-name="Rectángulo 210" width="3.672" height="3.672" transform="translate(72.593 87.061) rotate(-135)" fill="#fecb2f"/>
          <rect id="Rectángulo_211" data-name="Rectángulo 211" width="3.421" height="3.421" transform="translate(86.415 73.061) rotate(-135)" fill="#fecb2f"/>
          <rect id="Rectángulo_212" data-name="Rectángulo 212" width="3.17" height="3.17" transform="translate(100.237 59.062) rotate(-135)" fill="#fecb2f"/>
          <rect id="Rectángulo_213" data-name="Rectángulo 213" width="2.92" height="2.92" transform="translate(114.059 45.063) rotate(-135)" fill="#fecb2f"/>
          <rect id="Rectángulo_214" data-name="Rectángulo 214" width="2.669" height="2.669" transform="translate(127.881 31.063) rotate(-135)" fill="#fecb2f"/>
          <rect id="Rectángulo_215" data-name="Rectángulo 215" width="2.418" height="2.418" transform="translate(141.703 17.064) rotate(-135)" fill="#fecb2f"/>
          <rect id="Rectángulo_216" data-name="Rectángulo 216" width="2.167" height="2.167" transform="matrix(-0.707, -0.707, 0.707, -0.707, 155.525, 3.065)" fill="#fecb2f"/>
        </g>
      </g>
      <g id="Grupo_72" data-name="Grupo 72" transform="translate(22.398 22.398)">
        <g id="Grupo_71" data-name="Grupo 71" transform="translate(0 0)">
          <rect id="Rectángulo_217" data-name="Rectángulo 217" width="4.926" height="4.926" transform="translate(3.483 157.058) rotate(-135.001)" fill="#fecb2f"/>
          <rect id="Rectángulo_218" data-name="Rectángulo 218" width="4.675" height="4.675" transform="translate(17.305 143.058) rotate(-135.001)" fill="#fecb2f"/>
          <rect id="Rectángulo_219" data-name="Rectángulo 219" width="4.424" height="4.424" transform="translate(31.127 129.059) rotate(-135.001)" fill="#fecb2f"/>
          <rect id="Rectángulo_220" data-name="Rectángulo 220" width="4.174" height="4.174" transform="translate(44.949 115.059) rotate(-135.001)" fill="#fecb2f"/>
          <rect id="Rectángulo_221" data-name="Rectángulo 221" width="3.923" height="3.923" transform="matrix(-0.707, -0.707, 0.707, -0.707, 58.771, 101.06)" fill="#fecb2f"/>
          <rect id="Rectángulo_222" data-name="Rectángulo 222" width="3.672" height="3.672" transform="matrix(-0.707, -0.707, 0.707, -0.707, 72.593, 87.061)" fill="#fecb2f"/>
          <rect id="Rectángulo_223" data-name="Rectángulo 223" width="3.421" height="3.421" transform="matrix(-0.707, -0.707, 0.707, -0.707, 86.415, 73.061)" fill="#fecb2f"/>
          <rect id="Rectángulo_224" data-name="Rectángulo 224" width="3.17" height="3.17" transform="translate(100.237 59.062) rotate(-135.001)" fill="#fecb2f"/>
          <rect id="Rectángulo_225" data-name="Rectángulo 225" width="2.92" height="2.92" transform="translate(114.059 45.063) rotate(-135)" fill="#fecb2f"/>
          <rect id="Rectángulo_226" data-name="Rectángulo 226" width="2.669" height="2.669" transform="translate(127.881 31.063) rotate(-135.002)" fill="#fecb2f"/>
          <rect id="Rectángulo_227" data-name="Rectángulo 227" width="2.418" height="2.418" transform="translate(141.703 17.064) rotate(-135)" fill="#fecb2f"/>
          <rect id="Rectángulo_228" data-name="Rectángulo 228" width="2.167" height="2.167" transform="matrix(-0.707, -0.707, 0.707, -0.707, 155.525, 3.065)" fill="#fecb2f"/>
        </g>
      </g>
      <g id="Grupo_74" data-name="Grupo 74" transform="translate(33.596 33.596)">
        <g id="Grupo_73" data-name="Grupo 73" transform="translate(0 0)">
          <rect id="Rectángulo_229" data-name="Rectángulo 229" width="4.926" height="4.926" transform="translate(3.483 157.057) rotate(-134.999)" fill="#fecb2f"/>
          <rect id="Rectángulo_230" data-name="Rectángulo 230" width="4.675" height="4.675" transform="translate(17.305 143.058) rotate(-134.999)" fill="#fecb2f"/>
          <rect id="Rectángulo_231" data-name="Rectángulo 231" width="4.424" height="4.424" transform="translate(31.127 129.059) rotate(-135)" fill="#fecb2f"/>
          <rect id="Rectángulo_232" data-name="Rectángulo 232" width="4.174" height="4.174" transform="translate(44.949 115.059) rotate(-134.999)" fill="#fecb2f"/>
          <rect id="Rectángulo_233" data-name="Rectángulo 233" width="3.923" height="3.923" transform="translate(58.771 101.06) rotate(-135)" fill="#fecb2f"/>
          <rect id="Rectángulo_234" data-name="Rectángulo 234" width="3.672" height="3.672" transform="matrix(-0.707, -0.707, 0.707, -0.707, 72.593, 87.061)" fill="#fecb2f"/>
          <rect id="Rectángulo_235" data-name="Rectángulo 235" width="3.421" height="3.421" transform="translate(86.415 73.061) rotate(-135)" fill="#fecb2f"/>
          <rect id="Rectángulo_236" data-name="Rectángulo 236" width="3.17" height="3.17" transform="translate(100.237 59.062) rotate(-134.999)" fill="#fecb2f"/>
          <rect id="Rectángulo_237" data-name="Rectángulo 237" width="2.92" height="2.92" transform="translate(114.059 45.063) rotate(-135)" fill="#fecb2f"/>
          <rect id="Rectángulo_238" data-name="Rectángulo 238" width="2.669" height="2.669" transform="translate(127.881 31.063) rotate(-135)" fill="#fecb2f"/>
          <rect id="Rectángulo_239" data-name="Rectángulo 239" width="2.418" height="2.418" transform="translate(141.703 17.064) rotate(-135)" fill="#fecb2f"/>
          <rect id="Rectángulo_240" data-name="Rectángulo 240" width="2.167" height="2.167" transform="matrix(-0.707, -0.707, 0.707, -0.707, 155.525, 3.065)" fill="#fecb2f"/>
        </g>
      </g>
      <g id="Grupo_76" data-name="Grupo 76" transform="translate(44.795 44.795)">
        <g id="Grupo_75" data-name="Grupo 75" transform="translate(0 0)">
          <rect id="Rectángulo_241" data-name="Rectángulo 241" width="4.926" height="4.926" transform="translate(3.483 157.058) rotate(-134.999)" fill="#fecb2f"/>
          <rect id="Rectángulo_242" data-name="Rectángulo 242" width="4.675" height="4.675" transform="translate(17.305 143.058) rotate(-134.999)" fill="#fecb2f"/>
          <rect id="Rectángulo_243" data-name="Rectángulo 243" width="4.424" height="4.424" transform="translate(31.127 129.059) rotate(-135)" fill="#fecb2f"/>
          <rect id="Rectángulo_244" data-name="Rectángulo 244" width="4.174" height="4.174" transform="translate(44.949 115.059) rotate(-134.999)" fill="#fecb2f"/>
          <rect id="Rectángulo_245" data-name="Rectángulo 245" width="3.923" height="3.923" transform="translate(58.771 101.06) rotate(-135)" fill="#fecb2f"/>
          <rect id="Rectángulo_246" data-name="Rectángulo 246" width="3.672" height="3.672" transform="translate(72.593 87.061) rotate(-134.999)" fill="#fecb2f"/>
          <rect id="Rectángulo_247" data-name="Rectángulo 247" width="3.421" height="3.421" transform="translate(86.415 73.061) rotate(-135)" fill="#fecb2f"/>
          <rect id="Rectángulo_248" data-name="Rectángulo 248" width="3.17" height="3.17" transform="translate(100.237 59.062) rotate(-134.999)" fill="#fecb2f"/>
          <rect id="Rectángulo_249" data-name="Rectángulo 249" width="2.919" height="2.919" transform="translate(114.059 45.063) rotate(-135)" fill="#fecb2f"/>
          <rect id="Rectángulo_250" data-name="Rectángulo 250" width="2.669" height="2.669" transform="translate(127.881 31.063) rotate(-134.998)" fill="#fecb2f"/>
          <rect id="Rectángulo_251" data-name="Rectángulo 251" width="2.418" height="2.418" transform="translate(141.703 17.064) rotate(-135)" fill="#fecb2f"/>
          <rect id="Rectángulo_252" data-name="Rectángulo 252" width="2.167" height="2.167" transform="matrix(-0.707, -0.707, 0.707, -0.707, 155.525, 3.065)" fill="#fecb2f"/>
        </g>
      </g>
      <g id="Grupo_78" data-name="Grupo 78" transform="translate(55.994 55.994)">
        <g id="Grupo_77" data-name="Grupo 77" transform="translate(0 0)">
          <rect id="Rectángulo_253" data-name="Rectángulo 253" width="4.926" height="4.926" transform="translate(3.483 157.057) rotate(-135)" fill="#fecb2f"/>
          <rect id="Rectángulo_254" data-name="Rectángulo 254" width="4.675" height="4.675" transform="translate(17.305 143.058) rotate(-135)" fill="#fecb2f"/>
          <rect id="Rectángulo_255" data-name="Rectángulo 255" width="4.424" height="4.424" transform="translate(31.127 129.059) rotate(-134.999)" fill="#fecb2f"/>
          <rect id="Rectángulo_256" data-name="Rectángulo 256" width="4.174" height="4.174" transform="translate(44.949 115.059) rotate(-134.999)" fill="#fecb2f"/>
          <rect id="Rectángulo_257" data-name="Rectángulo 257" width="3.923" height="3.923" transform="translate(58.771 101.06) rotate(-134.999)" fill="#fecb2f"/>
          <rect id="Rectángulo_258" data-name="Rectángulo 258" width="3.672" height="3.672" transform="matrix(-0.707, -0.707, 0.707, -0.707, 72.593, 87.061)" fill="#fecb2f"/>
          <rect id="Rectángulo_259" data-name="Rectángulo 259" width="3.421" height="3.421" transform="translate(86.415 73.061) rotate(-135)" fill="#fecb2f"/>
          <rect id="Rectángulo_260" data-name="Rectángulo 260" width="3.17" height="3.17" transform="translate(100.237 59.062) rotate(-134.999)" fill="#fecb2f"/>
          <rect id="Rectángulo_261" data-name="Rectángulo 261" width="2.92" height="2.92" transform="translate(114.059 45.063) rotate(-135)" fill="#fecb2f"/>
          <rect id="Rectángulo_262" data-name="Rectángulo 262" width="2.669" height="2.669" transform="matrix(-0.707, -0.707, 0.707, -0.707, 127.881, 31.063)" fill="#fecb2f"/>
          <rect id="Rectángulo_263" data-name="Rectángulo 263" width="2.418" height="2.418" transform="translate(141.703 17.064) rotate(-135)" fill="#fecb2f"/>
          <rect id="Rectángulo_264" data-name="Rectángulo 264" width="2.167" height="2.167" transform="matrix(-0.707, -0.707, 0.707, -0.707, 155.525, 3.065)" fill="#fecb2f"/>
        </g>
      </g>
      <g id="Grupo_80" data-name="Grupo 80" transform="translate(67.193 67.193)">
        <g id="Grupo_79" data-name="Grupo 79" transform="translate(0 0)">
          <rect id="Rectángulo_265" data-name="Rectángulo 265" width="4.926" height="4.926" transform="translate(3.483 157.057) rotate(-135.001)" fill="#fecb2f"/>
          <rect id="Rectángulo_266" data-name="Rectángulo 266" width="4.675" height="4.675" transform="translate(17.305 143.058) rotate(-135)" fill="#fecb2f"/>
          <rect id="Rectángulo_267" data-name="Rectángulo 267" width="4.424" height="4.424" transform="matrix(-0.707, -0.707, 0.707, -0.707, 31.127, 129.059)" fill="#fecb2f"/>
          <rect id="Rectángulo_268" data-name="Rectángulo 268" width="4.174" height="4.174" transform="translate(44.949 115.059) rotate(-135)" fill="#fecb2f"/>
          <rect id="Rectángulo_269" data-name="Rectángulo 269" width="3.923" height="3.923" transform="matrix(-0.707, -0.707, 0.707, -0.707, 58.771, 101.06)" fill="#fecb2f"/>
          <rect id="Rectángulo_270" data-name="Rectángulo 270" width="3.672" height="3.672" transform="matrix(-0.707, -0.707, 0.707, -0.707, 72.593, 87.061)" fill="#fecb2f"/>
          <rect id="Rectángulo_271" data-name="Rectángulo 271" width="3.421" height="3.421" transform="translate(86.415 73.061) rotate(-135)" fill="#fecb2f"/>
          <rect id="Rectángulo_272" data-name="Rectángulo 272" width="3.17" height="3.17" transform="matrix(-0.707, -0.707, 0.707, -0.707, 100.237, 59.062)" fill="#fecb2f"/>
          <rect id="Rectángulo_273" data-name="Rectángulo 273" width="2.92" height="2.92" transform="translate(114.059 45.063) rotate(-135)" fill="#fecb2f"/>
          <rect id="Rectángulo_274" data-name="Rectángulo 274" width="2.669" height="2.669" transform="translate(127.881 31.063) rotate(-134.998)" fill="#fecb2f"/>
          <rect id="Rectángulo_275" data-name="Rectángulo 275" width="2.418" height="2.418" transform="translate(141.703 17.064) rotate(-135)" fill="#fecb2f"/>
          <rect id="Rectángulo_276" data-name="Rectángulo 276" width="2.167" height="2.167" transform="matrix(-0.707, -0.707, 0.707, -0.707, 155.525, 3.065)" fill="#fecb2f"/>
        </g>
      </g>
      <g id="Grupo_82" data-name="Grupo 82" transform="translate(78.391 78.391)">
        <g id="Grupo_81" data-name="Grupo 81" transform="translate(0 0)">
          <rect id="Rectángulo_277" data-name="Rectángulo 277" width="4.926" height="4.926" transform="translate(3.483 157.058) rotate(-135.001)" fill="#fecb2f"/>
          <rect id="Rectángulo_278" data-name="Rectángulo 278" width="4.675" height="4.675" transform="translate(17.305 143.058) rotate(-135)" fill="#fecb2f"/>
          <rect id="Rectángulo_279" data-name="Rectángulo 279" width="4.424" height="4.424" transform="translate(31.127 129.059) rotate(-135.001)" fill="#fecb2f"/>
          <rect id="Rectángulo_280" data-name="Rectángulo 280" width="4.174" height="4.174" transform="translate(44.949 115.059) rotate(-135)" fill="#fecb2f"/>
          <rect id="Rectángulo_281" data-name="Rectángulo 281" width="3.923" height="3.923" transform="matrix(-0.707, -0.707, 0.707, -0.707, 58.771, 101.06)" fill="#fecb2f"/>
          <rect id="Rectángulo_282" data-name="Rectángulo 282" width="3.672" height="3.672" transform="translate(72.593 87.061) rotate(-135)" fill="#fecb2f"/>
          <rect id="Rectángulo_283" data-name="Rectángulo 283" width="3.421" height="3.421" transform="matrix(-0.707, -0.707, 0.707, -0.707, 86.415, 73.061)" fill="#fecb2f"/>
          <rect id="Rectángulo_284" data-name="Rectángulo 284" width="3.17" height="3.17" transform="translate(100.237 59.062) rotate(-135)" fill="#fecb2f"/>
          <rect id="Rectángulo_285" data-name="Rectángulo 285" width="2.92" height="2.92" transform="translate(114.059 45.063) rotate(-135)" fill="#fecb2f"/>
          <rect id="Rectángulo_286" data-name="Rectángulo 286" width="2.669" height="2.669" transform="translate(127.881 31.063) rotate(-135)" fill="#fecb2f"/>
          <rect id="Rectángulo_287" data-name="Rectángulo 287" width="2.418" height="2.418" transform="translate(141.703 17.064) rotate(-135)" fill="#fecb2f"/>
          <rect id="Rectángulo_288" data-name="Rectángulo 288" width="2.167" height="2.167" transform="matrix(-0.707, -0.707, 0.707, -0.707, 155.525, 3.065)" fill="#fecb2f"/>
        </g>
      </g>
      <g id="Grupo_84" data-name="Grupo 84" transform="translate(89.59 89.59)">
        <g id="Grupo_83" data-name="Grupo 83" transform="translate(0 0)">
          <rect id="Rectángulo_289" data-name="Rectángulo 289" width="4.926" height="4.926" transform="translate(3.483 157.058) rotate(-135.001)" fill="#fecb2f"/>
          <rect id="Rectángulo_290" data-name="Rectángulo 290" width="4.675" height="4.675" transform="translate(17.305 143.058) rotate(-135.001)" fill="#fecb2f"/>
          <rect id="Rectángulo_291" data-name="Rectángulo 291" width="4.424" height="4.424" transform="translate(31.127 129.059) rotate(-135.001)" fill="#fecb2f"/>
          <rect id="Rectángulo_292" data-name="Rectángulo 292" width="4.174" height="4.174" transform="translate(44.949 115.059) rotate(-135.001)" fill="#fecb2f"/>
          <rect id="Rectángulo_293" data-name="Rectángulo 293" width="3.923" height="3.923" transform="matrix(-0.707, -0.707, 0.707, -0.707, 58.771, 101.06)" fill="#fecb2f"/>
          <rect id="Rectángulo_294" data-name="Rectángulo 294" width="3.672" height="3.672" transform="matrix(-0.707, -0.707, 0.707, -0.707, 72.593, 87.061)" fill="#fecb2f"/>
          <rect id="Rectángulo_295" data-name="Rectángulo 295" width="3.421" height="3.421" transform="matrix(-0.707, -0.707, 0.707, -0.707, 86.415, 73.061)" fill="#fecb2f"/>
          <rect id="Rectángulo_296" data-name="Rectángulo 296" width="3.17" height="3.17" transform="translate(100.237 59.062) rotate(-135.001)" fill="#fecb2f"/>
          <rect id="Rectángulo_297" data-name="Rectángulo 297" width="2.92" height="2.92" transform="matrix(-0.707, -0.707, 0.707, -0.707, 114.059, 45.063)" fill="#fecb2f"/>
          <rect id="Rectángulo_298" data-name="Rectángulo 298" width="2.669" height="2.669" transform="translate(127.881 31.063) rotate(-135.002)" fill="#fecb2f"/>
          <rect id="Rectángulo_299" data-name="Rectángulo 299" width="2.418" height="2.418" transform="translate(141.703 17.064) rotate(-135.002)" fill="#fecb2f"/>
          <rect id="Rectángulo_300" data-name="Rectángulo 300" width="2.167" height="2.167" transform="matrix(-0.707, -0.707, 0.707, -0.707, 155.525, 3.065)" fill="#fecb2f"/>
        </g>
      </g>
      <g id="Grupo_86" data-name="Grupo 86" transform="translate(100.789 100.789)">
        <g id="Grupo_85" data-name="Grupo 85" transform="translate(0 0)">
          <rect id="Rectángulo_301" data-name="Rectángulo 301" width="4.926" height="4.926" transform="matrix(-0.707, -0.707, 0.707, -0.707, 3.483, 157.058)" fill="#fecb2f"/>
          <rect id="Rectángulo_302" data-name="Rectángulo 302" width="4.675" height="4.675" transform="translate(17.305 143.058) rotate(-134.999)" fill="#fecb2f"/>
          <rect id="Rectángulo_303" data-name="Rectángulo 303" width="4.424" height="4.424" transform="translate(31.127 129.059) rotate(-134.999)" fill="#fecb2f"/>
          <rect id="Rectángulo_304" data-name="Rectángulo 304" width="4.174" height="4.174" transform="translate(44.949 115.06) rotate(-134.999)" fill="#fecb2f"/>
          <rect id="Rectángulo_305" data-name="Rectángulo 305" width="3.923" height="3.923" transform="translate(58.771 101.06) rotate(-135)" fill="#fecb2f"/>
          <rect id="Rectángulo_306" data-name="Rectángulo 306" width="3.672" height="3.672" transform="matrix(-0.707, -0.707, 0.707, -0.707, 72.593, 87.061)" fill="#fecb2f"/>
          <rect id="Rectángulo_307" data-name="Rectángulo 307" width="3.421" height="3.421" transform="translate(86.415 73.061) rotate(-135)" fill="#fecb2f"/>
          <rect id="Rectángulo_308" data-name="Rectángulo 308" width="3.17" height="3.17" transform="translate(100.237 59.062) rotate(-134.999)" fill="#fecb2f"/>
          <rect id="Rectángulo_309" data-name="Rectángulo 309" width="2.919" height="2.919" transform="translate(114.059 45.063) rotate(-135)" fill="#fecb2f"/>
          <rect id="Rectángulo_310" data-name="Rectángulo 310" width="2.669" height="2.669" transform="translate(127.881 31.063) rotate(-135)" fill="#fecb2f"/>
          <rect id="Rectángulo_311" data-name="Rectángulo 311" width="2.418" height="2.418" transform="translate(141.703 17.064) rotate(-135)" fill="#fecb2f"/>
          <rect id="Rectángulo_312" data-name="Rectángulo 312" width="2.167" height="2.167" transform="translate(155.525 3.065) rotate(-135)" fill="#fecb2f"/>
        </g>
      </g>
      <g id="Grupo_88" data-name="Grupo 88" transform="translate(111.988 111.988)">
        <g id="Grupo_87" data-name="Grupo 87" transform="translate(0 0)">
          <rect id="Rectángulo_313" data-name="Rectángulo 313" width="4.926" height="4.926" transform="translate(3.483 157.057) rotate(-135)" fill="#fecb2f"/>
          <rect id="Rectángulo_314" data-name="Rectángulo 314" width="4.675" height="4.675" transform="translate(17.305 143.058) rotate(-135)" fill="#fecb2f"/>
          <rect id="Rectángulo_315" data-name="Rectángulo 315" width="4.424" height="4.424" transform="translate(31.127 129.059) rotate(-135)" fill="#fecb2f"/>
          <rect id="Rectángulo_316" data-name="Rectángulo 316" width="4.174" height="4.174" transform="translate(44.949 115.059) rotate(-134.999)" fill="#fecb2f"/>
          <rect id="Rectángulo_317" data-name="Rectángulo 317" width="3.923" height="3.923" transform="translate(58.771 101.06) rotate(-134.999)" fill="#fecb2f"/>
          <rect id="Rectángulo_318" data-name="Rectángulo 318" width="3.672" height="3.672" transform="matrix(-0.707, -0.707, 0.707, -0.707, 72.593, 87.061)" fill="#fecb2f"/>
          <rect id="Rectángulo_319" data-name="Rectángulo 319" width="3.421" height="3.421" transform="translate(86.415 73.061) rotate(-135)" fill="#fecb2f"/>
          <rect id="Rectángulo_320" data-name="Rectángulo 320" width="3.17" height="3.17" transform="translate(100.237 59.062) rotate(-134.999)" fill="#fecb2f"/>
          <rect id="Rectángulo_321" data-name="Rectángulo 321" width="2.919" height="2.919" transform="translate(114.059 45.063) rotate(-135)" fill="#fecb2f"/>
          <rect id="Rectángulo_322" data-name="Rectángulo 322" width="2.669" height="2.669" transform="translate(127.881 31.063) rotate(-134.998)" fill="#fecb2f"/>
          <rect id="Rectángulo_323" data-name="Rectángulo 323" width="2.418" height="2.418" transform="translate(141.703 17.064) rotate(-135)" fill="#fecb2f"/>
          <rect id="Rectángulo_324" data-name="Rectángulo 324" width="2.167" height="2.167" transform="matrix(-0.707, -0.707, 0.707, -0.707, 155.525, 3.065)" fill="#fecb2f"/>
        </g>
      </g>
      <g id="Grupo_90" data-name="Grupo 90" transform="translate(123.187 123.187)">
        <g id="Grupo_89" data-name="Grupo 89" transform="translate(0 0)">
          <rect id="Rectángulo_325" data-name="Rectángulo 325" width="4.926" height="4.926" transform="translate(3.483 157.057) rotate(-135)" fill="#fecb2f"/>
          <rect id="Rectángulo_326" data-name="Rectángulo 326" width="4.675" height="4.675" transform="translate(17.305 143.058) rotate(-135)" fill="#fecb2f"/>
          <rect id="Rectángulo_327" data-name="Rectángulo 327" width="4.424" height="4.424" transform="translate(31.127 129.059) rotate(-135)" fill="#fecb2f"/>
          <rect id="Rectángulo_328" data-name="Rectángulo 328" width="4.174" height="4.174" transform="translate(44.949 115.059) rotate(-135)" fill="#fecb2f"/>
          <rect id="Rectángulo_329" data-name="Rectángulo 329" width="3.923" height="3.923" transform="translate(58.771 101.06) rotate(-135)" fill="#fecb2f"/>
          <rect id="Rectángulo_330" data-name="Rectángulo 330" width="3.672" height="3.672" transform="translate(72.593 87.061) rotate(-135)" fill="#fecb2f"/>
          <rect id="Rectángulo_331" data-name="Rectángulo 331" width="3.421" height="3.421" transform="matrix(-0.707, -0.707, 0.707, -0.707, 86.415, 73.061)" fill="#fecb2f"/>
          <rect id="Rectángulo_332" data-name="Rectángulo 332" width="3.17" height="3.17" transform="matrix(-0.707, -0.707, 0.707, -0.707, 100.237, 59.062)" fill="#fecb2f"/>
          <rect id="Rectángulo_333" data-name="Rectángulo 333" width="2.92" height="2.92" transform="matrix(-0.707, -0.707, 0.707, -0.707, 114.059, 45.063)" fill="#fecb2f"/>
          <rect id="Rectángulo_334" data-name="Rectángulo 334" width="2.669" height="2.669" transform="translate(127.881 31.063) rotate(-134.998)" fill="#fecb2f"/>
          <rect id="Rectángulo_335" data-name="Rectángulo 335" width="2.418" height="2.418" transform="translate(141.703 17.064) rotate(-135)" fill="#fecb2f"/>
          <rect id="Rectángulo_336" data-name="Rectángulo 336" width="2.167" height="2.167" transform="matrix(-0.707, -0.707, 0.707, -0.707, 155.525, 3.065)" fill="#fecb2f"/>
        </g>
      </g>
    </g>
    <g id="Grupo_895791" data-name="Grupo 895791" transform="translate(969 77.278)" opacity="0.42">
      <path id="Trazado_1" data-name="Trazado 1" d="M-33.414-75.2,112.079,70.293q-1.01,6.24-2.614,12.265L-45.679-72.585Q-39.658-74.186-33.414-75.2Z" transform="translate(139.765 76.856)" fill="none" stroke="#f6cd53" stroke-miterlimit="10" stroke-width="1.078"/>
      <path id="Trazado_2" data-name="Trazado 2" d="M-31.889-72.715,123.255,82.428q-1.533,5.764-3.574,11.306L-43.2-69.141Q-37.66-71.187-31.889-72.715Z" transform="translate(125.974 76.986)" fill="none" stroke="#f6cd53" stroke-miterlimit="10" stroke-width="1.078"/>
      <path id="Trazado_3" data-name="Trazado 3" d="M-11.19-48.491,167.367,130.066c-2.263,2.688-4.623,5.291-7.1,7.781L-18.971-41.391C-16.481-43.867-13.878-46.228-11.19-48.491Z" transform="translate(56.368 78.256)" fill="none" stroke="#f6cd53" stroke-miterlimit="10" stroke-width="1.078"/>
      <path id="Trazado_4" data-name="Trazado 4" d="M-16.726-54.647,159.909,121.988q-3.072,4.335-6.48,8.4L-25.128-48.168Q-21.072-51.583-16.726-54.647Z" transform="translate(70.305 77.933)" fill="none" stroke="#f6cd53" stroke-miterlimit="10" stroke-width="1.078"/>
      <path id="Trazado_5" data-name="Trazado 5" d="M-25.893-65.12,143.025,103.8c-1.582,3.322-3.319,6.553-5.174,9.707L-35.6-59.945C-32.446-61.8-29.215-63.538-25.893-65.12Z" transform="translate(98.211 77.384)" fill="none" stroke="#f6cd53" stroke-miterlimit="10" stroke-width="1.078"/>
      <path id="Trazado_6" data-name="Trazado 6" d="M-21.652-60.2,151.8,113.247q-2.734,4.649-5.847,9.033L-30.684-54.356Q-26.3-57.464-21.652-60.2Z" transform="translate(84.263 77.642)" fill="none" stroke="#f6cd53" stroke-miterlimit="10" stroke-width="1.078"/>
      <path id="Trazado_7" data-name="Trazado 7" d="M-29.338-69.319,133.538,93.557q-1.978,5.35-4.419,10.461L-39.8-64.9Q-34.689-67.333-29.338-69.319Z" transform="translate(112.117 77.164)" fill="none" stroke="#f6cd53" stroke-miterlimit="10" stroke-width="1.078"/>
      <path id="Trazado_8" data-name="Trazado 8" d="M32.877,3.358-38.97-68.489A127.1,127.1,0,0,1,32.877,3.358Z" transform="translate(211.905 77.207)" fill="none" stroke="#f6cd53" stroke-miterlimit="10" stroke-width="1.078"/>
      <path id="Trazado_9" data-name="Trazado 9" d="M-23.778-68.179,48.069,3.669a125.636,125.636,0,0,1,6.225,21.106l-99.18-99.18A125.686,125.686,0,0,1-23.778-68.179Z" transform="translate(196.713 76.897)" fill="none" stroke="#f6cd53" stroke-miterlimit="10" stroke-width="1.078"/>
      <path id="Trazado_10" data-name="Trazado 10" d="M-33.64-76.583,99.886,56.942a127.073,127.073,0,0,1-1.458,13.424L-47.064-75.126A127.1,127.1,0,0,1-33.64-76.583Z" transform="translate(153.415 76.783)" fill="none" stroke="#f6cd53" stroke-miterlimit="10" stroke-width="1.078"/>
      <path id="Trazado_11" data-name="Trazado 11" d="M-40.277-76.773c2.683,0,5.339.112,7.982.276L86.2,42c.164,2.642.276,5.3.276,7.982,0,2.341-.074,4.664-.2,6.975L-47.253-76.573C-44.943-76.7-42.619-76.773-40.277-76.773Z" transform="translate(167.028 76.773)" fill="none" stroke="#f6cd53" stroke-miterlimit="10" stroke-width="1.078"/>
      <path id="Trazado_12" data-name="Trazado 12" d="M-29.9-74.295l99.18,99.18a126.8,126.8,0,0,1,2.216,17.1L-46.991-76.511A126.979,126.979,0,0,1-29.9-74.295Z" transform="translate(181.723 76.787)" fill="none" stroke="#f6cd53" stroke-miterlimit="10" stroke-width="1.078"/>
      <path id="Trazado_13" data-name="Trazado 13" d="M54.484,23.422,200.717,169.654A126.874,126.874,0,0,1,187.38,171.2L52.941,36.76A126.8,126.8,0,0,1,54.484,23.422Z" transform="translate(-52.666 82.028)" fill="none" stroke="#f6cd53" stroke-miterlimit="10" stroke-width="1.078"/>
      <path id="Trazado_14" data-name="Trazado 14" d="M65.614,44.058c0-2.677.112-5.327.275-7.963L200.327,170.533c-2.636.164-5.286.275-7.963.275-2.293,0-4.569-.068-6.831-.188L65.8,50.889C65.682,48.626,65.614,46.35,65.614,44.058Z" transform="translate(-65.614 82.693)" fill="none" stroke="#f6cd53" stroke-miterlimit="10" stroke-width="1.078"/>
      <path id="Trazado_15" data-name="Trazado 15" d="M79.671,50.152,199.4,169.882a126.81,126.81,0,0,1-16.953-2.072L81.743,67.1A127.015,127.015,0,0,1,79.671,50.152Z" transform="translate(-79.483 83.43)" fill="none" stroke="#f6cd53" stroke-miterlimit="10" stroke-width="1.078"/>
      <path id="Trazado_16" data-name="Trazado 16" d="M95.779,66.26l100.706,100.7a125.732,125.732,0,0,1-20.646-5.765L101.544,86.906A125.967,125.967,0,0,1,95.779,66.26Z" transform="translate(-93.518 84.275)" fill="none" stroke="#f6cd53" stroke-miterlimit="10" stroke-width="1.078"/>
      <path id="Trazado_17" data-name="Trazado 17" d="M115.4,85.877,189.69,160.17A127.108,127.108,0,0,1,115.4,85.877Z" transform="translate(-107.37 85.304)" fill="none" stroke="#f6cd53" stroke-miterlimit="10" stroke-width="1.078"/>
      <path id="Trazado_18" data-name="Trazado 18" d="M44.046,11.837,199.782,167.574q-5.985,1.636-12.192,2.688L41.357,24.03Q42.407,17.825,44.046,11.837Z" transform="translate(-39.539 81.42)" fill="none" stroke="#f6cd53" stroke-miterlimit="10" stroke-width="1.078"/>
      <path id="Trazado_19" data-name="Trazado 19" d="M8.966-26.455,185.782,150.36c-2.907,2.086-5.9,4.062-8.979,5.9L3.065-17.476C4.9-20.559,6.88-23.548,8.966-26.455Z" transform="translate(14.761 79.412)" fill="none" stroke="#f6cd53" stroke-miterlimit="10" stroke-width="1.078"/>
      <path id="Trazado_20" data-name="Trazado 20" d="M1.662-34.388,180.3,144.246q-4.034,3.435-8.35,6.53L-4.869-26.039Q-1.773-30.352,1.662-34.388Z" transform="translate(28.596 78.996)" fill="none" stroke="#f6cd53" stroke-miterlimit="10" stroke-width="1.078"/>
      <path id="Trazado_21" data-name="Trazado 21" d="M34.315,1.157,197.653,164.494q-5.5,2.078-11.241,3.64L30.676,12.4Q32.242,6.665,34.315,1.157Z" transform="translate(-26.169 80.86)" fill="none" stroke="#f6cd53" stroke-miterlimit="10" stroke-width="1.078"/>
      <path id="Trazado_22" data-name="Trazado 22" d="M-5.087-41.745,174.151,137.493c-2.474,2.49-5.069,4.86-7.742,7.139L-12.225-34C-9.946-36.676-7.577-39.27-5.087-41.745Z" transform="translate(42.484 78.61)" fill="none" stroke="#f6cd53" stroke-miterlimit="10" stroke-width="1.078"/>
      <path id="Trazado_23" data-name="Trazado 23" d="M25.231-8.746l169.3,169.3c-3.39,1.642-6.872,3.118-10.422,4.458L20.773,1.676C22.113-1.875,23.59-5.357,25.231-8.746Z" transform="translate(-12.627 80.341)" fill="none" stroke="#f6cd53" stroke-miterlimit="10" stroke-width="1.078"/>
      <path id="Trazado_24" data-name="Trazado 24" d="M16.819-17.923,190.556,155.814c-3.136,1.871-6.353,3.623-9.657,5.222L11.6-8.265C13.2-11.57,14.949-14.786,16.819-17.923Z" transform="translate(1.007 79.86)" fill="none" stroke="#f6cd53" stroke-miterlimit="10" stroke-width="1.078"/>
    </g>
    <path id="Trazado_623844" data-name="Trazado 623844" d="M590.208,286.142,79.479,6.457C62.053-3.088,32.938-1.915,14.449,9.076h0C-4.039,20.065-4.9,36.71,12.527,46.253L523.256,325.938c17.427,9.543,46.541,8.371,65.029-2.619h0C606.773,312.33,607.634,295.685,590.208,286.142Z" transform="matrix(-0.985, -0.174, 0.174, -0.985, 1020.074, 498.964)" fill="none" stroke="#fecb2f" stroke-miterlimit="10" stroke-width="2" opacity="0.09"/>
    <path id="Trazado_623845" data-name="Trazado 623845" d="M400.333,369,51.962,9.207a29.759,29.759,0,0,0-43.045,0h0a32.168,32.168,0,0,0,0,44.459L357.286,413.46a29.762,29.762,0,0,0,43.047,0h0A32.173,32.173,0,0,0,400.333,369Z" transform="translate(862.29 464.459) rotate(173)" fill="none" stroke="#fecb2f" stroke-miterlimit="10" stroke-width="2" opacity="0.09"/>
  </g>
</svg>
