<svg xmlns="http://www.w3.org/2000/svg" width="200" height="200" viewBox="0 0 200 200">
  <g id="Grupo_906591" data-name="Grupo 906591" transform="translate(-968 -11832)">
    <circle id="Elipse_6790" data-name="Elipse 6790" cx="100" cy="100" r="100" transform="translate(968 11832)" fill="#fff"/>
    <g id="Grupo_905667" data-name="Grupo 905667" transform="translate(944.577 11412.533)">
      <g id="Grupo_905659" data-name="Grupo 905659" transform="translate(67.172 475.957)">
        <g id="Grupo_905658" data-name="Grupo 905658">
          <g id="Grupo_905657" data-name="Grupo 905657" transform="translate(32.707 69.299)">
            <path id="Trazado_634368" data-name="Trazado 634368" d="M109.441,520.66H79.168l4.377-20.424h21.519Z" transform="translate(-70.194 -500.236)" fill="#d0d2d3" stroke="#12263f" stroke-width="1"/>
            <path id="Trazado_634369" data-name="Trazado 634369" d="M106.618,511.784l-2.475-11.549H82.623l-2.475,11.549Z" transform="translate(-69.273 -500.236)" fill="#bbbdbf" stroke="#12263f" stroke-width="1"/>
            <path id="Trazado_634370" data-name="Trazado 634370" d="M120.129,513.444H77.171c-2.28,0-2.631-3.017-2.631-3.017h48.221S122.41,513.444,120.129,513.444Z" transform="translate(-74.54 -490.665)" fill="#e6e6e7" stroke="#12263f" stroke-width="1"/>
          </g>
          <rect id="Rectángulo_303485" data-name="Rectángulo 303485" width="113.633" height="70.229" rx="2.587" fill="#221f1f" stroke="#12263f" stroke-width="1"/>
          <path id="Trazado_634371" data-name="Trazado 634371" d="M57.673,497.428V507.3a5.016,5.016,0,0,0,5.016,5.016h103.6a5.016,5.016,0,0,0,5.016-5.016v-9.872Z" transform="translate(-57.672 -433.573)" fill="#e6e6e7" stroke="#12263f" stroke-width="1"/>
          <rect id="Rectángulo_303486" data-name="Rectángulo 303486" width="106.3" height="54.617" transform="translate(3.667 4.739)" fill="#808184" stroke="#12263f" stroke-width="1"/>
          <path id="Trazado_634372" data-name="Trazado 634372" d="M92.362,502.889a3.63,3.63,0,1,1-3.63-3.63A3.631,3.631,0,0,1,92.362,502.889Z" transform="translate(-31.915 -431.854)" fill="#929597" stroke="#12263f" stroke-width="1"/>
        </g>
      </g>
      <g id="Grupo_905662" data-name="Grupo 905662" transform="translate(100.909 461.226)">
        <g id="Grupo_905660" data-name="Grupo 905660">
          <path id="Trazado_634373" data-name="Trazado 634373" d="M75.071,456.9V531h55.394V469.066L118.3,456.9Z" transform="translate(-75.071 -456.9)" fill="#f0f1f1" stroke="#12263f" stroke-width="1"/>
          <path id="Trazado_634374" data-name="Trazado 634374" d="M109.531,469.067,97.364,456.9v12.167Z" transform="translate(-54.137 -456.9)" fill="#d0d2d3" stroke="#12263f" stroke-width="1"/>
        </g>
        <g id="Grupo_905661" data-name="Grupo 905661" transform="translate(9 7.721)">
          <path id="Trazado_634375" data-name="Trazado 634375" d="M81.9,475.931a14.972,14.972,0,0,0,2.09,7.65l12.959-7.65V460.882A15.05,15.05,0,0,0,81.9,475.931Z" transform="translate(-77.658 -460.882)" fill="#fecb2f" stroke="#12263f" stroke-width="1"/>
          <path id="Trazado_634376" data-name="Trazado 634376" d="M95.937,460.882v15.049l-12.959,7.65a15.048,15.048,0,1,0,12.959-22.7Z" transform="translate(-76.646 -460.882)" fill="#0b5999" stroke="#12263f" stroke-width="1"/>
          <rect id="Rectángulo_303487" data-name="Rectángulo 303487" width="37.206" height="1.06" transform="translate(0 59.378)" fill="#bbbdbf" stroke="#12263f" stroke-width="1"/>
          <rect id="Rectángulo_303488" data-name="Rectángulo 303488" width="5.936" height="10.984" transform="translate(1.461 46.984)" fill="#0b5999" stroke="#12263f" stroke-width="1"/>
          <rect id="Rectángulo_303489" data-name="Rectángulo 303489" width="5.935" height="15.077" transform="translate(10.814 42.891)" fill="#0b5999" stroke="#12263f" stroke-width="1"/>
          <rect id="Rectángulo_303490" data-name="Rectángulo 303490" width="5.936" height="13.594" transform="translate(20.166 44.375)" fill="#0b5999" stroke="#12263f" stroke-width="1"/>
          <rect id="Rectángulo_303491" data-name="Rectángulo 303491" width="5.936" height="18.821" transform="translate(29.518 39.147)" fill="#0b5999" stroke="#12263f" stroke-width="1"/>
          <path id="Trazado_634377" data-name="Trazado 634377" d="M110.144,478.587,100.792,485l-9.352-1.635L81.9,488.036" transform="translate(-77.658 -444.256)" fill="none" stroke="#12263f" stroke-linecap="round" stroke-miterlimit="10" stroke-width="1"/>
          <path id="Trazado_634378" data-name="Trazado 634378" d="M95.2,478.472l3.267-.133-1.225,2.822" transform="translate(-65.172 -444.489)" fill="none" stroke="#12263f" stroke-linecap="round" stroke-miterlimit="10" stroke-width="1"/>
        </g>
      </g>
      <g id="Grupo_905663" data-name="Grupo 905663" transform="translate(165.044 452.319)">
        <path id="Trazado_634379" data-name="Trazado 634379" d="M115.162,460.641l-3.661-8.335-3.354,8.334Z" transform="translate(-108.146 -452.307)" fill="#f7cf9c" stroke="#12263f" stroke-width="1"/>
        <path id="Trazado_634380" data-name="Trazado 634380" d="M111.721,455.215l-1.278-2.909-1.171,2.909Z" transform="translate(-107.089 -452.307)" fill="#221f1f" stroke="#12263f" stroke-width="1"/>
        <rect id="Rectángulo_303492" data-name="Rectángulo 303492" width="7.015" height="74.75" transform="translate(0 8.334)" fill="#fecb2f" stroke="#12263f" stroke-width="1"/>
        <rect id="Rectángulo_303493" data-name="Rectángulo 303493" width="3.539" height="74.75" transform="translate(0 8.334)" fill="#e8bf15" stroke="#12263f" stroke-width="1"/>
      </g>
      <g id="Grupo_905664" data-name="Grupo 905664" transform="translate(76.314 452.312)">
        <path id="Trazado_634381" data-name="Trazado 634381" d="M62.387,452.3v83.1H78.161V452.3Zm7.888,8.094a1.937,1.937,0,1,1,1.937-1.937A1.936,1.936,0,0,1,70.275,460.4Z" transform="translate(-62.387 -452.303)" fill="#21cbae" stroke="#12263f" stroke-width="1"/>
        <path id="Trazado_634382" data-name="Trazado 634382" d="M66.783,461.423a.577.577,0,0,0,0,1.154h7.791v-1.154Z" transform="translate(-58.8 -443.739)" fill="#57585a" stroke="#12263f" stroke-width="1"/>
        <path id="Trazado_634383" data-name="Trazado 634383" d="M68.37,463.91a.577.577,0,0,0,0,1.154h4.714V463.91Z" transform="translate(-57.309 -441.403)" fill="#57585a" stroke="#12263f" stroke-width="1"/>
        <path id="Trazado_634384" data-name="Trazado 634384" d="M68.37,466.4a.577.577,0,0,0,0,1.154h4.714V466.4Z" transform="translate(-57.309 -439.068)" fill="#57585a" stroke="#12263f" stroke-width="1"/>
        <path id="Trazado_634385" data-name="Trazado 634385" d="M68.37,468.884a.577.577,0,0,0,0,1.154h4.714v-1.154Z" transform="translate(-57.309 -436.732)" fill="#57585a" stroke="#12263f" stroke-width="1"/>
        <path id="Trazado_634386" data-name="Trazado 634386" d="M66.783,471.371a.577.577,0,0,0,0,1.154h7.791v-1.154Z" transform="translate(-58.8 -434.397)" fill="#57585a" stroke="#12263f" stroke-width="1"/>
        <path id="Trazado_634387" data-name="Trazado 634387" d="M68.37,473.858a.577.577,0,0,0,0,1.154h4.714v-1.154Z" transform="translate(-57.309 -432.062)" fill="#57585a" stroke="#12263f" stroke-width="1"/>
        <path id="Trazado_634388" data-name="Trazado 634388" d="M68.37,476.345a.577.577,0,0,0,0,1.154h4.714v-1.154Z" transform="translate(-57.309 -429.726)" fill="#57585a" stroke="#12263f" stroke-width="1"/>
        <path id="Trazado_634389" data-name="Trazado 634389" d="M68.37,478.831a.578.578,0,0,0,0,1.156h4.714v-1.156Z" transform="translate(-57.309 -427.392)" fill="#57585a" stroke="#12263f" stroke-width="1"/>
        <path id="Trazado_634390" data-name="Trazado 634390" d="M66.783,481.318a.578.578,0,0,0,0,1.156h7.791v-1.156Z" transform="translate(-58.8 -425.056)" fill="#57585a" stroke="#12263f" stroke-width="1"/>
        <path id="Trazado_634391" data-name="Trazado 634391" d="M68.37,483.805a.578.578,0,0,0,0,1.156h4.714v-1.156Z" transform="translate(-57.309 -422.721)" fill="#57585a" stroke="#12263f" stroke-width="1"/>
        <path id="Trazado_634392" data-name="Trazado 634392" d="M68.37,486.292a.578.578,0,0,0,0,1.156h4.714v-1.156Z" transform="translate(-57.309 -420.385)" fill="#57585a" stroke="#12263f" stroke-width="1"/>
        <path id="Trazado_634393" data-name="Trazado 634393" d="M68.37,488.779a.578.578,0,0,0,0,1.156h4.714v-1.156Z" transform="translate(-57.309 -418.05)" fill="#57585a" stroke="#12263f" stroke-width="1"/>
        <path id="Trazado_634394" data-name="Trazado 634394" d="M66.783,491.266a.578.578,0,0,0,0,1.156h7.791v-1.156Z" transform="translate(-58.8 -415.714)" fill="#57585a" stroke="#12263f" stroke-width="1"/>
        <path id="Trazado_634395" data-name="Trazado 634395" d="M68.37,493.753a.577.577,0,0,0,0,1.154h4.714v-1.154Z" transform="translate(-57.309 -413.379)" fill="#57585a" stroke="#12263f" stroke-width="1"/>
      </g>
      <g id="Grupo_905665" data-name="Grupo 905665" transform="translate(47.557 523.564)">
        <path id="Trazado_634396" data-name="Trazado 634396" d="M62.454,509.135,81,529.565a.942.942,0,0,0,1.336,0l5.74-5.738a.948.948,0,0,0,0-1.338L67.643,503.946Z" transform="translate(-33.567 -475.059)" fill="#ef3c79" stroke="#12263f" stroke-width="1"/>
        <path id="Trazado_634397" data-name="Trazado 634397" d="M71.944,507.85l-4.3-3.9-5.189,5.189,3.9,4.3Z" transform="translate(-33.567 -475.059)" fill="#e39bb4" stroke="#12263f" stroke-width="1"/>
        <path id="Trazado_634398" data-name="Trazado 634398" d="M53.175,494.667a19.178,19.178,0,1,0,27.122,0A19.176,19.176,0,0,0,53.175,494.667Zm25.551,25.549a16.955,16.955,0,1,1,0-23.977A16.956,16.956,0,0,1,78.726,520.216Z" transform="translate(-47.557 -489.049)" fill="#12263f" stroke="#12263f" stroke-width="1"/>
        <path id="Trazado_634399" data-name="Trazado 634399" d="M77.649,495.162a16.955,16.955,0,1,1-23.978,0A16.956,16.956,0,0,1,77.649,495.162Z" transform="translate(-46.48 -487.972)" fill="#e6e6e7" stroke="#12263f" stroke-width="1" opacity="0.3"/>
      </g>
      <g id="Grupo_905666" data-name="Grupo 905666" transform="translate(149.082 527.722)">
        <path id="Trazado_634401" data-name="Trazado 634401" d="M119.236,500.578l-.809,2.965a14.364,14.364,0,0,0-3.62.461l-1.524-2.67a1.459,1.459,0,0,0-1.988-.543l-4.088,2.337a1.457,1.457,0,0,0-.541,1.988l1.524,2.668a14.36,14.36,0,0,0-2.234,2.885l-2.965-.809a1.456,1.456,0,0,0-1.788,1.022l-1.239,4.541a1.456,1.456,0,0,0,1.022,1.788l2.965.809a14.365,14.365,0,0,0,.462,3.62l-2.67,1.524a1.457,1.457,0,0,0-.541,1.988l2.335,4.086a1.456,1.456,0,0,0,1.988.543l2.668-1.526a14.372,14.372,0,0,0,2.885,2.236l-.809,2.965a1.456,1.456,0,0,0,1.022,1.788l4.541,1.239a1.456,1.456,0,0,0,1.788-1.022l.809-2.965a14.367,14.367,0,0,0,3.62-.461l1.526,2.67a1.454,1.454,0,0,0,1.986.541l4.086-2.335a1.457,1.457,0,0,0,.543-1.99l-1.524-2.666a14.36,14.36,0,0,0,2.234-2.885l2.965.809a1.456,1.456,0,0,0,1.788-1.022l1.239-4.541a1.456,1.456,0,0,0-1.022-1.788l-2.965-.809a14.365,14.365,0,0,0-.462-3.62l2.67-1.526a1.454,1.454,0,0,0,.541-1.986L133.32,506.8a1.457,1.457,0,0,0-1.988-.541l-2.668,1.524a14.429,14.429,0,0,0-2.885-2.234l.809-2.965a1.456,1.456,0,0,0-1.022-1.788l-4.541-1.239A1.456,1.456,0,0,0,119.236,500.578Zm6.595,19.46a7.672,7.672,0,1,1-5.383-9.42A7.675,7.675,0,0,1,125.831,520.038Z" transform="translate(-99.914 -483.388)" fill="#ef3c79" stroke="#12263f" stroke-width="1"/>
        <path id="Trazado_634402" data-name="Trazado 634402" d="M123.8,491.2l-2.678.372a.834.834,0,0,0-.714.942l.242,1.751a8.3,8.3,0,0,0-1.807,1.061l-1.41-1.065a.834.834,0,0,0-1.171.163l-1.631,2.156a.836.836,0,0,0,.163,1.171l1.41,1.066a8.209,8.209,0,0,0-.527,2.028l-1.751.242a.835.835,0,0,0-.714.942l.372,2.68a.834.834,0,0,0,.942.714l1.751-.242a8.345,8.345,0,0,0,1.061,1.807l-1.066,1.408a.838.838,0,0,0,.163,1.173l2.158,1.631a.837.837,0,0,0,1.171-.163l1.065-1.41a8.269,8.269,0,0,0,2.028.525l.244,1.753a.834.834,0,0,0,.942.714l2.68-.372a.838.838,0,0,0,.714-.942l-.242-1.753A8.358,8.358,0,0,0,129,508.5l1.41,1.065a.836.836,0,0,0,1.173-.163l1.631-2.156a.837.837,0,0,0-.163-1.171L131.642,505a8.342,8.342,0,0,0,.527-2.028l1.751-.242a.839.839,0,0,0,.714-.944l-.372-2.678a.837.837,0,0,0-.944-.714l-1.751.244a8.2,8.2,0,0,0-1.059-1.807l1.065-1.412a.836.836,0,0,0-.163-1.171l-2.156-1.631a.835.835,0,0,0-1.171.163l-1.066,1.41a8.254,8.254,0,0,0-2.028-.527l-.242-1.751A.837.837,0,0,0,123.8,491.2Zm2.781,7.194a4.408,4.408,0,1,1-6.174.859A4.407,4.407,0,0,1,126.581,498.395Z" transform="translate(-87.434 -491.193)" fill="#ef3c79" stroke="#12263f" stroke-width="1"/>
      </g>
    </g>
  </g>
</svg>
