<svg xmlns="http://www.w3.org/2000/svg" width="1328" height="644.448" viewBox="0 0 1328 644.448">
  <g id="Grupo_906576" data-name="Grupo 906576" transform="translate(-136 -3677.518)">
    <g id="Grupo_906575" data-name="Grupo 906575">
      <g id="Grupo_904716" data-name="Grupo 904716" transform="translate(0 -163.925)">
        <path id="Trazado_625231" data-name="Trazado 625231" d="M0,0H1328V643.333H0Z" transform="translate(136 3841.442)" fill="#f3f9ff"/>
        <path id="Trazado_623843" data-name="Trazado 623843" d="M0,79.677c76.555.466,138.468,60.772,138.468,135.1S76.555,349.409,0,349.876v79.677c121.946-.467,220.655-96.445,220.655-214.776S121.946.467,0,0Z" transform="translate(136 3974.608)" fill="#edfbf9" opacity="0.95"/>
        <g id="Grupo_3" data-name="Grupo 3" transform="translate(1368.427 3861.726)" opacity="0.58">
          <path id="Trazado_25" data-name="Trazado 25" d="M97.688,242.533l-8.469-8.469L76.87,246.413,64.52,234.064l-8.467,8.469L68.4,254.882,56.053,267.231,64.52,275.7,76.87,263.349,89.219,275.7l8.469-8.467L85.338,254.882Z" transform="translate(-56.053 -234.064)" fill="#c3cfd9"/>
          <path id="Trazado_26" data-name="Trazado 26" d="M97.688,296.984l-8.469-8.469L76.87,300.864,64.52,288.515l-8.467,8.469L68.4,309.333,56.053,321.682l8.467,8.468L76.87,317.8,89.219,330.15l8.469-8.468L85.338,309.333Z" transform="translate(-56.053 -211.35)" fill="#c3cfd9"/>
          <path id="Trazado_27" data-name="Trazado 27" d="M97.688,351.434l-8.469-8.469L76.87,355.314,64.52,342.965l-8.467,8.469L68.4,363.783,56.053,376.132,64.52,384.6,76.87,372.25,89.219,384.6l8.469-8.468L85.338,363.783Z" transform="translate(-56.053 -188.636)" fill="#c3cfd9"/>
        </g>
        <g id="Grupo_895789" data-name="Grupo 895789" transform="translate(1183.756 4198.07)" opacity="0.49">
          <g id="Grupo_68" data-name="Grupo 68" transform="translate(123.187 0)">
            <g id="Grupo_67" data-name="Grupo 67" transform="translate(0)">
              <rect id="Rectángulo_193" data-name="Rectángulo 193" width="4.926" height="4.926" transform="translate(150.091 153.574) rotate(-44.999)" fill="#fecb2f"/>
              <rect id="Rectángulo_194" data-name="Rectángulo 194" width="4.675" height="4.675" transform="translate(136.446 139.752) rotate(-45)" fill="#fecb2f"/>
              <rect id="Rectángulo_195" data-name="Rectángulo 195" width="4.424" height="4.424" transform="translate(122.802 125.93) rotate(-45)" fill="#fecb2f"/>
              <rect id="Rectángulo_196" data-name="Rectángulo 196" width="4.174" height="4.174" transform="matrix(0.707, -0.707, 0.707, 0.707, 109.157, 112.108)" fill="#fecb2f"/>
              <rect id="Rectángulo_197" data-name="Rectángulo 197" width="3.923" height="3.923" transform="translate(95.513 98.286) rotate(-45)" fill="#fecb2f"/>
              <rect id="Rectángulo_198" data-name="Rectángulo 198" width="3.672" height="3.672" transform="matrix(0.707, -0.707, 0.707, 0.707, 81.868, 84.464)" fill="#fecb2f"/>
              <rect id="Rectángulo_199" data-name="Rectángulo 199" width="3.421" height="3.421" transform="translate(68.223 70.642) rotate(-45)" fill="#fecb2f"/>
              <rect id="Rectángulo_200" data-name="Rectángulo 200" width="3.17" height="3.17" transform="translate(54.579 56.82) rotate(-45.001)" fill="#fecb2f"/>
              <rect id="Rectángulo_201" data-name="Rectángulo 201" width="2.92" height="2.92" transform="translate(40.934 42.998) rotate(-45)" fill="#fecb2f"/>
              <rect id="Rectángulo_202" data-name="Rectángulo 202" width="2.669" height="2.669" transform="matrix(0.707, -0.707, 0.707, 0.707, 27.289, 29.176)" fill="#fecb2f"/>
              <rect id="Rectángulo_203" data-name="Rectángulo 203" width="2.418" height="2.418" transform="translate(13.645 15.354) rotate(-45)" fill="#fecb2f"/>
              <rect id="Rectángulo_204" data-name="Rectángulo 204" width="2.167" height="2.167" transform="matrix(0.707, -0.707, 0.707, 0.707, 0, 1.532)" fill="#fecb2f"/>
            </g>
          </g>
          <g id="Grupo_70" data-name="Grupo 70" transform="translate(111.988 11.199)">
            <g id="Grupo_69" data-name="Grupo 69" transform="translate(0 0)">
              <rect id="Rectángulo_205" data-name="Rectángulo 205" width="4.926" height="4.926" transform="translate(150.091 153.574) rotate(-44.999)" fill="#fecb2f"/>
              <rect id="Rectángulo_206" data-name="Rectángulo 206" width="4.675" height="4.675" transform="translate(136.447 139.752) rotate(-45)" fill="#fecb2f"/>
              <rect id="Rectángulo_207" data-name="Rectángulo 207" width="4.424" height="4.424" transform="translate(122.802 125.93) rotate(-44.999)" fill="#fecb2f"/>
              <rect id="Rectángulo_208" data-name="Rectángulo 208" width="4.174" height="4.174" transform="translate(109.157 112.108) rotate(-45)" fill="#fecb2f"/>
              <rect id="Rectángulo_209" data-name="Rectángulo 209" width="3.923" height="3.923" transform="translate(95.513 98.286) rotate(-45)" fill="#fecb2f"/>
              <rect id="Rectángulo_210" data-name="Rectángulo 210" width="3.672" height="3.672" transform="translate(81.868 84.464) rotate(-45)" fill="#fecb2f"/>
              <rect id="Rectángulo_211" data-name="Rectángulo 211" width="3.421" height="3.421" transform="translate(68.223 70.642) rotate(-45)" fill="#fecb2f"/>
              <rect id="Rectángulo_212" data-name="Rectángulo 212" width="3.17" height="3.17" transform="translate(54.579 56.82) rotate(-45)" fill="#fecb2f"/>
              <rect id="Rectángulo_213" data-name="Rectángulo 213" width="2.92" height="2.92" transform="translate(40.934 42.998) rotate(-45)" fill="#fecb2f"/>
              <rect id="Rectángulo_214" data-name="Rectángulo 214" width="2.669" height="2.669" transform="translate(27.289 29.176) rotate(-45)" fill="#fecb2f"/>
              <rect id="Rectángulo_215" data-name="Rectángulo 215" width="2.418" height="2.418" transform="translate(13.645 15.354) rotate(-45)" fill="#fecb2f"/>
              <rect id="Rectángulo_216" data-name="Rectángulo 216" width="2.167" height="2.167" transform="matrix(0.707, -0.707, 0.707, 0.707, 0, 1.532)" fill="#fecb2f"/>
            </g>
          </g>
          <g id="Grupo_72" data-name="Grupo 72" transform="translate(100.789 22.398)">
            <g id="Grupo_71" data-name="Grupo 71" transform="translate(0 0)">
              <rect id="Rectángulo_217" data-name="Rectángulo 217" width="4.926" height="4.926" transform="translate(150.091 153.574) rotate(-44.999)" fill="#fecb2f"/>
              <rect id="Rectángulo_218" data-name="Rectángulo 218" width="4.675" height="4.675" transform="translate(136.447 139.752) rotate(-44.999)" fill="#fecb2f"/>
              <rect id="Rectángulo_219" data-name="Rectángulo 219" width="4.424" height="4.424" transform="translate(122.802 125.93) rotate(-44.999)" fill="#fecb2f"/>
              <rect id="Rectángulo_220" data-name="Rectángulo 220" width="4.174" height="4.174" transform="matrix(0.707, -0.707, 0.707, 0.707, 109.157, 112.108)" fill="#fecb2f"/>
              <rect id="Rectángulo_221" data-name="Rectángulo 221" width="3.923" height="3.923" transform="translate(95.513 98.286) rotate(-44.999)" fill="#fecb2f"/>
              <rect id="Rectángulo_222" data-name="Rectángulo 222" width="3.672" height="3.672" transform="matrix(0.707, -0.707, 0.707, 0.707, 81.868, 84.464)" fill="#fecb2f"/>
              <rect id="Rectángulo_223" data-name="Rectángulo 223" width="3.421" height="3.421" transform="matrix(0.707, -0.707, 0.707, 0.707, 68.223, 70.642)" fill="#fecb2f"/>
              <rect id="Rectángulo_224" data-name="Rectángulo 224" width="3.17" height="3.17" transform="translate(54.579 56.82) rotate(-44.999)" fill="#fecb2f"/>
              <rect id="Rectángulo_225" data-name="Rectángulo 225" width="2.92" height="2.92" transform="translate(40.934 42.998) rotate(-45)" fill="#fecb2f"/>
              <rect id="Rectángulo_226" data-name="Rectángulo 226" width="2.669" height="2.669" transform="translate(27.289 29.176) rotate(-44.998)" fill="#fecb2f"/>
              <rect id="Rectángulo_227" data-name="Rectángulo 227" width="2.418" height="2.418" transform="translate(13.645 15.354) rotate(-45)" fill="#fecb2f"/>
              <rect id="Rectángulo_228" data-name="Rectángulo 228" width="2.167" height="2.167" transform="matrix(0.707, -0.707, 0.707, 0.707, 0, 1.532)" fill="#fecb2f"/>
            </g>
          </g>
          <g id="Grupo_74" data-name="Grupo 74" transform="translate(89.59 33.596)">
            <g id="Grupo_73" data-name="Grupo 73" transform="translate(0 0)">
              <rect id="Rectángulo_229" data-name="Rectángulo 229" width="4.926" height="4.926" transform="translate(150.091 153.574) rotate(-45.001)" fill="#fecb2f"/>
              <rect id="Rectángulo_230" data-name="Rectángulo 230" width="4.675" height="4.675" transform="translate(136.446 139.752) rotate(-45.001)" fill="#fecb2f"/>
              <rect id="Rectángulo_231" data-name="Rectángulo 231" width="4.424" height="4.424" transform="translate(122.802 125.93) rotate(-45)" fill="#fecb2f"/>
              <rect id="Rectángulo_232" data-name="Rectángulo 232" width="4.174" height="4.174" transform="matrix(0.707, -0.707, 0.707, 0.707, 109.157, 112.108)" fill="#fecb2f"/>
              <rect id="Rectángulo_233" data-name="Rectángulo 233" width="3.923" height="3.923" transform="translate(95.513 98.286) rotate(-45)" fill="#fecb2f"/>
              <rect id="Rectángulo_234" data-name="Rectángulo 234" width="3.672" height="3.672" transform="matrix(0.707, -0.707, 0.707, 0.707, 81.868, 84.464)" fill="#fecb2f"/>
              <rect id="Rectángulo_235" data-name="Rectángulo 235" width="3.421" height="3.421" transform="translate(68.223 70.642) rotate(-45)" fill="#fecb2f"/>
              <rect id="Rectángulo_236" data-name="Rectángulo 236" width="3.17" height="3.17" transform="translate(54.579 56.82) rotate(-45.001)" fill="#fecb2f"/>
              <rect id="Rectángulo_237" data-name="Rectángulo 237" width="2.92" height="2.92" transform="translate(40.934 42.998) rotate(-45)" fill="#fecb2f"/>
              <rect id="Rectángulo_238" data-name="Rectángulo 238" width="2.669" height="2.669" transform="translate(27.289 29.176) rotate(-45)" fill="#fecb2f"/>
              <rect id="Rectángulo_239" data-name="Rectángulo 239" width="2.418" height="2.418" transform="translate(13.645 15.354) rotate(-45)" fill="#fecb2f"/>
              <rect id="Rectángulo_240" data-name="Rectángulo 240" width="2.167" height="2.167" transform="translate(0 1.532) rotate(-44.998)" fill="#fecb2f"/>
            </g>
          </g>
          <g id="Grupo_76" data-name="Grupo 76" transform="translate(78.391 44.795)">
            <g id="Grupo_75" data-name="Grupo 75" transform="translate(0 0)">
              <rect id="Rectángulo_241" data-name="Rectángulo 241" width="4.926" height="4.926" transform="translate(150.091 153.574) rotate(-45.001)" fill="#fecb2f"/>
              <rect id="Rectángulo_242" data-name="Rectángulo 242" width="4.675" height="4.675" transform="translate(136.446 139.752) rotate(-45.001)" fill="#fecb2f"/>
              <rect id="Rectángulo_243" data-name="Rectángulo 243" width="4.424" height="4.424" transform="translate(122.802 125.93) rotate(-45)" fill="#fecb2f"/>
              <rect id="Rectángulo_244" data-name="Rectángulo 244" width="4.174" height="4.174" transform="matrix(0.707, -0.707, 0.707, 0.707, 109.157, 112.108)" fill="#fecb2f"/>
              <rect id="Rectángulo_245" data-name="Rectángulo 245" width="3.923" height="3.923" transform="translate(95.513 98.286) rotate(-45)" fill="#fecb2f"/>
              <rect id="Rectángulo_246" data-name="Rectángulo 246" width="3.672" height="3.672" transform="translate(81.868 84.464) rotate(-45.001)" fill="#fecb2f"/>
              <rect id="Rectángulo_247" data-name="Rectángulo 247" width="3.421" height="3.421" transform="translate(68.223 70.642) rotate(-45)" fill="#fecb2f"/>
              <rect id="Rectángulo_248" data-name="Rectángulo 248" width="3.17" height="3.17" transform="translate(54.579 56.82) rotate(-45.001)" fill="#fecb2f"/>
              <rect id="Rectángulo_249" data-name="Rectángulo 249" width="2.919" height="2.919" transform="translate(40.934 42.998) rotate(-45)" fill="#fecb2f"/>
              <rect id="Rectángulo_250" data-name="Rectángulo 250" width="2.669" height="2.669" transform="matrix(0.707, -0.707, 0.707, 0.707, 27.289, 29.176)" fill="#fecb2f"/>
              <rect id="Rectángulo_251" data-name="Rectángulo 251" width="2.418" height="2.418" transform="translate(13.645 15.354) rotate(-45)" fill="#fecb2f"/>
              <rect id="Rectángulo_252" data-name="Rectángulo 252" width="2.167" height="2.167" transform="matrix(0.707, -0.707, 0.707, 0.707, 0, 1.532)" fill="#fecb2f"/>
            </g>
          </g>
          <g id="Grupo_78" data-name="Grupo 78" transform="translate(67.193 55.994)">
            <g id="Grupo_77" data-name="Grupo 77" transform="translate(0 0)">
              <rect id="Rectángulo_253" data-name="Rectángulo 253" width="4.926" height="4.926" transform="translate(150.091 153.574) rotate(-45)" fill="#fecb2f"/>
              <rect id="Rectángulo_254" data-name="Rectángulo 254" width="4.675" height="4.675" transform="translate(136.447 139.752) rotate(-45)" fill="#fecb2f"/>
              <rect id="Rectángulo_255" data-name="Rectángulo 255" width="4.424" height="4.424" transform="translate(122.802 125.93) rotate(-45.001)" fill="#fecb2f"/>
              <rect id="Rectángulo_256" data-name="Rectángulo 256" width="4.174" height="4.174" transform="matrix(0.707, -0.707, 0.707, 0.707, 109.157, 112.108)" fill="#fecb2f"/>
              <rect id="Rectángulo_257" data-name="Rectángulo 257" width="3.923" height="3.923" transform="matrix(0.707, -0.707, 0.707, 0.707, 95.513, 98.286)" fill="#fecb2f"/>
              <rect id="Rectángulo_258" data-name="Rectángulo 258" width="3.672" height="3.672" transform="matrix(0.707, -0.707, 0.707, 0.707, 81.868, 84.464)" fill="#fecb2f"/>
              <rect id="Rectángulo_259" data-name="Rectángulo 259" width="3.421" height="3.421" transform="translate(68.223 70.642) rotate(-45)" fill="#fecb2f"/>
              <rect id="Rectángulo_260" data-name="Rectángulo 260" width="3.17" height="3.17" transform="translate(54.579 56.82) rotate(-45.001)" fill="#fecb2f"/>
              <rect id="Rectángulo_261" data-name="Rectángulo 261" width="2.92" height="2.92" transform="translate(40.934 42.998) rotate(-45)" fill="#fecb2f"/>
              <rect id="Rectángulo_262" data-name="Rectángulo 262" width="2.669" height="2.669" transform="matrix(0.707, -0.707, 0.707, 0.707, 27.289, 29.176)" fill="#fecb2f"/>
              <rect id="Rectángulo_263" data-name="Rectángulo 263" width="2.418" height="2.418" transform="translate(13.645 15.354) rotate(-45)" fill="#fecb2f"/>
              <rect id="Rectángulo_264" data-name="Rectángulo 264" width="2.167" height="2.167" transform="matrix(0.707, -0.707, 0.707, 0.707, 0, 1.532)" fill="#fecb2f"/>
            </g>
          </g>
          <g id="Grupo_80" data-name="Grupo 80" transform="translate(55.994 67.193)">
            <g id="Grupo_79" data-name="Grupo 79" transform="translate(0 0)">
              <rect id="Rectángulo_265" data-name="Rectángulo 265" width="4.926" height="4.926" transform="translate(150.091 153.574) rotate(-44.999)" fill="#fecb2f"/>
              <rect id="Rectángulo_266" data-name="Rectángulo 266" width="4.675" height="4.675" transform="translate(136.446 139.752) rotate(-45)" fill="#fecb2f"/>
              <rect id="Rectángulo_267" data-name="Rectángulo 267" width="4.424" height="4.424" transform="translate(122.802 125.93) rotate(-44.999)" fill="#fecb2f"/>
              <rect id="Rectángulo_268" data-name="Rectángulo 268" width="4.174" height="4.174" transform="translate(109.157 112.108) rotate(-45)" fill="#fecb2f"/>
              <rect id="Rectángulo_269" data-name="Rectángulo 269" width="3.923" height="3.923" transform="translate(95.512 98.286) rotate(-44.999)" fill="#fecb2f"/>
              <rect id="Rectángulo_270" data-name="Rectángulo 270" width="3.672" height="3.672" transform="matrix(0.707, -0.707, 0.707, 0.707, 81.868, 84.464)" fill="#fecb2f"/>
              <rect id="Rectángulo_271" data-name="Rectángulo 271" width="3.421" height="3.421" transform="matrix(0.707, -0.707, 0.707, 0.707, 68.223, 70.642)" fill="#fecb2f"/>
              <rect id="Rectángulo_272" data-name="Rectángulo 272" width="3.17" height="3.17" transform="translate(54.579 56.82) rotate(-45.001)" fill="#fecb2f"/>
              <rect id="Rectángulo_273" data-name="Rectángulo 273" width="2.92" height="2.92" transform="translate(40.934 42.998) rotate(-45)" fill="#fecb2f"/>
              <rect id="Rectángulo_274" data-name="Rectángulo 274" width="2.669" height="2.669" transform="translate(27.289 29.176) rotate(-45.002)" fill="#fecb2f"/>
              <rect id="Rectángulo_275" data-name="Rectángulo 275" width="2.418" height="2.418" transform="translate(13.645 15.354) rotate(-45)" fill="#fecb2f"/>
              <rect id="Rectángulo_276" data-name="Rectángulo 276" width="2.167" height="2.167" transform="matrix(0.707, -0.707, 0.707, 0.707, 0, 1.532)" fill="#fecb2f"/>
            </g>
          </g>
          <g id="Grupo_82" data-name="Grupo 82" transform="translate(44.795 78.391)">
            <g id="Grupo_81" data-name="Grupo 81" transform="translate(0 0)">
              <rect id="Rectángulo_277" data-name="Rectángulo 277" width="4.926" height="4.926" transform="translate(150.091 153.574) rotate(-44.999)" fill="#fecb2f"/>
              <rect id="Rectángulo_278" data-name="Rectángulo 278" width="4.675" height="4.675" transform="translate(136.446 139.752) rotate(-45)" fill="#fecb2f"/>
              <rect id="Rectángulo_279" data-name="Rectángulo 279" width="4.424" height="4.424" transform="translate(122.802 125.93) rotate(-44.999)" fill="#fecb2f"/>
              <rect id="Rectángulo_280" data-name="Rectángulo 280" width="4.174" height="4.174" transform="translate(109.157 112.108) rotate(-45)" fill="#fecb2f"/>
              <rect id="Rectángulo_281" data-name="Rectángulo 281" width="3.923" height="3.923" transform="translate(95.513 98.286) rotate(-44.999)" fill="#fecb2f"/>
              <rect id="Rectángulo_282" data-name="Rectángulo 282" width="3.672" height="3.672" transform="translate(81.868 84.464) rotate(-45)" fill="#fecb2f"/>
              <rect id="Rectángulo_283" data-name="Rectángulo 283" width="3.421" height="3.421" transform="matrix(0.707, -0.707, 0.707, 0.707, 68.223, 70.642)" fill="#fecb2f"/>
              <rect id="Rectángulo_284" data-name="Rectángulo 284" width="3.17" height="3.17" transform="translate(54.579 56.82) rotate(-45)" fill="#fecb2f"/>
              <rect id="Rectángulo_285" data-name="Rectángulo 285" width="2.92" height="2.92" transform="translate(40.934 42.998) rotate(-45)" fill="#fecb2f"/>
              <rect id="Rectángulo_286" data-name="Rectángulo 286" width="2.669" height="2.669" transform="translate(27.289 29.176) rotate(-45)" fill="#fecb2f"/>
              <rect id="Rectángulo_287" data-name="Rectángulo 287" width="2.418" height="2.418" transform="translate(13.645 15.354) rotate(-45)" fill="#fecb2f"/>
              <rect id="Rectángulo_288" data-name="Rectángulo 288" width="2.167" height="2.167" transform="matrix(0.707, -0.707, 0.707, 0.707, 0, 1.532)" fill="#fecb2f"/>
            </g>
          </g>
          <g id="Grupo_84" data-name="Grupo 84" transform="translate(33.596 89.59)">
            <g id="Grupo_83" data-name="Grupo 83" transform="translate(0 0)">
              <rect id="Rectángulo_289" data-name="Rectángulo 289" width="4.926" height="4.926" transform="translate(150.091 153.574) rotate(-44.999)" fill="#fecb2f"/>
              <rect id="Rectángulo_290" data-name="Rectángulo 290" width="4.675" height="4.675" transform="translate(136.446 139.752) rotate(-44.999)" fill="#fecb2f"/>
              <rect id="Rectángulo_291" data-name="Rectángulo 291" width="4.424" height="4.424" transform="translate(122.802 125.93) rotate(-44.999)" fill="#fecb2f"/>
              <rect id="Rectángulo_292" data-name="Rectángulo 292" width="4.174" height="4.174" transform="matrix(0.707, -0.707, 0.707, 0.707, 109.157, 112.108)" fill="#fecb2f"/>
              <rect id="Rectángulo_293" data-name="Rectángulo 293" width="3.923" height="3.923" transform="translate(95.513 98.286) rotate(-44.999)" fill="#fecb2f"/>
              <rect id="Rectángulo_294" data-name="Rectángulo 294" width="3.672" height="3.672" transform="matrix(0.707, -0.707, 0.707, 0.707, 81.868, 84.464)" fill="#fecb2f"/>
              <rect id="Rectángulo_295" data-name="Rectángulo 295" width="3.421" height="3.421" transform="matrix(0.707, -0.707, 0.707, 0.707, 68.223, 70.642)" fill="#fecb2f"/>
              <rect id="Rectángulo_296" data-name="Rectángulo 296" width="3.17" height="3.17" transform="translate(54.579 56.82) rotate(-44.999)" fill="#fecb2f"/>
              <rect id="Rectángulo_297" data-name="Rectángulo 297" width="2.92" height="2.92" transform="matrix(0.707, -0.707, 0.707, 0.707, 40.934, 42.998)" fill="#fecb2f"/>
              <rect id="Rectángulo_298" data-name="Rectángulo 298" width="2.669" height="2.669" transform="translate(27.289 29.176) rotate(-44.998)" fill="#fecb2f"/>
              <rect id="Rectángulo_299" data-name="Rectángulo 299" width="2.418" height="2.418" transform="translate(13.645 15.354) rotate(-44.998)" fill="#fecb2f"/>
              <rect id="Rectángulo_300" data-name="Rectángulo 300" width="2.167" height="2.167" transform="translate(0 1.532) rotate(-44.998)" fill="#fecb2f"/>
            </g>
          </g>
          <g id="Grupo_86" data-name="Grupo 86" transform="translate(22.398 100.789)">
            <g id="Grupo_85" data-name="Grupo 85" transform="translate(0 0)">
              <rect id="Rectángulo_301" data-name="Rectángulo 301" width="4.926" height="4.926" transform="matrix(0.707, -0.707, 0.707, 0.707, 150.091, 153.574)" fill="#fecb2f"/>
              <rect id="Rectángulo_302" data-name="Rectángulo 302" width="4.675" height="4.675" transform="translate(136.446 139.752) rotate(-45.001)" fill="#fecb2f"/>
              <rect id="Rectángulo_303" data-name="Rectángulo 303" width="4.424" height="4.424" transform="translate(122.802 125.93) rotate(-45.001)" fill="#fecb2f"/>
              <rect id="Rectángulo_304" data-name="Rectángulo 304" width="4.174" height="4.174" transform="matrix(0.707, -0.707, 0.707, 0.707, 109.157, 112.108)" fill="#fecb2f"/>
              <rect id="Rectángulo_305" data-name="Rectángulo 305" width="3.923" height="3.923" transform="translate(95.513 98.286) rotate(-45)" fill="#fecb2f"/>
              <rect id="Rectángulo_306" data-name="Rectángulo 306" width="3.672" height="3.672" transform="translate(81.868 84.464) rotate(-45.001)" fill="#fecb2f"/>
              <rect id="Rectángulo_307" data-name="Rectángulo 307" width="3.421" height="3.421" transform="translate(68.223 70.642) rotate(-45)" fill="#fecb2f"/>
              <rect id="Rectángulo_308" data-name="Rectángulo 308" width="3.17" height="3.17" transform="translate(54.579 56.82) rotate(-45.001)" fill="#fecb2f"/>
              <rect id="Rectángulo_309" data-name="Rectángulo 309" width="2.919" height="2.919" transform="translate(40.934 42.998) rotate(-45)" fill="#fecb2f"/>
              <rect id="Rectángulo_310" data-name="Rectángulo 310" width="2.669" height="2.669" transform="translate(27.289 29.176) rotate(-45)" fill="#fecb2f"/>
              <rect id="Rectángulo_311" data-name="Rectángulo 311" width="2.418" height="2.418" transform="translate(13.645 15.354) rotate(-45)" fill="#fecb2f"/>
              <rect id="Rectángulo_312" data-name="Rectángulo 312" width="2.167" height="2.167" transform="translate(0 1.532) rotate(-45)" fill="#fecb2f"/>
            </g>
          </g>
          <g id="Grupo_88" data-name="Grupo 88" transform="translate(11.199 111.988)">
            <g id="Grupo_87" data-name="Grupo 87" transform="translate(0 0)">
              <rect id="Rectángulo_313" data-name="Rectángulo 313" width="4.926" height="4.926" transform="translate(150.091 153.574) rotate(-45)" fill="#fecb2f"/>
              <rect id="Rectángulo_314" data-name="Rectángulo 314" width="4.675" height="4.675" transform="translate(136.446 139.752) rotate(-45)" fill="#fecb2f"/>
              <rect id="Rectángulo_315" data-name="Rectángulo 315" width="4.424" height="4.424" transform="translate(122.802 125.93) rotate(-45)" fill="#fecb2f"/>
              <rect id="Rectángulo_316" data-name="Rectángulo 316" width="4.174" height="4.174" transform="matrix(0.707, -0.707, 0.707, 0.707, 109.157, 112.108)" fill="#fecb2f"/>
              <rect id="Rectángulo_317" data-name="Rectángulo 317" width="3.923" height="3.923" transform="translate(95.512 98.286) rotate(-45.001)" fill="#fecb2f"/>
              <rect id="Rectángulo_318" data-name="Rectángulo 318" width="3.672" height="3.672" transform="matrix(0.707, -0.707, 0.707, 0.707, 81.868, 84.464)" fill="#fecb2f"/>
              <rect id="Rectángulo_319" data-name="Rectángulo 319" width="3.421" height="3.421" transform="translate(68.223 70.642) rotate(-45)" fill="#fecb2f"/>
              <rect id="Rectángulo_320" data-name="Rectángulo 320" width="3.17" height="3.17" transform="translate(54.578 56.82) rotate(-45.001)" fill="#fecb2f"/>
              <rect id="Rectángulo_321" data-name="Rectángulo 321" width="2.919" height="2.919" transform="translate(40.934 42.998) rotate(-45)" fill="#fecb2f"/>
              <rect id="Rectángulo_322" data-name="Rectángulo 322" width="2.669" height="2.669" transform="matrix(0.707, -0.707, 0.707, 0.707, 27.289, 29.176)" fill="#fecb2f"/>
              <rect id="Rectángulo_323" data-name="Rectángulo 323" width="2.418" height="2.418" transform="translate(13.645 15.354) rotate(-45)" fill="#fecb2f"/>
              <rect id="Rectángulo_324" data-name="Rectángulo 324" width="2.167" height="2.167" transform="matrix(0.707, -0.707, 0.707, 0.707, 0, 1.532)" fill="#fecb2f"/>
            </g>
          </g>
          <g id="Grupo_90" data-name="Grupo 90" transform="translate(0 123.187)">
            <g id="Grupo_89" data-name="Grupo 89" transform="translate(0 0)">
              <rect id="Rectángulo_325" data-name="Rectángulo 325" width="4.926" height="4.926" transform="translate(150.091 153.574) rotate(-45)" fill="#fecb2f"/>
              <rect id="Rectángulo_326" data-name="Rectángulo 326" width="4.675" height="4.675" transform="translate(136.447 139.752) rotate(-45)" fill="#fecb2f"/>
              <rect id="Rectángulo_327" data-name="Rectángulo 327" width="4.424" height="4.424" transform="translate(122.802 125.93) rotate(-45)" fill="#fecb2f"/>
              <rect id="Rectángulo_328" data-name="Rectángulo 328" width="4.174" height="4.174" transform="translate(109.157 112.108) rotate(-45)" fill="#fecb2f"/>
              <rect id="Rectángulo_329" data-name="Rectángulo 329" width="3.923" height="3.923" transform="translate(95.513 98.286) rotate(-45)" fill="#fecb2f"/>
              <rect id="Rectángulo_330" data-name="Rectángulo 330" width="3.672" height="3.672" transform="translate(81.868 84.464) rotate(-45)" fill="#fecb2f"/>
              <rect id="Rectángulo_331" data-name="Rectángulo 331" width="3.421" height="3.421" transform="matrix(0.707, -0.707, 0.707, 0.707, 68.223, 70.642)" fill="#fecb2f"/>
              <rect id="Rectángulo_332" data-name="Rectángulo 332" width="3.17" height="3.17" transform="translate(54.579 56.82) rotate(-45.001)" fill="#fecb2f"/>
              <rect id="Rectángulo_333" data-name="Rectángulo 333" width="2.92" height="2.92" transform="translate(40.934 42.998) rotate(-45.002)" fill="#fecb2f"/>
              <rect id="Rectángulo_334" data-name="Rectángulo 334" width="2.669" height="2.669" transform="translate(27.289 29.176) rotate(-45.002)" fill="#fecb2f"/>
              <rect id="Rectángulo_335" data-name="Rectángulo 335" width="2.418" height="2.418" transform="matrix(0.707, -0.707, 0.707, 0.707, 13.645, 15.354)" fill="#fecb2f"/>
              <rect id="Rectángulo_336" data-name="Rectángulo 336" width="2.167" height="2.167" transform="matrix(0.707, -0.707, 0.707, 0.707, 0, 1.532)" fill="#fecb2f"/>
            </g>
          </g>
        </g>
        <g id="Grupo_895791" data-name="Grupo 895791" transform="translate(241.5 3956.939)" opacity="0.42">
          <path id="Trazado_1" data-name="Trazado 1" d="M99.814-75.2-45.679,70.293q1.01,6.24,2.614,12.265L112.079-72.585Q106.058-74.186,99.814-75.2Z" transform="translate(47.336 76.856)" fill="none" stroke="#f6cd53" stroke-miterlimit="10" stroke-width="1.078"/>
          <path id="Trazado_2" data-name="Trazado 2" d="M111.948-72.715-43.2,82.428q1.533,5.764,3.574,11.306L123.255-69.141Q117.72-71.187,111.948-72.715Z" transform="translate(47.466 76.986)" fill="none" stroke="#f6cd53" stroke-miterlimit="10" stroke-width="1.078"/>
          <path id="Trazado_3" data-name="Trazado 3" d="M159.586-48.491-18.971,130.066c2.263,2.688,4.623,5.291,7.1,7.781L167.367-41.391C164.877-43.867,162.274-46.228,159.586-48.491Z" transform="translate(48.736 78.256)" fill="none" stroke="#f6cd53" stroke-miterlimit="10" stroke-width="1.078"/>
          <path id="Trazado_4" data-name="Trazado 4" d="M151.508-54.647-25.128,121.988q3.072,4.335,6.48,8.4L159.909-48.168Q155.854-51.583,151.508-54.647Z" transform="translate(48.413 77.933)" fill="none" stroke="#f6cd53" stroke-miterlimit="10" stroke-width="1.078"/>
          <path id="Trazado_5" data-name="Trazado 5" d="M133.318-65.12-35.6,103.8c1.582,3.322,3.319,6.553,5.174,9.707L143.025-59.945C139.87-61.8,136.639-63.538,133.318-65.12Z" transform="translate(47.864 77.384)" fill="none" stroke="#f6cd53" stroke-miterlimit="10" stroke-width="1.078"/>
          <path id="Trazado_6" data-name="Trazado 6" d="M142.767-60.2-30.684,113.247q2.734,4.649,5.847,9.033L151.8-54.356Q147.415-57.464,142.767-60.2Z" transform="translate(48.122 77.642)" fill="none" stroke="#f6cd53" stroke-miterlimit="10" stroke-width="1.078"/>
          <path id="Trazado_7" data-name="Trazado 7" d="M123.077-69.319-39.8,93.557q1.978,5.35,4.419,10.461L133.538-64.9Q128.428-67.333,123.077-69.319Z" transform="translate(47.644 77.164)" fill="none" stroke="#f6cd53" stroke-miterlimit="10" stroke-width="1.078"/>
          <path id="Trazado_8" data-name="Trazado 8" d="M-38.97,3.358,32.877-68.489A127.1,127.1,0,0,0-38.97,3.358Z" transform="translate(47.687 77.207)" fill="none" stroke="#f6cd53" stroke-miterlimit="10" stroke-width="1.078"/>
          <path id="Trazado_9" data-name="Trazado 9" d="M33.188-68.179-38.66,3.669a125.636,125.636,0,0,0-6.225,21.106l99.18-99.18A125.686,125.686,0,0,0,33.188-68.179Z" transform="translate(47.377 76.897)" fill="none" stroke="#f6cd53" stroke-miterlimit="10" stroke-width="1.078"/>
          <path id="Trazado_10" data-name="Trazado 10" d="M86.462-76.583-47.064,56.942a127.073,127.073,0,0,0,1.458,13.424L99.886-75.126A127.1,127.1,0,0,0,86.462-76.583Z" transform="translate(47.263 76.783)" fill="none" stroke="#f6cd53" stroke-miterlimit="10" stroke-width="1.078"/>
          <path id="Trazado_11" data-name="Trazado 11" d="M79.5-76.773c-2.683,0-5.339.112-7.982.276L-46.977,42c-.164,2.642-.276,5.3-.276,7.982,0,2.341.074,4.664.2,6.975L86.472-76.573C84.162-76.7,81.838-76.773,79.5-76.773Z" transform="translate(47.253 76.773)" fill="none" stroke="#f6cd53" stroke-miterlimit="10" stroke-width="1.078"/>
          <path id="Trazado_12" data-name="Trazado 12" d="M54.405-74.295l-99.18,99.18a126.8,126.8,0,0,0-2.216,17.1L71.5-76.511A126.979,126.979,0,0,0,54.405-74.295Z" transform="translate(47.267 76.787)" fill="none" stroke="#f6cd53" stroke-miterlimit="10" stroke-width="1.078"/>
          <path id="Trazado_13" data-name="Trazado 13" d="M199.174,23.422,52.941,169.654A126.874,126.874,0,0,0,66.279,171.2L200.717,36.76A126.8,126.8,0,0,0,199.174,23.422Z" transform="translate(52.508 82.028)" fill="none" stroke="#f6cd53" stroke-miterlimit="10" stroke-width="1.078"/>
          <path id="Trazado_14" data-name="Trazado 14" d="M200.327,44.058c0-2.677-.112-5.327-.275-7.963L65.614,170.533c2.636.164,5.286.275,7.963.275,2.293,0,4.569-.068,6.831-.188L200.139,50.889C200.259,48.626,200.327,46.35,200.327,44.058Z" transform="translate(53.173 82.693)" fill="none" stroke="#f6cd53" stroke-miterlimit="10" stroke-width="1.078"/>
          <path id="Trazado_15" data-name="Trazado 15" d="M199.4,50.152,79.671,169.882a126.81,126.81,0,0,0,16.953-2.072L197.329,67.1A127.015,127.015,0,0,0,199.4,50.152Z" transform="translate(53.91 83.43)" fill="none" stroke="#f6cd53" stroke-miterlimit="10" stroke-width="1.078"/>
          <path id="Trazado_16" data-name="Trazado 16" d="M196.485,66.26,95.779,166.965a125.732,125.732,0,0,0,20.646-5.765l74.294-74.293A125.967,125.967,0,0,0,196.485,66.26Z" transform="translate(54.755 84.275)" fill="none" stroke="#f6cd53" stroke-miterlimit="10" stroke-width="1.078"/>
          <path id="Trazado_17" data-name="Trazado 17" d="M189.69,85.877,115.4,160.17A127.108,127.108,0,0,0,189.69,85.877Z" transform="translate(55.784 85.304)" fill="none" stroke="#f6cd53" stroke-miterlimit="10" stroke-width="1.078"/>
          <path id="Trazado_18" data-name="Trazado 18" d="M197.093,11.837,41.357,167.574q5.985,1.636,12.192,2.688L199.782,24.03Q198.732,17.825,197.093,11.837Z" transform="translate(51.9 81.42)" fill="none" stroke="#f6cd53" stroke-miterlimit="10" stroke-width="1.078"/>
          <path id="Trazado_19" data-name="Trazado 19" d="M179.881-26.455,3.065,150.36c2.907,2.086,5.9,4.062,8.979,5.9L185.782-17.476C183.943-20.559,181.966-23.548,179.881-26.455Z" transform="translate(49.892 79.412)" fill="none" stroke="#f6cd53" stroke-miterlimit="10" stroke-width="1.078"/>
          <path id="Trazado_20" data-name="Trazado 20" d="M173.765-34.388-4.869,144.246q4.034,3.435,8.35,6.53L180.3-26.039Q177.2-30.352,173.765-34.388Z" transform="translate(49.476 78.996)" fill="none" stroke="#f6cd53" stroke-miterlimit="10" stroke-width="1.078"/>
          <path id="Trazado_21" data-name="Trazado 21" d="M194.014,1.157,30.676,164.494q5.5,2.078,11.241,3.64L197.653,12.4Q196.087,6.665,194.014,1.157Z" transform="translate(51.34 80.86)" fill="none" stroke="#f6cd53" stroke-miterlimit="10" stroke-width="1.078"/>
          <path id="Trazado_22" data-name="Trazado 22" d="M167.013-41.745-12.225,137.493c2.474,2.49,5.069,4.86,7.742,7.139L174.151-34C171.872-36.676,169.5-39.27,167.013-41.745Z" transform="translate(49.09 78.61)" fill="none" stroke="#f6cd53" stroke-miterlimit="10" stroke-width="1.078"/>
          <path id="Trazado_23" data-name="Trazado 23" d="M190.075-8.746l-169.3,169.3c3.39,1.642,6.872,3.118,10.422,4.458L194.533,1.676C193.193-1.875,191.716-5.357,190.075-8.746Z" transform="translate(50.821 80.341)" fill="none" stroke="#f6cd53" stroke-miterlimit="10" stroke-width="1.078"/>
          <path id="Trazado_24" data-name="Trazado 24" d="M185.334-17.923,11.6,155.814c3.136,1.871,6.353,3.623,9.657,5.222l169.3-169.3C188.957-11.57,187.2-14.786,185.334-17.923Z" transform="translate(50.34 79.86)" fill="none" stroke="#f6cd53" stroke-miterlimit="10" stroke-width="1.078"/>
        </g>
        <path id="Trazado_623844" data-name="Trazado 623844" d="M590.208,46.252,79.479,325.937c-17.426,9.544-46.541,8.372-65.03-2.619h0C-4.039,312.329-4.9,295.684,12.527,286.141L523.256,6.456c17.427-9.543,46.541-8.371,65.029,2.619h0C606.773,20.064,607.634,36.709,590.208,46.252Z" transform="matrix(0.985, -0.174, 0.174, 0.985, 386.207, 4142.062)" fill="none" stroke="#fecb2f" stroke-miterlimit="10" stroke-width="2" opacity="0.09"/>
        <path id="Trazado_623845" data-name="Trazado 623845" d="M400.333,53.666,51.962,413.46a29.759,29.759,0,0,1-43.045,0h0a32.168,32.168,0,0,1,0-44.459L357.286,9.207a29.762,29.762,0,0,1,43.047,0h0A32.173,32.173,0,0,1,400.333,53.666Z" transform="translate(653.22 4015.385) rotate(7)" fill="none" stroke="#fecb2f" stroke-miterlimit="10" stroke-width="2" opacity="0.09"/>
      </g>
    </g>
  </g>
</svg>
