<svg xmlns="http://www.w3.org/2000/svg" width="150" height="150" viewBox="0 0 150 150">
  <g id="Grupo_906585" data-name="Grupo 906585" transform="translate(-542.815 -5136.926)">
    <g id="Grupo_904839" data-name="Grupo 904839" transform="translate(-184.185 1684.926)">
      <g id="Grupo_119596" data-name="Grupo 119596" transform="translate(-0.701 208.372)">
        <circle id="Elipse_5677" data-name="Elipse 5677" cx="75" cy="75" r="75" transform="translate(727.701 3243.628)" fill="#fff"/>
      </g>
    </g>
    <g id="Grupo_904924" data-name="Grupo 904924" transform="translate(-928.883 4970.936)">
      <g id="Grupo_904920" data-name="Grupo 904920" transform="translate(1513.048 190.79)">
        <path id="Trazado_633686" data-name="Trazado 633686" d="M1514.1,195.908c-.339,16-1.438,71.175-.913,90.729a3.677,3.677,0,0,0,3.246,3.8c8.758.335,40.863,1.185,55.188.482,2.984-.146,5.356-2.974,5.418-6.466.3-16.791.955-64.016-.606-85.65a5.07,5.07,0,0,0-4.139-4.915c-9.538-1.116-41.781-3.845-54.157-2.905C1515.906,191.153,1514.157,193.292,1514.1,195.908Z" transform="translate(-1513.048 -190.79)" fill="#21cbae" stroke="#030303" stroke-width="1"/>
        <path id="Trazado_633687" data-name="Trazado 633687" d="M1541.976,241.609c-.471,12.912-1.958,55.866-1.486,71.749a4.229,4.229,0,0,0,3.615,4.334c8.162.559,36.008,1.791,47.979.669a4.757,4.757,0,0,0,3.964-4.768c.607-13.173,2.349-53.169,1.9-68.874a4.7,4.7,0,0,0-3.865-4.776c-8.83-.927-38.419-3.134-48.593-2.485A4.075,4.075,0,0,0,1541.976,241.609Z" transform="translate(-1537.016 -231.583)" fill="#efeff4" stroke="#030303" stroke-width="1"/>
        <path id="Trazado_633688" data-name="Trazado 633688" d="M1716.914,210.38h0a.871.871,0,0,0,.746.921c2.068.127,7.9.485,10.5.662a.882.882,0,0,0,.819-1.1l-.017-.1a.847.847,0,0,0-.7-.744,86.182,86.182,0,0,0-10.591-.565A.868.868,0,0,0,1716.914,210.38Z" transform="translate(-1691.697 -207.126)" fill="#fecb2f" stroke="#030303" stroke-width="1"/>
        <path id="Trazado_633689" data-name="Trazado 633689" d="M1615.524,444.484l-46.071-.951a2.211,2.211,0,0,1-2.189-2.188V428.436a2.213,2.213,0,0,1,2.256-2.188l46.071.4a2.212,2.212,0,0,1,2.216,2.188V442.3A2.214,2.214,0,0,1,1615.524,444.484Z" transform="translate(-1560.558 -397.124)" fill="#b9bcc5"/>
        <path id="Trazado_633690" data-name="Trazado 633690" d="M1611.943,609.78l-45.892-.549a2.3,2.3,0,0,1-2.3-2.275V594.815a2.3,2.3,0,0,1,2.335-2.276l45.892.186A2.3,2.3,0,0,1,1614.3,595v12.5A2.3,2.3,0,0,1,1611.943,609.78Z" transform="translate(-1557.482 -542.846)" fill="#b9bcc5"/>
        <path id="Trazado_633691" data-name="Trazado 633691" d="M1607.934,766.833l-46.011-.7a2.241,2.241,0,0,1-2.23-2.217V754a2.242,2.242,0,0,1,2.282-2.217l46.012.324a2.241,2.241,0,0,1,2.249,2.217v10.287A2.243,2.243,0,0,1,1607.934,766.833Z" transform="translate(-1553.922 -682.396)" fill="#b9bcc5"/>
        <path id="Trazado_633692" data-name="Trazado 633692" d="M1619.879,281.361h-46.2a1.97,1.97,0,0,1-1.981-1.959V265.326a1.971,1.971,0,0,1,2.04-1.958l46.2,1.37a1.969,1.969,0,0,1,1.922,1.958V279.4A1.97,1.97,0,0,1,1619.879,281.361Z" transform="translate(-1564.443 -254.39)" fill="#b9bcc5"/>
      </g>
      <g id="Grupo_904921" data-name="Grupo 904921" transform="translate(1515.394 205.99)">
        <path id="Trazado_633693" data-name="Trazado 633693" d="M1856.722,671.773l23.7,33.05a2.926,2.926,0,0,0,4.262.533l.214-.18a2.72,2.72,0,0,0,.318-3.846l-26.532-31.1Z" transform="translate(-1816.558 -626.123)" fill="#ef3c79" stroke="#0a0a0a" stroke-width="1"/>
        <ellipse id="Elipse_6616" data-name="Elipse 6616" cx="21.86" cy="22.262" rx="21.86" ry="22.262" transform="translate(0 11.788) rotate(-15.641)" fill="#fff" opacity="0.58"/>
        <path id="Trazado_633694" data-name="Trazado 633694" d="M1554.7,365.88a24.328,24.328,0,1,0,16.746-30.412A24.551,24.551,0,0,0,1554.7,365.88Zm43.407-12.152a20.755,20.755,0,1,1-25.68-14.756A20.944,20.944,0,0,1,1598.1,353.729Z" transform="translate(-1551.068 -331.992)" fill="#ef3c79" stroke="#0a0a0a" stroke-width="1"/>
        <path id="Trazado_633695" data-name="Trazado 633695" d="M1598.521,507.448a.064.064,0,0,1-.039.054c-.532.225-1.081.432-1.631.616a.063.063,0,1,1-.04-.12c.546-.183,1.092-.389,1.621-.612a.063.063,0,0,1,.083.034A.065.065,0,0,1,1598.521,507.448Zm-6.6,1.67a.063.063,0,0,1-.057.059,22.3,22.3,0,0,1-4.743-.054,22.784,22.784,0,0,1-12.1-5.307,23.5,23.5,0,0,1-7.286-24.441.064.064,0,0,1,.122.036,23.374,23.374,0,0,0,7.246,24.308A22.654,22.654,0,0,0,1587.14,509a22.17,22.17,0,0,0,4.716.053.064.064,0,0,1,.069.057A.043.043,0,0,1,1591.925,509.118Z" transform="translate(-1562.493 -458.839)" fill="#5c5e61"/>
        <path id="Trazado_633696" data-name="Trazado 633696" d="M2036.978,915.369a2.225,2.225,0,0,1-1.405,2.235,2.186,2.186,0,0,1-2.412-.807l-2.96-3.936a.054.054,0,0,1,.086-.065l2.96,3.936a2.078,2.078,0,0,0,2.293.769c.814-.266,1.263-.995,1.334-2.177h0a.054.054,0,0,1,.107.007C2036.98,915.344,2036.979,915.357,2036.978,915.369Z" transform="translate(-1968.569 -838.67)" fill="#5c5e61"/>
        <path id="Trazado_633697" data-name="Trazado 633697" d="M2020.206,899.414a.054.054,0,0,1-.1.029l-.384-.51a.054.054,0,1,1,.086-.065l.384.51A.054.054,0,0,1,2020.206,899.414Z" transform="translate(-1959.39 -826.464)" fill="#5c5e61"/>
      </g>
      <g id="Grupo_904923" data-name="Grupo 904923" transform="translate(1524.665 214.45)">
        <path id="Trazado_633698" data-name="Trazado 633698" d="M1715.947,395.112a38.491,38.491,0,0,1-3.153-5.363,17.381,17.381,0,0,1-1.1-2.934,7.82,7.82,0,0,1-.255-1.576,3.484,3.484,0,0,1,.27-1.631,2.394,2.394,0,0,1,1.208-1.19,4.091,4.091,0,0,1,1.616-.347,2.617,2.617,0,0,1,1.649.45,2.266,2.266,0,0,1,.856,1.513,4.083,4.083,0,0,1-.1,1.666,3.937,3.937,0,0,1-.726,1.519,1.543,1.543,0,0,1-.809.558.965.965,0,0,1-.593-.057,1.34,1.34,0,0,1-.433-.326,3.958,3.958,0,0,1-.671-1.574.369.369,0,1,1,.715-.185l0,.011,0,.017a3.393,3.393,0,0,0,.49,1.269c.131.141.222.184.336.163a.9.9,0,0,0,.434-.317,3.293,3.293,0,0,0,.614-1.246,3.448,3.448,0,0,0,.113-1.4,1.651,1.651,0,0,0-.6-1.127,2.038,2.038,0,0,0-1.276-.354,2.459,2.459,0,0,0-2.358,1.181,2.984,2.984,0,0,0-.247,1.392,7.348,7.348,0,0,0,.214,1.479,16.952,16.952,0,0,0,1.027,2.873,38.173,38.173,0,0,0,3.028,5.359l0,0a.155.155,0,0,1-.256.175Z" transform="translate(-1698.506 -382.069)" fill="#333435"/>
        <path id="Trazado_633699" data-name="Trazado 633699" d="M1644.87,436.953a38.159,38.159,0,0,0-3.336-5.173,16.952,16.952,0,0,0-2.066-2.245,7.348,7.348,0,0,0-1.21-.878,2.983,2.983,0,0,0-1.347-.428,2.459,2.459,0,0,0-2.142,1.538,2.038,2.038,0,0,0-.28,1.295,1.651,1.651,0,0,0,.72,1.052,3.447,3.447,0,0,0,1.293.552,3.3,3.3,0,0,0,1.389.036.9.9,0,0,0,.482-.237c.072-.091.076-.192.012-.374a3.4,3.4,0,0,0-.9-1.024l-.012-.01a.369.369,0,0,1,.478-.564l.01.008a3.959,3.959,0,0,1,1.081,1.326,1.346,1.346,0,0,1,.087.535.966.966,0,0,1-.225.552,1.544,1.544,0,0,1-.87.457,3.937,3.937,0,0,1-1.682-.063,4.082,4.082,0,0,1-1.521-.685,2.268,2.268,0,0,1-.942-1.461,2.618,2.618,0,0,1,.369-1.67,4.086,4.086,0,0,1,1.059-1.269,2.394,2.394,0,0,1,1.616-.516,3.485,3.485,0,0,1,1.569.52,7.813,7.813,0,0,1,1.277.959,17.4,17.4,0,0,1,2.083,2.343,38.505,38.505,0,0,1,3.281,5.286.155.155,0,0,1-.274.146Z" transform="translate(-1630.541 -422.056)" fill="#333435"/>
        <g id="Grupo_904922" data-name="Grupo 904922" transform="translate(11.605 10.686)">
          <path id="Trazado_633700" data-name="Trazado 633700" d="M1712.438,472.524c-.049-.085-.1-.171-.148-.254-2.451-4.057-5.883-4.6-8.687-2.905s-3.92,4.985-1.469,9.042c.021.035.044.07.066.1A27.7,27.7,0,0,1,1712.438,472.524Z" transform="translate(-1700.782 -468.462)" fill="#0b5999"/>
          <path id="Trazado_633701" data-name="Trazado 633701" d="M1712.245,507.289c2.475,4.008,7.5,7.224,10.279,5.544,2.747-1.66,2.282-7.48-.041-11.531A27.706,27.706,0,0,0,1712.245,507.289Z" transform="translate(-1710.827 -497.24)" fill="#0b5999"/>
        </g>
        <path id="Trazado_633702" data-name="Trazado 633702" d="M1694.562,516.747s3.305,15.409-2.706,16.884S1685.412,526.117,1694.562,516.747Z" transform="translate(-1677.531 -500.088)" fill="#fff" opacity="0.66"/>
        <path id="Trazado_633703" data-name="Trazado 633703" d="M1744.654,506.979s12.1,10.093,16.2,5.458S1757.2,503.237,1744.654,506.979Z" transform="translate(-1727.623 -490.32)" fill="#fff" opacity="0.66"/>
        <path id="Trazado_633704" data-name="Trazado 633704" d="M1752.634,473.825s15.279,3.862,16.971-2.092S1762.329,465.021,1752.634,473.825Z" transform="translate(-1734.616 -456.699)" fill="#fff" opacity="0.66"/>
        <path id="Trazado_633705" data-name="Trazado 633705" d="M1651.269,527.621s-3.688,15.321-9.746,14.05S1638.966,532.109,1651.269,527.621Z" transform="translate(-1634.704 -509.617)" fill="#fff" opacity="0.66"/>
        <path id="Trazado_633706" data-name="Trazado 633706" d="M1697.5,577.538a.367.367,0,0,1-.153.051,2.887,2.887,0,0,1-2.924-1.019c-1.619-2.409,1.412-8.15,1.542-8.393a.369.369,0,1,1,.652.348c-.826,1.549-2.721,5.939-1.581,7.634a2.224,2.224,0,0,0,2.234.7.369.369,0,0,1,.229.683Z" transform="translate(-1683.188 -544.986)" fill="#fff" opacity="0.78"/>
        <path id="Trazado_633707" data-name="Trazado 633707" d="M1747.505,440.206s4.386-8.6,7.295-10.353c3.135-1.894,8.3-.947,10.861-.3a.532.532,0,0,1,.063,1.01A137.468,137.468,0,0,0,1747.505,440.206Z" transform="translate(-1730.121 -422.963)" fill="#fecb2f"/>
        <path id="Trazado_633708" data-name="Trazado 633708" d="M1624.855,518.98s-9.65-.116-12.558,1.642c-3.135,1.895-4.7,6.911-5.317,9.476a.532.532,0,0,0,.865.526A137.453,137.453,0,0,1,1624.855,518.98Z" transform="translate(-1606.964 -502.044)" fill="#fecb2f"/>
        <path id="Trazado_633709" data-name="Trazado 633709" d="M1617.668,535.8a.369.369,0,0,1-.542-.43c.1-.313,2.552-7.657,7.857-7.713a.369.369,0,0,1,.008.739c-4.78.05-7.139,7.131-7.163,7.2A.369.369,0,0,1,1617.668,535.8Z" transform="translate(-1615.853 -509.649)" fill="#f7e57e"/>
      </g>
    </g>
  </g>
</svg>
