<svg xmlns="http://www.w3.org/2000/svg" xmlns:xlink="http://www.w3.org/1999/xlink" width="876.048" height="486.893" viewBox="0 0 876.048 486.893">
  <defs>
    <linearGradient id="linear-gradient" x1="0.5" x2="0.5" y2="1" gradientUnits="objectBoundingBox">
      <stop offset="0" stop-color="#ef3c79"/>
      <stop offset="0.745" stop-color="#a5bbd7"/>
      <stop offset="1" stop-color="#a2c1db"/>
    </linearGradient>
    <linearGradient id="linear-gradient-12" x1="0.5" x2="0.5" y2="1" gradientUnits="objectBoundingBox">
      <stop offset="0" stop-color="#0b5999"/>
      <stop offset="1" stop-color="#ef3c79"/>
    </linearGradient>
  </defs>
  <g id="Grupo_906582" data-name="Grupo 906582" transform="translate(-362.107 -1061.112)">
    <g id="Grupo_905493" data-name="Grupo 905493" transform="translate(-529.135 319.535)">
      <path id="Trazado_634162" data-name="Trazado 634162" d="M2049.884,2310.65h-196.67l58.263,95.091h196.67Z" transform="translate(-781.487 -1275.461)" fill="#08477a" stroke="#fff" stroke-width="1"/>
      <path id="Trazado_634163" data-name="Trazado 634163" d="M3565.728,1882.883H3762.4l58.263-95.091H3623.991Z" transform="translate(-2173.991 -850.307)" fill="#0b5999" stroke="#fff" stroke-width="1"/>
      <path id="Trazado_634164" data-name="Trazado 634164" d="M3886.088,1360.026h196.67l58.263-95.091h-196.67Z" transform="translate(-2434.487 -425.154)" fill="#a2c1db" stroke="#fff" stroke-width="1"/>
      <line id="Línea_398" data-name="Línea 398" x1="0.001" transform="translate(1444.296 1068.382)" fill="#ed1c24" stroke="#fff" stroke-linecap="round" stroke-linejoin="round" stroke-width="1"/>
      <path id="Trazado_634165" data-name="Trazado 634165" d="M1729.525,1787.792h-196.67l58.263,95.091h196.67Z" transform="translate(-520.992 -850.307)" fill="#0b5999" stroke="#fff" stroke-width="1"/>
      <path id="Trazado_634166" data-name="Trazado 634166" d="M3245.368,2405.741h196.67l58.263-95.091h-196.67Z" transform="translate(-1913.495 -1275.461)" fill="#08477a" stroke="#fff" stroke-width="1"/>
      <path id="Trazado_634167" data-name="Trazado 634167" d="M1088.8,742.077H892.135L950.4,837.168h196.67Z" fill="#d0e1f0" stroke="#fff" stroke-width="1"/>
      <path id="Trazado_634168" data-name="Trazado 634168" d="M1409.165,1264.935h-196.67l58.263,95.091h196.67Z" transform="translate(-260.496 -425.154)" fill="#a2c1db" stroke="#fff" stroke-width="1"/>
      <path id="Trazado_634169" data-name="Trazado 634169" d="M4428.035,742.077H4264.71l-58.263,95.091h196.67l58.263-95.091Z" transform="translate(-2694.982)" fill="#d0e1f0" stroke="#fff" stroke-width="1"/>
      <path id="Trazado_634170" data-name="Trazado 634170" d="M2371.249,2833.954a1.3,1.3,0,0,1-.97-.446h-196.7l58.255,95.077h278.84l58.255-95.077h-196.7A1.3,1.3,0,0,1,2371.249,2833.954Z" transform="translate(-1041.983 -1700.615)" fill="#06355c" stroke="#fff" stroke-width="1"/>
    </g>
    <g id="Grupo_905486" data-name="Grupo 905486" transform="translate(525.82 1261.916)">
      <path id="Trazado_634111" data-name="Trazado 634111" d="M2092.913,1873.517a.98.98,0,0,0,0-1.387l-7.21-7.209a.981.981,0,0,0-1.387,0l-6.061,6.063-10.291,10.291-16.354-16.354a.981.981,0,0,0-1.387,0l-9.894,9.893a.981.981,0,0,0,0,1.387l16.354,16.354-12.578,12.578-.014.018a.979.979,0,0,0-.136.175l0,.008a.991.991,0,0,0-.085.2l-.009.021-3.218,10.983a.981.981,0,0,0,1.275,1.2l10.426-3.773a.986.986,0,0,0,.36-.229l12.579-12.579,16.354,16.353a.98.98,0,0,0,1.387,0l9.893-9.893a.98.98,0,0,0,0-1.387l-16.353-16.353,10.291-10.292Zm-50.5,1.99,8.506-8.505,7.207,7.207-.032.026-2.8,2.8a.981.981,0,0,0,1.387,1.388l2.8-2.8.026-.032,3.523,3.523-2.793,2.793a.981.981,0,0,0,1.387,1.387l2.793-2.793,2.161,2.161-8.506,8.505Zm35.342,18.33-2.7,2.7a.981.981,0,0,0,1.387,1.388l2.7-2.7,3.521,3.52-2.664,2.664a.981.981,0,0,0,1.387,1.387l2.664-2.664,3.52,3.52-2.631,2.632a.981.981,0,0,0,1.387,1.387l2.632-2.632,1.877,1.877-8.5,8.505-15.66-15.659,8.506-8.505Zm-26.285,18.351-8.4,3.041,2.414-8.24c.207.06.438.135.686.232a5.811,5.811,0,0,1,2.383,1.625.981.981,0,0,0,1.517-1.245,7.8,7.8,0,0,0-3.283-2.245l-.094-.033,32.259-32.259,5.822,5.821Zm29.156-40.223-.288-.289,4.674-4.675,5.822,5.822-4.674,4.675Z" transform="translate(-2040.041 -1864.633)" fill="url(#linear-gradient)"/>
      <path id="Trazado_634112" data-name="Trazado 634112" d="M2099.445,1920.568a2.659,2.659,0,0,0-1.883.78h0a2.663,2.663,0,0,0,3.767,3.766h0a2.663,2.663,0,0,0-1.884-4.546Zm.5,3.159a.7.7,0,1,1,.205-.5A.695.695,0,0,1,2099.941,1923.726Z" transform="translate(-2088.821 -1912.719)" fill="url(#linear-gradient)"/>
    </g>
    <g id="Grupo_905487" data-name="Grupo 905487" transform="translate(580 1358.121)">
      <path id="Trazado_634118" data-name="Trazado 634118" d="M2344.495,2467.447h1.106v-.126a3.332,3.332,0,0,0,.465-.153,4.172,4.172,0,0,0,.741-.414,5.218,5.218,0,0,1,.637-.412,1.457,1.457,0,0,1,.676-.132,2.832,2.832,0,0,1,1.968.793,18.669,18.669,0,0,1,.681-2.227,5.018,5.018,0,0,0-2.649-.757,3.721,3.721,0,0,0-1.471.279,4.2,4.2,0,0,0-.741.414,5.144,5.144,0,0,1-.636.412,1.29,1.29,0,0,1-.413.116v-8.77l.06-.061h9.384a1.837,1.837,0,0,0,1.835-1.816h0v0l0-.019v-1.095h-.127a3.293,3.293,0,0,0-.152-.463,4.2,4.2,0,0,0-.414-.741,5.079,5.079,0,0,1-.412-.636,1.475,1.475,0,0,1-.132-.679,2.855,2.855,0,0,1,5.71,0,1.535,1.535,0,0,1-.108.623,2.043,2.043,0,0,1-.207.359,6.644,6.644,0,0,0-.579.927,3.68,3.68,0,0,0-.346,1.618v.087a1.88,1.88,0,0,0,.034.332,18.719,18.719,0,0,1,2.263-1.038h0a2.088,2.088,0,0,1,.206-.359,6.547,6.547,0,0,0,.579-.927,3.679,3.679,0,0,0,.345-1.619,5.045,5.045,0,0,0-10.089,0,3.74,3.74,0,0,0,.279,1.472,4.178,4.178,0,0,0,.414.741,5.147,5.147,0,0,1,.413.637,1.322,1.322,0,0,1,.115.411h-9.015a2.242,2.242,0,0,0-2.225,2.006h-.025v9.382h0A1.837,1.837,0,0,0,2344.495,2467.447Z" transform="translate(-2342.668 -2438.102)" fill="url(#linear-gradient)"/>
      <path id="Trazado_634123" data-name="Trazado 634123" d="M2344.917,2615.339l-.06-.062v-8.983a1.353,1.353,0,0,1,.358.091,2.078,2.078,0,0,1,.359.206,6.564,6.564,0,0,0,.926.579,3.674,3.674,0,0,0,1.618.345,5.03,5.03,0,0,0,1.6-.263,18.728,18.728,0,0,1-.158-2.329,2.82,2.82,0,0,1-1.441.4,1.519,1.519,0,0,1-.621-.107,2.06,2.06,0,0,1-.359-.206,6.641,6.641,0,0,0-.927-.579,3.367,3.367,0,0,0-.612-.218v-.127h-1.1a1.836,1.836,0,0,0-1.828,1.807h0v9.382a2.25,2.25,0,0,0,2.249,2.251h9.384a1.781,1.781,0,0,0,.2-.02,18.9,18.9,0,0,1-1.711-2.17Z" transform="translate(-2342.668 -2571.507)" fill="url(#linear-gradient)"/>
      <path id="Trazado_634124" data-name="Trazado 634124" d="M2452.54,2425.085h-15.4a4.2,4.2,0,0,0-3.991,3l-1.482.013-1.395.012a17.355,17.355,0,0,0-5.307-11.323l.983-.983,10.384-10.384,3.444-3.444a1.095,1.095,0,0,0,0-1.548l-4.1-4.1a1.1,1.1,0,0,0-1.548,0l-3.443,3.445-11.762,11.762-1.115,1.115a17.438,17.438,0,0,0-3.59-.66q-.655-.048-1.3-.048a17.383,17.383,0,0,0-17.317,16.1q-.048.656-.048,1.3a17.384,17.384,0,0,0,16.1,17.317q.656.048,1.3.048a17.382,17.382,0,0,0,17.317-16.1c.008-.1.006-.209.012-.313l1.391-.012,1.421-.012a4.2,4.2,0,0,0,4.081,3.215h15.413a1.094,1.094,0,0,0,1.095-1.1l-.054-6.218A1.094,1.094,0,0,0,2452.54,2425.085Zm-17.629-26.43,2.548,2.547-1.9,1.9-2.547-2.547Zm-3.444,3.445,2.548,2.547-18.454,18.455-3.664,1.326.913-3.115a2.642,2.642,0,0,1,.974.7,1.095,1.095,0,0,0,1.692-1.39,4.615,4.615,0,0,0-1.4-1.124Zm-3.376,28.353a15.194,15.194,0,0,1-15.133,14.068q-.567,0-1.142-.042a15.193,15.193,0,0,1-14.068-15.133q0-.567.042-1.141a15.194,15.194,0,0,1,15.133-14.069q.567,0,1.142.042a15.274,15.274,0,0,1,1.946.282l-4.718,4.718-.015.02a1.079,1.079,0,0,0-.152.195l0,.009a1.1,1.1,0,0,0-.1.22l-.01.023-1.829,6.24a1.095,1.095,0,0,0,1.423,1.337l5.656-2.047a1.829,1.829,0,0,0,.777.185h1.11v-.127a3.321,3.321,0,0,0,.465-.153,4.2,4.2,0,0,0,.741-.414,5.156,5.156,0,0,1,.636-.413,1.47,1.47,0,0,1,.677-.132,2.854,2.854,0,0,1,0,5.709,1.537,1.537,0,0,1-.622-.107,2.07,2.07,0,0,1-.359-.206,6.617,6.617,0,0,0-.927-.579,3.378,3.378,0,0,0-.611-.218v-.127h-1.106a1.837,1.837,0,0,0-1.823,1.806h0v9.381l-.058.062h-8.975a1.361,1.361,0,0,1,.091-.358,2.005,2.005,0,0,1,.207-.359,6.617,6.617,0,0,0,.579-.927,3.676,3.676,0,0,0,.345-1.619,5.039,5.039,0,0,0-8.141-3.976,13.9,13.9,0,0,0,.778,2.32,2.935,2.935,0,0,1,.3-.363,2.855,2.855,0,0,1,4.874,2.018,1.524,1.524,0,0,1-.108.621,2.033,2.033,0,0,1-.206.36,6.556,6.556,0,0,0-.579.927,3.683,3.683,0,0,0-.345,1.62v.05a14.01,14.01,0,0,0,2.942,1.874h8.246a2.25,2.25,0,0,0,2.242-2.251V2430.8a1.354,1.354,0,0,1,.358.09,2.073,2.073,0,0,1,.359.206,6.592,6.592,0,0,0,.926.578,3.674,3.674,0,0,0,1.618.345,5.044,5.044,0,1,0,0-10.088,3.928,3.928,0,0,0-.962.116l2.908-2.909.8-.8a15.156,15.156,0,0,1,4.709,10.871v.017l0,.025v.061Q2428.133,2429.878,2428.091,2430.453Zm9.116.85h-.028a2.014,2.014,0,0,1-2.013-2v-.018a2.013,2.013,0,0,1,2-2.013h14.292l.034,4.028Z" transform="translate(-2387.277 -2396.013)" fill="url(#linear-gradient)"/>
    </g>
    <g id="Grupo_905488" data-name="Grupo 905488" transform="translate(754 1459.378)">
      <path id="Trazado_634117" data-name="Trazado 634117" d="M3254.762,3068.988a1.1,1.1,0,0,0,1.548,0l6.548-6.548a1.1,1.1,0,0,0,0-1.548l-6.548-6.548a1.095,1.095,0,1,0-1.548,1.548h0l5.774,5.774-5.774,5.774A1.094,1.094,0,0,0,3254.762,3068.988Z" transform="translate(-3203.159 -3033.25)" fill="url(#linear-gradient)"/>
      <path id="Trazado_634119" data-name="Trazado 634119" d="M3192.332,3045.242a1.1,1.1,0,0,0,1.333-.787l6.211-24.052a1.094,1.094,0,1,0-2.119-.547l-6.211,24.052A1.1,1.1,0,0,0,3192.332,3045.242Z" transform="translate(-3150.082 -3003.739)" fill="url(#linear-gradient)"/>
      <path id="Trazado_634120" data-name="Trazado 634120" d="M3430.989,3042.913a1.1,1.1,0,0,0,1.364-.734h0l1.5-5a11.519,11.519,0,0,1,2.312,6.966,12.616,12.616,0,0,1-3.744,8.913,1.1,1.1,0,0,0,1.549,1.549,14.811,14.811,0,0,0,4.385-10.461,13.73,13.73,0,0,0-2.678-8.2l5.306,1.593a1.095,1.095,0,0,0,.629-2.1l-7.685-2.307a1.094,1.094,0,0,0-1.363.733l-2.309,7.687A1.094,1.094,0,0,0,3430.989,3042.913Z" transform="translate(-3351.404 -3015.587)" fill="url(#linear-gradient)"/>
      <path id="Trazado_634121" data-name="Trazado 634121" d="M3133.3,3068.988a1.095,1.095,0,0,0,1.548-1.548h0l-5.774-5.774,5.774-5.774a1.095,1.095,0,0,0-1.548-1.548l-6.548,6.548a1.1,1.1,0,0,0,0,1.548Z" transform="translate(-3095.192 -3033.25)" fill="url(#linear-gradient)"/>
      <path id="Trazado_634125" data-name="Trazado 634125" d="M2938.331,3045.1a1.1,1.1,0,0,0-1.363.734h0l-1.5,5a11.523,11.523,0,0,1-2.312-6.966,12.617,12.617,0,0,1,3.744-8.913,1.095,1.095,0,0,0-1.548-1.548,14.81,14.81,0,0,0-4.385,10.461,13.726,13.726,0,0,0,2.678,8.2l-5.306-1.593a1.095,1.095,0,1,0-.63,2.1l7.685,2.307a1.1,1.1,0,0,0,1.363-.734l2.309-7.687A1.1,1.1,0,0,0,2938.331,3045.1Z" transform="translate(-2926.927 -3015.589)" fill="url(#linear-gradient)"/>
      <path id="Trazado_634137" data-name="Trazado 634137" d="M3064.089,2921.674a1.1,1.1,0,0,0-.321.774v5.616a22.186,22.186,0,0,0-9.258,5.427l-4.931-2.85a1.1,1.1,0,0,0-1.5.4l-5.216,9.041a1.1,1.1,0,0,0,.4,1.5l5.12,2.957a19.65,19.65,0,0,0,.19,10.363l-5.31,3.065a1.1,1.1,0,0,0-.4,1.5l5.216,9.041a1.095,1.095,0,0,0,1.5.4l5.427-3.137a22.212,22.212,0,0,0,8.762,4.9v6.428a1.1,1.1,0,0,0,1.095,1.095H3075.3a1.1,1.1,0,0,0,1.095-1.095v-6.428a22.21,22.21,0,0,0,8.761-4.9l5.427,3.137a1.1,1.1,0,0,0,1.5-.4l5.217-9.041a1.1,1.1,0,0,0-.4-1.5l-5.31-3.065a19.649,19.649,0,0,0,.189-10.363l5.12-2.957a1.1,1.1,0,0,0,.4-1.5l-5.216-9.041a1.1,1.1,0,0,0-1.5-.4l-4.93,2.85a22.172,22.172,0,0,0-9.257-5.427v-5.616a1.1,1.1,0,0,0-1.095-1.095h-10.441A1.1,1.1,0,0,0,3064.089,2921.674Zm1.869,7.209v-5.341h8.252v5.341a1.1,1.1,0,0,0,.825,1.061,20,20,0,0,1,9.651,5.663,1.093,1.093,0,0,0,1.345.2l4.7-2.72,4.123,7.144-4.884,2.82a1.1,1.1,0,0,0-.512,1.225,20.038,20.038,0,0,1,.733,5.088,19.8,19.8,0,0,1-.939,5.741,1.093,1.093,0,0,0,.5,1.263l5.1,2.944-4.123,7.144-5.176-2.992a1.1,1.1,0,0,0-1.318.17,20.047,20.047,0,0,1-9.205,5.146,1.1,1.1,0,0,0-.826,1.061V2976h-8.252v-6.156a1.092,1.092,0,0,0-.825-1.061,20.041,20.041,0,0,1-9.2-5.146,1.1,1.1,0,0,0-1.319-.17l-5.177,2.992-4.122-7.144,5.1-2.944a1.093,1.093,0,0,0,.5-1.263,19.788,19.788,0,0,1-.938-5.741,19.994,19.994,0,0,1,.733-5.088,1.1,1.1,0,0,0-.512-1.225l-4.885-2.82,4.122-7.144,4.705,2.72a1.094,1.094,0,0,0,1.344-.2,20.013,20.013,0,0,1,9.651-5.663A1.1,1.1,0,0,0,3065.958,2928.883Z" transform="translate(-3024.59 -2921.353)" fill="url(#linear-gradient)"/>
    </g>
    <g id="Grupo_905485" data-name="Grupo 905485" transform="translate(460.486 1162.962)">
      <g id="Grupo_905482" data-name="Grupo 905482" transform="translate(0 0)">
        <path id="Trazado_634110" data-name="Trazado 634110" d="M1944,1459.911a1.1,1.1,0,0,0-1.095,1.095v6.295a1.095,1.095,0,1,0,2.189,0v-6.295A1.1,1.1,0,0,0,1944,1459.911Z" transform="translate(-1909.778 -1440.328)" fill="url(#linear-gradient-12)"/>
        <path id="Trazado_634113" data-name="Trazado 634113" d="M1917.268,1452.8v-8.988a1.095,1.095,0,1,0-2.189,0v8.988a1.095,1.095,0,0,0,2.189,0Z" transform="translate(-1886.311 -1425.826)" fill="url(#linear-gradient-12)"/>
        <path id="Trazado_634114" data-name="Trazado 634114" d="M1888.351,1468.4a1.1,1.1,0,0,0,1.095-1.095v-6.295a1.095,1.095,0,1,0-2.19,0v6.295A1.1,1.1,0,0,0,1888.351,1468.4Z" transform="translate(-1862.844 -1440.328)" fill="url(#linear-gradient-12)"/>
        <path id="Trazado_634115" data-name="Trazado 634115" d="M1859.432,1478.694v3.526a1.095,1.095,0,0,0,2.19,0v-3.526a1.095,1.095,0,0,0-2.19,0Z" transform="translate(-1839.377 -1455.247)" fill="url(#linear-gradient-12)"/>
        <path id="Trazado_634116" data-name="Trazado 634116" d="M1832.7,1484.407a1.1,1.1,0,0,0-1.095,1.095h0v2.459a1.095,1.095,0,0,0,2.19,0V1485.5A1.1,1.1,0,0,0,1832.7,1484.407Z" transform="translate(-1815.911 -1460.989)" fill="url(#linear-gradient-12)"/>
        <path id="Trazado_634122" data-name="Trazado 634122" d="M1970.726,1478.694v3.526a1.095,1.095,0,0,0,2.19,0v-3.526a1.095,1.095,0,0,0-2.19,0Z" transform="translate(-1933.245 -1455.247)" fill="url(#linear-gradient-12)"/>
        <path id="Trazado_634126" data-name="Trazado 634126" d="M1834.148,1370.95l-.007-.007a4.65,4.65,0,0,0-5.585-.715l-2.553-2.509a19.753,19.753,0,0,0,4.954-13.1q0-.464-.022-.928a1.095,1.095,0,1,0-2.187.1h0q.019.413.019.826a17.6,17.6,0,1,1-4.267-11.478h0a17.578,17.578,0,0,1,2.934,4.755,1.095,1.095,0,1,0,2.023-.838,19.756,19.756,0,0,0-3.3-5.347h0a19.784,19.784,0,0,0-27.9-2.071h0a19.785,19.785,0,1,0,25.832,29.974c.129-.111.25-.229.376-.343l2.5,2.455a4.663,4.663,0,0,0,.644,5.863l-.007-.007,12.485,12.485a1.094,1.094,0,0,0,1.555-.007l5-5.089a1.094,1.094,0,0,0-.006-1.542Zm6.7,16.792-11.7-11.7-.007-.007a2.473,2.473,0,0,1,3.466-3.527l11.711,11.711Z" transform="translate(-1781.987 -1334.846)" fill="url(#linear-gradient-12)"/>
        <path id="Trazado_634134" data-name="Trazado 634134" d="M1866.851,1389.27a1.1,1.1,0,0,0-1.094-1.095h-21.583a1.095,1.095,0,0,0,0,2.19h21.583A1.1,1.1,0,0,0,1866.851,1389.27Z" transform="translate(-1825.585 -1379.825)" fill="url(#linear-gradient-12)"/>
        <path id="Trazado_634135" data-name="Trazado 634135" d="M1892.352,1624.166a1.095,1.095,0,0,0,0,2.189h6.228a1.095,1.095,0,0,0,0-2.189Z" transform="translate(-1866.219 -1578.865)" fill="url(#linear-gradient-12)"/>
        <path id="Trazado_634136" data-name="Trazado 634136" d="M1781.876,1429.407h-46.811a1.521,1.521,0,0,1-1.521-1.521v-4.877h40.6a1.095,1.095,0,0,0,0-2.189h-40.6v-28.933a1.521,1.521,0,0,1,1.521-1.521h5.238a1.095,1.095,0,0,0,0-2.19h-5.238a3.712,3.712,0,0,0-3.711,3.711v36a3.711,3.711,0,0,0,3.711,3.711h20.092l-2.325,5.359h-5.426a1.095,1.095,0,0,0,0,2.19h26.388a1.095,1.095,0,0,0,0-2.19h-5.426l-2.325-5.359h15.833a1.095,1.095,0,0,0,0-2.19Zm-26.657,7.549,2.325-5.359h6.112l2.325,5.359Z" transform="translate(-1731.354 -1379.825)" fill="url(#linear-gradient-12)"/>
        <path id="Trazado_634138" data-name="Trazado 634138" d="M2044.9,1390.365h4.763a1.522,1.522,0,0,1,1.521,1.521v23.794a1.095,1.095,0,1,0,2.189,0v-23.794a3.712,3.712,0,0,0-3.711-3.711H2044.9a1.095,1.095,0,1,0,0,2.19Z" transform="translate(-1994.883 -1379.825)" fill="url(#linear-gradient-12)"/>
      </g>
    </g>
    <g id="Grupo_905484" data-name="Grupo 905484" transform="translate(411.941 1068)">
      <path id="Trazado_634127" data-name="Trazado 634127" d="M1530.331,874.849h-10.316a1.095,1.095,0,0,0,0,2.19h10.316a1.095,1.095,0,0,0,0-2.19Z" transform="translate(-1499.638 -864.404)" stroke="#fff" stroke-width="1" fill="url(#linear-gradient-12)"/>
      <path id="Trazado_634128" data-name="Trazado 634128" d="M1453.9,957.967a1.1,1.1,0,0,0-1.095-1.095h-24.709a1.095,1.095,0,1,0,0,2.19H1452.8A1.1,1.1,0,0,0,1453.9,957.967Z" transform="translate(-1422.109 -933.584)" stroke="#fff" stroke-width="1" fill="url(#linear-gradient-12)"/>
      <path id="Trazado_634129" data-name="Trazado 634129" d="M1452.8,915.86h-24.709a1.095,1.095,0,0,0,0,2.19H1452.8a1.095,1.095,0,1,0,0-2.19Z" transform="translate(-1422.109 -898.993)" stroke="#fff" stroke-width="1" fill="url(#linear-gradient-12)"/>
      <path id="Trazado_634130" data-name="Trazado 634130" d="M1428.093,1079.907a1.095,1.095,0,0,0,0,2.19h12.844a1.095,1.095,0,0,0,0-2.19Z" transform="translate(-1422.109 -1037.353)" stroke="#fff" stroke-width="1" fill="url(#linear-gradient-12)"/>
      <path id="Trazado_634131" data-name="Trazado 634131" d="M1447.936,998.978a1.1,1.1,0,0,0-1.095-1.095h-18.748a1.095,1.095,0,1,0,0,2.19h18.748A1.1,1.1,0,0,0,1447.936,998.978Z" transform="translate(-1422.109 -968.173)" stroke="#fff" stroke-width="1" fill="url(#linear-gradient-12)"/>
      <path id="Trazado_634132" data-name="Trazado 634132" d="M1434.726,860.6a1.1,1.1,0,0,0-1.256.905h0l-.271,1.672a2.5,2.5,0,0,1-2.458,2.1,2.527,2.527,0,0,1-.4-.033l-26.955-4.369a2.485,2.485,0,0,1-2.091-2.393h23.164a1.095,1.095,0,0,0,0-2.189H1398.81a.843.843,0,0,1-.842-.841V820.775h9.351a1.095,1.095,0,0,0,1.095-1.095v-9.351h21.009a.844.844,0,0,1,.842.842v17.535a1.095,1.095,0,1,0,2.19,0h0v-9.345l5.183.84a2.5,2.5,0,0,1,2.1,2.458,2.513,2.513,0,0,1-.033.4l-1.011,6.238a1.095,1.095,0,1,0,2.161.35l1.011-6.238a4.673,4.673,0,0,0-1.044-3.771,4.671,4.671,0,0,0-2.83-1.6l-5.534-.9v-5.972a3.032,3.032,0,0,0-3.032-3.031h-22.1a1.071,1.071,0,0,0-.206.021l-.013,0a1.112,1.112,0,0,0-.257.091l-.068.036a1.089,1.089,0,0,0-.229.17L1396.1,818.906a1.077,1.077,0,0,0-.17.229l-.036.068a1.107,1.107,0,0,0-.091.257l0,.014a1.077,1.077,0,0,0-.021.206v35.766a3.032,3.032,0,0,0,3.032,3.031h.29a4.68,4.68,0,0,0,3.933,4.554l26.955,4.369a4.679,4.679,0,0,0,3.771-1.044,4.671,4.671,0,0,0,1.6-2.831l.271-1.672A1.1,1.1,0,0,0,1434.726,860.6Zm-28.5-48.72v6.708h-6.708Z" transform="translate(-1395.778 -808.14)" stroke="#fff" stroke-width="1" fill="url(#linear-gradient-12)"/>
      <path id="Trazado_634133" data-name="Trazado 634133" d="M1447.452,1039.991a1.1,1.1,0,0,0-1.094-1.095h-18.265a1.095,1.095,0,1,0,0,2.19h18.265A1.1,1.1,0,0,0,1447.452,1039.991Z" transform="translate(-1422.109 -1002.764)" stroke="#fff" stroke-width="1" fill="url(#linear-gradient-12)"/>
      <path id="Trazado_634139" data-name="Trazado 634139" d="M1672.829,1026.436h0Z" transform="translate(-1629.448 -992.254)" stroke="#fff" stroke-width="1" fill="url(#linear-gradient-12)"/>
      <path id="Trazado_634140" data-name="Trazado 634140" d="M1586.3,977.526l-1.8-1.039a10.736,10.736,0,0,0,.105-1.449v-.029h0v0h0v-.019h0a10.638,10.638,0,0,0-.106-1.464l1.8-1.039a1.095,1.095,0,0,0,.4-1.5l-2.958-5.124a1.094,1.094,0,0,0-1.5-.4l-1.8,1.038c-.193-.151-.391-.3-.595-.434a10.69,10.69,0,0,0-1.865-1l-.112-.05v-2.075a1.094,1.094,0,0,0-1.095-1.095h-5.917a1.094,1.094,0,0,0-1.095,1.095v2.079l-.145.053a10.761,10.761,0,0,0-2.423,1.43l-1.8-1.039a1.094,1.094,0,0,0-1.5.4l-2.958,5.124a1.094,1.094,0,0,0,.4,1.5l1.8,1.039a10.751,10.751,0,0,0-.106,1.472h0v.052a10.789,10.789,0,0,0,.105,1.442l-1.8,1.039a1.1,1.1,0,0,0-.4,1.5l2.958,5.124a1.1,1.1,0,0,0,1.5.4l1.8-1.038c.193.151.391.3.595.434a10.72,10.72,0,0,0,1.977,1.052v2.074a1.095,1.095,0,0,0,1.095,1.095h5.917a1.095,1.095,0,0,0,1.095-1.095V984.99l.144-.053h0a10.757,10.757,0,0,0,2.424-1.43l1.8,1.039a1.1,1.1,0,0,0,1.5-.4l2.958-5.124A1.1,1.1,0,0,0,1586.3,977.526Zm-4.078-4.341a8.6,8.6,0,0,1,.2,1.816v.007a8.6,8.6,0,0,1-.194,1.816,1.094,1.094,0,0,0,.523,1.179l1.512.873L1582.4,982.1l-1.513-.874a1.1,1.1,0,0,0-1.283.137,8.61,8.61,0,0,1-2.428,1.554h0c-.231.1-.471.186-.721.266a1.094,1.094,0,0,0-.761,1.043v1.746h-3.727v-1.745a1.094,1.094,0,0,0-.761-1.042,8.566,8.566,0,0,1-3.149-1.819,1.094,1.094,0,0,0-1.283-.138l-1.512.873-1.864-3.228,1.513-.873a1.093,1.093,0,0,0,.523-1.179,8.629,8.629,0,0,1-.2-1.819h0a8.6,8.6,0,0,1,.195-1.816,1.094,1.094,0,0,0-.523-1.179l-1.513-.873,1.864-3.227,1.513.874a1.1,1.1,0,0,0,1.283-.137,8.6,8.6,0,0,1,2.428-1.554c.23-.1.471-.186.72-.266a1.094,1.094,0,0,0,.761-1.042v-1.746h3.727v1.745a1.094,1.094,0,0,0,.761,1.043,8.611,8.611,0,0,1,1.178.478,8.466,8.466,0,0,1,1,.58h0a8.616,8.616,0,0,1,.969.761,1.1,1.1,0,0,0,1.283.137l1.512-.873,1.863,3.227-1.512.873A1.094,1.094,0,0,0,1582.224,973.185Z" transform="translate(-1534.965 -937.777)" stroke="#fff" stroke-width="1" fill="url(#linear-gradient-12)"/>
      <path id="Trazado_634141" data-name="Trazado 634141" d="M1682.484,988.8Z" transform="translate(-1637.591 -960.514)" stroke="#fff" stroke-width="1" fill="url(#linear-gradient-12)"/>
      <path id="Trazado_634142" data-name="Trazado 634142" d="M1619.831,1014.92a5.449,5.449,0,0,0-10.652,1.62h0a5.448,5.448,0,0,0,.245,1.62h0a5.457,5.457,0,0,0,6.823,3.584h0l.1-.038a5.43,5.43,0,0,0,3.732-5.165h0a5.443,5.443,0,0,0-.245-1.619Zm-2.2,2.888a3.274,3.274,0,0,1-.845,1.17,3.173,3.173,0,0,1-1.188.675,3.269,3.269,0,0,1-.97.146,3.235,3.235,0,0,1-1.268-.255,3.285,3.285,0,0,1-1.436-1.183,3.234,3.234,0,0,1-.409-.85h0a3.284,3.284,0,0,1,.109-2.238,3.285,3.285,0,0,1,1.183-1.436,3.269,3.269,0,0,1,3.088-.3,3.282,3.282,0,0,1,1.435,1.183h0c.042.063.075.131.113.2a3.235,3.235,0,0,1,.187,2.891Z" transform="translate(-1575.764 -979.314)" stroke="#fff" stroke-width="1" fill="url(#linear-gradient-12)"/>
    </g>
    <g id="Grupo_905491" data-name="Grupo 905491" transform="translate(1078.08 1167.962)">
      <path id="Trazado_634143" data-name="Trazado 634143" d="M4365.47,1489.351a7.788,7.788,0,0,0,.06-3.319l1.552-.9a1.094,1.094,0,0,0,.4-1.5l-2.009-3.48a1.094,1.094,0,0,0-1.5-.4l-1.468.849a9.213,9.213,0,0,0-2.984-1.747v-1.672a1.093,1.093,0,0,0-1.094-1.094h-4.019a1.094,1.094,0,0,0-1.1,1.094v1.672a9.211,9.211,0,0,0-2.983,1.747l-1.468-.849a1.1,1.1,0,0,0-1.5.4l-2.008,3.48a1.1,1.1,0,0,0,.4,1.5l1.552.9a7.809,7.809,0,0,0,.059,3.315l-1.611.93a1.1,1.1,0,0,0-.4,1.5l.526.912a1.093,1.093,0,0,0,2.035-.659,1.08,1.08,0,0,0-.122-.4l1.385-.8a1.094,1.094,0,0,0,.5-1.264,6.961,6.961,0,0,1-.333-2.016,7.068,7.068,0,0,1,.261-1.789,1.1,1.1,0,0,0-.512-1.225l-1.3-.749.914-1.583,1.228.709a1.091,1.091,0,0,0,1.344-.2,7.034,7.034,0,0,1,3.392-1.989,1.1,1.1,0,0,0,.825-1.061v-1.383h1.83v1.383a1.1,1.1,0,0,0,.824,1.061,7.019,7.019,0,0,1,3.391,1.989,1.094,1.094,0,0,0,1.346.2l1.227-.709.915,1.583-1.3.749a1.1,1.1,0,0,0-.513,1.225,6.251,6.251,0,0,1-.072,3.8,1.093,1.093,0,0,0,.5,1.264l.684.4a1.093,1.093,0,0,0,1.127-1.873Z" transform="translate(-4340.868 -1462.328)" fill="url(#linear-gradient-12)"/>
      <path id="Trazado_634145" data-name="Trazado 634145" d="M4321.542,1431.6h19.717l-2.326,5.359h-5.426a1.095,1.095,0,0,0,0,2.19H4359.9a1.095,1.095,0,0,0,0-2.19h-5.426l-2.325-5.359h19.716a4.087,4.087,0,0,0,4.086-4.086v-5.6h0v-29.652a4.087,4.087,0,0,0-4.086-4.087h-50.319a4.088,4.088,0,0,0-4.086,4.087v35.249A4.087,4.087,0,0,0,4321.542,1431.6Zm19.778,5.359,2.325-5.359h6.113l2.325,5.359Zm-21.675-44.694a1.9,1.9,0,0,1,1.9-1.9h50.319a1.9,1.9,0,0,1,1.9,1.9v28.558h-54.113Zm0,30.747h54.113v4.5a1.9,1.9,0,0,1-1.9,1.9h-50.319a1.9,1.9,0,0,1-1.9-1.9Z" transform="translate(-4317.455 -1388.175)" fill="url(#linear-gradient-12)"/>
      <path id="Trazado_634146" data-name="Trazado 634146" d="M4478.452,1626.356h6.228a1.095,1.095,0,1,0,0-2.189h-6.228a1.095,1.095,0,0,0,0,2.189Z" transform="translate(-4452.32 -1587.214)" fill="url(#linear-gradient-12)"/>
      <path id="Trazado_634150" data-name="Trazado 634150" d="M4509.181,1438.28l-2.665-4.618a1.1,1.1,0,0,0-1.5-.4l-2.167,1.253a11.867,11.867,0,0,0-4.276-2.506v-2.468a1.095,1.095,0,0,0-1.094-1.095h-5.334a1.095,1.095,0,0,0-1.094,1.095v2.468a11.865,11.865,0,0,0-4.277,2.506l-2.167-1.253a1.095,1.095,0,0,0-1.5.4l-2.664,4.618a1.094,1.094,0,0,0,.4,1.495l2.278,1.315a10.275,10.275,0,0,0,.083,4.764l-2.362,1.363a1.094,1.094,0,0,0-.4,1.5l.383.666a1.09,1.09,0,0,0,2.012-.784l2.189-1.264a1.094,1.094,0,0,0,.5-1.264,9.588,9.588,0,0,1-.457-2.778,9.727,9.727,0,0,1,.356-2.464,1.1,1.1,0,0,0-.511-1.225l-2.031-1.173,1.569-2.721,1.94,1.121a1.092,1.092,0,0,0,1.344-.2,9.691,9.691,0,0,1,4.673-2.741,1.1,1.1,0,0,0,.824-1.061v-2.193h3.145v2.193a1.1,1.1,0,0,0,.825,1.061,9.689,9.689,0,0,1,4.672,2.741,1.092,1.092,0,0,0,1.344.2l1.939-1.121,1.571,2.721-2.032,1.173a1.1,1.1,0,0,0-.512,1.225,9.687,9.687,0,0,1,.358,2.464,9.573,9.573,0,0,1-.458,2.778,1.094,1.094,0,0,0,.5,1.264l2.143,1.236-.947,1.64a1.082,1.082,0,0,0-.14.463,1.092,1.092,0,0,0,2.037.631h0l1.493-2.588a1.1,1.1,0,0,0-.4-1.5l-2.361-1.363a10.3,10.3,0,0,0,.083-4.764l2.278-1.315A1.1,1.1,0,0,0,4509.181,1438.28Z" transform="translate(-4454.803 -1422.139)" fill="url(#linear-gradient-12)"/>
    </g>
    <g id="Grupo_905492" data-name="Grupo 905492" transform="translate(1137.572 1068)">
      <path id="Trazado_634151" data-name="Trazado 634151" d="M4893.107,1022.947H4879.7a1.095,1.095,0,1,0,0,2.19h13.407a1.108,1.108,0,0,0,1.1-1.1A1.1,1.1,0,0,0,4893.107,1022.947Z" transform="translate(-4849.893 -990.275)" stroke="#fff" stroke-width="1" fill="url(#linear-gradient-12)"/>
      <path id="Trazado_634152" data-name="Trazado 634152" d="M4824.552,909.887a1.094,1.094,0,0,0-1.094-1.095h-13.575a1.095,1.095,0,1,0,0,2.19h12.48V938.56h-9.811a1.1,1.1,0,0,0-1.1,1.095v6.658a1.095,1.095,0,0,0,2.19,0h0v-5.563h7.167l-8.261,8.263-.453.453H4791.75V930.9a1.095,1.095,0,0,0-2.19,0h0V950.56a1.1,1.1,0,0,0,1.1,1.095h21.9a1.089,1.089,0,0,0,.214-.022l.09-.027.115-.035.1-.054.087-.047a1.122,1.122,0,0,0,.157-.128l.01-.008,10.905-10.905a1.092,1.092,0,0,0,.171-.233l.032-.058a1.055,1.055,0,0,0,.095-.268v-.011a1.124,1.124,0,0,0,.021-.2h0Z" transform="translate(-4774.791 -893.994)" stroke="#fff" stroke-width="1" fill="url(#linear-gradient-12)"/>
      <path id="Trazado_634153" data-name="Trazado 634153" d="M4783.919,880.264a6.872,6.872,0,0,0-6.522.634c-.1.064-.186.134-.278.2l1.573,1.572a4.63,4.63,0,0,1,1.154-.549,4.722,4.722,0,0,1,3.221.157l.075.039,1.624-1.624A6.766,6.766,0,0,0,4783.919,880.264Z" transform="translate(-4764.297 -869.477)" stroke="#fff" stroke-width="1" fill="url(#linear-gradient-12)"/>
      <path id="Trazado_634154" data-name="Trazado 634154" d="M4716.884,848.214a1.1,1.1,0,0,0,.32-.774v-3.012c.137-.052.277-.094.412-.152a13.918,13.918,0,0,0,3.325-2.006l2.609,1.507a1.095,1.095,0,0,0,1.5-.4l3.931-6.809a1.1,1.1,0,0,0-.4-1.5l-2.6-1.5a13.964,13.964,0,0,0,.17-2.132v-.056h0a13.76,13.76,0,0,0-.171-2.136l2.6-1.5a1.094,1.094,0,0,0,.4-1.5l-3.244-5.619,2.682-2.681a1.095,1.095,0,0,0-1.549-1.548h0l-15.189,15.188-5.165-5.165a1.095,1.095,0,0,0-1.548,1.548l.844.844a6.863,6.863,0,0,0-.509,2.592h0a6.879,6.879,0,0,0,.31,2.046h0a6.879,6.879,0,0,0,10.417,3.66h0a6.861,6.861,0,0,0,3.033-5.705h0a6.886,6.886,0,0,0-.309-2.045h0a6.813,6.813,0,0,0-.522-1.227l5.9-5.9,2.4,4.163-2.322,1.34a1.094,1.094,0,0,0-.523,1.179,11.758,11.758,0,0,1,.268,2.489v.011a11.762,11.762,0,0,1-.267,2.487,1.094,1.094,0,0,0,.523,1.179l2.321,1.34-2.836,4.913-2.323-1.341a1.1,1.1,0,0,0-1.284.138,11.792,11.792,0,0,1-3.327,2.13c-.317.134-.647.255-.987.364a1.093,1.093,0,0,0-.761,1.042v2.68h-5.673v-2.679a1.094,1.094,0,0,0-.761-1.043,11.737,11.737,0,0,1-2.988-1.45,11.891,11.891,0,0,1-1.328-1.043,1.1,1.1,0,0,0-1.283-.138l-2.321,1.34-2.836-4.913,2.321-1.34a1.094,1.094,0,0,0,.522-1.179,11.862,11.862,0,0,1-.268-2.493h0v0a11.79,11.79,0,0,1,.268-2.49,1.093,1.093,0,0,0-.523-1.179l-2.32-1.34,2.836-4.912,2.323,1.341a1.093,1.093,0,0,0,1.282-.137,11.791,11.791,0,0,1,3.328-2.13c.318-.135.647-.255.987-.364a1.094,1.094,0,0,0,.761-1.042v-2.68h5.673v2.679a1.1,1.1,0,0,0,.761,1.043,11.708,11.708,0,0,1,2.988,1.45h0c.157.107.308.222.46.336l1.566-1.566q-.389-.305-.8-.583h0a13.854,13.854,0,0,0-2.786-1.448v-3.005a1.093,1.093,0,0,0-1.094-1.095h-7.862a1.1,1.1,0,0,0-1.1,1.095v3c-.137.053-.276.105-.412.163a13.939,13.939,0,0,0-3.323,2.006l-2.61-1.507a1.094,1.094,0,0,0-1.5.4l-3.931,6.809a1.094,1.094,0,0,0,.4,1.5l2.6,1.5a13.81,13.81,0,0,0-.169,2.144h0v.014h0v.034a14.01,14.01,0,0,0,.17,2.131l-2.6,1.5a1.1,1.1,0,0,0-.4,1.5l3.931,6.809a1.094,1.094,0,0,0,1.5.4l2.6-1.5c.31.25.626.491.957.714a13.884,13.884,0,0,0,2.785,1.447v3.005a1.1,1.1,0,0,0,1.1,1.095h7.862A1.1,1.1,0,0,0,4716.884,848.214Zm-.383-14.981a4.719,4.719,0,0,1-1.7,2.066l.613.907-.613-.907a4.694,4.694,0,0,1-7.1-2.495h0a4.642,4.642,0,0,1-.132-2.23l3.336,3.337a1.095,1.095,0,0,0,1.548,0l4.121-4.12c.028.074.063.145.087.222a4.731,4.731,0,0,1-.157,3.221Z" transform="translate(-4695.233 -814.281)" stroke="#fff" stroke-width="1" fill="url(#linear-gradient-12)"/>
      <path id="Trazado_634155" data-name="Trazado 634155" d="M4848.47,1063.028a1.1,1.1,0,0,0-1.095-1.095h-21.9a1.095,1.095,0,0,0,0,2.19h21.9A1.1,1.1,0,0,0,4848.47,1063.028Z" transform="translate(-4804.161 -1023.155)" stroke="#fff" stroke-width="1" fill="url(#linear-gradient-12)"/>
    </g>
    <g id="Grupo_905490" data-name="Grupo 905490" transform="translate(1011 1260.478)">
      <path id="Trazado_634144" data-name="Trazado 634144" d="M4177.407,1835.214l3.233,1.866a12.849,12.849,0,0,0,.118,6.591l-3.351,1.934a.89.89,0,0,0-.326,1.218l.49.85a.892.892,0,0,0,1.545-.891l-.046-.079,3.178-1.834a.89.89,0,0,0,.408-1.029,12.739,12.739,0,0,1-.606-3.7,12.912,12.912,0,0,1,.473-3.277.891.891,0,0,0-.417-1l-3.037-1.753,2.515-4.358,2.918,1.687a.891.891,0,0,0,1.1-.16,12.89,12.89,0,0,1,6.216-3.647.894.894,0,0,0,.671-.864v-3.31h5.035v3.31a.893.893,0,0,0,.671.864,12.885,12.885,0,0,1,6.215,3.647.89.89,0,0,0,1.095.16l2.919-1.687,2.515,4.358-3.035,1.753a.891.891,0,0,0-.417,1,12.917,12.917,0,0,1,.473,3.278,12.739,12.739,0,0,1-.606,3.7.89.89,0,0,0,.408,1.029l3.177,1.834-2.96,5.131a.891.891,0,1,0,1.544.891h0l3.406-5.9a.891.891,0,0,0-.327-1.218l-3.35-1.934a12.863,12.863,0,0,0,.118-6.591l3.232-1.866a.891.891,0,0,0,.327-1.217l-3.406-5.9a.892.892,0,0,0-1.218-.326l-3.1,1.794a14.646,14.646,0,0,0-5.9-3.455v-3.534a.89.89,0,0,0-.891-.891h-6.817a.891.891,0,0,0-.891.891v3.534a14.653,14.653,0,0,0-5.9,3.455l-3.1-1.794a.892.892,0,0,0-1.219.326l-3.4,5.9A.891.891,0,0,0,4177.407,1835.214Z" transform="translate(-4151.269 -1821.68)" fill="url(#linear-gradient)"/>
      <path id="Trazado_634147" data-name="Trazado 634147" d="M4269.466,1935.014a.892.892,0,0,0,1.147.522l2.526-.946a.891.891,0,0,0,.522-1.148l-.946-2.524a.891.891,0,0,0-1.669.625h0l.049.131a3.869,3.869,0,0,1,1.912-6.3.891.891,0,0,0-.455-1.723,5.651,5.651,0,0,0-1.954,9.982l-.61.229A.892.892,0,0,0,4269.466,1935.014Z" transform="translate(-4231.005 -1910.63)" fill="url(#linear-gradient)"/>
      <path id="Trazado_634148" data-name="Trazado 634148" d="M3977.148,2060.555h6.745a1.425,1.425,0,0,0,1.423-1.406h0v-.081a2.8,2.8,0,0,0-.208-1.1,3.164,3.164,0,0,0-.308-.552,3.711,3.711,0,0,1-.288-.444.949.949,0,0,1-.085-.442,1.948,1.948,0,0,1,3.9,0,.993.993,0,0,1-.069.406,1.415,1.415,0,0,1-.138.24,4.831,4.831,0,0,0-.425.68,2.751,2.751,0,0,0-.258,1.209v.062a1.413,1.413,0,0,0,1.216,1.4.9.9,0,0,0,.186.021h6.744a.877.877,0,0,0,.183-.019,1.345,1.345,0,0,1,1.311.019h6.745a1.424,1.424,0,0,0,1.423-1.408h0v0l0-.013,0-.009v-.053a2.792,2.792,0,0,0-.209-1.1,3.1,3.1,0,0,0-.307-.552,3.648,3.648,0,0,1-.288-.444.951.951,0,0,1-.085-.442,1.948,1.948,0,0,1,3.9,0,.987.987,0,0,1-.07.406,1.367,1.367,0,0,1-.138.24,4.793,4.793,0,0,0-.424.68,2.755,2.755,0,0,0-.259,1.209v.062a1.413,1.413,0,0,0,1.217,1.4.9.9,0,0,0,.186.021h6.744a.883.883,0,0,0,.183-.019,1.389,1.389,0,0,1,1.544.019h6.745a1.424,1.424,0,0,0,1.423-1.406h0v-.006l0-.013v-.062a2.792,2.792,0,0,0-.209-1.1,3.088,3.088,0,0,0-.307-.552,3.69,3.69,0,0,1-.289-.444.954.954,0,0,1-.085-.442,1.948,1.948,0,0,1,3.9,0,.988.988,0,0,1-.069.406,1.4,1.4,0,0,1-.138.24,4.79,4.79,0,0,0-.424.68,2.751,2.751,0,0,0-.258,1.209v.062a1.413,1.413,0,0,0,1.216,1.4.9.9,0,0,0,.186.021h6.744a.917.917,0,0,0,.183-.019,1.716,1.716,0,0,0,1.533-1.7V2052.5a1.034,1.034,0,0,1,.113.037,1.376,1.376,0,0,1,.24.138,4.8,4.8,0,0,0,.68.424,2.743,2.743,0,0,0,1.208.259,3.73,3.73,0,1,0,0-7.46,2.785,2.785,0,0,0-1.1.209,3.137,3.137,0,0,0-.551.308,3.746,3.746,0,0,1-.443.289.927.927,0,0,1-.148.052V2040.4a.889.889,0,0,0-.115-.428,1.711,1.711,0,0,0-1.423-1.1.869.869,0,0,0-.177-.018h-6.331a.991.991,0,0,1,.036-.111,1.356,1.356,0,0,1,.139-.24,4.81,4.81,0,0,0,.424-.68,2.756,2.756,0,0,0,.258-1.209,3.731,3.731,0,0,0-7.461,0,2.792,2.792,0,0,0,.209,1.1,3.119,3.119,0,0,0,.307.551,3.7,3.7,0,0,1,.289.444.894.894,0,0,1,.052.146h-6.355a1.4,1.4,0,0,1-1.549.018.869.869,0,0,0-.177-.018h-6.331a.992.992,0,0,1,.036-.111,1.425,1.425,0,0,1,.139-.24,4.83,4.83,0,0,0,.425-.68,2.76,2.76,0,0,0,.258-1.209,3.73,3.73,0,0,0-7.461,0,2.783,2.783,0,0,0,.209,1.1,3.1,3.1,0,0,0,.307.551,3.688,3.688,0,0,1,.289.444.843.843,0,0,1,.052.146h-6.355a1.35,1.35,0,0,1-1.315.018.871.871,0,0,0-.178-.018h-6.33a.9.9,0,0,1,.036-.111,1.353,1.353,0,0,1,.138-.24,4.833,4.833,0,0,0,.424-.68,2.746,2.746,0,0,0,.258-1.209,3.73,3.73,0,1,0-7.461,0,2.779,2.779,0,0,0,.208,1.1,3.087,3.087,0,0,0,.307.551,3.677,3.677,0,0,1,.288.444.917.917,0,0,1,.052.146h-6.355a1.717,1.717,0,0,0-1.607,1.119.892.892,0,0,0-.114.428v6.744h0a.922.922,0,0,0,.018.176,1.42,1.42,0,0,0,1.4,1.248h.072a2.787,2.787,0,0,0,1.1-.209,3.118,3.118,0,0,0,.551-.307,3.707,3.707,0,0,1,.443-.288.948.948,0,0,1,.441-.085,1.947,1.947,0,1,1,0,3.895,1,1,0,0,1-.406-.069,1.412,1.412,0,0,1-.24-.138,4.83,4.83,0,0,0-.68-.424,2.744,2.744,0,0,0-1.208-.258h-.069a1.422,1.422,0,0,0-1.4,1.217.885.885,0,0,0-.021.187v6.744a1.72,1.72,0,0,0,1.721,1.722Zm40.147-19.919h6.684a1.425,1.425,0,0,0,1.423-1.407h0v-.005l0-.013v-.062a2.79,2.79,0,0,0-.209-1.1,3.154,3.154,0,0,0-.307-.55,3.7,3.7,0,0,1-.289-.444.958.958,0,0,1-.085-.443,1.948,1.948,0,0,1,3.9,0,.993.993,0,0,1-.069.407,1.375,1.375,0,0,1-.138.24,4.858,4.858,0,0,0-.424.68,2.75,2.75,0,0,0-.258,1.208v.063a1.421,1.421,0,0,0,1.216,1.4.883.883,0,0,0,.187.021h6.677v6.508a1.426,1.426,0,0,0,1.414,1.425h.075a2.79,2.79,0,0,0,1.1-.209,3.1,3.1,0,0,0,.551-.308,3.664,3.664,0,0,1,.444-.289.947.947,0,0,1,.441-.085,1.947,1.947,0,1,1,0,3.895,1,1,0,0,1-.406-.069,1.411,1.411,0,0,1-.24-.138,4.788,4.788,0,0,0-.68-.424,2.754,2.754,0,0,0-1.208-.258h-.072a1.421,1.421,0,0,0-1.395,1.215.85.85,0,0,0-.022.188v6.683h-6.264a.978.978,0,0,1,.036-.112,1.426,1.426,0,0,1,.139-.24,4.821,4.821,0,0,0,.424-.68,2.751,2.751,0,0,0,.258-1.208,3.731,3.731,0,0,0-7.461,0,2.791,2.791,0,0,0,.209,1.1,3.14,3.14,0,0,0,.307.551,3.665,3.665,0,0,1,.289.444.843.843,0,0,1,.052.147H4017.3V2052.5a.944.944,0,0,1,.113.036,1.4,1.4,0,0,1,.24.139,4.83,4.83,0,0,0,.68.424,2.744,2.744,0,0,0,1.208.259,3.73,3.73,0,1,0,0-7.46,2.78,2.78,0,0,0-1.1.209,3.118,3.118,0,0,0-.551.307,3.7,3.7,0,0,1-.444.288.889.889,0,0,1-.148.052Zm-20.16,0h6.684a1.425,1.425,0,0,0,1.423-1.407h0v-.005l0-.013,0-.009v-.054a2.787,2.787,0,0,0-.209-1.1,3.108,3.108,0,0,0-.307-.55,3.583,3.583,0,0,1-.288-.444.957.957,0,0,1-.085-.443,1.948,1.948,0,0,1,3.9,0,.992.992,0,0,1-.07.407,1.344,1.344,0,0,1-.138.24,4.885,4.885,0,0,0-.424.68,2.754,2.754,0,0,0-.259,1.208v.063a1.421,1.421,0,0,0,1.216,1.4.884.884,0,0,0,.186.021h6.677v6.508a1.425,1.425,0,0,0,1.413,1.425H4017a2.789,2.789,0,0,0,1.1-.209,3.154,3.154,0,0,0,.551-.307,3.643,3.643,0,0,1,.444-.288.922.922,0,0,1,.393-.083,1.945,1.945,0,0,1,0,3.891.958.958,0,0,1-.356-.066,1.406,1.406,0,0,1-.24-.138,4.854,4.854,0,0,0-.68-.424,2.75,2.75,0,0,0-1.208-.258h-.145a1.422,1.422,0,0,0-1.395,1.215.865.865,0,0,0-.022.188v6.683h-6.264a.979.979,0,0,1,.036-.112,1.447,1.447,0,0,1,.139-.24,4.757,4.757,0,0,0,.424-.68,2.748,2.748,0,0,0,.258-1.208,3.73,3.73,0,0,0-7.461,0,2.782,2.782,0,0,0,.209,1.1,3.125,3.125,0,0,0,.307.551,3.624,3.624,0,0,1,.288.444.824.824,0,0,1,.052.147h-6.293V2052.5a.959.959,0,0,1,.113.036,1.407,1.407,0,0,1,.24.139,4.821,4.821,0,0,0,.68.424,2.746,2.746,0,0,0,1.208.259,3.73,3.73,0,1,0,0-7.46,2.781,2.781,0,0,0-1.1.209,3.114,3.114,0,0,0-.551.307,3.7,3.7,0,0,1-.444.288.894.894,0,0,1-.148.052Zm-19.926,11.865a.921.921,0,0,1,.113.036,1.438,1.438,0,0,1,.24.139,4.749,4.749,0,0,0,.679.424,2.749,2.749,0,0,0,1.208.259,3.73,3.73,0,1,0,0-7.46,2.783,2.783,0,0,0-1.1.209,3.13,3.13,0,0,0-.551.307,3.67,3.67,0,0,1-.443.288.9.9,0,0,1-.148.052v-6.118h6.684a1.425,1.425,0,0,0,1.423-1.407h0v-.081a2.79,2.79,0,0,0-.209-1.1,3.169,3.169,0,0,0-.308-.55,3.643,3.643,0,0,1-.288-.444.955.955,0,0,1-.085-.443,1.948,1.948,0,1,1,3.9,0,1,1,0,0,1-.069.407,1.391,1.391,0,0,1-.138.24,4.925,4.925,0,0,0-.425.68,2.751,2.751,0,0,0-.258,1.208v.063a1.422,1.422,0,0,0,1.216,1.4.89.89,0,0,0,.186.021h6.516v6.508h0a.9.9,0,0,0,.018.176,1.42,1.42,0,0,0,1.4,1.248h.073l.063,0,.023,0H3997a2.785,2.785,0,0,0,1.1-.209,3.069,3.069,0,0,0,.551-.308,3.618,3.618,0,0,1,.444-.289.878.878,0,0,1,.333-.08,1.943,1.943,0,0,1,0,3.885.9.9,0,0,1-.294-.064,1.413,1.413,0,0,1-.24-.138,4.786,4.786,0,0,0-.68-.424,2.753,2.753,0,0,0-1.209-.258h-.072l-.02,0-.069,0h-.069a1.422,1.422,0,0,0-1.4,1.217.887.887,0,0,0-.021.187v6.683h-6.1a.929.929,0,0,1,.037-.112,1.369,1.369,0,0,1,.138-.24,4.779,4.779,0,0,0,.424-.68,2.738,2.738,0,0,0,.258-1.208,3.73,3.73,0,0,0-7.461,0,2.778,2.778,0,0,0,.208,1.1,3.108,3.108,0,0,0,.307.551,3.675,3.675,0,0,1,.288.444.907.907,0,0,1,.052.147h-6.294Z" transform="translate(-3975.427 -2005.959)" fill="url(#linear-gradient)"/>
      <path id="Trazado_634149" data-name="Trazado 634149" d="M3978.157,1930.233l.673,1.166a.891.891,0,1,0,1.543-.891l-.227-.394,2.2-1.273a.89.89,0,0,0,.408-1.029,9.4,9.4,0,0,1-.447-2.723,9.514,9.514,0,0,1,.35-2.415.891.891,0,0,0-.417-1l-2.1-1.211,1.675-2.9,2.009,1.161a.889.889,0,0,0,1.095-.16,9.492,9.492,0,0,1,4.58-2.687.894.894,0,0,0,.67-.864v-2.275h3.354v2.275a.893.893,0,0,0,.671.864,9.489,9.489,0,0,1,4.579,2.687.89.89,0,0,0,1.095.16l2.01-1.161,1.675,2.9-2.1,1.211a.891.891,0,0,0-.417,1,9.514,9.514,0,0,1,.35,2.415,9.4,9.4,0,0,1-.447,2.723.89.89,0,0,0,.408,1.029l.875.505a.891.891,0,0,0,.891-1.544h0l-.28-.162a9.866,9.866,0,0,0,.087-4.751l2.294-1.325a.891.891,0,0,0,.326-1.217l-2.566-4.448a.892.892,0,0,0-1.219-.326l-2.193,1.268a11.261,11.261,0,0,0-4.258-2.494v-2.5a.893.893,0,0,0-.891-.892h-5.138a.891.891,0,0,0-.891.892v2.5a11.272,11.272,0,0,0-4.259,2.494l-2.193-1.268a.891.891,0,0,0-1.218.326l-2.566,4.448a.891.891,0,0,0,.327,1.217l2.294,1.325a9.857,9.857,0,0,0,.086,4.751l-2.381,1.375A.891.891,0,0,0,3978.157,1930.233Z" transform="translate(-3977.705 -1899.575)" fill="url(#linear-gradient)"/>
      <path id="Trazado_634156" data-name="Trazado 634156" d="M4322.481,1924.735a3.846,3.846,0,0,1-1.745,1,.891.891,0,1,0,.456,1.724,5.654,5.654,0,0,0,2.549-9.464,5.544,5.544,0,0,0-.6-.517l.611-.229a.891.891,0,1,0-.625-1.669l-2.525.946a.891.891,0,0,0-.522,1.147l.946,2.525a.892.892,0,0,0,1.67-.625h0l-.049-.131a3.864,3.864,0,0,1-.167,5.291Z" transform="translate(-4276.097 -1903.563)" fill="url(#linear-gradient)"/>
    </g>
    <g id="Grupo_905489" data-name="Grupo 905489" transform="translate(964.248 1358.122)">
      <g id="Grupo_905479" data-name="Grupo 905479" transform="translate(19.512 21.054)">
        <line id="Línea_397" data-name="Línea 397" x1="0.001" transform="translate(0)" fill="#ed1c24"/>
      </g>
      <path id="Trazado_634157" data-name="Trazado 634157" d="M4011.348,2398.811a1.095,1.095,0,0,0,1.548,0l5.085-5.085a1.095,1.095,0,0,0-1.548-1.548h0l-4.311,4.311-1.887-1.887a1.095,1.095,0,0,0-1.548,1.548Z" transform="translate(-3961.403 -2385.901)" fill="url(#linear-gradient)"/>
      <path id="Trazado_634158" data-name="Trazado 634158" d="M3874.488,2457.327a1.1,1.1,0,0,0,1.409.641l3.4-1.274a1.095,1.095,0,0,0,.641-1.409l-1.274-3.4a1.094,1.094,0,1,0-2.05.768h0l.242.646-.124-.109a5.32,5.32,0,0,1,2.4-8.9,1.095,1.095,0,1,0-.559-2.117,7.474,7.474,0,0,0-2.427,13.367l-1.016.381A1.1,1.1,0,0,0,3874.488,2457.327Z" transform="translate(-3847.22 -2428.305)" fill="url(#linear-gradient)"/>
      <path id="Trazado_634159" data-name="Trazado 634159" d="M3710.684,2565.073h9.384a1.837,1.837,0,0,0,1.835-1.816h0v0l0-.018v-1.095h-.127a3.391,3.391,0,0,0-.152-.463,4.174,4.174,0,0,0-.414-.742,5.107,5.107,0,0,1-.412-.637,1.476,1.476,0,0,1-.133-.677,2.855,2.855,0,0,1,5.71,0,1.534,1.534,0,0,1-.107.622,2.075,2.075,0,0,1-.207.359,6.607,6.607,0,0,0-.579.928,3.685,3.685,0,0,0-.345,1.619v.086a1.832,1.832,0,0,0,1.807,1.835v0h9.382a2.25,2.25,0,0,0,2.242-2.25v-8.982a1.329,1.329,0,0,1,.357.09,2.081,2.081,0,0,1,.36.206,6.526,6.526,0,0,0,.927.579,3.676,3.676,0,0,0,1.618.345,5.044,5.044,0,1,0,0-10.088,3.724,3.724,0,0,0-1.472.279,4.22,4.22,0,0,0-.74.414,5.128,5.128,0,0,1-.637.413,1.29,1.29,0,0,1-.412.115v-9.015h-.025a2.241,2.241,0,0,0-2.218-2.005h-8.982a1.35,1.35,0,0,1,.091-.356,2.038,2.038,0,0,1,.207-.359,6.629,6.629,0,0,0,.579-.927,3.678,3.678,0,0,0,.345-1.62,5.045,5.045,0,0,0-10.089,0,3.745,3.745,0,0,0,.279,1.472,4.212,4.212,0,0,0,.414.742,5.175,5.175,0,0,1,.413.637,1.3,1.3,0,0,1,.115.411h-9.015a2.241,2.241,0,0,0-2.224,2.006h-.025v9.382h0a1.838,1.838,0,0,0,1.827,1.836h1.106v-.127a3.3,3.3,0,0,0,.465-.153,4.193,4.193,0,0,0,.741-.413,5.083,5.083,0,0,1,.637-.413,1.458,1.458,0,0,1,.676-.132,2.854,2.854,0,1,1,0,5.709,1.515,1.515,0,0,1-.621-.107,2.037,2.037,0,0,1-.359-.206,6.563,6.563,0,0,0-.926-.579,3.363,3.363,0,0,0-.612-.218v-.127h-1.1a1.836,1.836,0,0,0-1.828,1.807h0v9.382a2.249,2.249,0,0,0,2.249,2.251Zm-.06-11.234a1.352,1.352,0,0,1,.358.091,2.038,2.038,0,0,1,.359.206,6.6,6.6,0,0,0,.926.579,3.684,3.684,0,0,0,1.618.345,5.044,5.044,0,1,0,0-10.088,3.728,3.728,0,0,0-1.472.279,4.224,4.224,0,0,0-.74.413,5.093,5.093,0,0,1-.636.413,1.3,1.3,0,0,1-.413.115v-8.77l.06-.061h9.384a1.836,1.836,0,0,0,1.835-1.816h0v0l0-.018v-1.095h-.127a3.325,3.325,0,0,0-.153-.463,4.206,4.206,0,0,0-.413-.741,5.114,5.114,0,0,1-.412-.637,1.48,1.48,0,0,1-.133-.678,2.855,2.855,0,1,1,5.71,0,1.541,1.541,0,0,1-.107.623,2.1,2.1,0,0,1-.207.36,6.668,6.668,0,0,0-.579.926,3.683,3.683,0,0,0-.345,1.618v.087a1.837,1.837,0,0,0,1.807,1.835v0h9.376l.058.061v9.139a1.838,1.838,0,0,0,1.823,1.837h1.11v-.126a3.386,3.386,0,0,0,.465-.153,4.213,4.213,0,0,0,.741-.414,5.177,5.177,0,0,1,.636-.413,1.466,1.466,0,0,1,.676-.132,2.854,2.854,0,1,1,0,5.709,1.519,1.519,0,0,1-.622-.107,2.072,2.072,0,0,1-.359-.206,6.629,6.629,0,0,0-.927-.579,3.334,3.334,0,0,0-.611-.218v-.127h-1.106a1.836,1.836,0,0,0-1.823,1.806h0v9.382l-.058.062h-8.976a1.337,1.337,0,0,1,.091-.358,2.013,2.013,0,0,1,.206-.36,6.6,6.6,0,0,0,.579-.927,3.673,3.673,0,0,0,.345-1.619,5.045,5.045,0,0,0-10.089,0,3.73,3.73,0,0,0,.279,1.472,4.228,4.228,0,0,0,.413.741,5.154,5.154,0,0,1,.413.637,1.311,1.311,0,0,1,.115.413h-9.015l-.06-.062Z" transform="translate(-3708.435 -2499.77)" fill="url(#linear-gradient)"/>
      <path id="Trazado_634160" data-name="Trazado 634160" d="M3796.788,2370.3l3.253,1.878a16.46,16.46,0,0,0-.225,2.7h0v.051a16.619,16.619,0,0,0,.374,3.462,1.095,1.095,0,0,0,2.14-.462,14.413,14.413,0,0,1-.326-3.039v-.005a14.373,14.373,0,0,1,.325-3.034,1.094,1.094,0,0,0-.523-1.179l-2.977-1.718,3.625-6.278,2.979,1.72a1.1,1.1,0,0,0,1.283-.138,14.374,14.374,0,0,1,4.057-2.6c.388-.165.79-.311,1.2-.444a1.1,1.1,0,0,0,.761-1.042v-3.437h7.249v3.436a1.1,1.1,0,0,0,.761,1.043,14.254,14.254,0,0,1,3.643,1.768c.317.214.623.443.921.681a9.464,9.464,0,0,0,5.074,8.027,1.1,1.1,0,0,0,.009.157,14.365,14.365,0,0,1,.326,3.034v.012a14.375,14.375,0,0,1-.325,3.032,1.093,1.093,0,0,0,.523,1.179l2.977,1.719-3.624,6.278-2.979-1.719a1.1,1.1,0,0,0-1.283.138,14.386,14.386,0,0,1-4.057,2.6c-.388.164-.791.31-1.2.443a1.1,1.1,0,0,0-.761,1.042v3.437h-3.625a1.095,1.095,0,0,0,0,2.189h4.719a1.1,1.1,0,0,0,1.094-1.094v-3.753c.211-.079.421-.16.628-.248a16.508,16.508,0,0,0,4.054-2.473l3.265,1.885a1.1,1.1,0,0,0,1.5-.4l4.719-8.173a1.1,1.1,0,0,0-.4-1.5l-3.253-1.878a16.506,16.506,0,0,0,.224-2.68v-.053h0a16.477,16.477,0,0,0-.172-2.318,9.474,9.474,0,1,0-7.186-11.419,16.425,16.425,0,0,0-3.376-1.724v-3.762a1.1,1.1,0,0,0-1.094-1.095h-9.438a1.1,1.1,0,0,0-1.095,1.095v3.753c-.21.078-.421.16-.629.248a16.538,16.538,0,0,0-4.053,2.472l-3.266-1.885a1.1,1.1,0,0,0-1.5.4l-4.719,8.174A1.1,1.1,0,0,0,3796.788,2370.3Zm5.217,4.575h0Zm27.612-16.731a7.285,7.285,0,1,1-2.134,5.152A7.256,7.256,0,0,1,3829.618,2358.139Z" transform="translate(-3782.492 -2353.816)" fill="url(#linear-gradient)"/>
      <path id="Trazado_634161" data-name="Trazado 634161" d="M3935.167,2433.963a1.094,1.094,0,0,0-1.409-.641l-3.4,1.274a1.094,1.094,0,0,0-.641,1.409l1.273,3.4a1.095,1.095,0,1,0,2.051-.768h0l-.242-.646.125.109a5.32,5.32,0,0,1-2.4,8.9,1.095,1.095,0,0,0,.559,2.117,7.474,7.474,0,0,0,2.427-13.367l1.016-.381A1.1,1.1,0,0,0,3935.167,2433.963Z" transform="translate(-3895.009 -2420.814)" fill="url(#linear-gradient)"/>
    </g>
    <text id="Definición_de_requerimientos" data-name="Definición de requerimientos" transform="translate(467 1119)" fill="#12263f" font-size="15" font-family="Roboto-Black, Roboto" font-weight="800"><tspan x="29.879" y="16">Definición de </tspan><tspan x="15.582" y="31">requerimientos</tspan></text>
    <text id="Análisis_del_sistema" data-name="Análisis del sistema" transform="translate(525 1215)" fill="#12263f" font-size="15" font-family="Roboto-Black, Roboto" font-weight="800"><tspan x="40.514" y="16">Análisis del </tspan><tspan x="65.313" y="31">sistema</tspan></text>
    <text id="Diseño_de_software" data-name="Diseño de software" transform="translate(582 1312)" fill="#fff" font-size="15" font-family="Roboto-Black, Roboto" font-weight="800"><tspan x="52.108" y="16">Diseño de </tspan><tspan x="59.608" y="31">software</tspan></text>
    <text id="Pruebas_de_componentes" data-name="Pruebas de componentes" transform="translate(895 1312)" fill="#fff" font-size="15" font-family="Roboto-Black, Roboto" font-weight="800"><tspan x="0" y="16">Pruebas de </tspan><tspan x="0" y="31">componentes</tspan></text>
    <text id="Pruebas_unitarias" data-name="Pruebas unitarias" transform="translate(843 1407)" fill="#fff" font-size="15" font-family="Roboto-Black, Roboto" font-weight="800"><tspan x="0" y="16">Pruebas </tspan><tspan x="0" y="31">unitarias</tspan></text>
    <text id="Diseño_de_módulos" data-name="Diseño de módulos" transform="translate(639 1407)" fill="#fff" font-size="15" font-family="Roboto-Black, Roboto" font-weight="800"><tspan x="52.108" y="16">Diseño de </tspan><tspan x="60.531" y="31">módulos</tspan></text>
    <text id="Código_" data-name="Código " transform="translate(661 1525)" fill="#fff" font-size="15" font-family="Roboto-Black, Roboto" font-weight="800"><tspan x="114.061" y="16">Código </tspan></text>
    <text id="Pruebas_de_sistema" data-name="Pruebas de sistema" transform="translate(959 1215)" fill="#12263f" font-size="15" font-family="Roboto-Black, Roboto" font-weight="800"><tspan x="0" y="16">Pruebas de </tspan><tspan x="0" y="31">sistema</tspan></text>
    <text id="Pruebas_de_aceptación" data-name="Pruebas de aceptación" transform="translate(1013 1119)" fill="#12263f" font-size="15" font-family="Roboto-Black, Roboto" font-weight="800"><tspan x="0" y="16">Pruebas de </tspan><tspan x="0" y="31">aceptación</tspan></text>
  </g>
</svg>
