<svg xmlns="http://www.w3.org/2000/svg" width="420" height="285" viewBox="0 0 420 285">
  <g id="Grupo_906574" data-name="Grupo 906574" transform="translate(-941.822 -2031)">
    <rect id="Rectángulo_303351" data-name="Rectángulo 303351" width="420" height="285" rx="36" transform="translate(941.822 2031)" fill="#fff"/>
    <g id="Exp-4.-S" transform="translate(527.437 -618.416)">
      <g id="Grupo_904746" data-name="Grupo 904746" transform="translate(499.386 2696.742)">
        <path id="Trazado_633524" data-name="Trazado 633524" d="M629.624,2857.035h-110.2A20.037,20.037,0,0,1,499.386,2837V2716.778a20.036,20.036,0,0,1,20.036-20.036H719.789a20.037,20.037,0,0,1,20.037,20.036V2837a20.04,20.04,0,0,1-11.08,17.928Z" transform="translate(-499.386 -2696.742)" fill="#e8e8e8" stroke="#101010" stroke-width="2"/>
        <path id="Trazado_633525" data-name="Trazado 633525" d="M629.624,2847.018h-110.2a20.038,20.038,0,0,1-20.036-20.037v-110.2a20.036,20.036,0,0,1,20.036-20.036h185.34a20.037,20.037,0,0,1,20.037,20.036v110.2a20.039,20.039,0,0,1-11.08,17.928Z" transform="translate(-497.386 -2696.742)" fill="#f6f6f6"/>
        <path id="Trazado_633526" data-name="Trazado 633526" d="M499.386,2736.815v-20.037a20.036,20.036,0,0,1,20.036-20.036H719.789a20.037,20.037,0,0,1,20.037,20.036v20.037Z" transform="translate(-499.386 -2696.742)" fill="#21cbae" stroke="#101010" stroke-width="2"/>
        <path id="Trazado_633527" data-name="Trazado 633527" d="M724.8,2736.815Z" transform="translate(-499.386 -2696.742)" fill="#21cbae" stroke="#101010" stroke-width="2"/>
        <path id="Trazado_633528" data-name="Trazado 633528" d="M998.4,2735.172H978.361a5.009,5.009,0,0,0,0,10.018H998.4a5.009,5.009,0,1,0,0-10.018Z" transform="translate(-787.93 -2720.145)" fill="#0b5999" fill-rule="evenodd"/>
        <path id="Trazado_633529" data-name="Trazado 633529" d="M579.462,2878.086l-15.028,20.036a5.005,5.005,0,0,0,0,6.011l15.028,20.037a5.009,5.009,0,0,0,8.014-6.011L574.7,2901.128l12.774-17.031a5.009,5.009,0,1,0-8.014-6.011Z" transform="translate(-538.387 -2805.954)" fill="#ef3c79" stroke="#101010" stroke-width="2" fill-rule="evenodd"/>
        <path id="Trazado_633530" data-name="Trazado 633530" d="M705.346,2884.1l12.773,17.031-12.773,17.032a5.009,5.009,0,0,0,8.015,6.011l15.028-20.037a5.01,5.01,0,0,0,0-6.011l-15.028-20.036a5.009,5.009,0,1,0-8.015,6.011Z" transform="translate(-624.198 -2805.954)" fill="#ef3c79" stroke="#101010" stroke-width="2" fill-rule="evenodd"/>
        <path id="Trazado_633531" data-name="Trazado 633531" d="M648.935,2856.792l-15.558,58.062a5.009,5.009,0,0,0,9.677,2.594l15.559-58.062a5.009,5.009,0,0,0-9.677-2.593Z" transform="translate(-580.877 -2791.945)" fill="#ef3c79" stroke="#101010" stroke-width="2" fill-rule="evenodd"/>
        <path id="Trazado_633532" data-name="Trazado 633532" d="M914.675,2999.986h-97.82a10.017,10.017,0,0,1-8.961-14.5l48.909-97.82a10.02,10.02,0,0,1,17.924,0l48.909,97.82A10.017,10.017,0,0,1,914.675,2999.986Z" transform="translate(-686.604 -2809.638)" fill="#fecb2f" stroke="#101010" stroke-width="2"/>
        <path id="Trazado_633534" data-name="Trazado 633534" d="M954.764,2994.3V2944.21a5.009,5.009,0,1,0-10.018,0V2994.3a5.009,5.009,0,1,0,10.018,0Z" transform="translate(-770.594 -2844.39)" fill="#ef3c79" stroke="#101010" stroke-width="2" fill-rule="evenodd"/>
        <path id="Trazado_633535" data-name="Trazado 633535" d="M954.066,3115.2a6.262,6.262,0,1,0-6.261,6.261A6.265,6.265,0,0,0,954.066,3115.2Z" transform="translate(-768.643 -2947.751)" fill="#ef3c79" stroke="#101010" stroke-width="2" fill-rule="evenodd"/>
      </g>
    </g>
  </g>
</svg>
