<svg xmlns="http://www.w3.org/2000/svg" width="200" height="200" viewBox="0 0 200 200">
  <g id="Grupo_906590" data-name="Grupo 906590" transform="translate(-434 -11834)">
    <g id="Grupo_905572" data-name="Grupo 905572" transform="translate(-9.822 10986)">
      <circle id="Elipse_6516" data-name="Elipse 6516" cx="100" cy="100" r="100" transform="translate(443.822 848)" fill="#fff"/>
    </g>
    <g id="Grupo_905656" data-name="Grupo 905656" transform="translate(307.926 9199.398)">
      <g id="Grupo_905577" data-name="Grupo 905577" transform="translate(233.552 2730.053)">
        <g id="Grupo_905573" data-name="Grupo 905573" transform="translate(0.875 0.876)">
          <path id="Trazado_634301" data-name="Trazado 634301" d="M489.891,2893.634l-2.8-.482a2.8,2.8,0,0,1-2.153-1.928,25.681,25.681,0,0,0-2.217-5.3,2.692,2.692,0,0,1,.193-2.892l1.607-2.346a2.784,2.784,0,0,0-.322-3.567l-3.31-3.31a2.784,2.784,0,0,0-3.567-.322l-2.347,1.639a2.756,2.756,0,0,1-2.892.16,25.593,25.593,0,0,0-5.3-2.185,2.711,2.711,0,0,1-1.9-2.185l-.514-2.764a2.82,2.82,0,0,0-2.764-2.314H456.92a2.885,2.885,0,0,0-2.8,2.635l-.45,2.442a2.676,2.676,0,0,1-1.9,2.154,24.969,24.969,0,0,0-5.3,2.217,2.817,2.817,0,0,1-2.924-.16l-2.314-1.639a2.777,2.777,0,0,0-3.567.322l-3.342,3.31a2.78,2.78,0,0,0-.289,3.567l1.607,2.346a2.764,2.764,0,0,1,.16,2.892,25.6,25.6,0,0,0-2.185,5.3,2.748,2.748,0,0,1-2.185,1.928l-2.764.482a2.82,2.82,0,0,0-2.314,2.764v4.692a2.82,2.82,0,0,0,2.314,2.764l2.764.482a2.816,2.816,0,0,1,2.185,1.9,23.675,23.675,0,0,0,2.217,5.334,2.835,2.835,0,0,1-.192,2.893l-1.607,2.345a2.779,2.779,0,0,0,.289,3.567l3.31,3.31a2.824,2.824,0,0,0,3.6.322l2.314-1.639a2.761,2.761,0,0,1,2.892-.161,27.81,27.81,0,0,0,5.335,2.218,2.719,2.719,0,0,1,1.9,2.153l.482,2.8a2.823,2.823,0,0,0,2.764,2.281h4.692a2.822,2.822,0,0,0,2.764-2.281l.514-2.8a2.711,2.711,0,0,1,1.9-2.185,25.527,25.527,0,0,0,5.3-2.185,2.757,2.757,0,0,1,2.892.161l2.347,1.639a2.783,2.783,0,0,0,3.567-.322l3.31-3.31a2.784,2.784,0,0,0,.322-3.567l-1.639-2.345a2.757,2.757,0,0,1-.161-2.893,26.889,26.889,0,0,0,2.185-5.334,2.816,2.816,0,0,1,2.185-1.9l2.8-.482a2.851,2.851,0,0,0,2.314-2.764V2896.4A2.82,2.82,0,0,0,489.891,2893.634Zm-30.625,16.775a11.665,11.665,0,1,1,11.666-11.665A11.657,11.657,0,0,1,459.266,2910.409Z" transform="translate(-426.359 -2865.837)" fill="#ff852d"/>
        </g>
        <g id="Grupo_905574" data-name="Grupo 905574" transform="translate(0 0)">
          <path id="Trazado_634302" data-name="Trazado 634302" d="M459.622,2930.536H454.93a3.7,3.7,0,0,1-3.624-2.99l-.485-2.815a1.854,1.854,0,0,0-1.278-1.461,28.645,28.645,0,0,1-5.505-2.286,1.887,1.887,0,0,0-1.991.118l-2.294,1.626a3.712,3.712,0,0,1-4.724-.417l-3.31-3.31a3.645,3.645,0,0,1-.375-4.705l1.589-2.322a1.95,1.95,0,0,0,.138-1.995,24.3,24.3,0,0,1-2.284-5.508,1.948,1.948,0,0,0-1.5-1.265l-2.753-.48a3.709,3.709,0,0,1-3.039-3.626v-4.693a3.7,3.7,0,0,1,3.026-3.622l2.776-.486a1.874,1.874,0,0,0,1.493-1.3,26.207,26.207,0,0,1,2.257-5.48,1.9,1.9,0,0,0-.119-1.991l-1.6-2.337a3.633,3.633,0,0,1,.382-4.671l3.356-3.324a3.631,3.631,0,0,1,4.677-.421l2.326,1.646a1.926,1.926,0,0,0,1.995.109,25.821,25.821,0,0,1,5.48-2.29,1.822,1.822,0,0,0,1.281-1.475l.45-2.439a3.761,3.761,0,0,1,3.655-3.352h4.692a3.706,3.706,0,0,1,3.624,3.026l.514,2.768a1.842,1.842,0,0,0,1.28,1.5,26.2,26.2,0,0,1,5.472,2.255,1.889,1.889,0,0,0,1.98-.11l2.342-1.638a3.646,3.646,0,0,1,4.687.421l3.311,3.31a3.652,3.652,0,0,1,.418,4.691l-1.6,2.336a1.833,1.833,0,0,0-.149,1.973,26.669,26.669,0,0,1,2.291,5.48,1.942,1.942,0,0,0,1.48,1.315l2.793.482a3.7,3.7,0,0,1,3.026,3.622v4.693a3.716,3.716,0,0,1-3.022,3.623l-2.814.485a1.946,1.946,0,0,0-1.5,1.286,28.024,28.024,0,0,1-2.253,5.5,1.887,1.887,0,0,0,.111,1.979l1.637,2.343a3.651,3.651,0,0,1-.421,4.688l-3.311,3.31a3.65,3.65,0,0,1-4.69.418l-2.342-1.637a1.883,1.883,0,0,0-1.968-.112,26.318,26.318,0,0,1-5.492,2.261,1.827,1.827,0,0,0-1.264,1.478l-.519,2.819A3.7,3.7,0,0,1,459.622,2930.536Zm-16.458-11.529a3.54,3.54,0,0,1,1.713.439,26.942,26.942,0,0,0,5.159,2.144,3.6,3.6,0,0,1,2.51,2.831l.483,2.81a1.942,1.942,0,0,0,1.9,1.554h4.692a1.946,1.946,0,0,0,1.9-1.574l.513-2.787a3.573,3.573,0,0,1,2.513-2.866,24.7,24.7,0,0,0,5.13-2.115,3.632,3.632,0,0,1,3.806.212l2.349,1.64a1.9,1.9,0,0,0,2.446-.222l3.311-3.31a1.9,1.9,0,0,0,.225-2.445l-1.641-2.348a3.649,3.649,0,0,1-.208-3.817,25.885,25.885,0,0,0,2.11-5.153,3.7,3.7,0,0,1,2.865-2.514l2.808-.485a1.982,1.982,0,0,0,1.588-1.9v-4.693a1.951,1.951,0,0,0-1.6-1.9l-2.788-.481a3.687,3.687,0,0,1-2.844-2.548,24.906,24.906,0,0,0-2.142-5.12,3.583,3.583,0,0,1,.251-3.834l1.591-2.324a1.907,1.907,0,0,0-.218-2.454l-3.311-3.31a1.9,1.9,0,0,0-2.442-.225l-2.349,1.641a3.656,3.656,0,0,1-3.817.21,24.565,24.565,0,0,0-5.111-2.109,3.588,3.588,0,0,1-2.529-2.893l-.51-2.74a1.952,1.952,0,0,0-1.9-1.6H454.93a2.023,2.023,0,0,0-1.932,1.909l-.452,2.452a3.569,3.569,0,0,1-2.538,2.842,24.006,24.006,0,0,0-5.09,2.131,3.686,3.686,0,0,1-3.841-.194l-2.336-1.653a1.885,1.885,0,0,0-2.431.215l-3.356,3.324a1.889,1.889,0,0,0-.2,2.427l1.623,2.37a3.662,3.662,0,0,1,.2,3.821,24.509,24.509,0,0,0-2.1,5.1,3.618,3.618,0,0,1-2.867,2.557l-2.775.484a1.948,1.948,0,0,0-1.589,1.9v4.693a1.953,1.953,0,0,0,1.6,1.9l2.751.479a3.7,3.7,0,0,1,2.874,2.508,22.7,22.7,0,0,0,2.143,5.16,3.738,3.738,0,0,1-.229,3.8l-1.612,2.355a1.9,1.9,0,0,0,.195,2.464l3.3,3.3a1.957,1.957,0,0,0,2.485.219l2.3-1.632A3.8,3.8,0,0,1,443.164,2919.007Zm14.112-9.712a12.541,12.541,0,1,1,12.542-12.541A12.539,12.539,0,0,1,457.276,2909.294Zm0-23.331a10.79,10.79,0,1,0,10.791,10.79A10.786,10.786,0,0,0,457.276,2885.963Z" transform="translate(-423.494 -2862.971)"/>
        </g>
        <g id="Grupo_905576" data-name="Grupo 905576" transform="translate(11.865 11.834)">
          <g id="Grupo_905575" data-name="Grupo 905575">
            <path id="Trazado_634303" data-name="Trazado 634303" d="M484.25,2901.708a21.949,21.949,0,1,0,21.917,21.948A21.971,21.971,0,0,0,484.25,2901.708Zm0,37.63a15.682,15.682,0,1,1,15.682-15.682A15.676,15.676,0,0,1,484.25,2939.338Z" transform="translate(-462.333 -2901.708)" fill="#ecedff"/>
          </g>
        </g>
      </g>
      <g id="Grupo_905582" data-name="Grupo 905582" transform="translate(233.552 2730.053)">
        <g id="Grupo_905578" data-name="Grupo 905578" transform="translate(0 0)">
          <path id="Trazado_634304" data-name="Trazado 634304" d="M489.891,2893.634l-2.8-.482a2.8,2.8,0,0,1-2.153-1.928,25.681,25.681,0,0,0-2.217-5.3,2.692,2.692,0,0,1,.193-2.892l1.607-2.346a2.784,2.784,0,0,0-.322-3.567l-3.31-3.31a2.784,2.784,0,0,0-3.567-.322l-2.347,1.639a2.756,2.756,0,0,1-2.892.16,25.593,25.593,0,0,0-5.3-2.185,2.711,2.711,0,0,1-1.9-2.185l-.514-2.764a2.82,2.82,0,0,0-2.764-2.314H456.92a2.885,2.885,0,0,0-2.8,2.635l-.45,2.442a2.676,2.676,0,0,1-1.9,2.154,24.969,24.969,0,0,0-5.3,2.217,2.817,2.817,0,0,1-2.924-.16l-2.314-1.639a2.777,2.777,0,0,0-3.567.322l-3.342,3.31a2.78,2.78,0,0,0-.289,3.567l1.607,2.346a2.764,2.764,0,0,1,.16,2.892,25.6,25.6,0,0,0-2.185,5.3,2.748,2.748,0,0,1-2.185,1.928l-2.764.482a2.82,2.82,0,0,0-2.314,2.764v4.692a2.82,2.82,0,0,0,2.314,2.764l2.764.482a2.816,2.816,0,0,1,2.185,1.9,23.675,23.675,0,0,0,2.217,5.334,2.835,2.835,0,0,1-.192,2.893l-1.607,2.345a2.779,2.779,0,0,0,.289,3.567l3.31,3.31a2.824,2.824,0,0,0,3.6.322l2.314-1.639a2.761,2.761,0,0,1,2.892-.161,27.81,27.81,0,0,0,5.335,2.218,2.719,2.719,0,0,1,1.9,2.153l.482,2.8a2.823,2.823,0,0,0,2.764,2.281h4.692a2.822,2.822,0,0,0,2.764-2.281l.514-2.8a2.711,2.711,0,0,1,1.9-2.185,25.527,25.527,0,0,0,5.3-2.185,2.757,2.757,0,0,1,2.892.161l2.347,1.639a2.783,2.783,0,0,0,3.567-.322l3.31-3.31a2.784,2.784,0,0,0,.322-3.567l-1.639-2.345a2.757,2.757,0,0,1-.161-2.893,26.889,26.889,0,0,0,2.185-5.334,2.816,2.816,0,0,1,2.185-1.9l2.8-.482a2.851,2.851,0,0,0,2.314-2.764V2896.4A2.82,2.82,0,0,0,489.891,2893.634Zm-30.625,16.775a11.665,11.665,0,1,1,11.666-11.665A11.657,11.657,0,0,1,459.266,2910.409Z" transform="translate(-425.484 -2864.961)" fill="#ef3c79"/>
          <path id="Trazado_634305" data-name="Trazado 634305" d="M459.622,2930.536H454.93a3.7,3.7,0,0,1-3.624-2.99l-.485-2.815a1.854,1.854,0,0,0-1.278-1.461,28.645,28.645,0,0,1-5.505-2.286,1.887,1.887,0,0,0-1.991.118l-2.294,1.626a3.712,3.712,0,0,1-4.724-.417l-3.31-3.31a3.645,3.645,0,0,1-.375-4.705l1.589-2.322a1.95,1.95,0,0,0,.138-1.995,24.3,24.3,0,0,1-2.284-5.508,1.948,1.948,0,0,0-1.5-1.265l-2.753-.48a3.709,3.709,0,0,1-3.039-3.626v-4.693a3.7,3.7,0,0,1,3.026-3.622l2.776-.486a1.874,1.874,0,0,0,1.493-1.3,26.207,26.207,0,0,1,2.257-5.48,1.9,1.9,0,0,0-.119-1.991l-1.6-2.337a3.633,3.633,0,0,1,.382-4.671l3.356-3.324a3.631,3.631,0,0,1,4.677-.421l2.326,1.646a1.926,1.926,0,0,0,1.995.109,25.821,25.821,0,0,1,5.48-2.29,1.822,1.822,0,0,0,1.281-1.475l.45-2.439a3.761,3.761,0,0,1,3.655-3.352h4.692a3.706,3.706,0,0,1,3.624,3.026l.514,2.768a1.842,1.842,0,0,0,1.28,1.5,26.2,26.2,0,0,1,5.472,2.255,1.889,1.889,0,0,0,1.98-.11l2.342-1.638a3.646,3.646,0,0,1,4.687.421l3.311,3.31a3.652,3.652,0,0,1,.418,4.691l-1.6,2.336a1.833,1.833,0,0,0-.149,1.973,26.669,26.669,0,0,1,2.291,5.48,1.942,1.942,0,0,0,1.48,1.315l2.793.482a3.7,3.7,0,0,1,3.026,3.622v4.693a3.716,3.716,0,0,1-3.022,3.623l-2.814.485a1.946,1.946,0,0,0-1.5,1.286,28.024,28.024,0,0,1-2.253,5.5,1.887,1.887,0,0,0,.111,1.979l1.637,2.343a3.651,3.651,0,0,1-.421,4.688l-3.311,3.31a3.65,3.65,0,0,1-4.69.418l-2.342-1.637a1.883,1.883,0,0,0-1.968-.112,26.318,26.318,0,0,1-5.492,2.261,1.827,1.827,0,0,0-1.264,1.478l-.519,2.819A3.7,3.7,0,0,1,459.622,2930.536Zm-16.458-11.529a3.54,3.54,0,0,1,1.713.439,26.942,26.942,0,0,0,5.159,2.144,3.6,3.6,0,0,1,2.51,2.831l.483,2.81a1.942,1.942,0,0,0,1.9,1.554h4.692a1.946,1.946,0,0,0,1.9-1.574l.513-2.787a3.573,3.573,0,0,1,2.513-2.866,24.7,24.7,0,0,0,5.13-2.115,3.632,3.632,0,0,1,3.806.212l2.349,1.64a1.9,1.9,0,0,0,2.446-.222l3.311-3.31a1.9,1.9,0,0,0,.225-2.445l-1.641-2.348a3.649,3.649,0,0,1-.208-3.817,25.885,25.885,0,0,0,2.11-5.153,3.7,3.7,0,0,1,2.865-2.514l2.808-.485a1.982,1.982,0,0,0,1.588-1.9v-4.693a1.951,1.951,0,0,0-1.6-1.9l-2.788-.481a3.687,3.687,0,0,1-2.844-2.548,24.906,24.906,0,0,0-2.142-5.12,3.583,3.583,0,0,1,.251-3.834l1.591-2.324a1.907,1.907,0,0,0-.218-2.454l-3.311-3.31a1.9,1.9,0,0,0-2.442-.225l-2.349,1.641a3.656,3.656,0,0,1-3.817.21,24.565,24.565,0,0,0-5.111-2.109,3.588,3.588,0,0,1-2.529-2.893l-.51-2.74a1.952,1.952,0,0,0-1.9-1.6H454.93a2.023,2.023,0,0,0-1.932,1.909l-.452,2.452a3.569,3.569,0,0,1-2.538,2.842,24.006,24.006,0,0,0-5.09,2.131,3.686,3.686,0,0,1-3.841-.194l-2.336-1.653a1.885,1.885,0,0,0-2.431.215l-3.356,3.324a1.889,1.889,0,0,0-.2,2.427l1.623,2.37a3.662,3.662,0,0,1,.2,3.821,24.509,24.509,0,0,0-2.1,5.1,3.618,3.618,0,0,1-2.867,2.557l-2.775.484a1.948,1.948,0,0,0-1.589,1.9v4.693a1.953,1.953,0,0,0,1.6,1.9l2.751.479a3.7,3.7,0,0,1,2.874,2.508,22.7,22.7,0,0,0,2.143,5.16,3.738,3.738,0,0,1-.229,3.8l-1.612,2.355a1.9,1.9,0,0,0,.195,2.464l3.3,3.3a1.957,1.957,0,0,0,2.485.219l2.3-1.632A3.8,3.8,0,0,1,443.164,2919.007Zm14.112-9.712a12.541,12.541,0,1,1,12.542-12.541A12.539,12.539,0,0,1,457.276,2909.294Zm0-23.331a10.79,10.79,0,1,0,10.791,10.79A10.786,10.786,0,0,0,457.276,2885.963Z" transform="translate(-423.494 -2862.971)"/>
        </g>
        <g id="Grupo_905579" data-name="Grupo 905579" transform="translate(0 0)">
          <path id="Trazado_634306" data-name="Trazado 634306" d="M459.622,2930.536H454.93a3.7,3.7,0,0,1-3.624-2.99l-.485-2.815a1.854,1.854,0,0,0-1.278-1.461,28.645,28.645,0,0,1-5.505-2.286,1.887,1.887,0,0,0-1.991.118l-2.294,1.626a3.712,3.712,0,0,1-4.724-.417l-3.31-3.31a3.645,3.645,0,0,1-.375-4.705l1.589-2.322a1.95,1.95,0,0,0,.138-1.995,24.3,24.3,0,0,1-2.284-5.508,1.948,1.948,0,0,0-1.5-1.265l-2.753-.48a3.709,3.709,0,0,1-3.039-3.626v-4.693a3.7,3.7,0,0,1,3.026-3.622l2.776-.486a1.874,1.874,0,0,0,1.493-1.3,26.207,26.207,0,0,1,2.257-5.48,1.9,1.9,0,0,0-.119-1.991l-1.6-2.337a3.633,3.633,0,0,1,.382-4.671l3.356-3.324a3.631,3.631,0,0,1,4.677-.421l2.326,1.646a1.926,1.926,0,0,0,1.995.109,25.821,25.821,0,0,1,5.48-2.29,1.822,1.822,0,0,0,1.281-1.475l.45-2.439a3.761,3.761,0,0,1,3.655-3.352h4.692a3.706,3.706,0,0,1,3.624,3.026l.514,2.768a1.842,1.842,0,0,0,1.28,1.5,26.2,26.2,0,0,1,5.472,2.255,1.889,1.889,0,0,0,1.98-.11l2.342-1.638a3.646,3.646,0,0,1,4.687.421l3.311,3.31a3.652,3.652,0,0,1,.418,4.691l-1.6,2.336a1.833,1.833,0,0,0-.149,1.973,26.669,26.669,0,0,1,2.291,5.48,1.942,1.942,0,0,0,1.48,1.315l2.793.482a3.7,3.7,0,0,1,3.026,3.622v4.693a3.716,3.716,0,0,1-3.022,3.623l-2.814.485a1.946,1.946,0,0,0-1.5,1.286,28.024,28.024,0,0,1-2.253,5.5,1.887,1.887,0,0,0,.111,1.979l1.637,2.343a3.651,3.651,0,0,1-.421,4.688l-3.311,3.31a3.65,3.65,0,0,1-4.69.418l-2.342-1.637a1.883,1.883,0,0,0-1.968-.112,26.318,26.318,0,0,1-5.492,2.261,1.827,1.827,0,0,0-1.264,1.478l-.519,2.819A3.7,3.7,0,0,1,459.622,2930.536Zm-16.458-11.529a3.54,3.54,0,0,1,1.713.439,26.942,26.942,0,0,0,5.159,2.144,3.6,3.6,0,0,1,2.51,2.831l.483,2.81a1.942,1.942,0,0,0,1.9,1.554h4.692a1.946,1.946,0,0,0,1.9-1.574l.513-2.787a3.573,3.573,0,0,1,2.513-2.866,24.7,24.7,0,0,0,5.13-2.115,3.632,3.632,0,0,1,3.806.212l2.349,1.64a1.9,1.9,0,0,0,2.446-.222l3.311-3.31a1.9,1.9,0,0,0,.225-2.445l-1.641-2.348a3.649,3.649,0,0,1-.208-3.817,25.885,25.885,0,0,0,2.11-5.153,3.7,3.7,0,0,1,2.865-2.514l2.808-.485a1.982,1.982,0,0,0,1.588-1.9v-4.693a1.951,1.951,0,0,0-1.6-1.9l-2.788-.481a3.687,3.687,0,0,1-2.844-2.548,24.906,24.906,0,0,0-2.142-5.12,3.583,3.583,0,0,1,.251-3.834l1.591-2.324a1.907,1.907,0,0,0-.218-2.454l-3.311-3.31a1.9,1.9,0,0,0-2.442-.225l-2.349,1.641a3.656,3.656,0,0,1-3.817.21,24.565,24.565,0,0,0-5.111-2.109,3.588,3.588,0,0,1-2.529-2.893l-.51-2.74a1.952,1.952,0,0,0-1.9-1.6H454.93a2.023,2.023,0,0,0-1.932,1.909l-.452,2.452a3.569,3.569,0,0,1-2.538,2.842,24.006,24.006,0,0,0-5.09,2.131,3.686,3.686,0,0,1-3.841-.194l-2.336-1.653a1.885,1.885,0,0,0-2.431.215l-3.356,3.324a1.889,1.889,0,0,0-.2,2.427l1.623,2.37a3.662,3.662,0,0,1,.2,3.821,24.509,24.509,0,0,0-2.1,5.1,3.618,3.618,0,0,1-2.867,2.557l-2.775.484a1.948,1.948,0,0,0-1.589,1.9v4.693a1.953,1.953,0,0,0,1.6,1.9l2.751.479a3.7,3.7,0,0,1,2.874,2.508,22.7,22.7,0,0,0,2.143,5.16,3.738,3.738,0,0,1-.229,3.8l-1.612,2.355a1.9,1.9,0,0,0,.195,2.464l3.3,3.3a1.957,1.957,0,0,0,2.485.219l2.3-1.632A3.8,3.8,0,0,1,443.164,2919.007Zm14.112-9.712a12.541,12.541,0,1,1,12.542-12.541A12.539,12.539,0,0,1,457.276,2909.294Zm0-23.331a10.79,10.79,0,1,0,10.791,10.79A10.786,10.786,0,0,0,457.276,2885.963Z" transform="translate(-423.494 -2862.971)"/>
        </g>
        <g id="Grupo_905581" data-name="Grupo 905581" transform="translate(10.99 10.958)">
          <g id="Grupo_905580" data-name="Grupo 905580">
            <path id="Trazado_634307" data-name="Trazado 634307" d="M484.25,2901.708a21.949,21.949,0,1,0,21.917,21.948A21.971,21.971,0,0,0,484.25,2901.708Zm0,37.63a15.682,15.682,0,1,1,15.682-15.682A15.676,15.676,0,0,1,484.25,2939.338Z" transform="translate(-461.458 -2900.832)" fill="#f0f1ff"/>
            <path id="Trazado_634308" data-name="Trazado 634308" d="M482.26,2944.49a22.824,22.824,0,1,1,22.792-22.825A22.834,22.834,0,0,1,482.26,2944.49Zm0-43.9a21.073,21.073,0,1,0,21.041,21.073A21.081,21.081,0,0,0,482.26,2900.592Zm0,37.631a16.557,16.557,0,1,1,16.558-16.558A16.561,16.561,0,0,1,482.26,2938.223Zm0-31.364a14.807,14.807,0,1,0,14.807,14.806A14.807,14.807,0,0,0,482.26,2906.858Z" transform="translate(-459.468 -2898.841)"/>
          </g>
        </g>
      </g>
      <g id="Grupo_905583" data-name="Grupo 905583" transform="translate(187.869 2734.287)">
        <rect id="Rectángulo_303476" data-name="Rectángulo 303476" width="75.39" height="13.347" transform="translate(0 0)" fill="#fecb2f"/>
      </g>
      <g id="Grupo_905584" data-name="Grupo 905584" transform="translate(186.994 2733.411)">
        <path id="Trazado_634309" data-name="Trazado 634309" d="M348.233,2889.06h-77.14v-15.1h77.14Zm-75.39-1.75h73.639v-11.6H272.844Z" transform="translate(-271.093 -2873.963)"/>
      </g>
      <g id="Grupo_905585" data-name="Grupo 905585" transform="translate(180.949 2743.612)">
        <rect id="Rectángulo_303477" data-name="Rectángulo 303477" width="89.231" height="30.272" rx="2" fill="#0b5999"/>
      </g>
      <g id="Grupo_905586" data-name="Grupo 905586" transform="translate(180.074 2742.737)">
        <path id="Trazado_634310" data-name="Trazado 634310" d="M335.334,2936.512h-82.8a4.093,4.093,0,0,1-4.088-4.088v-23.845a4.093,4.093,0,0,1,4.088-4.088h82.8a4.094,4.094,0,0,1,4.09,4.088v23.845A4.094,4.094,0,0,1,335.334,2936.512Zm-82.8-30.271a2.341,2.341,0,0,0-2.338,2.338v23.845a2.341,2.341,0,0,0,2.338,2.338h82.8a2.341,2.341,0,0,0,2.339-2.338v-23.845a2.341,2.341,0,0,0-2.339-2.338Z" transform="translate(-248.443 -2904.49)"/>
      </g>
      <g id="Grupo_905587" data-name="Grupo 905587" transform="translate(184.969 2747.625)">
        <path id="Trazado_634311" data-name="Trazado 634311" d="M345.672,2921.292v20.631a.817.817,0,0,1-.8.8h-79.6a.8.8,0,0,1-.8-.8v-20.631a.8.8,0,0,1,.8-.8h79.6A.816.816,0,0,1,345.672,2921.292Z" transform="translate(-264.466 -2920.488)" fill="#f0f1ff"/>
      </g>
      <g id="Grupo_905588" data-name="Grupo 905588" transform="translate(184.094 2746.749)">
        <path id="Trazado_634312" data-name="Trazado 634312" d="M342.88,2941.611h-79.6a1.68,1.68,0,0,1-1.678-1.679V2919.3a1.68,1.68,0,0,1,1.678-1.679h79.6a1.7,1.7,0,0,1,1.679,1.679v20.631A1.7,1.7,0,0,1,342.88,2941.611Zm-79.6-22.237.073,20.559,79.527-.072-.072-20.487Zm79.528-.072h0Z" transform="translate(-261.602 -2917.623)"/>
      </g>
      <g id="Grupo_905589" data-name="Grupo 905589" transform="translate(191.142 2751.511)">
        <path id="Trazado_634313" data-name="Trazado 634313" d="M290.47,2936.108a2.9,2.9,0,1,1-2.9-2.9A2.9,2.9,0,0,1,290.47,2936.108Z" transform="translate(-284.673 -2933.21)" fill="#ff003b"/>
      </g>
      <g id="Grupo_905590" data-name="Grupo 905590" transform="translate(201.34 2751.511)">
        <path id="Trazado_634314" data-name="Trazado 634314" d="M323.85,2936.108a2.9,2.9,0,1,1-2.9-2.9A2.9,2.9,0,0,1,323.85,2936.108Z" transform="translate(-318.053 -2933.21)" fill="#5cc1e6"/>
      </g>
      <g id="Grupo_905591" data-name="Grupo 905591" transform="translate(211.538 2751.511)">
        <path id="Trazado_634315" data-name="Trazado 634315" d="M357.231,2936.108a2.9,2.9,0,1,1-2.9-2.9A2.9,2.9,0,0,1,357.231,2936.108Z" transform="translate(-351.434 -2933.21)" fill="#88d600"/>
      </g>
      <g id="Grupo_905592" data-name="Grupo 905592" transform="translate(227.63 2751.978)">
        <path id="Trazado_634316" data-name="Trazado 634316" d="M405.385,2948.279A1.275,1.275,0,0,1,404.11,2947v-10.99a1.276,1.276,0,1,1,2.551,0V2947A1.275,1.275,0,0,1,405.385,2948.279Z" transform="translate(-404.11 -2934.738)"/>
      </g>
      <g id="Grupo_905593" data-name="Grupo 905593" transform="translate(235.376 2751.978)">
        <path id="Trazado_634317" data-name="Trazado 634317" d="M430.739,2948.279a1.275,1.275,0,0,1-1.275-1.275v-10.99a1.275,1.275,0,1,1,2.551,0V2947A1.275,1.275,0,0,1,430.739,2948.279Z" transform="translate(-429.464 -2934.738)"/>
      </g>
      <g id="Grupo_905594" data-name="Grupo 905594" transform="translate(243.121 2751.978)">
        <path id="Trazado_634318" data-name="Trazado 634318" d="M456.092,2948.279a1.275,1.275,0,0,1-1.276-1.275v-10.99a1.276,1.276,0,1,1,2.551,0V2947A1.275,1.275,0,0,1,456.092,2948.279Z" transform="translate(-454.816 -2934.738)"/>
      </g>
      <g id="Grupo_905595" data-name="Grupo 905595" transform="translate(250.866 2751.978)">
        <path id="Trazado_634319" data-name="Trazado 634319" d="M481.445,2948.279a1.276,1.276,0,0,1-1.276-1.275v-10.99a1.276,1.276,0,1,1,2.551,0V2947A1.276,1.276,0,0,1,481.445,2948.279Z" transform="translate(-480.169 -2934.738)"/>
      </g>
      <g id="Grupo_905596" data-name="Grupo 905596" transform="translate(258.611 2751.978)">
        <path id="Trazado_634320" data-name="Trazado 634320" d="M506.8,2948.279a1.276,1.276,0,0,1-1.276-1.275v-10.99a1.276,1.276,0,1,1,2.551,0V2947A1.276,1.276,0,0,1,506.8,2948.279Z" transform="translate(-505.522 -2934.738)"/>
      </g>
      <g id="Grupo_905597" data-name="Grupo 905597" transform="translate(191.142 2760.149)">
        <rect id="Rectángulo_303478" data-name="Rectángulo 303478" width="26.193" height="6.072" fill="#7668f4"/>
      </g>
      <g id="Grupo_905598" data-name="Grupo 905598" transform="translate(187.869 2698.711)">
        <rect id="Rectángulo_303479" data-name="Rectángulo 303479" width="75.39" height="13.346" transform="translate(0 0)" fill="#fecb2f"/>
      </g>
      <g id="Grupo_905599" data-name="Grupo 905599" transform="translate(186.994 2697.836)">
        <path id="Trazado_634321" data-name="Trazado 634321" d="M348.233,2772.611h-77.14v-15.1h77.14Zm-75.39-1.751h73.639v-11.6H272.844Z" transform="translate(-271.093 -2757.514)"/>
      </g>
      <g id="Grupo_905600" data-name="Grupo 905600" transform="translate(180.949 2672.461)">
        <rect id="Rectángulo_303480" data-name="Rectángulo 303480" width="89.231" height="30.272" rx="3" transform="translate(0 0)" fill="#0b5999"/>
      </g>
      <g id="Grupo_905601" data-name="Grupo 905601" transform="translate(180.074 2671.585)">
        <path id="Trazado_634322" data-name="Trazado 634322" d="M335.334,2703.608h-82.8a4.094,4.094,0,0,1-4.088-4.09v-23.844a4.094,4.094,0,0,1,4.088-4.09h82.8a4.1,4.1,0,0,1,4.09,4.09v23.844A4.1,4.1,0,0,1,335.334,2703.608Zm-82.8-30.273a2.342,2.342,0,0,0-2.338,2.339v23.844a2.341,2.341,0,0,0,2.338,2.339h82.8a2.342,2.342,0,0,0,2.339-2.339v-23.844a2.342,2.342,0,0,0-2.339-2.339Z" transform="translate(-248.443 -2671.585)"/>
      </g>
      <g id="Grupo_905602" data-name="Grupo 905602" transform="translate(184.969 2676.473)">
        <path id="Trazado_634323" data-name="Trazado 634323" d="M345.672,2688.389v20.631a.817.817,0,0,1-.8.8h-79.6a.8.8,0,0,1-.8-.8v-20.631a.8.8,0,0,1,.8-.8h79.6A.816.816,0,0,1,345.672,2688.389Z" transform="translate(-264.466 -2687.586)" fill="#f0f1ff"/>
      </g>
      <g id="Grupo_905603" data-name="Grupo 905603" transform="translate(184.094 2675.598)">
        <path id="Trazado_634324" data-name="Trazado 634324" d="M342.88,2708.71h-79.6a1.68,1.68,0,0,1-1.678-1.679V2686.4a1.679,1.679,0,0,1,1.678-1.678h79.6a1.7,1.7,0,0,1,1.679,1.678v20.632A1.7,1.7,0,0,1,342.88,2708.71Zm-79.6-22.238.073,20.559,79.527-.072-.072-20.487Zm79.528-.073h0Z" transform="translate(-261.602 -2684.722)"/>
      </g>
      <g id="Grupo_905609" data-name="Grupo 905609" transform="translate(227.63 2680.827)">
        <g id="Grupo_905604" data-name="Grupo 905604" transform="translate(0 0)">
          <path id="Trazado_634325" data-name="Trazado 634325" d="M405.385,2715.377a1.276,1.276,0,0,1-1.275-1.276v-10.99a1.276,1.276,0,0,1,2.551,0v10.99A1.276,1.276,0,0,1,405.385,2715.377Z" transform="translate(-404.11 -2701.836)"/>
        </g>
        <g id="Grupo_905605" data-name="Grupo 905605" transform="translate(7.746 0)">
          <path id="Trazado_634326" data-name="Trazado 634326" d="M430.739,2715.377a1.276,1.276,0,0,1-1.275-1.276v-10.99a1.275,1.275,0,0,1,2.551,0v10.99A1.276,1.276,0,0,1,430.739,2715.377Z" transform="translate(-429.464 -2701.836)"/>
        </g>
        <g id="Grupo_905606" data-name="Grupo 905606" transform="translate(15.491 0)">
          <path id="Trazado_634327" data-name="Trazado 634327" d="M456.092,2715.377a1.276,1.276,0,0,1-1.276-1.276v-10.99a1.276,1.276,0,0,1,2.551,0v10.99A1.276,1.276,0,0,1,456.092,2715.377Z" transform="translate(-454.816 -2701.836)"/>
        </g>
        <g id="Grupo_905607" data-name="Grupo 905607" transform="translate(23.236 0)">
          <path id="Trazado_634328" data-name="Trazado 634328" d="M481.445,2715.377a1.276,1.276,0,0,1-1.276-1.276v-10.99a1.276,1.276,0,0,1,2.551,0v10.99A1.276,1.276,0,0,1,481.445,2715.377Z" transform="translate(-480.169 -2701.836)"/>
        </g>
        <g id="Grupo_905608" data-name="Grupo 905608" transform="translate(30.981 0)">
          <path id="Trazado_634329" data-name="Trazado 634329" d="M506.8,2715.377a1.276,1.276,0,0,1-1.276-1.276v-10.99a1.276,1.276,0,0,1,2.551,0v10.99A1.276,1.276,0,0,1,506.8,2715.377Z" transform="translate(-505.522 -2701.836)"/>
        </g>
      </g>
      <g id="Grupo_905614" data-name="Grupo 905614" transform="translate(191.142 2680.36)">
        <g id="Grupo_905610" data-name="Grupo 905610" transform="translate(0 0)">
          <path id="Trazado_634330" data-name="Trazado 634330" d="M290.47,2703.207a2.9,2.9,0,1,1-2.9-2.9A2.9,2.9,0,0,1,290.47,2703.207Z" transform="translate(-284.673 -2700.308)" fill="#21cbae"/>
        </g>
        <g id="Grupo_905611" data-name="Grupo 905611" transform="translate(10.198 0)">
          <path id="Trazado_634331" data-name="Trazado 634331" d="M323.85,2703.207a2.9,2.9,0,1,1-2.9-2.9A2.9,2.9,0,0,1,323.85,2703.207Z" transform="translate(-318.053 -2700.308)" fill="#21cbae"/>
        </g>
        <g id="Grupo_905612" data-name="Grupo 905612" transform="translate(20.395 0)">
          <path id="Trazado_634332" data-name="Trazado 634332" d="M357.231,2703.207a2.9,2.9,0,1,1-2.9-2.9A2.9,2.9,0,0,1,357.231,2703.207Z" transform="translate(-351.434 -2700.308)" fill="#21cbae"/>
        </g>
        <g id="Grupo_905613" data-name="Grupo 905613" transform="translate(0 8.639)">
          <rect id="Rectángulo_303481" data-name="Rectángulo 303481" width="26.193" height="6.072" fill="#21cbae"/>
        </g>
      </g>
      <g id="Grupo_905615" data-name="Grupo 905615" transform="translate(190.267 2679.484)">
        <path id="Trazado_634333" data-name="Trazado 634333" d="M285.583,2704.99a3.775,3.775,0,1,1,3.774-3.774A3.778,3.778,0,0,1,285.583,2704.99Zm0-5.8a2.026,2.026,0,0,0-2.023,2.024,2.05,2.05,0,0,0,2.023,2.023,2.024,2.024,0,0,0,0-4.047Z" transform="translate(-281.809 -2697.441)"/>
      </g>
      <g id="Grupo_905616" data-name="Grupo 905616" transform="translate(200.464 2679.484)">
        <path id="Trazado_634334" data-name="Trazado 634334" d="M318.961,2704.99a3.775,3.775,0,1,1,3.774-3.774A3.779,3.779,0,0,1,318.961,2704.99Zm0-5.8a2.027,2.027,0,0,0-2.025,2.024,2.051,2.051,0,0,0,2.025,2.023,2.024,2.024,0,0,0,0-4.047Z" transform="translate(-315.186 -2697.441)"/>
      </g>
      <g id="Grupo_905617" data-name="Grupo 905617" transform="translate(210.662 2679.484)">
        <path id="Trazado_634335" data-name="Trazado 634335" d="M352.342,2704.99a3.775,3.775,0,1,1,3.774-3.774A3.778,3.778,0,0,1,352.342,2704.99Zm0-5.8a2.026,2.026,0,0,0-2.023,2.024,2.05,2.05,0,0,0,2.023,2.023,2.024,2.024,0,0,0,0-4.047Z" transform="translate(-348.568 -2697.441)"/>
      </g>
      <g id="Grupo_905618" data-name="Grupo 905618" transform="translate(190.267 2688.123)">
        <path id="Trazado_634336" data-name="Trazado 634336" d="M308.876,2733.542H282.684a.875.875,0,0,1-.875-.875v-6.073a.876.876,0,0,1,.875-.875h26.192a.875.875,0,0,1,.875.875v6.073A.875.875,0,0,1,308.876,2733.542Zm-25.316-1.751H308v-4.322H283.56Z" transform="translate(-281.809 -2725.719)"/>
      </g>
      <g id="Grupo_905619" data-name="Grupo 905619" transform="translate(180.949 2708.036)">
        <rect id="Rectángulo_303482" data-name="Rectángulo 303482" width="89.231" height="30.272" rx="3" transform="translate(0 0)" fill="#0b5999"/>
      </g>
      <g id="Grupo_905620" data-name="Grupo 905620" transform="translate(180.074 2707.161)">
        <path id="Trazado_634337" data-name="Trazado 634337" d="M335.334,2820.059h-82.8a4.093,4.093,0,0,1-4.088-4.089v-23.844a4.093,4.093,0,0,1,4.088-4.089h82.8a4.094,4.094,0,0,1,4.09,4.089v23.844A4.094,4.094,0,0,1,335.334,2820.059Zm-82.8-30.271a2.34,2.34,0,0,0-2.338,2.338v23.844a2.34,2.34,0,0,0,2.338,2.338h82.8a2.341,2.341,0,0,0,2.339-2.338v-23.844a2.341,2.341,0,0,0-2.339-2.338Z" transform="translate(-248.443 -2788.037)"/>
      </g>
      <g id="Grupo_905621" data-name="Grupo 905621" transform="translate(184.969 2712.049)">
        <path id="Trazado_634338" data-name="Trazado 634338" d="M345.672,2804.84v20.631a.816.816,0,0,1-.8.8h-79.6a.8.8,0,0,1-.8-.8V2804.84a.8.8,0,0,1,.8-.8h79.6A.816.816,0,0,1,345.672,2804.84Z" transform="translate(-264.466 -2804.037)" fill="#f0f1ff"/>
      </g>
      <g id="Grupo_905622" data-name="Grupo 905622" transform="translate(184.094 2711.173)">
        <path id="Trazado_634339" data-name="Trazado 634339" d="M342.88,2825.159h-79.6a1.679,1.679,0,0,1-1.678-1.678v-20.632a1.68,1.68,0,0,1,1.678-1.679h79.6a1.7,1.7,0,0,1,1.679,1.679v20.632A1.7,1.7,0,0,1,342.88,2825.159Zm-79.6-22.238.073,20.56,79.527-.073-.072-20.487Zm79.528-.072h0Z" transform="translate(-261.602 -2801.171)"/>
      </g>
      <g id="Grupo_905623" data-name="Grupo 905623" transform="translate(191.142 2715.935)">
        <path id="Trazado_634340" data-name="Trazado 634340" d="M290.47,2819.657a2.9,2.9,0,1,1-2.9-2.9A2.9,2.9,0,0,1,290.47,2819.657Z" transform="translate(-284.673 -2816.759)" fill="#21cbae"/>
      </g>
      <g id="Grupo_905624" data-name="Grupo 905624" transform="translate(201.34 2715.935)">
        <path id="Trazado_634341" data-name="Trazado 634341" d="M323.85,2819.657a2.9,2.9,0,1,1-2.9-2.9A2.9,2.9,0,0,1,323.85,2819.657Z" transform="translate(-318.053 -2816.759)" fill="#21cbae"/>
      </g>
      <g id="Grupo_905625" data-name="Grupo 905625" transform="translate(211.538 2715.935)">
        <path id="Trazado_634342" data-name="Trazado 634342" d="M357.231,2819.657a2.9,2.9,0,1,1-2.9-2.9A2.9,2.9,0,0,1,357.231,2819.657Z" transform="translate(-351.434 -2816.759)" fill="#21cbae"/>
      </g>
      <g id="Grupo_905631" data-name="Grupo 905631" transform="translate(227.63 2716.402)">
        <g id="Grupo_905626" data-name="Grupo 905626" transform="translate(0 0)">
          <path id="Trazado_634343" data-name="Trazado 634343" d="M405.385,2831.828a1.276,1.276,0,0,1-1.275-1.276v-10.99a1.276,1.276,0,1,1,2.551,0v10.99A1.276,1.276,0,0,1,405.385,2831.828Z" transform="translate(-404.11 -2818.287)"/>
        </g>
        <g id="Grupo_905627" data-name="Grupo 905627" transform="translate(7.746 0)">
          <path id="Trazado_634344" data-name="Trazado 634344" d="M430.739,2831.828a1.276,1.276,0,0,1-1.275-1.276v-10.99a1.275,1.275,0,1,1,2.551,0v10.99A1.276,1.276,0,0,1,430.739,2831.828Z" transform="translate(-429.464 -2818.287)"/>
        </g>
        <g id="Grupo_905628" data-name="Grupo 905628" transform="translate(15.491 0)">
          <path id="Trazado_634345" data-name="Trazado 634345" d="M456.092,2831.828a1.276,1.276,0,0,1-1.276-1.276v-10.99a1.276,1.276,0,1,1,2.551,0v10.99A1.276,1.276,0,0,1,456.092,2831.828Z" transform="translate(-454.816 -2818.287)"/>
        </g>
        <g id="Grupo_905629" data-name="Grupo 905629" transform="translate(23.236 0)">
          <path id="Trazado_634346" data-name="Trazado 634346" d="M481.445,2831.828a1.276,1.276,0,0,1-1.276-1.276v-10.99a1.276,1.276,0,1,1,2.551,0v10.99A1.276,1.276,0,0,1,481.445,2831.828Z" transform="translate(-480.169 -2818.287)"/>
        </g>
        <g id="Grupo_905630" data-name="Grupo 905630" transform="translate(30.981 0)">
          <path id="Trazado_634347" data-name="Trazado 634347" d="M506.8,2831.828a1.276,1.276,0,0,1-1.276-1.276v-10.99a1.276,1.276,0,1,1,2.551,0v10.99A1.276,1.276,0,0,1,506.8,2831.828Z" transform="translate(-505.522 -2818.287)"/>
        </g>
      </g>
      <g id="Grupo_905632" data-name="Grupo 905632" transform="translate(191.142 2724.574)">
        <rect id="Rectángulo_303483" data-name="Rectángulo 303483" width="26.193" height="6.072" transform="translate(0 0)" fill="#21cbae"/>
      </g>
      <g id="Grupo_905633" data-name="Grupo 905633" transform="translate(190.267 2715.06)">
        <path id="Trazado_634348" data-name="Trazado 634348" d="M285.583,2821.441a3.774,3.774,0,1,1,3.774-3.774A3.777,3.777,0,0,1,285.583,2821.441Zm0-5.8a2.025,2.025,0,0,0-2.023,2.023,2.05,2.05,0,0,0,2.023,2.023,2.023,2.023,0,1,0,0-4.046Z" transform="translate(-281.809 -2813.893)"/>
      </g>
      <g id="Grupo_905634" data-name="Grupo 905634" transform="translate(200.464 2715.06)">
        <path id="Trazado_634349" data-name="Trazado 634349" d="M318.961,2821.441a3.774,3.774,0,1,1,3.774-3.774A3.779,3.779,0,0,1,318.961,2821.441Zm0-5.8a2.026,2.026,0,0,0-2.025,2.023,2.051,2.051,0,0,0,2.025,2.023,2.023,2.023,0,0,0,0-4.046Z" transform="translate(-315.186 -2813.893)"/>
      </g>
      <g id="Grupo_905635" data-name="Grupo 905635" transform="translate(210.662 2715.06)">
        <path id="Trazado_634350" data-name="Trazado 634350" d="M352.342,2821.441a3.774,3.774,0,1,1,3.774-3.774A3.777,3.777,0,0,1,352.342,2821.441Zm0-5.8a2.025,2.025,0,0,0-2.023,2.023,2.05,2.05,0,0,0,2.023,2.023,2.023,2.023,0,1,0,0-4.046Z" transform="translate(-348.568 -2813.893)"/>
      </g>
      <g id="Grupo_905636" data-name="Grupo 905636" transform="translate(190.267 2723.698)">
        <path id="Trazado_634351" data-name="Trazado 634351" d="M308.876,2849.993H282.684a.876.876,0,0,1-.875-.875v-6.072a.875.875,0,0,1,.875-.875h26.192a.875.875,0,0,1,.875.875v6.072A.876.876,0,0,1,308.876,2849.993Zm-25.316-1.751H308v-4.321H283.56Z" transform="translate(-281.809 -2842.171)"/>
      </g>
      <g id="Grupo_905655" data-name="Grupo 905655" transform="translate(150 2727.944)">
        <g id="Grupo_905637" data-name="Grupo 905637" transform="translate(0.875 0.875)">
          <path id="Trazado_634352" data-name="Trazado 634352" d="M227.257,2895.877a37.053,37.053,0,0,1-9.062,24.551,3.475,3.475,0,0,1-2.636,1.157h-51a3.524,3.524,0,0,1-2.635-1.157,37.174,37.174,0,0,1,30.143-61.443A37.448,37.448,0,0,1,227.257,2895.877Z" transform="translate(-152.864 -2858.933)" fill="#fecb2f"/>
        </g>
        <g id="Grupo_905638" data-name="Grupo 905638" transform="translate(0 0)">
          <path id="Trazado_634353" data-name="Trazado 634353" d="M213.571,2920.471h-51a4.405,4.405,0,0,1-3.3-1.458,38.058,38.058,0,0,1,30.85-62.892c19.729,1.043,35.886,17.984,36.018,37.76h0a38.053,38.053,0,0,1-9.276,25.129A4.345,4.345,0,0,1,213.571,2920.471Zm-25.515-62.654a36.3,36.3,0,0,0-27.458,60.048,2.635,2.635,0,0,0,1.974.855h51a2.6,2.6,0,0,0,1.974-.856,36.3,36.3,0,0,0,8.848-23.972h0c-.124-18.867-15.538-35.028-34.36-36.023Q189.042,2857.819,188.056,2857.818Z" transform="translate(-150 -2856.068)"/>
        </g>
        <g id="Grupo_905639" data-name="Grupo 905639" transform="translate(6.306 6.294)">
          <path id="Trazado_634354" data-name="Trazado 634354" d="M234.173,2908.454a31.436,31.436,0,0,1-1.317,9.094h-60.9a31.427,31.427,0,0,1-1.318-9.094,31.766,31.766,0,1,1,63.532,0Z" transform="translate(-170.641 -2876.672)" fill="#f0f1ff"/>
        </g>
        <g id="Grupo_905640" data-name="Grupo 905640" transform="translate(5.43 5.419)">
          <path id="Trazado_634355" data-name="Trazado 634355" d="M230.865,2916.432h-60.9a.876.876,0,0,1-.838-.621,32.128,32.128,0,0,1-1.356-9.347,32.641,32.641,0,1,1,65.283,0,32.183,32.183,0,0,1-1.355,9.347A.876.876,0,0,1,230.865,2916.432Zm-60.239-1.75h59.583a30.587,30.587,0,0,0,1.1-8.218,30.891,30.891,0,1,0-61.781,0A30.529,30.529,0,0,0,170.626,2914.682Z" transform="translate(-167.775 -2873.806)"/>
        </g>
        <g id="Grupo_905641" data-name="Grupo 905641" transform="translate(36.162 25.671)">
          <path id="Trazado_634356" data-name="Trazado 634356" d="M273.558,2961.168l-5.187-2.66c.88-1.716,7.875-12.167,11.894-18.136a.607.607,0,0,1,1.073.55C278.838,2947.67,274.438,2959.452,273.558,2961.168Z" transform="translate(-268.371 -2940.098)" fill="#21cbae"/>
        </g>
        <g id="Grupo_905642" data-name="Grupo 905642" transform="translate(34.983 24.795)">
          <path id="Trazado_634357" data-name="Trazado 634357" d="M271.257,2960.354l-6.745-3.459.4-.78c.9-1.761,7.873-12.174,11.947-18.226a1.482,1.482,0,0,1,2.619,1.343c-2.534,6.843-6.92,18.585-7.823,20.343Zm-4.349-4.2,3.551,1.823c.962-2.262,3.286-8.337,6.594-17.24C271.757,2948.621,268.182,2954.055,266.908,2956.156Z" transform="translate(-264.512 -2937.23)"/>
        </g>
        <g id="Grupo_905643" data-name="Grupo 905643" transform="translate(31.645 40.769)">
          <path id="Trazado_634358" data-name="Trazado 634358" d="M266.432,2995.933H253.584a6.424,6.424,0,0,1,12.848,0Z" transform="translate(-253.584 -2989.518)" fill="#21cbae"/>
        </g>
        <g id="Grupo_905644" data-name="Grupo 905644" transform="translate(30.769 39.894)">
          <path id="Trazado_634359" data-name="Trazado 634359" d="M265.317,2994.82h-14.6v-.876a7.3,7.3,0,0,1,14.6,0Zm-12.778-1.751H263.5a5.55,5.55,0,0,0-10.958,0Z" transform="translate(-250.718 -2986.654)"/>
        </g>
        <g id="Grupo_905652" data-name="Grupo 905652" transform="translate(9.556 9.572)">
          <g id="Grupo_905645" data-name="Grupo 905645" transform="translate(26.685)">
            <path id="Trazado_634360" data-name="Trazado 634360" d="M272.285,2889.22a1.827,1.827,0,1,1-1.836-1.819A1.831,1.831,0,0,1,272.285,2889.22Z" transform="translate(-268.63 -2887.401)"/>
          </g>
          <g id="Grupo_905646" data-name="Grupo 905646" transform="translate(13.341 3.578)">
            <path id="Trazado_634361" data-name="Trazado 634361" d="M228.359,2900.015a1.828,1.828,0,1,1-2.5-.657A1.831,1.831,0,0,1,228.359,2900.015Z" transform="translate(-224.952 -2899.111)"/>
          </g>
          <g id="Grupo_905647" data-name="Grupo 905647" transform="translate(3.575 13.342)">
            <path id="Trazado_634362" data-name="Trazado 634362" d="M195.716,2931.315a1.828,1.828,0,1,1-2.493.681A1.832,1.832,0,0,1,195.716,2931.315Z" transform="translate(-192.982 -2931.074)"/>
          </g>
          <g id="Grupo_905648" data-name="Grupo 905648" transform="translate(0 26.685)">
            <path id="Trazado_634363" data-name="Trazado 634363" d="M183.1,2974.75a1.828,1.828,0,1,1-1.819,1.837A1.831,1.831,0,0,1,183.1,2974.75Z" transform="translate(-181.281 -2974.75)"/>
          </g>
          <g id="Grupo_905649" data-name="Grupo 905649" transform="translate(53.388 26.685)">
            <path id="Trazado_634364" data-name="Trazado 634364" d="M357.856,2978.405a1.828,1.828,0,1,1,1.819-1.837A1.832,1.832,0,0,1,357.856,2978.405Z" transform="translate(-356.037 -2974.75)"/>
          </g>
          <g id="Grupo_905650" data-name="Grupo 905650" transform="translate(49.81 13.342)">
            <path id="Trazado_634365" data-name="Trazado 634365" d="M347.059,2934.479a1.828,1.828,0,1,1,.657-2.5A1.831,1.831,0,0,1,347.059,2934.479Z" transform="translate(-344.325 -2931.072)"/>
          </g>
          <g id="Grupo_905651" data-name="Grupo 905651" transform="translate(40.035 3.575)">
            <path id="Trazado_634366" data-name="Trazado 634366" d="M315.737,2901.836a1.828,1.828,0,1,1-.681-2.494A1.831,1.831,0,0,1,315.737,2901.836Z" transform="translate(-312.33 -2899.102)"/>
          </g>
        </g>
        <g id="Grupo_905653" data-name="Grupo 905653" transform="translate(25.259 51.063)">
          <rect id="Rectángulo_303484" data-name="Rectángulo 303484" width="25.62" height="8.582" rx="2" fill="#21cbae"/>
        </g>
        <g id="Grupo_905654" data-name="Grupo 905654" transform="translate(24.383 50.187)">
          <path id="Trazado_634367" data-name="Trazado 634367" d="M254.966,3030.68H232.034a2.222,2.222,0,0,1-2.22-2.219v-5.894a2.223,2.223,0,0,1,2.22-2.219h22.932a2.222,2.222,0,0,1,2.219,2.219v5.894A2.221,2.221,0,0,1,254.966,3030.68Zm-22.932-8.582a.47.47,0,0,0-.47.469v5.894a.47.47,0,0,0,.47.468h22.932a.468.468,0,0,0,.468-.468v-5.894a.468.468,0,0,0-.468-.469Z" transform="translate(-229.814 -3020.348)"/>
        </g>
      </g>
    </g>
  </g>
</svg>
