<svg xmlns="http://www.w3.org/2000/svg" width="150" height="150" viewBox="0 0 150 150">
  <g id="Grupo_906582" data-name="Grupo 906582" transform="translate(-362.815 -4737.926)">
    <g id="Grupo_904836" data-name="Grupo 904836" transform="translate(0.815 1285.926)">
      <g id="Grupo_119595" data-name="Grupo 119595" transform="translate(-0.701 208.372)">
        <circle id="Elipse_5676" data-name="Elipse 5676" cx="75" cy="75" r="75" transform="translate(362.701 3243.628)" fill="#fff"/>
      </g>
    </g>
    <g id="Grupo_905962" data-name="Grupo 905962" transform="translate(-4 4)">
      <g id="Grupo_899633" data-name="Grupo 899633" transform="translate(390 4783.393)">
        <g id="Grupo_899386" data-name="Grupo 899386" transform="translate(0 0)">
          <g id="Grupo_898658" data-name="Grupo 898658" transform="translate(0)">
            <g id="Grupo_898655" data-name="Grupo 898655" transform="translate(0.166 0.166)">
              <rect id="Rectángulo_302542" data-name="Rectángulo 302542" width="99.171" height="70.805" fill="#fecb2f" stroke="#000" stroke-width="1"/>
            </g>
            <g id="Grupo_898657" data-name="Grupo 898657">
              <g id="Grupo_898656" data-name="Grupo 898656">
                <path id="Trazado_625825" data-name="Trazado 625825" d="M304.881,415.266s-.008-.435-.012-1.264l-.014-3.675c-.006-3.23-.018-7.974-.03-14.08-.016-12.2-.038-29.841-.065-51.619l.121.183c-25.784.018-60.737.042-99.164.066h-.006l.164-.249c0,24.855-.006,48.752-.008,70.638l-.156-.237c28.87.045,53.642.084,71.2.114l20.564.063c2.393.015,4.24.024,5.5.03l1.419.015c.321.006.489.015.489.015s-.154.009-.469.015l-1.4.015c-1.247.006-3.082.015-5.462.03l-20.526.063c-17.588.03-42.4.069-71.31.114h-.156v-.237c0-21.886-.006-45.783-.01-70.638v-.252h.172l99.164.069H305v.183c-.028,21.826-.05,39.5-.065,51.73-.012,6.088-.022,10.82-.03,14.038l-.012,3.642C304.889,414.858,304.881,415.266,304.881,415.266Z" transform="translate(-205.545 -344.376)" fill="#263238" stroke="#000" stroke-width="1"/>
              </g>
            </g>
          </g>
          <g id="Grupo_898660" data-name="Grupo 898660" transform="translate(0.166 7.908)">
            <g id="Grupo_898659" data-name="Grupo 898659">
              <path id="Trazado_625826" data-name="Trazado 625826" d="M304.951,351.644c0,.091-22.236.164-49.659.164s-49.663-.073-49.663-.164,22.23-.166,49.663-.166S304.951,351.551,304.951,351.644Z" transform="translate(-205.629 -351.478)" fill="#263238" stroke="#000" stroke-width="1"/>
            </g>
          </g>
          <g id="Grupo_898665" data-name="Grupo 898665" transform="translate(3.562 2.277)">
            <g id="Grupo_898662" data-name="Grupo 898662" transform="translate(0 0.182)">
              <g id="Grupo_898661" data-name="Grupo 898661">
                <path id="Trazado_625827" data-name="Trazado 625827" d="M212.237,346.943a17.824,17.824,0,0,1-2.161,2.165,17.61,17.61,0,0,1-2.342,1.972,35.014,35.014,0,0,1,4.5-4.137Z" transform="translate(-207.733 -346.941)" fill="#263238" stroke="#000" stroke-width="1"/>
              </g>
            </g>
            <g id="Grupo_898664" data-name="Grupo 898664" transform="translate(0.182 0)">
              <g id="Grupo_898663" data-name="Grupo 898663">
                <path id="Trazado_625828" data-name="Trazado 625828" d="M211.987,351.33a17.884,17.884,0,0,1-2.167-2.161,17.641,17.641,0,0,1-1.97-2.342,35.015,35.015,0,0,1,4.137,4.5Z" transform="translate(-207.847 -346.826)" fill="#263238" stroke="#000" stroke-width="1"/>
              </g>
            </g>
          </g>
          <g id="Grupo_898667" data-name="Grupo 898667" transform="translate(11.483 2.235)">
            <g id="Grupo_898666" data-name="Grupo 898666" transform="translate(0 0)">
              <path id="Trazado_625829" data-name="Trazado 625829" d="M217.2,351.253a1.961,1.961,0,0,1-.025-.333l-.03-.891c-.022-.761-.048-1.824-.059-3.094l.114.114-4.318.017c-.03.029.251-.251.132-.132v.587l0,.578,0,1.116L213,351.253l-.114-.114c1.27.011,2.334.037,3.094.059l.891.03a2.17,2.17,0,0,1,.333.026,9.977,9.977,0,0,1-1.151.057c-.753.021-1.848.046-3.167.059h-.114l0-.116c0-.632-.008-1.315-.013-2.037l0-1.116,0-.578v-.587l.133-.133,4.318.018h.116l0,.114c-.011,1.321-.037,2.415-.057,3.167A9.936,9.936,0,0,1,217.2,351.253Z" transform="translate(-212.722 -346.8)" fill="#263238" stroke="#000" stroke-width="1"/>
            </g>
          </g>
          <g id="Grupo_898669" data-name="Grupo 898669" transform="translate(19.385 6.173)">
            <g id="Grupo_898668" data-name="Grupo 898668" transform="translate(0 0)">
              <path id="Trazado_625830" data-name="Trazado 625830" d="M222.336,349.413a20.445,20.445,0,0,1-4.636,0,20.213,20.213,0,0,1,4.636,0Z" transform="translate(-217.7 -349.28)" fill="#263238" stroke="#000" stroke-width="1"/>
            </g>
          </g>
        </g>
        <path id="Trazado_626552" data-name="Trazado 626552" d="M2633.551,1123.364h-83.337a3.559,3.559,0,0,1-3.547-3.548h0a3.558,3.558,0,0,1,3.547-3.548h83.337a3.556,3.556,0,0,1,3.546,3.548h0A3.557,3.557,0,0,1,2633.551,1123.364Z" transform="translate(-2540.045 -1073.635)" fill="#e8e8e8" stroke="#000" stroke-width="1"/>
        <path id="Trazado_635018" data-name="Trazado 635018" d="M2592.622,1123.364h-44.079c-1.031,0-1.876-1.6-1.876-3.548h0c0-1.952.845-3.548,1.876-3.548h44.079c1.033,0,1.876,1.6,1.876,3.548h0C2594.5,1121.766,2593.654,1123.364,2592.622,1123.364Z" transform="translate(-2539.972 -1073.635)" fill="#ef3c79" stroke="#000" stroke-width="1"/>
        <path id="Trazado_626554" data-name="Trazado 626554" d="M2586.566,1166.99H2548.3a1.634,1.634,0,0,1-1.629-1.629h0a1.634,1.634,0,0,1,1.629-1.629h38.27a1.633,1.633,0,0,1,1.629,1.629h0A1.633,1.633,0,0,1,2586.566,1166.99Z" transform="translate(-2491.142 -1101.937)" fill="#21cbae" stroke="#000" stroke-width="1"/>
        <path id="Trazado_626555" data-name="Trazado 626555" d="M2572.035,1143.259h-45.771a1.634,1.634,0,0,1-1.629-1.629h0a1.634,1.634,0,0,1,1.629-1.629h45.771a1.633,1.633,0,0,1,1.628,1.629h0A1.633,1.633,0,0,1,2572.035,1143.259Z" transform="translate(-2476.611 -1086.286)" fill="#21cbae" stroke="#000" stroke-width="1"/>
        <g id="Grupo_899402" data-name="Grupo 899402" transform="translate(7.695 14.908)">
          <path id="Trazado_626553" data-name="Trazado 626553" d="M2028.909,790.465h-30.371a1.3,1.3,0,0,1-1.293-1.293h0a1.3,1.3,0,0,1,1.293-1.293h30.371a1.3,1.3,0,0,1,1.293,1.293h0A1.3,1.3,0,0,1,2028.909,790.465Z" transform="translate(-1996.098 -787.879)" fill="#0b5999" stroke="#000" stroke-width="1"/>
          <g id="Grupo_899399" data-name="Grupo 899399" transform="translate(0 8.129)">
            <rect id="Rectángulo_302528" data-name="Rectángulo 302528" width="19.105" height="2.586" rx="1.293" transform="translate(5.675)" fill="#0b5999" stroke="#000" stroke-width="1"/>
            <path id="Trazado_625350" data-name="Trazado 625350" d="M1993,819.257a1.293,1.293,0,1,1,1.292,1.293A1.293,1.293,0,0,1,1993,819.257Z" transform="translate(-1992.998 -817.964)" fill="#0b5999" stroke="#000" stroke-width="1"/>
          </g>
          <g id="Grupo_899400" data-name="Grupo 899400" transform="translate(0 13.275)">
            <rect id="Rectángulo_302529" data-name="Rectángulo 302529" width="22.441" height="2.586" rx="1.293" transform="translate(5.675 0)" fill="#0b5999" stroke="#000" stroke-width="1"/>
            <path id="Trazado_625351" data-name="Trazado 625351" d="M1993,838.3a1.293,1.293,0,1,1,1.292,1.293A1.293,1.293,0,0,1,1993,838.3Z" transform="translate(-1992.998 -837.005)" fill="#0b5999" stroke="#000" stroke-width="1"/>
          </g>
          <g id="Grupo_899401" data-name="Grupo 899401" transform="translate(0 18.859)">
            <rect id="Rectángulo_302530" data-name="Rectángulo 302530" width="19.105" height="2.586" rx="1.293" transform="translate(5.675 0)" fill="#0b5999" stroke="#000" stroke-width="1"/>
            <path id="Trazado_625352" data-name="Trazado 625352" d="M1993,858.966a1.293,1.293,0,1,1,1.292,1.293A1.293,1.293,0,0,1,1993,858.966Z" transform="translate(-1992.998 -857.673)" fill="#0b5999" stroke="#000" stroke-width="1"/>
          </g>
        </g>
      </g>
      <g id="Grupo_905960" data-name="Grupo 905960" transform="translate(-738.961 4337.464)">
        <g id="Grupo_904942" data-name="Grupo 904942" transform="translate(1182.101 428.276)">
          <path id="Trazado_629076" data-name="Trazado 629076" d="M1172.426,441.266c.04.2.223.273.675.452.808.32,1.616.641,2.412.989a.561.561,0,0,1,.266.392c.092.846.133,1.7.234,2.542a.462.462,0,0,1-.23.549c-.94.591-1.864,1.208-2.783,1.809a12.15,12.15,0,0,0,2.007,3.822c.975-.41,1.978-.814,2.963-1.257a.535.535,0,0,1,.719.133,22.282,22.282,0,0,0,1.893,1.58c.264.2.405.36.32.724-.222.943-.387,1.9-.593,2.845-.055.254-.007.414.244.491l3.546,1.1c.29.09.335-.149.408-.32.367-.866.74-1.73,1.077-2.608a.608.608,0,0,1,.655-.449c.947-.03,1.892-.121,2.911-.193l1.952,2.963a12.677,12.677,0,0,0,3.78-2.036l-1.336-3.211c.7-.888,1.369-1.7,1.988-2.541a.478.478,0,0,1,.588-.226c.932.2,1.871.381,2.805.579.2.043.35.051.453-.17a12.129,12.129,0,0,0,1.115-3.488.381.381,0,0,0-.286-.475c-.909-.375-1.81-.768-2.72-1.139a.443.443,0,0,1-.333-.453c-.069-.933-.179-1.864-.312-2.79a.377.377,0,0,1,.208-.438c.927-.611,1.851-1.229,2.8-1.86a13.609,13.609,0,0,0-1.974-3.759l-3.346,1.393-2.735-2.269c.167-.834.367-1.794.55-2.756.15-.79.263-.686-.53-1.019a1.337,1.337,0,0,1-.209-.137l-2.13-.641a2.644,2.644,0,0,1-.5-.062c-.406-.129-.635-.036-.8.4-.337.907-.732,1.793-1.124,2.678a.514.514,0,0,1-.347.253c-.831.1-1.672.138-2.495.286a.629.629,0,0,1-.77-.351c-.563-.889-1.162-1.755-1.806-2.718l-3.771,1.98c.1.25.153.4.213.538.367.881.726,1.766,1.108,2.64a.48.48,0,0,1-.117.59c-.584.694-1.123,1.426-1.7,2.124a.568.568,0,0,1-.453.16c-.771-.134-1.535-.311-2.3-.46-.622-.121-.854-.163-1.051.04Z" transform="translate(-1172.426 -429.276)" fill="#ef3c79" stroke="#040404" stroke-width="1"/>
          <g id="Elipse_6617" data-name="Elipse 6617" transform="translate(7.822 7.26)" fill="#fff" stroke="#030303" stroke-width="1">
            <circle cx="6.5" cy="6.5" r="6.5" stroke="none"/>
            <circle cx="6.5" cy="6.5" r="6" fill="none"/>
          </g>
        </g>
      </g>
      <g id="Grupo_905961" data-name="Grupo 905961" transform="translate(-751.86 4321.477)">
        <g id="Grupo_904942-2" data-name="Grupo 904942" transform="translate(1182.101 428.276)">
          <path id="Trazado_629076-2" data-name="Trazado 629076" d="M1172.426,437.393c.027.137.151.185.457.306.547.217,1.094.434,1.633.67a.38.38,0,0,1,.18.266c.062.573.09,1.149.158,1.721a.313.313,0,0,1-.156.371c-.636.4-1.262.818-1.884,1.224a8.224,8.224,0,0,0,1.359,2.588c.66-.278,1.339-.551,2.006-.851a.362.362,0,0,1,.487.09,15.1,15.1,0,0,0,1.281,1.069c.179.137.275.244.216.49-.15.638-.262,1.285-.4,1.926-.038.172,0,.28.165.333l2.4.742c.2.061.227-.1.276-.217.249-.586.5-1.171.729-1.765a.411.411,0,0,1,.443-.3c.641-.02,1.281-.082,1.971-.131l1.321,2.006a8.582,8.582,0,0,0,2.559-1.378l-.9-2.174c.475-.6.927-1.149,1.345-1.72a.324.324,0,0,1,.4-.153c.631.139,1.267.258,1.9.392.136.029.237.034.307-.115a8.209,8.209,0,0,0,.755-2.361.258.258,0,0,0-.194-.322c-.615-.254-1.225-.52-1.841-.771a.3.3,0,0,1-.225-.306c-.047-.632-.121-1.262-.211-1.889a.255.255,0,0,1,.141-.3c.628-.414,1.253-.832,1.9-1.259a9.21,9.21,0,0,0-1.336-2.544l-2.266.943-1.852-1.536c.113-.565.248-1.214.373-1.866.1-.535.178-.464-.359-.69a.915.915,0,0,1-.142-.093l-1.442-.434a1.79,1.79,0,0,1-.336-.042c-.275-.087-.43-.025-.54.27-.228.614-.5,1.214-.761,1.813a.348.348,0,0,1-.235.171c-.562.071-1.132.094-1.689.194a.426.426,0,0,1-.521-.238c-.381-.6-.787-1.188-1.222-1.84l-2.553,1.341c.067.169.1.268.144.364.248.6.491,1.2.75,1.787a.325.325,0,0,1-.079.4c-.4.47-.76.965-1.153,1.438a.384.384,0,0,1-.307.108c-.522-.091-1.039-.21-1.56-.312-.421-.082-.578-.111-.711.027Z" transform="translate(-1172.426 -429.276)" fill="#0b5999" stroke="#040404" stroke-width="1"/>
          <g id="Elipse_6617-2" data-name="Elipse 6617" transform="translate(5.295 4.915)" fill="#fff" stroke="#030303" stroke-width="1">
            <circle cx="4.4" cy="4.4" r="4.4" stroke="none"/>
            <circle cx="4.4" cy="4.4" r="3.9" fill="none"/>
          </g>
        </g>
      </g>
    </g>
  </g>
</svg>
