<svg xmlns="http://www.w3.org/2000/svg" xmlns:xlink="http://www.w3.org/1999/xlink" width="921.645" height="509" viewBox="0 0 921.645 509">
  <defs>
    <filter id="Rectángulo_303345" x="419.822" y="352" width="501.823" height="157" filterUnits="userSpaceOnUse">
      <feOffset dy="3" input="SourceAlpha"/>
      <feGaussianBlur stdDeviation="3" result="blur"/>
      <feFlood flood-opacity="0.161"/>
      <feComposite operator="in" in2="blur"/>
      <feComposite in="SourceGraphic"/>
    </filter>
    <filter id="Rectángulo_303335" x="0" y="0" width="501.823" height="130" filterUnits="userSpaceOnUse">
      <feOffset dy="3" input="SourceAlpha"/>
      <feGaussianBlur stdDeviation="3" result="blur-2"/>
      <feFlood flood-opacity="0.161"/>
      <feComposite operator="in" in2="blur-2"/>
      <feComposite in="SourceGraphic"/>
    </filter>
    <filter id="Rectángulo_303344" x="209.822" y="176" width="501.823" height="130" filterUnits="userSpaceOnUse">
      <feOffset dy="3" input="SourceAlpha"/>
      <feGaussianBlur stdDeviation="3" result="blur-3"/>
      <feFlood flood-opacity="0.161"/>
      <feComposite operator="in" in2="blur-3"/>
      <feComposite in="SourceGraphic"/>
    </filter>
  </defs>
  <g id="Grupo_906575" data-name="Grupo 906575" transform="translate(-338.822 -894)">
    <g id="Grupo_904731" data-name="Grupo 904731" transform="translate(-42.178 -2)">
      <g id="Grupo_904730" data-name="Grupo 904730">
        <g transform="matrix(1, 0, 0, 1, 381, 896)" filter="url(#Rectángulo_303345)">
          <g id="Rectángulo_303345-2" data-name="Rectángulo 303345" transform="translate(428.82 358)" fill="#eedca5" stroke="#fff" stroke-width="5">
            <path d="M19,0H432.823a51,51,0,0,1,51,51v69a19,19,0,0,1-19,19H50A50,50,0,0,1,0,89V19A19,19,0,0,1,19,0Z" stroke="none"/>
            <path d="M19,2.5H432.823a48.5,48.5,0,0,1,48.5,48.5v69a16.5,16.5,0,0,1-16.5,16.5H50A47.5,47.5,0,0,1,2.5,89V19A16.5,16.5,0,0,1,19,2.5Z" fill="none"/>
          </g>
        </g>
        <text id="Se_pasa_al_equipo_de_pruebas_para_verificar_todos_los_módulos_y_servicios_e_identificar_que_se_hayan_corregido_los_errores_y_que_la_solución_de_estos_no_hayan_generado_otros._" data-name="Se pasa al equipo de pruebas para verificar todos los módulos y servicios e identificar que se hayan corregido los errores y que la solución de estos no hayan generado otros. " transform="translate(849.822 1276)" fill="#12263f" font-size="16" font-family="Roboto-Bold, Roboto" font-weight="700"><tspan x="12.652" y="17">Se pasa al equipo de pruebas para verificar todos los </tspan><tspan x="0.031" y="41">módulos y servicios e identificar que se hayan corregido </tspan><tspan x="34.496" y="65">los errores y que la solución de estos no hayan </tspan><tspan x="145.633" y="89">generado otros. </tspan></text>
      </g>
      <g id="Unión_12" data-name="Unión 12" transform="translate(-4605.209 -10518)" fill="#fecb2f">
        <path d="M 5655.822265625 11772.0439453125 C 5654.314453125 11772.0439453125 5652.96142578125 11771.3310546875 5652.1103515625 11770.087890625 L 5629.814453125 11737.5390625 C 5628.85400390625 11736.1357421875 5628.75390625 11734.400390625 5629.54736328125 11732.896484375 C 5630.33984375 11731.392578125 5631.82763671875 11730.4951171875 5633.52685546875 11730.4951171875 L 5643.54736328125 11730.4951171875 L 5645.04736328125 11730.4951171875 L 5645.04736328125 11728.9951171875 L 5645.04736328125 11706.9990234375 C 5645.04736328125 11703.9677734375 5647.5146484375 11701.5009765625 5650.5478515625 11701.5009765625 L 5661.09716796875 11701.5009765625 C 5664.1298828125 11701.5009765625 5666.59716796875 11703.9677734375 5666.59716796875 11706.9990234375 L 5666.59716796875 11728.9951171875 L 5666.59716796875 11730.4951171875 L 5668.09716796875 11730.4951171875 L 5678.11767578125 11730.4951171875 C 5679.8173828125 11730.4951171875 5681.30517578125 11731.392578125 5682.09765625 11732.896484375 C 5682.890625 11734.400390625 5682.79052734375 11736.1357421875 5681.82958984375 11737.5390625 L 5659.53466796875 11770.087890625 C 5658.68310546875 11771.3310546875 5657.330078125 11772.0439453125 5655.822265625 11772.0439453125 Z" stroke="none"/>
        <path d="M 5655.822265625 11770.5439453125 C 5656.82763671875 11770.5439453125 5657.7294921875 11770.0693359375 5658.296875 11769.240234375 L 5680.59228515625 11736.69140625 C 5681.515625 11735.3427734375 5681.02490234375 11734.0771484375 5680.77099609375 11733.595703125 C 5680.51708984375 11733.1142578125 5679.7509765625 11731.9951171875 5678.11767578125 11731.9951171875 L 5665.09716796875 11731.9951171875 L 5665.09716796875 11706.9990234375 C 5665.09716796875 11704.794921875 5663.302734375 11703.0009765625 5661.09716796875 11703.0009765625 L 5650.5478515625 11703.0009765625 C 5648.341796875 11703.0009765625 5646.54736328125 11704.794921875 5646.54736328125 11706.9990234375 L 5646.54736328125 11731.9951171875 L 5633.52685546875 11731.9951171875 C 5631.89404296875 11731.9951171875 5631.1279296875 11733.1142578125 5630.8740234375 11733.595703125 C 5630.6201171875 11734.0771484375 5630.12890625 11735.3427734375 5631.05224609375 11736.69140625 L 5653.34765625 11769.240234375 C 5653.9150390625 11770.0693359375 5654.81689453125 11770.5439453125 5655.822265625 11770.5439453125 M 5655.822265625 11773.5439453125 C 5653.94287109375 11773.5439453125 5652.0634765625 11772.6748046875 5650.87255859375 11770.935546875 L 5628.5771484375 11738.38671875 C 5625.85009765625 11734.4033203125 5628.70166015625 11728.9951171875 5633.52685546875 11728.9951171875 L 5643.54736328125 11728.9951171875 L 5643.54736328125 11706.9990234375 C 5643.54736328125 11703.1337890625 5646.6826171875 11700.0009765625 5650.5478515625 11700.0009765625 L 5661.09716796875 11700.0009765625 C 5664.9619140625 11700.0009765625 5668.09716796875 11703.1337890625 5668.09716796875 11706.9990234375 L 5668.09716796875 11728.9951171875 L 5678.11767578125 11728.9951171875 C 5682.943359375 11728.9951171875 5685.794921875 11734.4033203125 5683.0673828125 11738.38671875 L 5660.77197265625 11770.935546875 C 5659.5810546875 11772.6748046875 5657.70166015625 11773.5439453125 5655.822265625 11773.5439453125 Z" stroke="none" fill="#fff"/>
      </g>
      <g id="Unión_13" data-name="Unión 13" transform="translate(-4817.517 -10695.543)" fill="#fecb2f">
        <path d="M 5655.822265625 11772.0439453125 C 5654.314453125 11772.0439453125 5652.96142578125 11771.3310546875 5652.1103515625 11770.087890625 L 5629.814453125 11737.5390625 C 5628.85400390625 11736.1357421875 5628.75390625 11734.400390625 5629.54736328125 11732.896484375 C 5630.33984375 11731.392578125 5631.82763671875 11730.4951171875 5633.52685546875 11730.4951171875 L 5643.54736328125 11730.4951171875 L 5645.04736328125 11730.4951171875 L 5645.04736328125 11728.9951171875 L 5645.04736328125 11706.9990234375 C 5645.04736328125 11703.9677734375 5647.5146484375 11701.5009765625 5650.5478515625 11701.5009765625 L 5661.09716796875 11701.5009765625 C 5664.1298828125 11701.5009765625 5666.59716796875 11703.9677734375 5666.59716796875 11706.9990234375 L 5666.59716796875 11728.9951171875 L 5666.59716796875 11730.4951171875 L 5668.09716796875 11730.4951171875 L 5678.11767578125 11730.4951171875 C 5679.8173828125 11730.4951171875 5681.30517578125 11731.392578125 5682.09765625 11732.896484375 C 5682.890625 11734.400390625 5682.79052734375 11736.1357421875 5681.82958984375 11737.5390625 L 5659.53466796875 11770.087890625 C 5658.68310546875 11771.3310546875 5657.330078125 11772.0439453125 5655.822265625 11772.0439453125 Z" stroke="none"/>
        <path d="M 5655.822265625 11770.5439453125 C 5656.82763671875 11770.5439453125 5657.7294921875 11770.0693359375 5658.296875 11769.240234375 L 5680.59228515625 11736.69140625 C 5681.515625 11735.3427734375 5681.02490234375 11734.0771484375 5680.77099609375 11733.595703125 C 5680.51708984375 11733.1142578125 5679.7509765625 11731.9951171875 5678.11767578125 11731.9951171875 L 5665.09716796875 11731.9951171875 L 5665.09716796875 11706.9990234375 C 5665.09716796875 11704.794921875 5663.302734375 11703.0009765625 5661.09716796875 11703.0009765625 L 5650.5478515625 11703.0009765625 C 5648.341796875 11703.0009765625 5646.54736328125 11704.794921875 5646.54736328125 11706.9990234375 L 5646.54736328125 11731.9951171875 L 5633.52685546875 11731.9951171875 C 5631.89404296875 11731.9951171875 5631.1279296875 11733.1142578125 5630.8740234375 11733.595703125 C 5630.6201171875 11734.0771484375 5630.12890625 11735.3427734375 5631.05224609375 11736.69140625 L 5653.34765625 11769.240234375 C 5653.9150390625 11770.0693359375 5654.81689453125 11770.5439453125 5655.822265625 11770.5439453125 M 5655.822265625 11773.5439453125 C 5653.94287109375 11773.5439453125 5652.0634765625 11772.6748046875 5650.87255859375 11770.935546875 L 5628.5771484375 11738.38671875 C 5625.85009765625 11734.4033203125 5628.70166015625 11728.9951171875 5633.52685546875 11728.9951171875 L 5643.54736328125 11728.9951171875 L 5643.54736328125 11706.9990234375 C 5643.54736328125 11703.1337890625 5646.6826171875 11700.0009765625 5650.5478515625 11700.0009765625 L 5661.09716796875 11700.0009765625 C 5664.9619140625 11700.0009765625 5668.09716796875 11703.1337890625 5668.09716796875 11706.9990234375 L 5668.09716796875 11728.9951171875 L 5678.11767578125 11728.9951171875 C 5682.943359375 11728.9951171875 5685.794921875 11734.4033203125 5683.0673828125 11738.38671875 L 5660.77197265625 11770.935546875 C 5659.5810546875 11772.6748046875 5657.70166015625 11773.5439453125 5655.822265625 11773.5439453125 Z" stroke="none" fill="#fff"/>
      </g>
      <g id="Grupo_904729" data-name="Grupo 904729">
        <g transform="matrix(1, 0, 0, 1, 381, 896)" filter="url(#Rectángulo_303335)">
          <g id="Rectángulo_303335-2" data-name="Rectángulo 303335" transform="translate(9 6)" fill="#aae9e3" stroke="#fff" stroke-width="5">
            <path d="M19,0H432.823a51,51,0,0,1,51,51V93a19,19,0,0,1-19,19H50A50,50,0,0,1,0,62V19A19,19,0,0,1,19,0Z" stroke="none"/>
            <path d="M19,2.5H432.823a48.5,48.5,0,0,1,48.5,48.5V93a16.5,16.5,0,0,1-16.5,16.5H50A47.5,47.5,0,0,1,2.5,62V19A16.5,16.5,0,0,1,19,2.5Z" fill="none"/>
          </g>
        </g>
        <text id="Cuando_hay_defectos_falencias_o_errores_encontrados_y_documentados_en_las_pruebas_" data-name="Cuando hay defectos, falencias o errores encontrados y documentados en las pruebas…" transform="translate(438 935)" fill="#12263f" font-size="16" font-family="Roboto-Bold, Roboto" font-weight="700"><tspan x="0.672" y="17">Cuando hay defectos, falencias o errores encontrados </tspan><tspan x="74.5" y="41">y documentados en las pruebas…</tspan></text>
      </g>
      <g id="Grupo_904728" data-name="Grupo 904728">
        <g transform="matrix(1, 0, 0, 1, 381, 896)" filter="url(#Rectángulo_303344)">
          <g id="Rectángulo_303344-2" data-name="Rectángulo 303344" transform="translate(218.82 182)" fill="#f3b7d0" stroke="#fff" stroke-width="5">
            <path d="M19,0H432.823a51,51,0,0,1,51,51V93a19,19,0,0,1-19,19H50A50,50,0,0,1,0,62V19A19,19,0,0,1,19,0Z" stroke="none"/>
            <path d="M19,2.5H432.823a48.5,48.5,0,0,1,48.5,48.5V93a16.5,16.5,0,0,1-16.5,16.5H50A47.5,47.5,0,0,1,2.5,62V19A16.5,16.5,0,0,1,19,2.5Z" fill="none"/>
          </g>
        </g>
        <text id="El_equipo_de_desarrollo_debe_corregir._" data-name="El equipo de desarrollo debe corregir. " transform="translate(647.822 1120)" fill="#12263f" font-size="16" font-family="Roboto-Bold, Roboto" font-weight="700"><tspan x="60.535" y="17">El equipo de desarrollo debe corregir. </tspan></text>
      </g>
    </g>
  </g>
</svg>
