<svg xmlns="http://www.w3.org/2000/svg" width="150" height="150" viewBox="0 0 150 150">
  <g id="Grupo_906584" data-name="Grupo 906584" transform="translate(-1087.815 -4737.926)">
    <g id="Grupo_904833" data-name="Grupo 904833" transform="translate(-4.185 1285.926)">
      <g id="Grupo_119597" data-name="Grupo 119597" transform="translate(-0.701 208.372)">
        <g id="Grupo_118165" data-name="Grupo 118165">
          <circle id="Elipse_5678" data-name="Elipse 5678" cx="75" cy="75" r="75" transform="translate(1092.701 3243.628)" fill="#fff"/>
        </g>
      </g>
    </g>
    <g id="Grupo_904919" data-name="Grupo 904919" transform="translate(961.774 4612.089)">
      <g id="Grupo_904874" data-name="Grupo 904874" transform="translate(163.43 157.341)">
        <g id="Grupo_904841" data-name="Grupo 904841" transform="translate(0 29.084)">
          <path id="Trazado_633622" data-name="Trazado 633622" d="M570.9,1300.709a11.976,11.976,0,0,1-.14,1.971,4.612,4.612,0,0,1-.518,1.5,3.43,3.43,0,0,1-1.23,1.271,3.338,3.338,0,0,1-3.583-.153,3.662,3.662,0,0,1-1.269-1.665,6.125,6.125,0,0,1-.318-1.281,10.6,10.6,0,0,1-.1-1.52,14.631,14.631,0,0,1,.112-1.9,6.306,6.306,0,0,1,.349-1.455,3.125,3.125,0,0,1,3.076-2.061,3.518,3.518,0,0,1,1.307.233,3.025,3.025,0,0,1,1.032.686,3.9,3.9,0,0,1,.751,1.115A8.017,8.017,0,0,1,570.9,1300.709Zm-1.915-.14a11.6,11.6,0,0,0-.154-2.093,2.568,2.568,0,0,0-.517-1.231,1.268,1.268,0,0,0-1.006-.417,1.294,1.294,0,0,0-1.283.931,8.472,8.472,0,0,0-.36,2.866,12.3,12.3,0,0,0,.154,2.153,2.706,2.706,0,0,0,.517,1.269,1.351,1.351,0,0,0,1.992-.017,2.784,2.784,0,0,0,.511-1.281A13.058,13.058,0,0,0,568.986,1300.568Z" transform="translate(-563.743 -1295.41)"/>
        </g>
        <g id="Grupo_904842" data-name="Grupo 904842" transform="translate(8.738 29.097)">
          <path id="Trazado_633623" data-name="Trazado 633623" d="M842.584,1305.16V1298.8a5.708,5.708,0,0,1-2.39,1.363.708.708,0,0,1-.521-.233.756.756,0,0,1-.227-.543.613.613,0,0,1,.224-.524,4.939,4.939,0,0,1,.789-.432,5.906,5.906,0,0,0,1.352-.839,5.735,5.735,0,0,0,.9-.988c.261-.363.431-.587.511-.671a.611.611,0,0,1,.448-.126.716.716,0,0,1,.593.287,1.249,1.249,0,0,1,.224.79v8q0,1.406-.958,1.4a.877.877,0,0,1-.685-.285A1.225,1.225,0,0,1,842.584,1305.16Z" transform="translate(-839.445 -1295.806)"/>
        </g>
        <g id="Grupo_904843" data-name="Grupo 904843" transform="translate(59.554 29.084)">
          <path id="Trazado_633624" data-name="Trazado 633624" d="M2449.873,1300.709a12.041,12.041,0,0,1-.139,1.971,4.617,4.617,0,0,1-.518,1.5,3.429,3.429,0,0,1-1.229,1.271,3.338,3.338,0,0,1-3.583-.153,3.66,3.66,0,0,1-1.269-1.665,6.121,6.121,0,0,1-.318-1.281,10.6,10.6,0,0,1-.1-1.52,14.664,14.664,0,0,1,.112-1.9,6.3,6.3,0,0,1,.349-1.455,3.125,3.125,0,0,1,3.076-2.061,3.516,3.516,0,0,1,1.307.233,3.026,3.026,0,0,1,1.032.686,3.9,3.9,0,0,1,.75,1.115A8.019,8.019,0,0,1,2449.873,1300.709Zm-1.915-.14a11.6,11.6,0,0,0-.154-2.093,2.565,2.565,0,0,0-.517-1.231,1.268,1.268,0,0,0-1.006-.417,1.294,1.294,0,0,0-1.283.931,8.476,8.476,0,0,0-.36,2.866,12.293,12.293,0,0,0,.155,2.153,2.7,2.7,0,0,0,.517,1.269,1.351,1.351,0,0,0,1.992-.017,2.786,2.786,0,0,0,.51-1.281A13.035,13.035,0,0,0,2447.958,1300.568Z" transform="translate(-2442.715 -1295.41)"/>
        </g>
        <g id="Grupo_904844" data-name="Grupo 904844" transform="translate(68.062 29.084)">
          <path id="Trazado_633625" data-name="Trazado 633625" d="M2718.3,1300.709a11.982,11.982,0,0,1-.14,1.971,4.628,4.628,0,0,1-.518,1.5,3.432,3.432,0,0,1-1.23,1.271,3.338,3.338,0,0,1-3.583-.153,3.661,3.661,0,0,1-1.268-1.665,6.106,6.106,0,0,1-.318-1.281,10.6,10.6,0,0,1-.1-1.52,14.578,14.578,0,0,1,.112-1.9,6.317,6.317,0,0,1,.349-1.455,3.125,3.125,0,0,1,3.076-2.061,3.521,3.521,0,0,1,1.308.233,3.026,3.026,0,0,1,1.031.686,3.905,3.905,0,0,1,.75,1.115A8.014,8.014,0,0,1,2718.3,1300.709Zm-1.916-.14a11.573,11.573,0,0,0-.154-2.093,2.57,2.57,0,0,0-.517-1.231,1.269,1.269,0,0,0-1.007-.417,1.294,1.294,0,0,0-1.283.931,8.476,8.476,0,0,0-.36,2.866,12.323,12.323,0,0,0,.154,2.153,2.708,2.708,0,0,0,.517,1.269,1.351,1.351,0,0,0,1.992-.017,2.781,2.781,0,0,0,.51-1.281A13.035,13.035,0,0,0,2716.382,1300.568Z" transform="translate(-2711.139 -1295.41)"/>
        </g>
        <g id="Grupo_904845" data-name="Grupo 904845" transform="translate(0 14.542)">
          <path id="Trazado_633626" data-name="Trazado 633626" d="M570.9,841.9a11.976,11.976,0,0,1-.14,1.971,4.614,4.614,0,0,1-.518,1.5,3.429,3.429,0,0,1-1.23,1.271,3.338,3.338,0,0,1-3.583-.153,3.662,3.662,0,0,1-1.269-1.665,6.125,6.125,0,0,1-.318-1.281,10.6,10.6,0,0,1-.1-1.52,14.631,14.631,0,0,1,.112-1.9,6.3,6.3,0,0,1,.349-1.455,3.125,3.125,0,0,1,3.076-2.061,3.521,3.521,0,0,1,1.307.233,3.023,3.023,0,0,1,1.032.686,3.905,3.905,0,0,1,.751,1.116A8.017,8.017,0,0,1,570.9,841.9Zm-1.915-.14a11.606,11.606,0,0,0-.154-2.093,2.567,2.567,0,0,0-.517-1.231,1.268,1.268,0,0,0-1.006-.417,1.294,1.294,0,0,0-1.283.931,8.473,8.473,0,0,0-.36,2.866,12.3,12.3,0,0,0,.154,2.154,2.707,2.707,0,0,0,.517,1.269,1.351,1.351,0,0,0,1.992-.017,2.785,2.785,0,0,0,.511-1.281A13.062,13.062,0,0,0,568.986,841.757Z" transform="translate(-563.743 -836.599)"/>
        </g>
        <g id="Grupo_904846" data-name="Grupo 904846" transform="translate(8.738 14.555)">
          <path id="Trazado_633627" data-name="Trazado 633627" d="M842.584,846.35v-6.362a5.708,5.708,0,0,1-2.39,1.363.708.708,0,0,1-.521-.233.757.757,0,0,1-.227-.543.613.613,0,0,1,.224-.524,4.943,4.943,0,0,1,.789-.432,5.908,5.908,0,0,0,1.352-.839,5.731,5.731,0,0,0,.9-.988c.261-.363.431-.587.511-.671a.61.61,0,0,1,.448-.126.716.716,0,0,1,.593.287,1.25,1.25,0,0,1,.224.791v8q0,1.406-.958,1.4a.877.877,0,0,1-.685-.285A1.225,1.225,0,0,1,842.584,846.35Z" transform="translate(-839.445 -836.996)"/>
        </g>
        <g id="Grupo_904847" data-name="Grupo 904847" transform="translate(17.015 14.542)">
          <path id="Trazado_633628" data-name="Trazado 633628" d="M1107.75,841.9a11.971,11.971,0,0,1-.139,1.971,4.618,4.618,0,0,1-.518,1.5,3.428,3.428,0,0,1-1.23,1.271,3.338,3.338,0,0,1-3.583-.153,3.662,3.662,0,0,1-1.269-1.665,6.129,6.129,0,0,1-.318-1.281,10.581,10.581,0,0,1-.1-1.52,14.643,14.643,0,0,1,.112-1.9,6.307,6.307,0,0,1,.349-1.455,3.125,3.125,0,0,1,3.076-2.061,3.521,3.521,0,0,1,1.307.233,3.022,3.022,0,0,1,1.031.686,3.9,3.9,0,0,1,.751,1.116A8.019,8.019,0,0,1,1107.75,841.9Zm-1.915-.14a11.587,11.587,0,0,0-.154-2.093,2.567,2.567,0,0,0-.517-1.231,1.269,1.269,0,0,0-1.006-.417,1.294,1.294,0,0,0-1.283.931,8.477,8.477,0,0,0-.36,2.866,12.3,12.3,0,0,0,.154,2.154,2.709,2.709,0,0,0,.517,1.269,1.351,1.351,0,0,0,1.992-.017,2.783,2.783,0,0,0,.51-1.281A13.052,13.052,0,0,0,1105.835,841.757Z" transform="translate(-1100.592 -836.599)"/>
        </g>
        <g id="Grupo_904848" data-name="Grupo 904848" transform="translate(51.277 14.555)">
          <path id="Trazado_633629" data-name="Trazado 633629" d="M2184.706,846.35v-6.362a5.706,5.706,0,0,1-2.39,1.363.708.708,0,0,1-.521-.233.758.758,0,0,1-.227-.543.612.612,0,0,1,.225-.524,4.92,4.92,0,0,1,.789-.432,5.915,5.915,0,0,0,1.352-.839,5.739,5.739,0,0,0,.9-.988c.261-.363.431-.587.51-.671a.611.611,0,0,1,.448-.126.716.716,0,0,1,.593.287,1.249,1.249,0,0,1,.225.791v8q0,1.406-.958,1.4a.877.877,0,0,1-.685-.285A1.224,1.224,0,0,1,2184.706,846.35Z" transform="translate(-2181.567 -836.996)"/>
        </g>
        <g id="Grupo_904849" data-name="Grupo 904849" transform="translate(59.554 14.542)">
          <path id="Trazado_633630" data-name="Trazado 633630" d="M2449.873,841.9a12.041,12.041,0,0,1-.139,1.971,4.619,4.619,0,0,1-.518,1.5,3.428,3.428,0,0,1-1.229,1.271,3.338,3.338,0,0,1-3.583-.153,3.66,3.66,0,0,1-1.269-1.665,6.122,6.122,0,0,1-.318-1.281,10.6,10.6,0,0,1-.1-1.52,14.665,14.665,0,0,1,.112-1.9,6.3,6.3,0,0,1,.349-1.455,3.125,3.125,0,0,1,3.076-2.061,3.519,3.519,0,0,1,1.307.233,3.024,3.024,0,0,1,1.032.686,3.9,3.9,0,0,1,.75,1.116A8.019,8.019,0,0,1,2449.873,841.9Zm-1.915-.14a11.6,11.6,0,0,0-.154-2.093,2.564,2.564,0,0,0-.517-1.231,1.268,1.268,0,0,0-1.006-.417,1.294,1.294,0,0,0-1.283.931,8.477,8.477,0,0,0-.36,2.866,12.293,12.293,0,0,0,.155,2.154,2.7,2.7,0,0,0,.517,1.269,1.351,1.351,0,0,0,1.992-.017,2.786,2.786,0,0,0,.51-1.281A13.039,13.039,0,0,0,2447.958,841.757Z" transform="translate(-2442.715 -836.599)"/>
        </g>
        <g id="Grupo_904850" data-name="Grupo 904850" transform="translate(68.062 14.542)">
          <path id="Trazado_633631" data-name="Trazado 633631" d="M2718.3,841.9a11.982,11.982,0,0,1-.14,1.971,4.63,4.63,0,0,1-.518,1.5,3.431,3.431,0,0,1-1.23,1.271,3.338,3.338,0,0,1-3.583-.153,3.661,3.661,0,0,1-1.268-1.665,6.106,6.106,0,0,1-.318-1.281,10.6,10.6,0,0,1-.1-1.52,14.578,14.578,0,0,1,.112-1.9,6.314,6.314,0,0,1,.349-1.455,3.125,3.125,0,0,1,3.076-2.061,3.523,3.523,0,0,1,1.308.233,3.024,3.024,0,0,1,1.031.686,3.908,3.908,0,0,1,.75,1.116A8.014,8.014,0,0,1,2718.3,841.9Zm-1.916-.14a11.575,11.575,0,0,0-.154-2.093,2.569,2.569,0,0,0-.517-1.231,1.269,1.269,0,0,0-1.007-.417,1.294,1.294,0,0,0-1.283.931,8.477,8.477,0,0,0-.36,2.866,12.323,12.323,0,0,0,.154,2.154,2.709,2.709,0,0,0,.517,1.269,1.351,1.351,0,0,0,1.992-.017,2.781,2.781,0,0,0,.51-1.281A13.039,13.039,0,0,0,2716.382,841.757Z" transform="translate(-2711.139 -836.599)"/>
        </g>
        <g id="Grupo_904851" data-name="Grupo 904851" transform="translate(11.641 0.889)">
          <path id="Trazado_633632" data-name="Trazado 633632" d="M931.035,408.136c.082-.061.15-.107.236-.173v6.362a1.224,1.224,0,0,0,.259.847.876.876,0,0,0,.685.285q.958,0,.958-1.4v-8a1.655,1.655,0,0,0-.025-.2A18.456,18.456,0,0,1,931.035,408.136Z" transform="translate(-931.035 -405.848)"/>
        </g>
        <g id="Grupo_904852" data-name="Grupo 904852" transform="translate(17.015 0)">
          <path id="Trazado_633633" data-name="Trazado 633633" d="M1107.75,383.087a11.969,11.969,0,0,1-.139,1.971,4.618,4.618,0,0,1-.518,1.5,3.429,3.429,0,0,1-1.23,1.271,3.338,3.338,0,0,1-3.583-.153,3.661,3.661,0,0,1-1.269-1.665,6.129,6.129,0,0,1-.318-1.281,10.583,10.583,0,0,1-.1-1.52,14.643,14.643,0,0,1,.112-1.9,6.307,6.307,0,0,1,.349-1.455,3.125,3.125,0,0,1,3.076-2.061,3.518,3.518,0,0,1,1.307.233,3.022,3.022,0,0,1,1.031.686,3.9,3.9,0,0,1,.751,1.115A8.019,8.019,0,0,1,1107.75,383.087Zm-1.915-.14a11.587,11.587,0,0,0-.154-2.093,2.567,2.567,0,0,0-.517-1.231,1.269,1.269,0,0,0-1.006-.417,1.294,1.294,0,0,0-1.283.931,8.476,8.476,0,0,0-.36,2.866,12.3,12.3,0,0,0,.154,2.153,2.708,2.708,0,0,0,.517,1.269,1.351,1.351,0,0,0,1.992-.017,2.782,2.782,0,0,0,.51-1.281A13.051,13.051,0,0,0,1105.835,382.946Z" transform="translate(-1100.592 -377.788)"/>
        </g>
        <g id="Grupo_904853" data-name="Grupo 904853" transform="translate(25.754 0.013)">
          <path id="Trazado_633634" data-name="Trazado 633634" d="M1379.433,387.539v-6.362a5.708,5.708,0,0,1-2.39,1.363.708.708,0,0,1-.521-.233.757.757,0,0,1-.227-.543.613.613,0,0,1,.224-.524,4.953,4.953,0,0,1,.789-.432,5.909,5.909,0,0,0,1.353-.839,5.74,5.74,0,0,0,.9-.988c.261-.363.431-.587.51-.671a.611.611,0,0,1,.448-.126.716.716,0,0,1,.594.287,1.25,1.25,0,0,1,.224.79v8q0,1.406-.958,1.4a.876.876,0,0,1-.685-.285A1.224,1.224,0,0,1,1379.433,387.539Z" transform="translate(-1376.294 -378.185)"/>
        </g>
        <g id="Grupo_904854" data-name="Grupo 904854" transform="translate(34.031 0)">
          <path id="Trazado_633635" data-name="Trazado 633635" d="M1644.6,383.087a11.969,11.969,0,0,1-.139,1.971,4.618,4.618,0,0,1-.518,1.5,3.431,3.431,0,0,1-1.23,1.271,3.338,3.338,0,0,1-3.583-.153,3.662,3.662,0,0,1-1.269-1.665,6.121,6.121,0,0,1-.318-1.281,10.6,10.6,0,0,1-.1-1.52,14.62,14.62,0,0,1,.112-1.9,6.314,6.314,0,0,1,.349-1.455,3.125,3.125,0,0,1,3.076-2.061,3.518,3.518,0,0,1,1.307.233,3.027,3.027,0,0,1,1.032.686,3.9,3.9,0,0,1,.75,1.115A8.015,8.015,0,0,1,1644.6,383.087Zm-1.915-.14a11.613,11.613,0,0,0-.154-2.093,2.567,2.567,0,0,0-.517-1.231,1.268,1.268,0,0,0-1.006-.417,1.294,1.294,0,0,0-1.283.931,8.474,8.474,0,0,0-.359,2.866,12.3,12.3,0,0,0,.154,2.153,2.7,2.7,0,0,0,.517,1.269,1.351,1.351,0,0,0,1.992-.017,2.784,2.784,0,0,0,.511-1.281A13.068,13.068,0,0,0,1642.684,382.946Z" transform="translate(-1637.441 -377.788)"/>
        </g>
        <g id="Grupo_904855" data-name="Grupo 904855" transform="translate(42.769 0.013)">
          <path id="Trazado_633636" data-name="Trazado 633636" d="M1916.282,387.539v-6.362a5.708,5.708,0,0,1-2.39,1.363.707.707,0,0,1-.521-.233.757.757,0,0,1-.227-.543.613.613,0,0,1,.224-.524,4.947,4.947,0,0,1,.789-.432,5.908,5.908,0,0,0,1.352-.839,5.735,5.735,0,0,0,.9-.988c.261-.363.431-.587.511-.671a.611.611,0,0,1,.448-.126.716.716,0,0,1,.593.287,1.25,1.25,0,0,1,.224.79v8q0,1.406-.958,1.4a.877.877,0,0,1-.685-.285A1.224,1.224,0,0,1,1916.282,387.539Z" transform="translate(-1913.143 -378.185)"/>
        </g>
        <g id="Grupo_904856" data-name="Grupo 904856" transform="translate(51.277 0.013)">
          <path id="Trazado_633637" data-name="Trazado 633637" d="M2184.706,387.539v-6.362a5.706,5.706,0,0,1-2.39,1.363.708.708,0,0,1-.521-.233.758.758,0,0,1-.227-.543.612.612,0,0,1,.225-.524,4.922,4.922,0,0,1,.789-.432,5.915,5.915,0,0,0,1.352-.839,5.746,5.746,0,0,0,.9-.988c.261-.363.431-.587.51-.671a.611.611,0,0,1,.448-.126.716.716,0,0,1,.593.287,1.249,1.249,0,0,1,.225.79v8q0,1.406-.958,1.4a.877.877,0,0,1-.685-.285A1.224,1.224,0,0,1,2184.706,387.539Z" transform="translate(-2181.567 -378.185)"/>
        </g>
        <g id="Grupo_904857" data-name="Grupo 904857" transform="translate(59.554 0.979)">
          <path id="Trazado_633638" data-name="Trazado 633638" d="M2447.937,413.509a11.479,11.479,0,0,1-.127,1.518,2.788,2.788,0,0,1-.51,1.281,1.351,1.351,0,0,1-1.992.017,2.705,2.705,0,0,1-.517-1.269,12.3,12.3,0,0,1-.154-2.153,8.47,8.47,0,0,1,.36-2.866,1.815,1.815,0,0,1,.122-.23,11.545,11.545,0,0,1-1.228-1.139,3.472,3.472,0,0,0-.715,1.082,6.3,6.3,0,0,0-.349,1.455,14.576,14.576,0,0,0-.112,1.9,10.6,10.6,0,0,0,.1,1.52,6.107,6.107,0,0,0,.318,1.281,3.663,3.663,0,0,0,1.269,1.665,3.338,3.338,0,0,0,3.583.153,3.429,3.429,0,0,0,1.23-1.271,4.6,4.6,0,0,0,.492-1.394A9.132,9.132,0,0,1,2447.937,413.509Z" transform="translate(-2442.714 -408.667)"/>
        </g>
        <g id="Grupo_904858" data-name="Grupo 904858" transform="translate(0 43.626)">
          <path id="Trazado_633639" data-name="Trazado 633639" d="M570.9,1759.519a11.975,11.975,0,0,1-.14,1.971,4.615,4.615,0,0,1-.518,1.5,3.429,3.429,0,0,1-1.23,1.27,3.338,3.338,0,0,1-3.583-.153,3.661,3.661,0,0,1-1.269-1.665,6.129,6.129,0,0,1-.318-1.281,10.6,10.6,0,0,1-.1-1.52,14.623,14.623,0,0,1,.112-1.9,6.3,6.3,0,0,1,.349-1.455,3.126,3.126,0,0,1,3.076-2.061,3.518,3.518,0,0,1,1.307.233,3.027,3.027,0,0,1,1.032.686,3.907,3.907,0,0,1,.751,1.116A8.017,8.017,0,0,1,570.9,1759.519Zm-1.915-.141a11.605,11.605,0,0,0-.154-2.093,2.567,2.567,0,0,0-.517-1.231,1.268,1.268,0,0,0-1.006-.417,1.294,1.294,0,0,0-1.283.931,8.473,8.473,0,0,0-.36,2.866,12.3,12.3,0,0,0,.154,2.153,2.706,2.706,0,0,0,.517,1.269,1.351,1.351,0,0,0,1.992-.017,2.783,2.783,0,0,0,.511-1.281A13.06,13.06,0,0,0,568.986,1759.378Z" transform="translate(-563.743 -1754.22)"/>
        </g>
        <g id="Grupo_904859" data-name="Grupo 904859" transform="translate(8.738 43.639)">
          <path id="Trazado_633640" data-name="Trazado 633640" d="M842.584,1763.971v-6.362a5.709,5.709,0,0,1-2.39,1.363.707.707,0,0,1-.521-.233.756.756,0,0,1-.227-.543.613.613,0,0,1,.224-.524,4.941,4.941,0,0,1,.789-.432,5.914,5.914,0,0,0,1.352-.839,5.74,5.74,0,0,0,.9-.988c.261-.363.431-.587.511-.671a.611.611,0,0,1,.448-.126.716.716,0,0,1,.593.287,1.25,1.25,0,0,1,.224.79v8q0,1.406-.958,1.4a.876.876,0,0,1-.685-.285A1.224,1.224,0,0,1,842.584,1763.971Z" transform="translate(-839.445 -1754.617)"/>
        </g>
        <g id="Grupo_904860" data-name="Grupo 904860" transform="translate(59.554 43.626)">
          <path id="Trazado_633641" data-name="Trazado 633641" d="M2449.873,1759.519a12.039,12.039,0,0,1-.139,1.971,4.62,4.62,0,0,1-.518,1.5,3.428,3.428,0,0,1-1.229,1.27,3.338,3.338,0,0,1-3.583-.153,3.659,3.659,0,0,1-1.269-1.665,6.125,6.125,0,0,1-.318-1.281,10.6,10.6,0,0,1-.1-1.52,14.657,14.657,0,0,1,.112-1.9,6.3,6.3,0,0,1,.349-1.455,3.126,3.126,0,0,1,3.076-2.061,3.516,3.516,0,0,1,1.307.233,3.027,3.027,0,0,1,1.032.686,3.9,3.9,0,0,1,.75,1.116A8.02,8.02,0,0,1,2449.873,1759.519Zm-1.915-.141a11.6,11.6,0,0,0-.154-2.093,2.564,2.564,0,0,0-.517-1.231,1.268,1.268,0,0,0-1.006-.417,1.294,1.294,0,0,0-1.283.931,8.476,8.476,0,0,0-.36,2.866,12.292,12.292,0,0,0,.155,2.153,2.7,2.7,0,0,0,.517,1.269,1.351,1.351,0,0,0,1.992-.017,2.784,2.784,0,0,0,.51-1.281A13.037,13.037,0,0,0,2447.958,1759.378Z" transform="translate(-2442.715 -1754.22)"/>
        </g>
        <g id="Grupo_904861" data-name="Grupo 904861" transform="translate(68.062 43.626)">
          <path id="Trazado_633642" data-name="Trazado 633642" d="M2718.3,1759.519a11.98,11.98,0,0,1-.14,1.971,4.631,4.631,0,0,1-.518,1.5,3.431,3.431,0,0,1-1.23,1.27,3.338,3.338,0,0,1-3.583-.153,3.661,3.661,0,0,1-1.268-1.665,6.11,6.11,0,0,1-.318-1.281,10.6,10.6,0,0,1-.1-1.52,14.571,14.571,0,0,1,.112-1.9,6.313,6.313,0,0,1,.349-1.455,3.126,3.126,0,0,1,3.076-2.061,3.521,3.521,0,0,1,1.308.233,3.027,3.027,0,0,1,1.031.686,3.91,3.91,0,0,1,.75,1.116A8.015,8.015,0,0,1,2718.3,1759.519Zm-1.916-.141a11.574,11.574,0,0,0-.154-2.093,2.569,2.569,0,0,0-.517-1.231,1.269,1.269,0,0,0-1.007-.417,1.294,1.294,0,0,0-1.283.931,8.476,8.476,0,0,0-.36,2.866,12.323,12.323,0,0,0,.154,2.153,2.708,2.708,0,0,0,.517,1.269,1.351,1.351,0,0,0,1.992-.017,2.779,2.779,0,0,0,.51-1.281A13.037,13.037,0,0,0,2716.382,1759.378Z" transform="translate(-2711.139 -1754.22)"/>
        </g>
        <g id="Grupo_904862" data-name="Grupo 904862" transform="translate(0 58.168)">
          <path id="Trazado_633643" data-name="Trazado 633643" d="M570.9,2218.329a11.978,11.978,0,0,1-.14,1.971,4.614,4.614,0,0,1-.518,1.5,3.427,3.427,0,0,1-1.23,1.271,3.337,3.337,0,0,1-3.583-.153,3.663,3.663,0,0,1-1.269-1.665,6.124,6.124,0,0,1-.318-1.281,10.6,10.6,0,0,1-.1-1.52,14.639,14.639,0,0,1,.112-1.9,6.3,6.3,0,0,1,.349-1.455,3.125,3.125,0,0,1,3.076-2.061,3.521,3.521,0,0,1,1.307.233,3.02,3.02,0,0,1,1.032.686,3.905,3.905,0,0,1,.751,1.115A8.016,8.016,0,0,1,570.9,2218.329Zm-1.915-.14a11.6,11.6,0,0,0-.154-2.093,2.567,2.567,0,0,0-.517-1.231,1.267,1.267,0,0,0-1.006-.417,1.294,1.294,0,0,0-1.283.931,8.472,8.472,0,0,0-.36,2.866,12.3,12.3,0,0,0,.154,2.154,2.706,2.706,0,0,0,.517,1.269,1.351,1.351,0,0,0,1.992-.017,2.785,2.785,0,0,0,.511-1.281A13.059,13.059,0,0,0,568.986,2218.189Z" transform="translate(-563.743 -2213.031)"/>
        </g>
        <g id="Grupo_904863" data-name="Grupo 904863" transform="translate(8.738 58.181)">
          <path id="Trazado_633644" data-name="Trazado 633644" d="M842.584,2222.781v-6.362a5.71,5.71,0,0,1-2.39,1.363.708.708,0,0,1-.521-.233.757.757,0,0,1-.227-.543.613.613,0,0,1,.224-.524,4.939,4.939,0,0,1,.789-.432,5.923,5.923,0,0,0,1.352-.839,5.741,5.741,0,0,0,.9-.988c.261-.363.431-.587.511-.671a.61.61,0,0,1,.448-.126.716.716,0,0,1,.593.288,1.248,1.248,0,0,1,.224.79v8q0,1.406-.958,1.4a.877.877,0,0,1-.685-.285A1.225,1.225,0,0,1,842.584,2222.781Z" transform="translate(-839.445 -2213.427)"/>
        </g>
        <g id="Grupo_904864" data-name="Grupo 904864" transform="translate(51.277 58.181)">
          <path id="Trazado_633645" data-name="Trazado 633645" d="M2184.706,2222.781v-6.362a5.708,5.708,0,0,1-2.39,1.363.709.709,0,0,1-.521-.233.758.758,0,0,1-.227-.543.612.612,0,0,1,.225-.524,4.916,4.916,0,0,1,.789-.432,5.93,5.93,0,0,0,1.352-.839,5.75,5.75,0,0,0,.9-.988c.261-.363.431-.587.51-.671a.611.611,0,0,1,.448-.126.715.715,0,0,1,.593.288,1.247,1.247,0,0,1,.225.79v8q0,1.406-.958,1.4a.877.877,0,0,1-.685-.285A1.224,1.224,0,0,1,2184.706,2222.781Z" transform="translate(-2181.567 -2213.427)"/>
        </g>
        <g id="Grupo_904865" data-name="Grupo 904865" transform="translate(59.554 58.168)">
          <path id="Trazado_633646" data-name="Trazado 633646" d="M2449.873,2218.329a12.043,12.043,0,0,1-.139,1.971,4.619,4.619,0,0,1-.518,1.5,3.426,3.426,0,0,1-1.229,1.271,3.337,3.337,0,0,1-3.583-.153,3.661,3.661,0,0,1-1.269-1.665,6.12,6.12,0,0,1-.318-1.281,10.6,10.6,0,0,1-.1-1.52,14.672,14.672,0,0,1,.112-1.9,6.3,6.3,0,0,1,.349-1.455,3.125,3.125,0,0,1,3.076-2.061,3.519,3.519,0,0,1,1.307.233,3.02,3.02,0,0,1,1.032.686,3.9,3.9,0,0,1,.75,1.115A8.018,8.018,0,0,1,2449.873,2218.329Zm-1.915-.14a11.6,11.6,0,0,0-.154-2.093,2.564,2.564,0,0,0-.517-1.231,1.267,1.267,0,0,0-1.006-.417,1.294,1.294,0,0,0-1.283.931,8.476,8.476,0,0,0-.36,2.866,12.294,12.294,0,0,0,.155,2.154,2.7,2.7,0,0,0,.517,1.269,1.351,1.351,0,0,0,1.992-.017,2.786,2.786,0,0,0,.51-1.281A13.035,13.035,0,0,0,2447.958,2218.189Z" transform="translate(-2442.715 -2213.031)"/>
        </g>
        <g id="Grupo_904866" data-name="Grupo 904866" transform="translate(68.062 58.168)">
          <path id="Trazado_633647" data-name="Trazado 633647" d="M2718.3,2218.329a11.983,11.983,0,0,1-.14,1.971,4.63,4.63,0,0,1-.518,1.5,3.429,3.429,0,0,1-1.23,1.271,3.337,3.337,0,0,1-3.583-.153,3.662,3.662,0,0,1-1.268-1.665,6.1,6.1,0,0,1-.318-1.281,10.6,10.6,0,0,1-.1-1.52,14.586,14.586,0,0,1,.112-1.9,6.315,6.315,0,0,1,.349-1.455,3.125,3.125,0,0,1,3.076-2.061,3.523,3.523,0,0,1,1.308.233,3.02,3.02,0,0,1,1.031.686,3.907,3.907,0,0,1,.75,1.115A8.013,8.013,0,0,1,2718.3,2218.329Zm-1.916-.14a11.573,11.573,0,0,0-.154-2.093,2.569,2.569,0,0,0-.517-1.231,1.268,1.268,0,0,0-1.007-.417,1.294,1.294,0,0,0-1.283.931,8.476,8.476,0,0,0-.36,2.866,12.325,12.325,0,0,0,.154,2.154,2.708,2.708,0,0,0,.517,1.269,1.351,1.351,0,0,0,1.992-.017,2.781,2.781,0,0,0,.51-1.281A13.035,13.035,0,0,0,2716.382,2218.189Z" transform="translate(-2711.139 -2213.031)"/>
        </g>
        <g id="Grupo_904867" data-name="Grupo 904867" transform="translate(8.738 72.723)">
          <path id="Trazado_633648" data-name="Trazado 633648" d="M842.584,2681.593v-6.362a5.71,5.71,0,0,1-2.39,1.363.708.708,0,0,1-.521-.233.757.757,0,0,1-.227-.543.612.612,0,0,1,.224-.524,4.955,4.955,0,0,1,.789-.432,5.906,5.906,0,0,0,1.352-.839,5.732,5.732,0,0,0,.9-.988c.261-.363.431-.587.511-.671a.61.61,0,0,1,.448-.126.716.716,0,0,1,.593.287,1.249,1.249,0,0,1,.224.791v8q0,1.406-.958,1.405a.877.877,0,0,1-.685-.285A1.225,1.225,0,0,1,842.584,2681.593Z" transform="translate(-839.445 -2672.239)"/>
        </g>
        <g id="Grupo_904868" data-name="Grupo 904868" transform="translate(17.015 72.71)">
          <path id="Trazado_633649" data-name="Trazado 633649" d="M1107.75,2677.14a11.975,11.975,0,0,1-.139,1.971,4.618,4.618,0,0,1-.518,1.5,3.426,3.426,0,0,1-1.23,1.271,3.339,3.339,0,0,1-3.583-.153,3.667,3.667,0,0,1-1.269-1.665,6.135,6.135,0,0,1-.318-1.281,10.594,10.594,0,0,1-.1-1.521,14.65,14.65,0,0,1,.112-1.9,6.32,6.32,0,0,1,.349-1.455,3.126,3.126,0,0,1,3.076-2.061,3.521,3.521,0,0,1,1.307.233,3.015,3.015,0,0,1,1.031.686,3.9,3.9,0,0,1,.751,1.115A8.021,8.021,0,0,1,1107.75,2677.14Zm-1.915-.14a11.586,11.586,0,0,0-.154-2.093,2.568,2.568,0,0,0-.517-1.231,1.268,1.268,0,0,0-1.006-.417,1.294,1.294,0,0,0-1.283.931,8.477,8.477,0,0,0-.36,2.866,12.3,12.3,0,0,0,.154,2.154,2.707,2.707,0,0,0,.517,1.268,1.351,1.351,0,0,0,1.992-.017,2.783,2.783,0,0,0,.51-1.281A13.056,13.056,0,0,0,1105.835,2677Z" transform="translate(-1100.592 -2671.842)"/>
        </g>
        <g id="Grupo_904869" data-name="Grupo 904869" transform="translate(25.754 72.723)">
          <path id="Trazado_633650" data-name="Trazado 633650" d="M1379.433,2681.593v-6.362a5.71,5.71,0,0,1-2.39,1.363.709.709,0,0,1-.521-.233.757.757,0,0,1-.227-.543.612.612,0,0,1,.224-.524,4.963,4.963,0,0,1,.789-.432,5.907,5.907,0,0,0,1.353-.839,5.734,5.734,0,0,0,.9-.988c.261-.363.431-.587.51-.671a.61.61,0,0,1,.448-.126.716.716,0,0,1,.594.287,1.25,1.25,0,0,1,.224.791v8q0,1.406-.958,1.405a.877.877,0,0,1-.685-.285A1.225,1.225,0,0,1,1379.433,2681.593Z" transform="translate(-1376.294 -2672.239)"/>
        </g>
        <g id="Grupo_904870" data-name="Grupo 904870" transform="translate(34.031 72.71)">
          <path id="Trazado_633651" data-name="Trazado 633651" d="M1644.6,2677.14a11.975,11.975,0,0,1-.139,1.971,4.618,4.618,0,0,1-.518,1.5,3.428,3.428,0,0,1-1.23,1.271,3.339,3.339,0,0,1-3.583-.153,3.667,3.667,0,0,1-1.269-1.665,6.128,6.128,0,0,1-.318-1.281,10.611,10.611,0,0,1-.1-1.521,14.627,14.627,0,0,1,.112-1.9,6.326,6.326,0,0,1,.349-1.455,3.126,3.126,0,0,1,3.076-2.061,3.521,3.521,0,0,1,1.307.233,3.02,3.02,0,0,1,1.032.686,3.9,3.9,0,0,1,.75,1.115A8.016,8.016,0,0,1,1644.6,2677.14Zm-1.915-.14a11.612,11.612,0,0,0-.154-2.093,2.568,2.568,0,0,0-.517-1.231,1.268,1.268,0,0,0-1.006-.417,1.294,1.294,0,0,0-1.283.931,8.475,8.475,0,0,0-.359,2.866,12.3,12.3,0,0,0,.154,2.154,2.7,2.7,0,0,0,.517,1.268,1.35,1.35,0,0,0,1.992-.017,2.784,2.784,0,0,0,.511-1.281A13.073,13.073,0,0,0,1642.684,2677Z" transform="translate(-1637.441 -2671.842)"/>
        </g>
        <g id="Grupo_904871" data-name="Grupo 904871" transform="translate(42.769 72.723)">
          <path id="Trazado_633652" data-name="Trazado 633652" d="M1916.282,2681.593v-6.362a5.71,5.71,0,0,1-2.39,1.363.708.708,0,0,1-.521-.233.757.757,0,0,1-.227-.543.612.612,0,0,1,.224-.524,4.957,4.957,0,0,1,.789-.432,5.906,5.906,0,0,0,1.352-.839,5.729,5.729,0,0,0,.9-.988c.261-.363.431-.587.511-.671a.61.61,0,0,1,.448-.126.716.716,0,0,1,.593.287,1.25,1.25,0,0,1,.224.791v8q0,1.406-.958,1.405a.877.877,0,0,1-.685-.285A1.225,1.225,0,0,1,1916.282,2681.593Z" transform="translate(-1913.143 -2672.239)"/>
        </g>
        <g id="Grupo_904872" data-name="Grupo 904872" transform="translate(51.277 72.723)">
          <path id="Trazado_633653" data-name="Trazado 633653" d="M2184.706,2681.593v-6.362a5.708,5.708,0,0,1-2.39,1.363.709.709,0,0,1-.521-.233.759.759,0,0,1-.227-.543.611.611,0,0,1,.225-.524,4.932,4.932,0,0,1,.789-.432,5.913,5.913,0,0,0,1.352-.839,5.741,5.741,0,0,0,.9-.988c.261-.363.431-.587.51-.671a.611.611,0,0,1,.448-.126.715.715,0,0,1,.593.287,1.248,1.248,0,0,1,.225.791v8q0,1.406-.958,1.405a.877.877,0,0,1-.685-.285A1.224,1.224,0,0,1,2184.706,2681.593Z" transform="translate(-2181.567 -2672.239)"/>
        </g>
        <g id="Grupo_904873" data-name="Grupo 904873" transform="translate(59.554 72.71)">
          <path id="Trazado_633654" data-name="Trazado 633654" d="M2448.824,2680.117a4.225,4.225,0,0,1,.674-2.113c.123-.289.246-.579.374-.867a8.014,8.014,0,0,0-.531-3.262,3.9,3.9,0,0,0-.75-1.115,3.021,3.021,0,0,0-1.032-.686,3.521,3.521,0,0,0-1.307-.233,3.125,3.125,0,0,0-3.076,2.061,6.313,6.313,0,0,0-.349,1.455,14.582,14.582,0,0,0-.112,1.9,10.611,10.611,0,0,0,.1,1.521,6.112,6.112,0,0,0,.318,1.281,3.668,3.668,0,0,0,1.269,1.665,3.339,3.339,0,0,0,3.583.153,3.243,3.243,0,0,0,.739-.615A4.287,4.287,0,0,1,2448.824,2680.117Zm-1.014-.936a2.788,2.788,0,0,1-.51,1.281,1.351,1.351,0,0,1-1.992.017,2.707,2.707,0,0,1-.517-1.268,12.3,12.3,0,0,1-.154-2.154,8.47,8.47,0,0,1,.36-2.866,1.294,1.294,0,0,1,1.283-.931,1.269,1.269,0,0,1,1.007.417,2.565,2.565,0,0,1,.517,1.231,11.6,11.6,0,0,1,.154,2.093A13.043,13.043,0,0,1,2447.81,2679.181Z" transform="translate(-2442.714 -2671.842)"/>
        </g>
      </g>
      <g id="Grupo_904913" data-name="Grupo 904913" transform="translate(171.158 172.002)">
        <g id="Grupo_904876" data-name="Grupo 904876" transform="translate(32.352 0.001)">
          <g id="Grupo_904875" data-name="Grupo 904875">
            <path id="Trazado_633655" data-name="Trazado 633655" d="M1829.08,849.078a.828.828,0,0,1-.225-.034.78.78,0,0,1-.522-.971c.024-.082,2.566-8.25,11.567-7.643a.781.781,0,0,1,.724.832.766.766,0,0,1-.833.725,9.577,9.577,0,0,0-9.965,6.535A.782.782,0,0,1,1829.08,849.078Z" transform="translate(-1828.3 -840.398)"/>
          </g>
        </g>
        <g id="Grupo_904878" data-name="Grupo 904878" transform="translate(16.688)">
          <g id="Grupo_904877" data-name="Grupo 904877">
            <path id="Trazado_633656" data-name="Trazado 633656" d="M1345.618,849.049a.781.781,0,0,1-.747-.555,9.574,9.574,0,0,0-9.966-6.536.772.772,0,0,1-.833-.725.78.78,0,0,1,.725-.832c9.014-.616,11.543,7.561,11.568,7.643a.781.781,0,0,1-.522.971A.825.825,0,0,1,1345.618,849.049Z" transform="translate(-1334.072 -840.369)"/>
          </g>
        </g>
        <g id="Grupo_904881" data-name="Grupo 904881" transform="translate(40.813 30.565)">
          <g id="Grupo_904879" data-name="Grupo 904879" transform="translate(0 11.377)">
            <path id="Trazado_633657" data-name="Trazado 633657" d="M2107.449,2175.584a5.28,5.28,0,0,1-4.738-3.107,31.307,31.307,0,0,0-2.3-5.536,3.711,3.711,0,0,0-.845-.68,24.181,24.181,0,0,0-3.731-1.082.78.78,0,0,1-.591-.933.789.789,0,0,1,.932-.591,25.708,25.708,0,0,1,4.117,1.225,5.005,5.005,0,0,1,1.367,1.124c.973,1.3,2.356,5.446,2.51,5.916a3.667,3.667,0,0,0,3.4,2.1.807.807,0,0,1,.808.751.781.781,0,0,1-.75.809Z" transform="translate(-2095.222 -2163.638)"/>
          </g>
          <g id="Grupo_904880" data-name="Grupo 904880" transform="translate(5.797)">
            <path id="Trazado_633658" data-name="Trazado 633658" d="M2290.118,1817.868a4.209,4.209,0,0,1-4.532-3.2c-.562-2.17-1.667-5.862-2.273-6.671a3.724,3.724,0,0,0-.844-.68,24.2,24.2,0,0,0-3.732-1.082.781.781,0,0,1,.342-1.524,25.737,25.737,0,0,1,4.117,1.225,4.974,4.974,0,0,1,1.368,1.126c.987,1.319,2.369,6.584,2.523,7.18.555,1.8,1.653,2.118,3.386,2.053a.789.789,0,0,1,.808.751.78.78,0,0,1-.75.809C2290.4,1817.865,2290.258,1817.868,2290.118,1817.868Z" transform="translate(-2278.128 -1804.699)"/>
          </g>
        </g>
        <g id="Grupo_904884" data-name="Grupo 904884" transform="translate(0 30.564)">
          <g id="Grupo_904882" data-name="Grupo 904882" transform="translate(5.797 11.377)">
            <path id="Trazado_633659" data-name="Trazado 633659" d="M991.392,2175.582c-.058,0-.117,0-.175,0a.78.78,0,0,1-.75-.809.806.806,0,0,1,.808-.751,3.727,3.727,0,0,0,3.428-2.168c.128-.4,1.511-4.545,2.484-5.847a4.986,4.986,0,0,1,1.367-1.125,25.682,25.682,0,0,1,4.117-1.225.781.781,0,0,1,.341,1.523,24.17,24.17,0,0,0-3.732,1.082,3.714,3.714,0,0,0-.843.678,30.761,30.761,0,0,0-2.279,5.469A5.3,5.3,0,0,1,991.392,2175.582Z" transform="translate(-990.466 -2163.636)"/>
          </g>
          <g id="Grupo_904883" data-name="Grupo 904883">
            <path id="Trazado_633660" data-name="Trazado 633660" d="M808.723,1817.854c-.139,0-.277,0-.412-.007a.781.781,0,0,1,.058-1.561c1.72.061,2.833-.257,3.4-2.088.145-.561,1.527-5.825,2.514-7.146a5,5,0,0,1,1.368-1.125,25.711,25.711,0,0,1,4.117-1.225.781.781,0,0,1,.341,1.524,24.123,24.123,0,0,0-3.73,1.082,3.7,3.7,0,0,0-.846.68c-.606.809-1.71,4.5-2.263,6.636A4.223,4.223,0,0,1,808.723,1817.854Z" transform="translate(-807.56 -1804.685)"/>
          </g>
        </g>
        <g id="Grupo_904889" data-name="Grupo 904889" transform="translate(8.476 9.127)">
          <g id="Grupo_904886" data-name="Grupo 904886" transform="translate(32.917)">
            <g id="Grupo_904885" data-name="Grupo 904885">
              <path id="Trazado_633661" data-name="Trazado 633661" d="M2114.307,1143.352a.78.78,0,0,1-.27-1.511c.385-.143,9.431-3.6,9.128-12.7a.781.781,0,0,1,.754-.806.8.8,0,0,1,.805.754c.341,10.235-10.043,14.172-10.148,14.212A.789.789,0,0,1,2114.307,1143.352Z" transform="translate(-2113.527 -1128.337)"/>
            </g>
          </g>
          <g id="Grupo_904888" data-name="Grupo 904888" transform="translate(0 0.001)">
            <g id="Grupo_904887" data-name="Grupo 904887">
              <path id="Trazado_633662" data-name="Trazado 633662" d="M1085.406,1143.376a.785.785,0,0,1-.269-.047c-.105-.04-10.489-3.977-10.148-14.212a.78.78,0,1,1,1.559.052c-.3,9.1,8.743,12.553,9.128,12.7a.78.78,0,0,1-.271,1.511Z" transform="translate(-1074.981 -1128.361)"/>
            </g>
          </g>
        </g>
        <g id="Grupo_904890" data-name="Grupo 904890" transform="translate(17.99 5.897)">
          <path id="Trazado_633663" data-name="Trazado 633663" d="M1400.239,1036.134c0,5.35-5.625,9.7-12.548,9.7s-12.547-4.348-12.547-9.7,5.626-9.7,12.547-9.7S1400.239,1030.784,1400.239,1036.134Z" transform="translate(-1375.144 -1026.436)" fill="#21cbae"/>
        </g>
        <g id="Grupo_904892" data-name="Grupo 904892" transform="translate(17.209 5.118)">
          <path id="Trazado_633665" data-name="Trazado 633665" d="M1363.853,1022.8c-7.349,0-13.328-4.7-13.328-10.479s5.979-10.478,13.328-10.478,13.328,4.7,13.328,10.478S1371.2,1022.8,1363.853,1022.8Zm0-19.4c-6.488,0-11.767,4-11.767,8.917s5.279,8.919,11.767,8.919,11.767-4,11.767-8.919S1370.341,1003.4,1363.853,1003.4Z" transform="translate(-1350.525 -1001.843)"/>
        </g>
        <g id="Grupo_904893" data-name="Grupo 904893" transform="translate(13.896 13.438)">
          <path id="Trazado_633666" data-name="Trazado 633666" d="M1279.263,1279.925c0,11.184-7.463,20.238-16.652,20.238s-16.63-9.055-16.63-20.238,7.441-15.571,16.63-15.571S1279.263,1268.742,1279.263,1279.925Z" transform="translate(-1245.981 -1264.354)" fill="#fecb2f"/>
        </g>
        <g id="Grupo_904896" data-name="Grupo 904896" transform="translate(13.116 12.658)">
          <path id="Trazado_633669" data-name="Trazado 633669" d="M1238.779,1277.095c-9.6,0-17.41-9.429-17.41-21.019,0-10.392,6.346-16.352,17.41-16.352s17.433,5.959,17.433,16.352C1256.212,1267.666,1248.392,1277.095,1238.779,1277.095Zm0-35.81c-5.919,0-15.849,1.921-15.849,14.791,0,10.729,7.11,19.459,15.849,19.459s15.873-8.73,15.873-19.459C1254.651,1243.206,1244.707,1241.284,1238.779,1241.284Z" transform="translate(-1221.369 -1239.724)"/>
        </g>
        <g id="Grupo_904897" data-name="Grupo 904897" transform="translate(28.481 26.911)">
          <path id="Trazado_633670" data-name="Trazado 633670" d="M1706.154,1711.606l2.044-22.176,2.059,22.176Z" transform="translate(-1706.154 -1689.43)" fill="#21cbae"/>
        </g>
        <g id="Grupo_904898" data-name="Grupo 904898" transform="translate(27.7 26.131)">
          <path id="Trazado_633671" data-name="Trazado 633671" d="M1686.408,1688.551h-4.1a.78.78,0,0,1-.777-.852l2.044-22.177a.78.78,0,0,1,1.554,0l2.059,22.177a.78.78,0,0,1-.777.852Zm-3.247-1.56h2.392l-1.2-12.926Z" transform="translate(-1681.525 -1664.814)"/>
        </g>
        <g id="Grupo_904899" data-name="Grupo 904899" transform="translate(34.276 5.215)">
          <circle id="Elipse_6614" data-name="Elipse 6614" cx="2.677" cy="2.677" r="2.677" transform="matrix(0.003, -1, 1, 0.003, 0, 5.353)" fill="#ebebeb"/>
        </g>
        <g id="Grupo_904900" data-name="Grupo 904900" transform="translate(33.505 4.444)">
          <path id="Trazado_633672" data-name="Trazado 633672" d="M1868.109,987.506a3.457,3.457,0,1,1,3.457-3.458A3.462,3.462,0,0,1,1868.109,987.506Zm0-5.353a1.9,1.9,0,1,0,1.9,1.9A1.9,1.9,0,0,0,1868.109,982.153Z" transform="translate(-1864.652 -980.593)"/>
        </g>
        <g id="Grupo_904901" data-name="Grupo 904901" transform="translate(21.427 5.215)">
          <circle id="Elipse_6615" data-name="Elipse 6615" cx="2.677" cy="2.677" r="2.677" transform="translate(0 5.353) rotate(-89.805)" fill="#ebebeb"/>
        </g>
        <g id="Grupo_904902" data-name="Grupo 904902" transform="translate(20.655 4.444)">
          <path id="Trazado_633673" data-name="Trazado 633673" d="M1462.707,987.506a3.457,3.457,0,1,1,3.457-3.458A3.461,3.461,0,0,1,1462.707,987.506Zm0-5.353a1.9,1.9,0,1,0,1.9,1.9A1.9,1.9,0,0,0,1462.707,982.153Z" transform="translate(-1459.25 -980.593)"/>
        </g>
        <g id="Grupo_904912" data-name="Grupo 904912" transform="translate(15.791 17.933)">
          <g id="Grupo_904903" data-name="Grupo 904903" transform="translate(20.773)">
            <path id="Trazado_633674" data-name="Trazado 633674" d="M1965.564,1408.38a2.2,2.2,0,1,1-2.2-2.2A2.2,2.2,0,0,1,1965.564,1408.38Z" transform="translate(-1961.166 -1406.181)"/>
          </g>
          <g id="Grupo_904904" data-name="Grupo 904904" transform="translate(12.444 2.841)">
            <path id="Trazado_633675" data-name="Trazado 633675" d="M1702.77,1498a2.2,2.2,0,1,1-2.2-2.2A2.2,2.2,0,0,1,1702.77,1498Z" transform="translate(-1698.372 -1495.805)"/>
          </g>
          <g id="Grupo_904905" data-name="Grupo 904905" transform="translate(25.095 6.779)">
            <path id="Trazado_633676" data-name="Trazado 633676" d="M2101.918,1622.248a2.2,2.2,0,1,1-2.2-2.2A2.2,2.2,0,0,1,2101.918,1622.248Z" transform="translate(-2097.52 -1620.049)"/>
          </g>
          <g id="Grupo_904906" data-name="Grupo 904906" transform="translate(18.574 12.048)">
            <path id="Trazado_633677" data-name="Trazado 633677" d="M1896.182,1788.509a2.2,2.2,0,1,1-2.2-2.2A2.2,2.2,0,0,1,1896.182,1788.509Z" transform="translate(-1891.784 -1786.31)"/>
          </g>
          <g id="Grupo_904907" data-name="Grupo 904907" transform="translate(20.773 20.539)">
            <path id="Trazado_633678" data-name="Trazado 633678" d="M1965.564,2056.383a2.2,2.2,0,1,1-2.2-2.2A2.2,2.2,0,0,1,1965.564,2056.383Z" transform="translate(-1961.166 -2054.184)"/>
          </g>
          <g id="Grupo_904908" data-name="Grupo 904908" transform="translate(4.322)">
            <path id="Trazado_633679" data-name="Trazado 633679" d="M1442.115,1408.38a2.2,2.2,0,1,0,2.2-2.2A2.2,2.2,0,0,0,1442.115,1408.38Z" transform="translate(-1442.115 -1406.181)"/>
          </g>
          <g id="Grupo_904909" data-name="Grupo 904909" transform="translate(0 6.779)">
            <path id="Trazado_633680" data-name="Trazado 633680" d="M1305.762,1622.248a2.2,2.2,0,1,0,2.2-2.2A2.2,2.2,0,0,0,1305.762,1622.248Z" transform="translate(-1305.762 -1620.049)"/>
          </g>
          <g id="Grupo_904910" data-name="Grupo 904910" transform="translate(7.323 12.048)">
            <path id="Trazado_633681" data-name="Trazado 633681" d="M1536.8,1788.509a2.2,2.2,0,1,0,2.2-2.2A2.2,2.2,0,0,0,1536.8,1788.509Z" transform="translate(-1536.797 -1786.31)"/>
          </g>
          <g id="Grupo_904911" data-name="Grupo 904911" transform="translate(4.322 20.539)">
            <path id="Trazado_633682" data-name="Trazado 633682" d="M1442.115,2056.383a2.2,2.2,0,1,0,2.2-2.2A2.2,2.2,0,0,0,1442.115,2056.383Z" transform="translate(-1442.115 -2054.184)"/>
          </g>
        </g>
      </g>
      <g id="Grupo_904918" data-name="Grupo 904918" transform="translate(150.327 150.125)">
        <g id="Grupo_904914" data-name="Grupo 904914" transform="translate(15.405 15.404)">
          <rect id="Rectángulo_303396" data-name="Rectángulo 303396" width="91.992" height="7.873" transform="translate(0 65.048) rotate(-45)" fill="#ef3c79"/>
        </g>
        <g id="Grupo_904915" data-name="Grupo 904915" transform="translate(14.625 14.625)">
          <path id="Trazado_633683" data-name="Trazado 633683" d="M618.109,683.734a.778.778,0,0,1-.552-.229l-5.567-5.566a.78.78,0,0,1,0-1.1l65.049-65.047a.78.78,0,0,1,1.1,0l5.567,5.566a.78.78,0,0,1,0,1.1l-65.049,65.047A.778.778,0,0,1,618.109,683.734Zm-4.464-6.346,4.464,4.463,63.945-63.944-4.464-4.463Z" transform="translate(-611.762 -611.561)"/>
        </g>
        <g id="Grupo_904916" data-name="Grupo 904916" transform="translate(0.78 0.779)">
          <path id="Trazado_633684" data-name="Trazado 633684" d="M224.868,274.582A49.933,49.933,0,1,1,274.8,224.649,49.99,49.99,0,0,1,224.868,274.582Zm0-91.991a42.059,42.059,0,1,0,42.06,42.058A42.106,42.106,0,0,0,224.868,182.591Z" transform="translate(-174.935 -174.717)" fill="#ef3c79"/>
        </g>
        <g id="Grupo_904917" data-name="Grupo 904917" transform="translate(0 0)">
          <path id="Trazado_633685" data-name="Trazado 633685" d="M201.04,251.549a50.712,50.712,0,1,1,50.714-50.713A50.771,50.771,0,0,1,201.04,251.549Zm0-99.864a49.152,49.152,0,1,0,49.154,49.151A49.208,49.208,0,0,0,201.04,151.685Zm0,91.991a42.839,42.839,0,1,1,42.84-42.84A42.888,42.888,0,0,1,201.04,243.676Zm0-84.117a41.278,41.278,0,1,0,41.28,41.278A41.325,41.325,0,0,0,201.04,159.559Z" transform="translate(-150.327 -150.125)"/>
        </g>
      </g>
    </g>
  </g>
</svg>
