<svg xmlns="http://www.w3.org/2000/svg" width="420" height="285" viewBox="0 0 420 285">
  <g id="Grupo_906577" data-name="Grupo 906577" transform="translate(-941.822 -3543)">
    <rect id="Rectángulo_303357" data-name="Rectángulo 303357" width="420" height="285" rx="32" transform="translate(941.822 3543)" fill="#fff"/>
    <g id="Grupo_904832" data-name="Grupo 904832" transform="translate(511.223 1769.837)">
      <g id="Grupo_904760" data-name="Grupo 904760" transform="translate(554.563 1866.132)">
        <g id="Grupo_904757" data-name="Grupo 904757" transform="translate(0 0.237)">
          <path id="Trazado_633546" data-name="Trazado 633546" d="M567.344,1903.161l-13.49-16.719,35.532-21.151,1.6,2.692-32.429,19.3,11.22,13.909Z" transform="translate(-553.855 -1865.292)"/>
        </g>
        <g id="Grupo_904758" data-name="Grupo 904758" transform="translate(75.376 112.744)">
          <rect id="Rectángulo_303380" data-name="Rectángulo 303380" width="3.132" height="21.428" transform="matrix(0.778, -0.628, 0.628, 0.778, 0, 1.968)"/>
        </g>
        <g id="Grupo_904759" data-name="Grupo 904759" transform="translate(142.582)">
          <path id="Trazado_633547" data-name="Trazado 633547" d="M719.336,1900.095l-2.435-1.968,8.75-10.835-32.828-19.54,1.6-2.692,35.932,21.389Z" transform="translate(-692.823 -1865.06)"/>
        </g>
      </g>
      <path id="Trazado_633548" data-name="Trazado 633548" d="M643.51,1850.7l-74.132,38.537,74.132,82.58,74.132-82.58Z" transform="translate(1.112 0.699)" fill="#e8e8e8"/>
      <g id="Grupo_904784" data-name="Grupo 904784" transform="translate(594.21 1823.811)">
        <g id="Grupo_904770" data-name="Grupo 904770">
          <g id="Grupo_904769" data-name="Grupo 904769">
            <g id="Grupo_904768" data-name="Grupo 904768">
              <g id="Grupo_904767" data-name="Grupo 904767">
                <g id="Grupo_904766" data-name="Grupo 904766">
                  <g id="Grupo_904761" data-name="Grupo 904761" transform="translate(31.507 75.617)">
                    <path id="Trazado_633549" data-name="Trazado 633549" d="M624.741,1899.047h0Z" transform="translate(-623.166 -1897.472)" fill="#b0b0b0"/>
                    <rect id="Rectángulo_303381" data-name="Rectángulo 303381" width="37.808" height="3.151"/>
                  </g>
                  <g id="Grupo_904762" data-name="Grupo 904762" transform="translate(0 50.412)">
                    <path id="Trazado_633550" data-name="Trazado 633550" d="M594.033,1883.933v-9.452H691.7v9.452a3.153,3.153,0,0,1-3.151,3.151H597.183a3.151,3.151,0,0,1-3.15-3.151Z" transform="translate(-592.457 -1872.905)" fill="#0b5999"/>
                    <path id="Trazado_633551" data-name="Trazado 633551" d="M688.593,1888.7H597.223a4.731,4.731,0,0,1-4.726-4.726v-11.027H693.32v11.027A4.732,4.732,0,0,1,688.593,1888.7Zm-92.946-12.6v7.877a1.578,1.578,0,0,0,1.575,1.576h91.371a1.578,1.578,0,0,0,1.576-1.576V1876.1Z" transform="translate(-592.497 -1872.945)"/>
                  </g>
                  <g id="Grupo_904763" data-name="Grupo 904763" transform="translate(32.43 63.015)">
                    <path id="Trazado_633552" data-name="Trazado 633552" d="M656.169,1899.366H627.812c3.151-3.15,4.726-7.877,4.726-12.6h18.9C651.442,1891.49,653.018,1896.217,656.169,1899.366Z" transform="translate(-624.009 -1885.189)" fill="#fff"/>
                    <path id="Trazado_633553" data-name="Trazado 633553" d="M660.067,1900.982H624.1l2.69-2.69a16.228,16.228,0,0,0,4.264-11.488v-1.575h22.055v1.575a16.224,16.224,0,0,0,4.264,11.488Zm-28.9-3.151H653a20.163,20.163,0,0,1-2.986-9.453H634.156A20.163,20.163,0,0,1,631.171,1897.831Z" transform="translate(-624.105 -1885.229)"/>
                  </g>
                  <g id="Grupo_904764" data-name="Grupo 904764" transform="translate(42.535 56.713)">
                    <path id="Trazado_633554" data-name="Trazado 633554" d="M646.556,1882.238v-3.151h3.151v3.151Zm-6.3,0v-3.151h3.151v3.151Zm-6.3,0v-3.151h3.15v3.151Z" transform="translate(-633.954 -1879.087)"/>
                  </g>
                  <g id="Grupo_904765" data-name="Grupo 904765">
                    <path id="Trazado_633555" data-name="Trazado 633555" d="M594.033,1875.759H691.7V1828.5a3.15,3.15,0,0,0-3.151-3.151H597.183a3.148,3.148,0,0,0-3.15,3.151Z" transform="translate(-592.457 -1823.771)" fill="#fff"/>
                    <path id="Trazado_633556" data-name="Trazado 633556" d="M693.32,1877.374H592.5v-48.836a4.732,4.732,0,0,1,4.726-4.727h91.371a4.733,4.733,0,0,1,4.727,4.727Zm-97.672-3.151h94.521v-45.685a1.578,1.578,0,0,0-1.576-1.576H597.223a1.577,1.577,0,0,0-1.575,1.576Z" transform="translate(-592.497 -1823.811)"/>
                  </g>
                </g>
              </g>
            </g>
          </g>
        </g>
        <g id="Grupo_904771" data-name="Grupo 904771" transform="translate(17.329 23.631)">
          <rect id="Rectángulo_303382" data-name="Rectángulo 303382" width="56.713" height="18.904" transform="translate(1.575 1.575)" fill="#21cbae"/>
          <path id="Trazado_633557" data-name="Trazado 633557" d="M669.25,1868.9H609.387v-22.055H669.25Zm-56.712-3.151H666.1v-15.753H612.538Z" transform="translate(-609.387 -1846.843)"/>
        </g>
        <g id="Grupo_904774" data-name="Grupo 904774" transform="translate(36.233 29.933)">
          <g id="Grupo_904772" data-name="Grupo 904772" transform="translate(0 6.301)">
            <rect id="Rectángulo_303383" data-name="Rectángulo 303383" width="22.055" height="3.151"/>
          </g>
          <g id="Grupo_904773" data-name="Grupo 904773" transform="translate(0)">
            <path id="Trazado_633558" data-name="Trazado 633558" d="M660.894,1856.135H637.264v-3.15h23.631Zm-26.781,0h-6.3v-3.15h6.3Z" transform="translate(-627.812 -1852.985)"/>
          </g>
        </g>
        <g id="Grupo_904775" data-name="Grupo 904775" transform="translate(23.63 29.933)">
          <path id="Trazado_633559" data-name="Trazado 633559" d="M617.064,1857.671a3.151,3.151,0,1,1,3.151,3.151A3.151,3.151,0,0,1,617.064,1857.671Z" transform="translate(-615.488 -1852.945)" fill="#ef3c79"/>
          <path id="Trazado_633560" data-name="Trazado 633560" d="M620.255,1862.437a4.726,4.726,0,1,1,4.726-4.726A4.732,4.732,0,0,1,620.255,1862.437Zm0-6.3a1.575,1.575,0,1,0,1.575,1.576A1.578,1.578,0,0,0,620.255,1856.135Z" transform="translate(-615.528 -1852.985)"/>
        </g>
        <g id="Grupo_904782" data-name="Grupo 904782" transform="translate(17.329 4.727)">
          <g id="Grupo_904776" data-name="Grupo 904776" transform="translate(0 3.151)">
            <path id="Trazado_633561" data-name="Trazado 633561" d="M618.838,1842.477h-6.379a1.539,1.539,0,0,1-1.537-1.537v-6.379a1.538,1.538,0,0,1,1.537-1.537h6.379a1.536,1.536,0,0,1,1.537,1.537v6.379a1.54,1.54,0,0,1-1.537,1.537Z" transform="translate(-609.347 -1831.449)" fill="#fecb2f"/>
            <path id="Trazado_633562" data-name="Trazado 633562" d="M617.264,1844.091h-3.151a4.731,4.731,0,0,1-4.726-4.726v-3.151a4.731,4.731,0,0,1,4.726-4.726h3.151a4.731,4.731,0,0,1,4.726,4.726v3.151A4.731,4.731,0,0,1,617.264,1844.091Zm-3.151-9.453a1.577,1.577,0,0,0-1.575,1.576v3.151a1.577,1.577,0,0,0,1.575,1.575h3.151a1.577,1.577,0,0,0,1.575-1.575v-3.151a1.577,1.577,0,0,0-1.575-1.576Z" transform="translate(-609.387 -1831.489)"/>
          </g>
          <g id="Grupo_904777" data-name="Grupo 904777" transform="translate(15.5 3.151)">
            <path id="Trazado_633563" data-name="Trazado 633563" d="M627.814,1842.477h6.378a1.537,1.537,0,0,0,1.537-1.537v-6.379a1.538,1.538,0,0,0-1.537-1.537h-6.378a1.534,1.534,0,0,0-1.537,1.537v6.379a1.538,1.538,0,0,0,1.537,1.537Z" transform="translate(-624.448 -1831.449)" fill="#fecb2f"/>
            <path id="Trazado_633564" data-name="Trazado 633564" d="M629.47,1844.091a4.751,4.751,0,0,1-4.534-3.394l-.442-1.512,3.024-.885.443,1.51a1.581,1.581,0,0,0,1.511,1.131h3.152a1.577,1.577,0,0,0,1.576-1.575v-3.151a1.578,1.578,0,0,0-1.576-1.576h-2.7v-3.15h2.7a4.731,4.731,0,0,1,4.726,4.726v3.151a4.731,4.731,0,0,1-4.726,4.726H629.47Z" transform="translate(-624.494 -1831.489)"/>
          </g>
          <g id="Grupo_904778" data-name="Grupo 904778" transform="translate(31.506 3.151)">
            <path id="Trazado_633565" data-name="Trazado 633565" d="M649.546,1842.477h-6.378a1.536,1.536,0,0,1-1.537-1.537v-6.379a1.538,1.538,0,0,1,1.537-1.537h6.378a1.534,1.534,0,0,1,1.537,1.537v6.379a1.536,1.536,0,0,1-1.537,1.537Z" transform="translate(-640.055 -1831.449)" fill="#fecb2f"/>
            <path id="Trazado_633566" data-name="Trazado 633566" d="M647.973,1844.091h-3.151a4.732,4.732,0,0,1-4.727-4.726v-3.151a4.732,4.732,0,0,1,4.727-4.726h3.151a4.732,4.732,0,0,1,4.726,4.726v3.151A4.731,4.731,0,0,1,647.973,1844.091Zm-3.151-9.453a1.578,1.578,0,0,0-1.576,1.576v3.151a1.577,1.577,0,0,0,1.576,1.575h3.151a1.577,1.577,0,0,0,1.575-1.575v-3.151a1.577,1.577,0,0,0-1.575-1.576Z" transform="translate(-640.095 -1831.489)"/>
          </g>
          <g id="Grupo_904779" data-name="Grupo 904779" transform="translate(47.261 3.151)">
            <path id="Trazado_633567" data-name="Trazado 633567" d="M664.9,1842.477h-6.379a1.539,1.539,0,0,1-1.537-1.537v-6.379a1.538,1.538,0,0,1,1.537-1.537H664.9a1.538,1.538,0,0,1,1.537,1.537v6.379a1.54,1.54,0,0,1-1.537,1.537Z" transform="translate(-655.41 -1831.449)" fill="#fecb2f"/>
            <path id="Trazado_633568" data-name="Trazado 633568" d="M663.327,1844.091h-3.151a4.731,4.731,0,0,1-4.726-4.726v-3.151a4.731,4.731,0,0,1,4.726-4.726h3.151a4.731,4.731,0,0,1,4.726,4.726v3.151A4.731,4.731,0,0,1,663.327,1844.091Zm-3.151-9.453a1.577,1.577,0,0,0-1.575,1.576v3.151a1.577,1.577,0,0,0,1.575,1.575h3.151a1.577,1.577,0,0,0,1.575-1.575v-3.151a1.577,1.577,0,0,0-1.575-1.576Z" transform="translate(-655.45 -1831.489)"/>
          </g>
          <g id="Grupo_904780" data-name="Grupo 904780" transform="translate(63.014 3.151)">
            <path id="Trazado_633569" data-name="Trazado 633569" d="M680.255,1842.477h-6.379a1.538,1.538,0,0,1-1.537-1.537v-6.379a1.536,1.536,0,0,1,1.537-1.537h6.379a1.537,1.537,0,0,1,1.537,1.537v6.379a1.54,1.54,0,0,1-1.537,1.537Z" transform="translate(-670.764 -1831.449)" fill="#ffd44d"/>
            <path id="Trazado_633570" data-name="Trazado 633570" d="M678.681,1844.091H675.53a4.731,4.731,0,0,1-4.726-4.726v-3.151a4.731,4.731,0,0,1,4.726-4.726h3.151a4.731,4.731,0,0,1,4.726,4.726v3.151A4.731,4.731,0,0,1,678.681,1844.091Zm-3.151-9.453a1.577,1.577,0,0,0-1.575,1.576v3.151a1.577,1.577,0,0,0,1.575,1.575h3.151a1.578,1.578,0,0,0,1.576-1.575v-3.151a1.578,1.578,0,0,0-1.576-1.576Z" transform="translate(-670.804 -1831.489)"/>
          </g>
          <g id="Grupo_904781" data-name="Grupo 904781" transform="translate(6.301)">
            <path id="Trazado_633571" data-name="Trazado 633571" d="M617.064,1833.1a3.151,3.151,0,1,1,3.151,3.151A3.151,3.151,0,0,1,617.064,1833.1Z" transform="translate(-615.488 -1828.378)" fill="#ef3c79"/>
            <path id="Trazado_633572" data-name="Trazado 633572" d="M620.255,1837.87a4.726,4.726,0,1,1,4.726-4.726A4.732,4.732,0,0,1,620.255,1837.87Zm0-6.3a1.575,1.575,0,1,0,1.575,1.575A1.577,1.577,0,0,0,620.255,1831.569Z" transform="translate(-615.528 -1828.418)"/>
          </g>
        </g>
        <g id="Grupo_904783" data-name="Grupo 904783" transform="translate(11.028 6.302)">
          <rect id="Rectángulo_303384" data-name="Rectángulo 303384" width="3.151" height="40.959"/>
        </g>
      </g>
      <g id="Grupo_904806" data-name="Grupo 904806" transform="translate(526.599 1895.006)">
        <g id="Grupo_904785" data-name="Grupo 904785">
          <circle id="Elipse_6610" data-name="Elipse 6610" cx="48.729" cy="48.729" r="48.729" transform="translate(0 94.838) rotate(-76.684)" fill="#fff"/>
          <path id="Trazado_633573" data-name="Trazado 633573" d="M585.031,2001.934a50.3,50.3,0,1,1,50.3-50.3A50.357,50.357,0,0,1,585.031,2001.934Zm0-97.459a47.158,47.158,0,1,0,47.157,47.158A47.211,47.211,0,0,0,585.031,1904.475Z" transform="translate(-526.388 -1892.99)"/>
        </g>
        <g id="Grupo_904805" data-name="Grupo 904805" transform="translate(14.63 14.629)">
          <g id="Grupo_904786" data-name="Grupo 904786" transform="translate(28.294 67.591)">
            <path id="Trazado_633574" data-name="Trazado 633574" d="M596.724,1981.158H571.5a1.536,1.536,0,0,1-1.537-1.537v-3.213a1.538,1.538,0,0,1,1.537-1.537h25.22a1.536,1.536,0,0,1,1.537,1.537v3.213a1.535,1.535,0,0,1-1.537,1.537Z" transform="translate(-568.395 -1973.298)" fill="#4791f3"/>
            <path id="Trazado_633575" data-name="Trazado 633575" d="M595.157,1982.77H573.151a4.716,4.716,0,0,1,0-9.432h22.007a4.716,4.716,0,1,1,0,9.432Zm-22.007-6.287a1.572,1.572,0,0,0,0,3.144h22.007a1.572,1.572,0,0,0,0-3.144Z" transform="translate(-568.435 -1973.338)"/>
          </g>
          <g id="Grupo_904788" data-name="Grupo 904788" transform="translate(18.863 18.862)">
            <g id="Grupo_904787" data-name="Grupo 904787">
              <path id="Trazado_633576" data-name="Trazado 633576" d="M607.932,1950.956a23.579,23.579,0,1,0-37.683,18.863h28.208A23.519,23.519,0,0,0,607.932,1950.956Z" transform="translate(-559.203 -1925.804)" fill="#b0c0d2"/>
              <path id="Trazado_633577" data-name="Trazado 633577" d="M599.021,1971.429H569.766l-.42-.313a25.15,25.15,0,1,1,30.095,0Zm-28.2-3.144h27.143A21.811,21.811,0,0,0,606.4,1951a22.007,22.007,0,0,0-44.013,0A21.81,21.81,0,0,0,570.821,1968.286Z" transform="translate(-559.243 -1925.844)"/>
            </g>
          </g>
          <g id="Grupo_904789" data-name="Grupo 904789" transform="translate(33.01 80.168)">
            <path id="Trazado_633578" data-name="Trazado 633578" d="M591.894,1988.74V1985.6h3.144v3.144Zm-6.287,0V1985.6h3.144v3.144Zm-6.287,0V1985.6h3.144v3.144Zm-6.288,0V1985.6h3.145v3.144Z" transform="translate(-573.031 -1985.596)"/>
          </g>
          <g id="Grupo_904802" data-name="Grupo 904802">
            <g id="Grupo_904790" data-name="Grupo 904790" transform="translate(3.451 55.862)">
              <path id="Trazado_633579" data-name="Trazado 633579" d="M554.72,1980.015l6.669-6.668a32.869,32.869,0,0,1-6.548-9.4l-8.585,4A42.355,42.355,0,0,0,554.72,1980.015Z" transform="translate(-544.169 -1961.853)" fill="#fd5555"/>
              <path id="Trazado_633580" data-name="Trazado 633580" d="M554.773,1982.291l-1.111-1.111a43.815,43.815,0,0,1-8.776-12.518l-.664-1.424,11.433-5.331.664,1.425a31.339,31.339,0,0,0,6.236,8.956l1.111,1.112Zm-6.348-13.545a40.736,40.736,0,0,0,6.368,9.079l4.451-4.452a34.436,34.436,0,0,1-5.08-7.3Z" transform="translate(-544.222 -1961.906)"/>
            </g>
            <g id="Grupo_904791" data-name="Grupo 904791" transform="translate(0 42.442)">
              <path id="Trazado_633581" data-name="Trazado 633581" d="M542.39,1950.358a42.468,42.468,0,0,0,3.968,17.941l8.585-4a33.014,33.014,0,0,1-3.12-13.937Z" transform="translate(-540.818 -1948.786)" fill="#ef3c79"/>
              <path id="Trazado_633582" data-name="Trazado 633582" d="M545.636,1970.427l-.663-1.425a44.314,44.314,0,0,1-4.115-18.6v-1.572h12.575v1.572a31.661,31.661,0,0,0,2.973,13.273l.664,1.424Zm-1.6-18.457a41.281,41.281,0,0,0,3.154,14.267l5.74-2.676a34.9,34.9,0,0,1-2.6-11.591Z" transform="translate(-540.858 -1948.826)"/>
            </g>
            <g id="Grupo_904792" data-name="Grupo 904792" transform="translate(71.814 42.442)">
              <path id="Trazado_633583" data-name="Trazado 633583" d="M616.008,1950.358a33.015,33.015,0,0,1-3.12,13.937l8.584,4a42.454,42.454,0,0,0,3.967-17.941Z" transform="translate(-610.799 -1948.786)" fill="#0b5999"/>
              <path id="Trazado_633584" data-name="Trazado 633584" d="M622.286,1970.427l-11.434-5.331.664-1.424a31.648,31.648,0,0,0,2.974-13.273v-1.572h12.575v1.572a44.314,44.314,0,0,1-4.115,18.6ZM615,1963.561l5.739,2.676a41.281,41.281,0,0,0,3.154-14.267H617.6A34.93,34.93,0,0,1,615,1963.561Z" transform="translate(-610.852 -1948.826)"/>
            </g>
            <g id="Grupo_904793" data-name="Grupo 904793" transform="translate(65.132 55.862)">
              <path id="Trazado_633585" data-name="Trazado 633585" d="M606.506,1973.346l6.669,6.668a42.35,42.35,0,0,0,8.463-12.069l-8.584-4A32.888,32.888,0,0,1,606.506,1973.346Z" transform="translate(-604.283 -1961.853)" fill="#0b5999"/>
              <path id="Trazado_633586" data-name="Trazado 633586" d="M613.231,1982.291l-8.892-8.891,1.111-1.112a31.319,31.319,0,0,0,6.235-8.956l.664-1.425,11.434,5.331-.664,1.424a43.837,43.837,0,0,1-8.776,12.518Zm-4.471-8.918,4.451,4.452a40.7,40.7,0,0,0,6.367-9.079l-5.738-2.676A34.445,34.445,0,0,1,608.76,1973.373Z" transform="translate(-604.339 -1961.906)"/>
            </g>
            <g id="Grupo_904794" data-name="Grupo 904794" transform="translate(71.814 23.984)">
              <path id="Trazado_633587" data-name="Trazado 633587" d="M616.008,1950.813h9.431a42.448,42.448,0,0,0-3.967-17.941l-8.584,4A33.008,33.008,0,0,1,616.008,1950.813Z" transform="translate(-610.799 -1930.783)" fill="#ffd44d"/>
              <path id="Trazado_633588" data-name="Trazado 633588" d="M627.065,1952.438H614.49v-1.572a31.644,31.644,0,0,0-2.974-13.273l-.664-1.425,11.434-5.331.664,1.425a44.315,44.315,0,0,1,4.115,18.6Zm-9.431-1.572h0Zm-.038-1.572h6.294a41.275,41.275,0,0,0-3.154-14.267L615,1937.7A34.937,34.937,0,0,1,617.6,1949.294Z" transform="translate(-610.852 -1930.836)"/>
            </g>
            <g id="Grupo_904795" data-name="Grupo 904795" transform="translate(42.442)">
              <path id="Trazado_633589" data-name="Trazado 633589" d="M597.693,1921.544l4-8.584a42.461,42.461,0,0,0-17.941-3.968v9.431A33,33,0,0,1,597.693,1921.544Z" transform="translate(-582.184 -1907.42)" fill="#ffd44d"/>
              <path id="Trazado_633590" data-name="Trazado 633590" d="M598.494,1923.673l-1.425-.664a31.651,31.651,0,0,0-13.273-2.974h-1.572V1907.46H583.8a44.334,44.334,0,0,1,18.6,4.114l1.425.664Zm-13.127-6.744a34.908,34.908,0,0,1,11.591,2.6l2.675-5.739a41.222,41.222,0,0,0-14.266-3.154Z" transform="translate(-582.224 -1907.46)"/>
            </g>
            <g id="Grupo_904796" data-name="Grupo 904796" transform="translate(55.862 3.45)">
              <path id="Trazado_633591" data-name="Trazado 633591" d="M606.744,1927.991l6.669-6.668h0a42.356,42.356,0,0,0-12.07-8.464l-4,8.584A32.875,32.875,0,0,1,606.744,1927.991Z" transform="translate(-595.251 -1910.77)" fill="#ffd44d"/>
              <path id="Trazado_633592" data-name="Trazado 633592" d="M606.8,1930.268l-1.111-1.112a31.275,31.275,0,0,0-8.956-6.234l-1.425-.664,5.331-11.435,1.425.664a43.845,43.845,0,0,1,12.517,8.777l1.111,1.111Zm-7.329-9.5a34.4,34.4,0,0,1,7.3,5.081l4.452-4.451a40.689,40.689,0,0,0-9.079-6.368Z" transform="translate(-595.304 -1910.823)"/>
            </g>
            <g id="Grupo_904797" data-name="Grupo 904797" transform="translate(65.132 11.78)">
              <path id="Trazado_633593" data-name="Trazado 633593" d="M613.054,1937.182l8.584-4a42.342,42.342,0,0,0-8.463-12.07l-6.669,6.668A32.893,32.893,0,0,1,613.054,1937.182Z" transform="translate(-604.283 -1918.885)" fill="#ffd44d"/>
              <path id="Trazado_633594" data-name="Trazado 633594" d="M612.349,1939.327l-.664-1.425a31.319,31.319,0,0,0-6.235-8.957l-1.111-1.111,8.892-8.892,1.111,1.112a43.815,43.815,0,0,1,8.776,12.517l.664,1.424Zm-3.589-11.467a34.412,34.412,0,0,1,5.08,7.3l5.738-2.676a40.67,40.67,0,0,0-6.367-9.078Z" transform="translate(-604.339 -1918.941)"/>
            </g>
            <g id="Grupo_904798" data-name="Grupo 904798" transform="translate(0 23.984)">
              <path id="Trazado_633595" data-name="Trazado 633595" d="M554.942,1936.876l-8.585-4a42.462,42.462,0,0,0-3.968,17.941h9.432A33.007,33.007,0,0,1,554.942,1936.876Z" transform="translate(-540.818 -1930.783)" fill="#fecb2f"/>
              <path id="Trazado_633596" data-name="Trazado 633596" d="M553.433,1952.438H540.858v-1.572a44.315,44.315,0,0,1,4.115-18.6l.663-1.425,11.434,5.331-.664,1.425a31.658,31.658,0,0,0-2.973,13.273Zm-9.4-3.144h6.295a34.909,34.909,0,0,1,2.6-11.592l-5.74-2.675A41.275,41.275,0,0,0,544.032,1949.294Z" transform="translate(-540.858 -1930.836)"/>
            </g>
            <g id="Grupo_904799" data-name="Grupo 904799" transform="translate(3.451 11.78)">
              <path id="Trazado_633597" data-name="Trazado 633597" d="M561.389,1927.776l-6.669-6.668a42.347,42.347,0,0,0-8.463,12.07l8.585,4A32.874,32.874,0,0,1,561.389,1927.776Z" transform="translate(-544.169 -1918.885)" fill="#ffd44d"/>
              <path id="Trazado_633598" data-name="Trazado 633598" d="M555.655,1939.327l-11.433-5.332.664-1.424a43.793,43.793,0,0,1,8.776-12.517l1.111-1.112,8.892,8.892-1.111,1.111a31.339,31.339,0,0,0-6.236,8.957Zm-7.229-6.84,5.74,2.676a34.4,34.4,0,0,1,5.08-7.3l-4.451-4.452A40.707,40.707,0,0,0,548.425,1932.486Z" transform="translate(-544.222 -1918.941)"/>
            </g>
            <g id="Grupo_904800" data-name="Grupo 904800" transform="translate(11.78 3.45)">
              <path id="Trazado_633599" data-name="Trazado 633599" d="M570.578,1921.444l-4-8.584a42.358,42.358,0,0,0-12.07,8.464h0l6.669,6.668A32.87,32.87,0,0,1,570.578,1921.444Z" transform="translate(-552.283 -1910.77)" fill="#ffd44d"/>
              <path id="Trazado_633600" data-name="Trazado 633600" d="M561.231,1930.268l-8.892-8.892,1.112-1.111a43.832,43.832,0,0,1,12.517-8.777l1.425-.664,5.331,11.435-1.426.664a31.285,31.285,0,0,0-8.955,6.234Zm-4.426-8.872,4.452,4.451a34.433,34.433,0,0,1,7.3-5.081l-2.676-5.738A40.72,40.72,0,0,0,556.805,1921.4Z" transform="translate(-552.339 -1910.823)"/>
            </g>
            <g id="Grupo_904801" data-name="Grupo 904801" transform="translate(23.984)">
              <path id="Trazado_633601" data-name="Trazado 633601" d="M584.211,1918.423v-9.431a42.461,42.461,0,0,0-17.941,3.968l4,8.584A33.009,33.009,0,0,1,584.211,1918.423Z" transform="translate(-564.181 -1907.42)" fill="#ffd44d"/>
              <path id="Trazado_633602" data-name="Trazado 633602" d="M569.565,1923.673l-5.331-11.435,1.425-.664a44.334,44.334,0,0,1,18.6-4.114h1.572v12.575h-1.572a31.656,31.656,0,0,0-13.274,2.974Zm-1.14-9.884,2.676,5.739a34.891,34.891,0,0,1,11.591-2.6v-6.295A41.228,41.228,0,0,0,568.425,1913.789Z" transform="translate(-564.234 -1907.46)"/>
            </g>
          </g>
          <g id="Grupo_904803" data-name="Grupo 904803" transform="translate(39.568 16.444)">
            <path id="Trazado_633603" data-name="Trazado 633603" d="M608.265,1931l1.111-5.558-5.557,1.111-22.23,22.23,4.446,4.446Z" transform="translate(-579.367 -1923.436)" fill="#0b5999"/>
            <path id="Trazado_633604" data-name="Trazado 633604" d="M586.091,1955.5l-6.668-6.669,23.678-23.678,8.336-1.668-1.668,8.337Zm-2.222-6.669,2.222,2.223,20.782-20.783.557-2.778-2.779.556Zm24.453-17.785h0Z" transform="translate(-579.423 -1923.487)"/>
          </g>
          <g id="Grupo_904804" data-name="Grupo 904804" transform="translate(37.725 37.726)">
            <path id="Trazado_633605" data-name="Trazado 633605" d="M588.591,1950.478a4.716,4.716,0,1,1-4.716-4.717A4.716,4.716,0,0,1,588.591,1950.478Z" transform="translate(-577.587 -1944.19)" fill="#fff"/>
            <path id="Trazado_633606" data-name="Trazado 633606" d="M583.915,1956.8a6.287,6.287,0,1,1,6.287-6.287A6.3,6.3,0,0,1,583.915,1956.8Zm0-9.431a3.144,3.144,0,1,0,3.144,3.144A3.146,3.146,0,0,0,583.915,1947.374Z" transform="translate(-577.627 -1944.23)"/>
          </g>
        </g>
      </g>
      <g id="Grupo_904831" data-name="Grupo 904831" transform="translate(644.24 1901.977)">
        <g id="Grupo_904807" data-name="Grupo 904807" transform="translate(8.665 10.814)">
          <circle id="Elipse_6611" data-name="Elipse 6611" cx="40.171" cy="40.171" r="40.171" transform="translate(0.093 3.115) rotate(-2.155)" fill="#ef3c79"/>
          <path id="Trazado_633607" data-name="Trazado 633607" d="M691.451,1994.03a41.747,41.747,0,1,1,41.747-41.747A41.794,41.794,0,0,1,691.451,1994.03Zm0-80.343a38.6,38.6,0,1,0,38.6,38.6A38.64,38.64,0,0,0,691.451,1913.687Z" transform="translate(-649.704 -1910.536)"/>
        </g>
        <g id="Grupo_904810" data-name="Grupo 904810" transform="translate(37.808 38.383)">
          <g id="Grupo_904808" data-name="Grupo 904808">
            <path id="Trazado_633608" data-name="Trazado 633608" d="M739.508,1974.224v-10.7l-5.845-1.3c-1.134-2.736-1.217-2.939-2.352-5.677l2.832-5.435-6.8-6.8-5.435,2.831-5.678-2.352-1.3-5.844h-10.7l-1.3,5.844-5.678,2.352-5.434-2.831-6.8,6.8,2.831,5.435-2.351,5.677-5.845,1.3v10.7l5.844,1.3,2.352,5.678-2.831,6.735,5.5,5.5,6.736-2.832,5.678,2.353,1.3,5.844h10.7l1.3-5.844,5.678-2.353,5.435,2.832,6.8-6.8-2.831-5.434c1.134-2.737,1.217-2.941,2.352-5.678Zm-29.932,7.478a12.828,12.828,0,1,1,12.828-12.828A12.828,12.828,0,0,1,709.577,1981.7Z" transform="translate(-678.069 -1937.366)" fill="#fecb2f"/>
            <path id="Trazado_633609" data-name="Trazado 633609" d="M716.229,2000.42H703l-1.4-6.277-4.313-1.786-7.106,2.986-7-7,2.987-7.105-1.786-4.313-6.278-1.4V1962.3l6.278-1.4,1.756-4.242-3.026-5.808,8.438-8.437,5.807,3.026,4.242-1.758,1.4-6.278h13.225l1.4,6.278,4.242,1.758,5.807-3.026,8.438,8.437-3.026,5.808,1.757,4.242,6.277,1.4v13.226l-6.277,1.4-1.757,4.243,3.026,5.806-8.438,8.438-5.807-3.025-4.242,1.756Zm-10.7-3.15H713.7l1.2-5.412,7.114-2.946,5.061,2.637,5.17-5.169-2.638-5.061,2.946-7.113,5.412-1.2v-8.174l-5.412-1.2-2.946-7.113,2.638-5.062-5.17-5.169-5.061,2.637-7.114-2.946-1.2-5.412H705.53l-1.206,5.412-7.113,2.946-5.061-2.637-5.17,5.169,2.638,5.062-2.946,7.113-5.412,1.2V1973l5.412,1.2,2.916,7.041-2.677,6.365,4.007,4.006,6.365-2.675,7.041,2.915Zm34.018-23.006h0Zm-29.932,9.053a14.4,14.4,0,1,1,14.4-14.4A14.42,14.42,0,0,1,709.617,1983.318Zm0-25.657a11.253,11.253,0,1,0,11.252,11.253A11.267,11.267,0,0,0,709.617,1957.66Z" transform="translate(-678.109 -1937.406)"/>
          </g>
          <g id="Grupo_904809" data-name="Grupo 904809" transform="translate(10.412 10.368)">
            <path id="Trazado_633610" data-name="Trazado 633610" d="M709.614,1989.782l-.354-3.024,1.506-.214.255,1.556.11,1.572Zm-3.851-.333-1.64-.359-1.505-.463.926-3.011,2.947.907Zm10.6-.866-1.212-2.909,2.881-1.2,1.272,2.818Zm-18.511-2.242.874-1.311-.881,1.306-1.3-.86,1.687-2.632,1.318.838Zm24.623-1.114-2.12-2.331,1.165-1.059,2.121,2.33Zm-28.738-2.351-1.044-1.28-.927-1.274,2.549-1.853,1.826,2.512ZM727.149,1980l-2.68-1.362.715-1.527.794-1.36,2.721,1.587-.793,1.362-1.362-.794,1.361.8Zm-37.17-2.967-.6-1.57-.434-1.516,3.031-.865.845,2.963Zm39.813-3.286-3.07-.709.694-3.006,2.973.522-.243,1.658Zm-41.535-3.442v-3.261h3.15v3.228Zm39.156-3.043-.369-1.635-.223-1.56,3.119-.445.223,1.559-1.56.223,1.56-.22.216,1.495Zm-35.625-2.911-2.94-1.132.565-1.469,1.47.564-1.469-.566.539-1.409,2.871.928-.47,1.613Zm33.966-2.9-1.29-2.794,2.648-1.416.842,1.459.66,1.43Zm-30.517-3.884-1.295-.9-1.216-1,.968-1.189,2.444,1.851Zm-1.295-.9h0Zm28.742-.148-2.328-2.118,2.085-2.352,2.363,2.137Zm-24.461-2.056-1.729-2.595,2.681-1.746,1.692,2.657Zm19.841-1.67-1.425-.549.536-1.483.66-1.43-.66,1.43.662-1.429,1.387.637Zm-14.729-1.194-.662-3.081,1.541-.33.33,1.54-.328-1.54,1.475-.318.79,2.914-1.607.485Zm9.1-.717-3.144-.225.193-3.145,3.174.227Z" transform="translate(-688.257 -1947.511)"/>
          </g>
        </g>
        <g id="Grupo_904820" data-name="Grupo 904820" transform="translate(2.507 5.3)">
          <g id="Grupo_904818" data-name="Grupo 904818">
            <g id="Grupo_904817" data-name="Grupo 904817">
              <g id="Grupo_904811" data-name="Grupo 904811" transform="translate(17.973)">
                <rect id="Rectángulo_303385" data-name="Rectángulo 303385" width="6.301" height="7.877" transform="translate(1.575 1.576)" fill="#4791f3"/>
                <path id="Trazado_633611" data-name="Trazado 633611" d="M670.672,1916.19H661.22v-11.028h9.452Zm-6.3-3.151h3.151v-4.726H664.37Z" transform="translate(-661.22 -1905.162)"/>
              </g>
              <g id="Grupo_904812" data-name="Grupo 904812" transform="translate(0 4.083)">
                <circle id="Elipse_6612" data-name="Elipse 6612" cx="18.904" cy="18.904" r="18.904" transform="translate(0 36.824) rotate(-76.895)" fill="#fff"/>
                <path id="Trazado_633612" data-name="Trazado 633612" d="M666.345,1952.263a20.479,20.479,0,1,1,20.479-20.479A20.5,20.5,0,0,1,666.345,1952.263Zm0-37.808a17.329,17.329,0,1,0,17.329,17.329A17.349,17.349,0,0,0,666.345,1914.455Z" transform="translate(-643.647 -1909.085)"/>
              </g>
              <g id="Grupo_904814" data-name="Grupo 904814" transform="translate(7.556 11.639)">
                <circle id="Elipse_6613" data-name="Elipse 6613" cx="12.603" cy="12.603" r="12.603" transform="translate(0 24.543) rotate(-76.836)" fill="#fff"/>
                <g id="Grupo_904813" data-name="Grupo 904813" transform="translate(0.964 0.964)">
                  <path id="Trazado_633613" data-name="Trazado 633613" d="M667.785,1945.8h-3.175l-.006-3.15h3.151Zm4.061-1.116-1.509-2.766,2.748-1.5,1.552,2.69Zm-12.729-.767.794-1.36-.8,1.357-1.347-.779,1.508-2.722,1.366.744Zm-4.407-3.821-1.575-2.791,2.767-1.509,1.5,2.747Zm22.974-.032-2.722-1.507.745-1.367,1.4.727,1.357.8Zm-25.678-6.817v-3.183h3.151v3.151Zm28.357-.017h-3.151v-3.25l3.151-.031Zm-3.79-5.809-.83-1.305,1.313-.873,1.36-.794-1.36.794,1.363-.79.783,1.335Zm-19.934-1.323-1.4-.727-1.358-.8.78-1.346,2.722,1.507Zm-1.4-.727h0Zm17.865-2.6-1.366-.683.677-1.424.793-1.36-.793,1.36.8-1.358,1.32.766Zm-12.405-.72-.873-1.313-.79-1.363,1.335-.783,1.633,2.627Zm-.873-1.313h0Zm7.891-.144h-3.151l-.031-3.151h3.182Z" transform="translate(-652.007 -1917.446)"/>
                </g>
              </g>
              <g id="Grupo_904815" data-name="Grupo 904815" transform="translate(20.68 18.57)">
                <path id="Trazado_633614" data-name="Trazado 633614" d="M670.6,1933.048h-6.744l2.447-9.787,3.057.764L667.9,1929.9H670.6Z" transform="translate(-663.859 -1923.261)"/>
              </g>
              <g id="Grupo_904816" data-name="Grupo 904816" transform="translate(7.868 7.225)">
                <rect id="Rectángulo_303386" data-name="Rectángulo 303386" width="3.15" height="5.378" transform="matrix(0.707, -0.707, 0.707, 0.707, 0, 2.228)"/>
              </g>
            </g>
          </g>
          <g id="Grupo_904819" data-name="Grupo 904819" transform="translate(16.397 0)">
            <rect id="Rectángulo_303387" data-name="Rectángulo 303387" width="12.603" height="3.151"/>
          </g>
        </g>
        <g id="Grupo_904829" data-name="Grupo 904829" transform="translate(0 66.166)">
          <g id="Grupo_904828" data-name="Grupo 904828">
            <g id="Grupo_904827" data-name="Grupo 904827">
              <g id="Grupo_904826" data-name="Grupo 904826">
                <g id="Grupo_904825" data-name="Grupo 904825">
                  <g id="Grupo_904821" data-name="Grupo 904821">
                    <path id="Trazado_633615" data-name="Trazado 633615" d="M658.548,1995.192a12.965,12.965,0,0,1-2.352-.224l-1.8,3.118-7.442-4.286,1.806-3.12a12.822,12.822,0,0,1-2.349-4.061h-3.614v-8.572h3.614a12.817,12.817,0,0,1,2.349-4.062l-1.806-3.12,7.442-4.287,1.8,3.12a12.471,12.471,0,0,1,4.7,0l1.8-3.12,7.443,4.287-1.806,3.12a12.834,12.834,0,0,1,2.347,4.062H674.3v8.572h-3.614a12.839,12.839,0,0,1-2.347,4.061l1.806,3.12-7.443,4.286-1.8-3.118A12.962,12.962,0,0,1,658.548,1995.192Z" transform="translate(-641.219 -1964.431)" fill="#21cbae"/>
                    <path id="Trazado_633616" data-name="Trazado 633616" d="M662.168,2000.292l-2.057-3.554a13.627,13.627,0,0,1-3.045,0l-2.058,3.554-10.171-5.859,2.06-3.561a14.267,14.267,0,0,1-1.515-2.623h-4.122v-11.723h4.122a14.3,14.3,0,0,1,1.515-2.622l-2.06-3.56,10.171-5.858,2.058,3.554a13.613,13.613,0,0,1,3.045,0l2.057-3.554,10.171,5.858-2.059,3.56a14.3,14.3,0,0,1,1.515,2.622h4.122v11.723h-4.122a14.263,14.263,0,0,1-1.515,2.623l2.059,3.561Zm-.422-7.019,1.574,2.719,4.711-2.714-1.574-2.72.727-.849a11.2,11.2,0,0,0,2.058-3.561l.371-1.05h3.152v-5.421h-3.151l-.372-1.049a11.183,11.183,0,0,0-2.058-3.562l-.727-.849,1.574-2.721-4.711-2.713-1.574,2.719-1.092-.2a10.851,10.851,0,0,0-4.133,0l-1.093.2-1.573-2.719-4.712,2.713,1.575,2.721-.727.849a11.194,11.194,0,0,0-2.058,3.562l-.372,1.049H644.41v5.421h3.15l.372,1.049a11.2,11.2,0,0,0,2.059,3.562l.727.849-1.575,2.72,4.712,2.714,1.573-2.719,1.093.2a10.855,10.855,0,0,0,4.133,0Z" transform="translate(-641.259 -1964.485)"/>
                  </g>
                  <g id="Grupo_904824" data-name="Grupo 904824" transform="translate(12.603 13.176)">
                    <g id="Grupo_904822" data-name="Grupo 904822" transform="translate(3.151)">
                      <rect id="Rectángulo_303388" data-name="Rectángulo 303388" width="3.151" height="9.452"/>
                    </g>
                    <g id="Grupo_904823" data-name="Grupo 904823" transform="translate(0 3.151)">
                      <rect id="Rectángulo_303389" data-name="Rectángulo 303389" width="9.452" height="3.151"/>
                    </g>
                  </g>
                </g>
              </g>
            </g>
          </g>
        </g>
        <g id="Grupo_904830" data-name="Grupo 904830" transform="translate(63.014)">
          <path id="Trazado_633617" data-name="Trazado 633617" d="M732.1,1913.56a12.812,12.812,0,0,0-2.348-4.062l1.806-3.12-7.443-4.287-1.8,3.12a12.47,12.47,0,0,0-4.7,0l-1.8-3.12-7.442,4.287,1.8,3.12a12.832,12.832,0,0,0-2.348,4.062h-3.613v8.572h3.613a12.84,12.84,0,0,0,2.348,4.061l-1.8,3.12,7.442,4.286,1.8-3.118a12.464,12.464,0,0,0,4.7,0l1.8,3.118,7.443-4.286-1.806-3.12a12.819,12.819,0,0,0,2.348-4.061h3.614v-8.572Zm-12.14,9.011a4.726,4.726,0,1,1,4.726-4.726A4.725,4.725,0,0,1,719.965,1922.571Z" transform="translate(-702.636 -1899.942)" fill="#0b5999"/>
          <path id="Trazado_633618" data-name="Trazado 633618" d="M723.585,1935.8l-2.057-3.554a13.613,13.613,0,0,1-3.045,0l-2.058,3.554-10.171-5.859,2.06-3.56a14.265,14.265,0,0,1-1.515-2.622h-4.122v-11.723H706.8a14.3,14.3,0,0,1,1.515-2.622l-2.06-3.56L716.424,1900l2.058,3.555a13.6,13.6,0,0,1,3.045,0l2.057-3.555,10.171,5.859-2.059,3.56a14.3,14.3,0,0,1,1.515,2.622h4.122v11.723h-4.122a14.265,14.265,0,0,1-1.515,2.622l2.059,3.56Zm-.422-7.019,1.574,2.719,4.711-2.714-1.574-2.72.727-.849a11.2,11.2,0,0,0,2.058-3.561l.371-1.05h3.152v-5.422h-3.152l-.371-1.048a11.194,11.194,0,0,0-2.058-3.562l-.727-.849,1.574-2.72-4.711-2.714-1.574,2.718-1.092-.2a10.855,10.855,0,0,0-4.133,0l-1.092.2-1.574-2.718-4.711,2.714,1.574,2.72-.727.849a11.193,11.193,0,0,0-2.058,3.562l-.371,1.048h-3.152v5.422h3.152l.371,1.05a11.2,11.2,0,0,0,2.058,3.561l.727.849-1.574,2.72,4.711,2.714,1.574-2.719,1.092.2a10.855,10.855,0,0,0,4.133,0Zm-3.158-4.584a6.3,6.3,0,1,1,6.3-6.3A6.308,6.308,0,0,1,720.005,1924.2Zm0-9.452a3.151,3.151,0,1,0,3.151,3.151A3.154,3.154,0,0,0,720.005,1914.749Z" transform="translate(-702.676 -1899.996)"/>
        </g>
      </g>
    </g>
  </g>
</svg>
